M48
; DRILL file {KiCad 8.0.0} date 2024-03-17T22:05:48-0300
; FORMAT={-:-/ absolute / metric / decimal}
; #@! TF.CreationDate,2024-03-17T22:05:48-03:00
; #@! TF.GenerationSoftware,Kicad,Pcbnew,8.0.0
; #@! TF.FileFunction,Plated,1,2,PTH
FMAT,2
METRIC
; #@! TA.AperFunction,Plated,PTH,ViaDrill
T1C0.300
; #@! TA.AperFunction,Plated,PTH,ComponentDrill
T2C0.650
; #@! TA.AperFunction,Plated,PTH,ComponentDrill
T3C0.950
; #@! TA.AperFunction,Plated,PTH,ComponentDrill
T4C1.000
; #@! TA.AperFunction,Plated,PTH,ComponentDrill
T5C1.020
; #@! TA.AperFunction,Plated,PTH,ComponentDrill
T6C1.200
; #@! TA.AperFunction,Plated,PTH,ComponentDrill
T7C1.300
; #@! TA.AperFunction,Plated,PTH,ComponentDrill
T8C1.320
%
G90
G05
T1
X76.25Y-98.0
X85.0Y-58.0
X85.25Y-98.0
X87.5Y-83.5
X91.5Y-57.75
X92.0Y-131.5
X107.75Y-95.5
X112.0Y-87.25
X113.0Y-88.75
X115.25Y-70.25
X115.5Y-87.75
X118.0Y-82.75
X121.75Y-94.0
X133.25Y-87.5
T2
X117.5Y-95.23
X117.5Y-96.5
X117.5Y-97.77
T3
X69.5Y-109.0
X69.5Y-111.5
X69.5Y-114.0
X69.5Y-116.5
X69.5Y-123.0
X69.5Y-125.5
X69.5Y-128.0
X69.5Y-130.5
X69.525Y-94.5
X69.525Y-97.0
X69.525Y-99.5
X69.525Y-102.0
X81.5Y-139.0
X83.5Y-45.0
X84.0Y-139.0
X86.0Y-45.0
X86.5Y-139.0
X88.5Y-45.0
X91.0Y-45.0
X93.5Y-45.0
X94.0Y-139.0
X96.0Y-45.0
X96.5Y-139.0
X98.5Y-45.0
X99.0Y-139.0
X101.0Y-45.0
X103.5Y-45.0
X106.0Y-45.0
X107.5Y-117.5
X107.5Y-120.0
X107.5Y-122.5
X107.5Y-131.47
X107.5Y-133.97
X107.5Y-136.47
X108.5Y-45.0
X118.025Y-106.025
X118.025Y-108.525
X118.025Y-111.025
X128.25Y-53.0
X128.25Y-55.5
X128.25Y-58.0
X128.25Y-60.5
X128.275Y-68.25
X128.275Y-70.75
X128.275Y-73.25
X128.275Y-75.75
X128.5Y-90.0
X128.5Y-92.5
X128.5Y-95.0
X128.5Y-97.5
X128.5Y-104.575
X128.5Y-107.075
X128.5Y-109.575
X128.5Y-112.075
T4
X67.42Y-139.0
X69.96Y-139.0
X72.5Y-139.0
X81.25Y-122.75
X83.75Y-122.75
X91.5Y-122.75
X94.0Y-122.75
T5
X80.0Y-54.8
X80.0Y-80.2
X82.54Y-54.8
X82.54Y-80.2
X85.08Y-54.8
X85.08Y-80.2
X87.62Y-54.8
X87.62Y-80.2
X90.16Y-54.8
X90.16Y-80.2
X92.7Y-54.8
X92.7Y-80.2
X95.24Y-54.8
X95.24Y-80.2
X97.78Y-54.8
X97.78Y-80.2
X100.32Y-54.8
X100.32Y-80.2
X102.86Y-54.8
X102.86Y-80.2
X105.4Y-54.8
X105.4Y-80.2
X107.94Y-54.8
X107.94Y-80.2
X110.48Y-54.8
X110.48Y-80.2
X113.02Y-54.8
X113.02Y-80.2
X115.56Y-54.8
X115.56Y-80.2
T6
X82.5Y-66.0
X107.9Y-66.0
T7
X120.5Y-124.76
X120.5Y-137.26
X125.5Y-124.76
X125.5Y-137.26
T8
X87.3Y-93.0
X87.3Y-108.24
X89.84Y-93.0
X89.84Y-108.24
X92.38Y-93.0
X92.38Y-108.24
X94.92Y-93.0
X94.92Y-108.24
X97.46Y-93.0
X97.46Y-108.24
X100.0Y-93.0
X100.0Y-108.24
X102.54Y-93.0
X102.54Y-108.24
X105.08Y-93.0
X105.08Y-108.24
M30
