%TF.GenerationSoftware,KiCad,Pcbnew,8.0.0*%
%TF.CreationDate,2024-03-17T22:05:13-03:00*%
%TF.ProjectId,RescueLineRobot,52657363-7565-44c6-996e-65526f626f74,rev?*%
%TF.SameCoordinates,Original*%
%TF.FileFunction,Soldermask,Bot*%
%TF.FilePolarity,Negative*%
%FSLAX46Y46*%
G04 Gerber Fmt 4.6, Leading zero omitted, Abs format (unit mm)*
G04 Created by KiCad (PCBNEW 8.0.0) date 2024-03-17 22:05:13*
%MOMM*%
%LPD*%
G01*
G04 APERTURE LIST*
G04 Aperture macros list*
%AMRoundRect*
0 Rectangle with rounded corners*
0 $1 Rounding radius*
0 $2 $3 $4 $5 $6 $7 $8 $9 X,Y pos of 4 corners*
0 Add a 4 corners polygon primitive as box body*
4,1,4,$2,$3,$4,$5,$6,$7,$8,$9,$2,$3,0*
0 Add four circle primitives for the rounded corners*
1,1,$1+$1,$2,$3*
1,1,$1+$1,$4,$5*
1,1,$1+$1,$6,$7*
1,1,$1+$1,$8,$9*
0 Add four rect primitives between the rounded corners*
20,1,$1+$1,$2,$3,$4,$5,0*
20,1,$1+$1,$4,$5,$6,$7,0*
20,1,$1+$1,$6,$7,$8,$9,0*
20,1,$1+$1,$8,$9,$2,$3,0*%
G04 Aperture macros list end*
%ADD10RoundRect,0.250000X-0.725000X0.600000X-0.725000X-0.600000X0.725000X-0.600000X0.725000X0.600000X0*%
%ADD11O,1.950000X1.700000*%
%ADD12R,1.950000X1.700000*%
%ADD13O,1.850000X3.048000*%
%ADD14RoundRect,0.250000X-0.600000X-0.725000X0.600000X-0.725000X0.600000X0.725000X-0.600000X0.725000X0*%
%ADD15O,1.700000X1.950000*%
%ADD16C,2.400000*%
%ADD17O,2.400000X2.400000*%
%ADD18O,1.700000X1.700000*%
%ADD19R,1.700000X1.700000*%
%ADD20C,2.184000*%
%ADD21RoundRect,0.102000X0.990000X-0.990000X0.990000X0.990000X-0.990000X0.990000X-0.990000X-0.990000X0*%
%ADD22RoundRect,0.102000X1.000000X-1.000000X1.000000X1.000000X-1.000000X1.000000X-1.000000X-1.000000X0*%
%ADD23C,2.204000*%
%ADD24O,1.000000X1.000000*%
%ADD25O,1.700000X2.000000*%
G04 APERTURE END LIST*
D10*
%TO.C,I2C2*%
X128250000Y-53000000D03*
D11*
X128250000Y-55500000D03*
X128250000Y-58000000D03*
X128250000Y-60500000D03*
%TD*%
%TO.C,RGB2*%
X128500000Y-104575000D03*
D12*
X128500000Y-107075000D03*
D11*
X128500000Y-109575000D03*
X128500000Y-112075000D03*
%TD*%
D13*
%TO.C,Boton*%
X125500000Y-124760000D03*
X125500000Y-137260000D03*
X120500000Y-124760000D03*
X120500000Y-137260000D03*
%TD*%
D11*
%TO.C,RGB1*%
X128500000Y-90000000D03*
D12*
X128500000Y-92500000D03*
D11*
X128500000Y-95000000D03*
X128500000Y-97500000D03*
%TD*%
%TO.C,Laser2*%
X69500000Y-109000000D03*
D12*
X69500000Y-111500000D03*
D11*
X69500000Y-114000000D03*
X69500000Y-116500000D03*
%TD*%
D10*
%TO.C,I2C1*%
X128275000Y-68250000D03*
D11*
X128275000Y-70750000D03*
X128275000Y-73250000D03*
X128275000Y-75750000D03*
%TD*%
D14*
%TO.C,Bateria*%
X94000000Y-139000000D03*
D15*
X96500000Y-139000000D03*
X99000000Y-139000000D03*
%TD*%
D16*
%TO.C,Resistencia1*%
X82500000Y-66000000D03*
D17*
X107900000Y-66000000D03*
%TD*%
D10*
%TO.C,SERVO*%
X118025000Y-106025000D03*
D11*
X118025000Y-108525000D03*
X118025000Y-111025000D03*
%TD*%
%TO.C,Laser3*%
X69500000Y-123000000D03*
D12*
X69500000Y-125500000D03*
D11*
X69500000Y-128000000D03*
X69500000Y-130500000D03*
%TD*%
D18*
%TO.C,Convertidor*%
X67420000Y-139000000D03*
D19*
X69960000Y-139000000D03*
D18*
X72500000Y-139000000D03*
%TD*%
D20*
%TO.C,TB6612FNG*%
X87300000Y-108240000D03*
X89840000Y-108240000D03*
D21*
X92380000Y-108240000D03*
D20*
X94920000Y-108240000D03*
X97460000Y-108240000D03*
X100000000Y-108240000D03*
X102540000Y-108240000D03*
D21*
X105080000Y-108240000D03*
X105080000Y-93000000D03*
D20*
X102540000Y-93000000D03*
X100000000Y-93000000D03*
X97460000Y-93000000D03*
X94920000Y-93000000D03*
X92380000Y-93000000D03*
X89840000Y-93000000D03*
X87300000Y-93000000D03*
%TD*%
D14*
%TO.C,Switch*%
X81500000Y-139000000D03*
D15*
X84000000Y-139000000D03*
X86500000Y-139000000D03*
%TD*%
D22*
%TO.C,Esp32*%
X80000000Y-80200000D03*
D23*
X82540000Y-80200000D03*
X85080000Y-80200000D03*
X87620000Y-80200000D03*
X90160000Y-80200000D03*
X92700000Y-80200000D03*
X95240000Y-80200000D03*
X97780000Y-80200000D03*
X100320000Y-80200000D03*
X102860000Y-80200000D03*
X105400000Y-80200000D03*
X107940000Y-80200000D03*
X110480000Y-80200000D03*
X113020000Y-80200000D03*
X115560000Y-80200000D03*
X115560000Y-54800000D03*
X113020000Y-54800000D03*
X110480000Y-54800000D03*
X107940000Y-54800000D03*
X105400000Y-54800000D03*
X102860000Y-54800000D03*
X100320000Y-54800000D03*
X97780000Y-54800000D03*
X95240000Y-54800000D03*
X92700000Y-54800000D03*
X90160000Y-54800000D03*
X87620000Y-54800000D03*
X85080000Y-54800000D03*
X82540000Y-54800000D03*
X80000000Y-54800000D03*
%TD*%
D11*
%TO.C,Laser1*%
X69525000Y-94500000D03*
D12*
X69525000Y-97000000D03*
D11*
X69525000Y-99500000D03*
X69525000Y-102000000D03*
%TD*%
D24*
%TO.C,SERVOPOWER*%
X117500000Y-95230000D03*
X117500000Y-96500000D03*
X117500000Y-97770000D03*
%TD*%
D10*
%TO.C,EncoderB*%
X107500000Y-131470000D03*
D11*
X107500000Y-133970000D03*
X107500000Y-136470000D03*
%TD*%
D14*
%TO.C,SigueLineas*%
X83500000Y-45000000D03*
D15*
X86000000Y-45000000D03*
X88500000Y-45000000D03*
X91000000Y-45000000D03*
X93500000Y-45000000D03*
X96000000Y-45000000D03*
X98500000Y-45000000D03*
X101000000Y-45000000D03*
X103500000Y-45000000D03*
X106000000Y-45000000D03*
X108500000Y-45000000D03*
%TD*%
D10*
%TO.C,EncoderA*%
X107500000Y-117500000D03*
D11*
X107500000Y-120000000D03*
X107500000Y-122500000D03*
%TD*%
D25*
%TO.C,MotorA1*%
X81250000Y-122750000D03*
X83750000Y-122750000D03*
%TD*%
%TO.C,MotorB1*%
X91500000Y-122750000D03*
X94000000Y-122750000D03*
%TD*%
M02*
