%TF.GenerationSoftware,KiCad,Pcbnew,8.0.0*%
%TF.CreationDate,2024-03-17T22:05:13-03:00*%
%TF.ProjectId,RescueLineRobot,52657363-7565-44c6-996e-65526f626f74,rev?*%
%TF.SameCoordinates,Original*%
%TF.FileFunction,Legend,Top*%
%TF.FilePolarity,Positive*%
%FSLAX46Y46*%
G04 Gerber Fmt 4.6, Leading zero omitted, Abs format (unit mm)*
G04 Created by KiCad (PCBNEW 8.0.0) date 2024-03-17 22:05:13*
%MOMM*%
%LPD*%
G01*
G04 APERTURE LIST*
G04 Aperture macros list*
%AMRoundRect*
0 Rectangle with rounded corners*
0 $1 Rounding radius*
0 $2 $3 $4 $5 $6 $7 $8 $9 X,Y pos of 4 corners*
0 Add a 4 corners polygon primitive as box body*
4,1,4,$2,$3,$4,$5,$6,$7,$8,$9,$2,$3,0*
0 Add four circle primitives for the rounded corners*
1,1,$1+$1,$2,$3*
1,1,$1+$1,$4,$5*
1,1,$1+$1,$6,$7*
1,1,$1+$1,$8,$9*
0 Add four rect primitives between the rounded corners*
20,1,$1+$1,$2,$3,$4,$5,0*
20,1,$1+$1,$4,$5,$6,$7,0*
20,1,$1+$1,$6,$7,$8,$9,0*
20,1,$1+$1,$8,$9,$2,$3,0*%
G04 Aperture macros list end*
%ADD10C,0.050000*%
%ADD11C,0.150000*%
%ADD12C,0.120000*%
%ADD13C,0.127000*%
%ADD14C,0.100000*%
%ADD15C,0.200000*%
%ADD16RoundRect,0.250000X-0.725000X0.600000X-0.725000X-0.600000X0.725000X-0.600000X0.725000X0.600000X0*%
%ADD17O,1.950000X1.700000*%
%ADD18R,1.950000X1.700000*%
%ADD19O,1.850000X3.048000*%
%ADD20RoundRect,0.250000X-0.600000X-0.725000X0.600000X-0.725000X0.600000X0.725000X-0.600000X0.725000X0*%
%ADD21O,1.700000X1.950000*%
%ADD22C,2.400000*%
%ADD23O,2.400000X2.400000*%
%ADD24O,1.700000X1.700000*%
%ADD25R,1.700000X1.700000*%
%ADD26C,2.184000*%
%ADD27RoundRect,0.102000X0.990000X-0.990000X0.990000X0.990000X-0.990000X0.990000X-0.990000X-0.990000X0*%
%ADD28RoundRect,0.102000X1.000000X-1.000000X1.000000X1.000000X-1.000000X1.000000X-1.000000X-1.000000X0*%
%ADD29C,2.204000*%
%ADD30O,1.000000X1.000000*%
%ADD31O,1.700000X2.000000*%
G04 APERTURE END LIST*
D10*
X84000000Y-136500000D02*
X84000000Y-135500000D01*
X84000000Y-135500000D02*
X86500000Y-135500000D01*
X86500000Y-135500000D02*
X86500000Y-136500000D01*
D11*
X63917438Y-125139411D02*
X63869819Y-125234649D01*
X63869819Y-125234649D02*
X63869819Y-125377506D01*
X63869819Y-125377506D02*
X63917438Y-125520363D01*
X63917438Y-125520363D02*
X64012676Y-125615601D01*
X64012676Y-125615601D02*
X64107914Y-125663220D01*
X64107914Y-125663220D02*
X64298390Y-125710839D01*
X64298390Y-125710839D02*
X64441247Y-125710839D01*
X64441247Y-125710839D02*
X64631723Y-125663220D01*
X64631723Y-125663220D02*
X64726961Y-125615601D01*
X64726961Y-125615601D02*
X64822200Y-125520363D01*
X64822200Y-125520363D02*
X64869819Y-125377506D01*
X64869819Y-125377506D02*
X64869819Y-125282268D01*
X64869819Y-125282268D02*
X64822200Y-125139411D01*
X64822200Y-125139411D02*
X64774580Y-125091792D01*
X64774580Y-125091792D02*
X64441247Y-125091792D01*
X64441247Y-125091792D02*
X64441247Y-125282268D01*
X64869819Y-124663220D02*
X63869819Y-124663220D01*
X63869819Y-124663220D02*
X64869819Y-124091792D01*
X64869819Y-124091792D02*
X63869819Y-124091792D01*
X64869819Y-123615601D02*
X63869819Y-123615601D01*
X63869819Y-123615601D02*
X63869819Y-123377506D01*
X63869819Y-123377506D02*
X63917438Y-123234649D01*
X63917438Y-123234649D02*
X64012676Y-123139411D01*
X64012676Y-123139411D02*
X64107914Y-123091792D01*
X64107914Y-123091792D02*
X64298390Y-123044173D01*
X64298390Y-123044173D02*
X64441247Y-123044173D01*
X64441247Y-123044173D02*
X64631723Y-123091792D01*
X64631723Y-123091792D02*
X64726961Y-123139411D01*
X64726961Y-123139411D02*
X64822200Y-123234649D01*
X64822200Y-123234649D02*
X64869819Y-123377506D01*
X64869819Y-123377506D02*
X64869819Y-123615601D01*
X122917438Y-70639411D02*
X122869819Y-70734649D01*
X122869819Y-70734649D02*
X122869819Y-70877506D01*
X122869819Y-70877506D02*
X122917438Y-71020363D01*
X122917438Y-71020363D02*
X123012676Y-71115601D01*
X123012676Y-71115601D02*
X123107914Y-71163220D01*
X123107914Y-71163220D02*
X123298390Y-71210839D01*
X123298390Y-71210839D02*
X123441247Y-71210839D01*
X123441247Y-71210839D02*
X123631723Y-71163220D01*
X123631723Y-71163220D02*
X123726961Y-71115601D01*
X123726961Y-71115601D02*
X123822200Y-71020363D01*
X123822200Y-71020363D02*
X123869819Y-70877506D01*
X123869819Y-70877506D02*
X123869819Y-70782268D01*
X123869819Y-70782268D02*
X123822200Y-70639411D01*
X123822200Y-70639411D02*
X123774580Y-70591792D01*
X123774580Y-70591792D02*
X123441247Y-70591792D01*
X123441247Y-70591792D02*
X123441247Y-70782268D01*
X123869819Y-70163220D02*
X122869819Y-70163220D01*
X122869819Y-70163220D02*
X123869819Y-69591792D01*
X123869819Y-69591792D02*
X122869819Y-69591792D01*
X123869819Y-69115601D02*
X122869819Y-69115601D01*
X122869819Y-69115601D02*
X122869819Y-68877506D01*
X122869819Y-68877506D02*
X122917438Y-68734649D01*
X122917438Y-68734649D02*
X123012676Y-68639411D01*
X123012676Y-68639411D02*
X123107914Y-68591792D01*
X123107914Y-68591792D02*
X123298390Y-68544173D01*
X123298390Y-68544173D02*
X123441247Y-68544173D01*
X123441247Y-68544173D02*
X123631723Y-68591792D01*
X123631723Y-68591792D02*
X123726961Y-68639411D01*
X123726961Y-68639411D02*
X123822200Y-68734649D01*
X123822200Y-68734649D02*
X123869819Y-68877506D01*
X123869819Y-68877506D02*
X123869819Y-69115601D01*
X72336779Y-136369819D02*
X72336779Y-135369819D01*
X72812969Y-136369819D02*
X72812969Y-135369819D01*
X72812969Y-135369819D02*
X73384397Y-136369819D01*
X73384397Y-136369819D02*
X73384397Y-135369819D01*
X73860588Y-135988866D02*
X74622493Y-135988866D01*
X74241540Y-136369819D02*
X74241540Y-135607914D01*
X81027255Y-134369819D02*
X81217731Y-134369819D01*
X81217731Y-134369819D02*
X81312969Y-134417438D01*
X81312969Y-134417438D02*
X81408207Y-134512676D01*
X81408207Y-134512676D02*
X81455826Y-134703152D01*
X81455826Y-134703152D02*
X81455826Y-135036485D01*
X81455826Y-135036485D02*
X81408207Y-135226961D01*
X81408207Y-135226961D02*
X81312969Y-135322200D01*
X81312969Y-135322200D02*
X81217731Y-135369819D01*
X81217731Y-135369819D02*
X81027255Y-135369819D01*
X81027255Y-135369819D02*
X80932017Y-135322200D01*
X80932017Y-135322200D02*
X80836779Y-135226961D01*
X80836779Y-135226961D02*
X80789160Y-135036485D01*
X80789160Y-135036485D02*
X80789160Y-134703152D01*
X80789160Y-134703152D02*
X80836779Y-134512676D01*
X80836779Y-134512676D02*
X80932017Y-134417438D01*
X80932017Y-134417438D02*
X81027255Y-134369819D01*
X82217731Y-134846009D02*
X81884398Y-134846009D01*
X81884398Y-135369819D02*
X81884398Y-134369819D01*
X81884398Y-134369819D02*
X82360588Y-134369819D01*
X83074874Y-134846009D02*
X82741541Y-134846009D01*
X82741541Y-135369819D02*
X82741541Y-134369819D01*
X82741541Y-134369819D02*
X83217731Y-134369819D01*
X124072200Y-96210839D02*
X124119819Y-96067982D01*
X124119819Y-96067982D02*
X124119819Y-95829887D01*
X124119819Y-95829887D02*
X124072200Y-95734649D01*
X124072200Y-95734649D02*
X124024580Y-95687030D01*
X124024580Y-95687030D02*
X123929342Y-95639411D01*
X123929342Y-95639411D02*
X123834104Y-95639411D01*
X123834104Y-95639411D02*
X123738866Y-95687030D01*
X123738866Y-95687030D02*
X123691247Y-95734649D01*
X123691247Y-95734649D02*
X123643628Y-95829887D01*
X123643628Y-95829887D02*
X123596009Y-96020363D01*
X123596009Y-96020363D02*
X123548390Y-96115601D01*
X123548390Y-96115601D02*
X123500771Y-96163220D01*
X123500771Y-96163220D02*
X123405533Y-96210839D01*
X123405533Y-96210839D02*
X123310295Y-96210839D01*
X123310295Y-96210839D02*
X123215057Y-96163220D01*
X123215057Y-96163220D02*
X123167438Y-96115601D01*
X123167438Y-96115601D02*
X123119819Y-96020363D01*
X123119819Y-96020363D02*
X123119819Y-95782268D01*
X123119819Y-95782268D02*
X123167438Y-95639411D01*
X124024580Y-94639411D02*
X124072200Y-94687030D01*
X124072200Y-94687030D02*
X124119819Y-94829887D01*
X124119819Y-94829887D02*
X124119819Y-94925125D01*
X124119819Y-94925125D02*
X124072200Y-95067982D01*
X124072200Y-95067982D02*
X123976961Y-95163220D01*
X123976961Y-95163220D02*
X123881723Y-95210839D01*
X123881723Y-95210839D02*
X123691247Y-95258458D01*
X123691247Y-95258458D02*
X123548390Y-95258458D01*
X123548390Y-95258458D02*
X123357914Y-95210839D01*
X123357914Y-95210839D02*
X123262676Y-95163220D01*
X123262676Y-95163220D02*
X123167438Y-95067982D01*
X123167438Y-95067982D02*
X123119819Y-94925125D01*
X123119819Y-94925125D02*
X123119819Y-94829887D01*
X123119819Y-94829887D02*
X123167438Y-94687030D01*
X123167438Y-94687030D02*
X123215057Y-94639411D01*
X124119819Y-93734649D02*
X124119819Y-94210839D01*
X124119819Y-94210839D02*
X123119819Y-94210839D01*
X123167438Y-106889411D02*
X123119819Y-106984649D01*
X123119819Y-106984649D02*
X123119819Y-107127506D01*
X123119819Y-107127506D02*
X123167438Y-107270363D01*
X123167438Y-107270363D02*
X123262676Y-107365601D01*
X123262676Y-107365601D02*
X123357914Y-107413220D01*
X123357914Y-107413220D02*
X123548390Y-107460839D01*
X123548390Y-107460839D02*
X123691247Y-107460839D01*
X123691247Y-107460839D02*
X123881723Y-107413220D01*
X123881723Y-107413220D02*
X123976961Y-107365601D01*
X123976961Y-107365601D02*
X124072200Y-107270363D01*
X124072200Y-107270363D02*
X124119819Y-107127506D01*
X124119819Y-107127506D02*
X124119819Y-107032268D01*
X124119819Y-107032268D02*
X124072200Y-106889411D01*
X124072200Y-106889411D02*
X124024580Y-106841792D01*
X124024580Y-106841792D02*
X123691247Y-106841792D01*
X123691247Y-106841792D02*
X123691247Y-107032268D01*
X124119819Y-106413220D02*
X123119819Y-106413220D01*
X123119819Y-106413220D02*
X124119819Y-105841792D01*
X124119819Y-105841792D02*
X123119819Y-105841792D01*
X124119819Y-105365601D02*
X123119819Y-105365601D01*
X123119819Y-105365601D02*
X123119819Y-105127506D01*
X123119819Y-105127506D02*
X123167438Y-104984649D01*
X123167438Y-104984649D02*
X123262676Y-104889411D01*
X123262676Y-104889411D02*
X123357914Y-104841792D01*
X123357914Y-104841792D02*
X123548390Y-104794173D01*
X123548390Y-104794173D02*
X123691247Y-104794173D01*
X123691247Y-104794173D02*
X123881723Y-104841792D01*
X123881723Y-104841792D02*
X123976961Y-104889411D01*
X123976961Y-104889411D02*
X124072200Y-104984649D01*
X124072200Y-104984649D02*
X124119819Y-105127506D01*
X124119819Y-105127506D02*
X124119819Y-105365601D01*
X63869819Y-107687030D02*
X63869819Y-108163220D01*
X63869819Y-108163220D02*
X64346009Y-108210839D01*
X64346009Y-108210839D02*
X64298390Y-108163220D01*
X64298390Y-108163220D02*
X64250771Y-108067982D01*
X64250771Y-108067982D02*
X64250771Y-107829887D01*
X64250771Y-107829887D02*
X64298390Y-107734649D01*
X64298390Y-107734649D02*
X64346009Y-107687030D01*
X64346009Y-107687030D02*
X64441247Y-107639411D01*
X64441247Y-107639411D02*
X64679342Y-107639411D01*
X64679342Y-107639411D02*
X64774580Y-107687030D01*
X64774580Y-107687030D02*
X64822200Y-107734649D01*
X64822200Y-107734649D02*
X64869819Y-107829887D01*
X64869819Y-107829887D02*
X64869819Y-108067982D01*
X64869819Y-108067982D02*
X64822200Y-108163220D01*
X64822200Y-108163220D02*
X64774580Y-108210839D01*
X63869819Y-107353696D02*
X64869819Y-107020363D01*
X64869819Y-107020363D02*
X63869819Y-106687030D01*
X64822200Y-115210839D02*
X64869819Y-115067982D01*
X64869819Y-115067982D02*
X64869819Y-114829887D01*
X64869819Y-114829887D02*
X64822200Y-114734649D01*
X64822200Y-114734649D02*
X64774580Y-114687030D01*
X64774580Y-114687030D02*
X64679342Y-114639411D01*
X64679342Y-114639411D02*
X64584104Y-114639411D01*
X64584104Y-114639411D02*
X64488866Y-114687030D01*
X64488866Y-114687030D02*
X64441247Y-114734649D01*
X64441247Y-114734649D02*
X64393628Y-114829887D01*
X64393628Y-114829887D02*
X64346009Y-115020363D01*
X64346009Y-115020363D02*
X64298390Y-115115601D01*
X64298390Y-115115601D02*
X64250771Y-115163220D01*
X64250771Y-115163220D02*
X64155533Y-115210839D01*
X64155533Y-115210839D02*
X64060295Y-115210839D01*
X64060295Y-115210839D02*
X63965057Y-115163220D01*
X63965057Y-115163220D02*
X63917438Y-115115601D01*
X63917438Y-115115601D02*
X63869819Y-115020363D01*
X63869819Y-115020363D02*
X63869819Y-114782268D01*
X63869819Y-114782268D02*
X63917438Y-114639411D01*
X64774580Y-113639411D02*
X64822200Y-113687030D01*
X64822200Y-113687030D02*
X64869819Y-113829887D01*
X64869819Y-113829887D02*
X64869819Y-113925125D01*
X64869819Y-113925125D02*
X64822200Y-114067982D01*
X64822200Y-114067982D02*
X64726961Y-114163220D01*
X64726961Y-114163220D02*
X64631723Y-114210839D01*
X64631723Y-114210839D02*
X64441247Y-114258458D01*
X64441247Y-114258458D02*
X64298390Y-114258458D01*
X64298390Y-114258458D02*
X64107914Y-114210839D01*
X64107914Y-114210839D02*
X64012676Y-114163220D01*
X64012676Y-114163220D02*
X63917438Y-114067982D01*
X63917438Y-114067982D02*
X63869819Y-113925125D01*
X63869819Y-113925125D02*
X63869819Y-113829887D01*
X63869819Y-113829887D02*
X63917438Y-113687030D01*
X63917438Y-113687030D02*
X63965057Y-113639411D01*
X64869819Y-112734649D02*
X64869819Y-113210839D01*
X64869819Y-113210839D02*
X63869819Y-113210839D01*
X84527255Y-134369819D02*
X84717731Y-134369819D01*
X84717731Y-134369819D02*
X84812969Y-134417438D01*
X84812969Y-134417438D02*
X84908207Y-134512676D01*
X84908207Y-134512676D02*
X84955826Y-134703152D01*
X84955826Y-134703152D02*
X84955826Y-135036485D01*
X84955826Y-135036485D02*
X84908207Y-135226961D01*
X84908207Y-135226961D02*
X84812969Y-135322200D01*
X84812969Y-135322200D02*
X84717731Y-135369819D01*
X84717731Y-135369819D02*
X84527255Y-135369819D01*
X84527255Y-135369819D02*
X84432017Y-135322200D01*
X84432017Y-135322200D02*
X84336779Y-135226961D01*
X84336779Y-135226961D02*
X84289160Y-135036485D01*
X84289160Y-135036485D02*
X84289160Y-134703152D01*
X84289160Y-134703152D02*
X84336779Y-134512676D01*
X84336779Y-134512676D02*
X84432017Y-134417438D01*
X84432017Y-134417438D02*
X84527255Y-134369819D01*
X85384398Y-135369819D02*
X85384398Y-134369819D01*
X85384398Y-134369819D02*
X85955826Y-135369819D01*
X85955826Y-135369819D02*
X85955826Y-134369819D01*
X114619819Y-94687030D02*
X114619819Y-95163220D01*
X114619819Y-95163220D02*
X115096009Y-95210839D01*
X115096009Y-95210839D02*
X115048390Y-95163220D01*
X115048390Y-95163220D02*
X115000771Y-95067982D01*
X115000771Y-95067982D02*
X115000771Y-94829887D01*
X115000771Y-94829887D02*
X115048390Y-94734649D01*
X115048390Y-94734649D02*
X115096009Y-94687030D01*
X115096009Y-94687030D02*
X115191247Y-94639411D01*
X115191247Y-94639411D02*
X115429342Y-94639411D01*
X115429342Y-94639411D02*
X115524580Y-94687030D01*
X115524580Y-94687030D02*
X115572200Y-94734649D01*
X115572200Y-94734649D02*
X115619819Y-94829887D01*
X115619819Y-94829887D02*
X115619819Y-95067982D01*
X115619819Y-95067982D02*
X115572200Y-95163220D01*
X115572200Y-95163220D02*
X115524580Y-95210839D01*
X114619819Y-94353696D02*
X115619819Y-94020363D01*
X115619819Y-94020363D02*
X114619819Y-93687030D01*
X63917438Y-111139411D02*
X63869819Y-111234649D01*
X63869819Y-111234649D02*
X63869819Y-111377506D01*
X63869819Y-111377506D02*
X63917438Y-111520363D01*
X63917438Y-111520363D02*
X64012676Y-111615601D01*
X64012676Y-111615601D02*
X64107914Y-111663220D01*
X64107914Y-111663220D02*
X64298390Y-111710839D01*
X64298390Y-111710839D02*
X64441247Y-111710839D01*
X64441247Y-111710839D02*
X64631723Y-111663220D01*
X64631723Y-111663220D02*
X64726961Y-111615601D01*
X64726961Y-111615601D02*
X64822200Y-111520363D01*
X64822200Y-111520363D02*
X64869819Y-111377506D01*
X64869819Y-111377506D02*
X64869819Y-111282268D01*
X64869819Y-111282268D02*
X64822200Y-111139411D01*
X64822200Y-111139411D02*
X64774580Y-111091792D01*
X64774580Y-111091792D02*
X64441247Y-111091792D01*
X64441247Y-111091792D02*
X64441247Y-111282268D01*
X64869819Y-110663220D02*
X63869819Y-110663220D01*
X63869819Y-110663220D02*
X64869819Y-110091792D01*
X64869819Y-110091792D02*
X63869819Y-110091792D01*
X64869819Y-109615601D02*
X63869819Y-109615601D01*
X63869819Y-109615601D02*
X63869819Y-109377506D01*
X63869819Y-109377506D02*
X63917438Y-109234649D01*
X63917438Y-109234649D02*
X64012676Y-109139411D01*
X64012676Y-109139411D02*
X64107914Y-109091792D01*
X64107914Y-109091792D02*
X64298390Y-109044173D01*
X64298390Y-109044173D02*
X64441247Y-109044173D01*
X64441247Y-109044173D02*
X64631723Y-109091792D01*
X64631723Y-109091792D02*
X64726961Y-109139411D01*
X64726961Y-109139411D02*
X64822200Y-109234649D01*
X64822200Y-109234649D02*
X64869819Y-109377506D01*
X64869819Y-109377506D02*
X64869819Y-109615601D01*
X124072200Y-99710839D02*
X124119819Y-99567982D01*
X124119819Y-99567982D02*
X124119819Y-99329887D01*
X124119819Y-99329887D02*
X124072200Y-99234649D01*
X124072200Y-99234649D02*
X124024580Y-99187030D01*
X124024580Y-99187030D02*
X123929342Y-99139411D01*
X123929342Y-99139411D02*
X123834104Y-99139411D01*
X123834104Y-99139411D02*
X123738866Y-99187030D01*
X123738866Y-99187030D02*
X123691247Y-99234649D01*
X123691247Y-99234649D02*
X123643628Y-99329887D01*
X123643628Y-99329887D02*
X123596009Y-99520363D01*
X123596009Y-99520363D02*
X123548390Y-99615601D01*
X123548390Y-99615601D02*
X123500771Y-99663220D01*
X123500771Y-99663220D02*
X123405533Y-99710839D01*
X123405533Y-99710839D02*
X123310295Y-99710839D01*
X123310295Y-99710839D02*
X123215057Y-99663220D01*
X123215057Y-99663220D02*
X123167438Y-99615601D01*
X123167438Y-99615601D02*
X123119819Y-99520363D01*
X123119819Y-99520363D02*
X123119819Y-99282268D01*
X123119819Y-99282268D02*
X123167438Y-99139411D01*
X124119819Y-98710839D02*
X123119819Y-98710839D01*
X123119819Y-98710839D02*
X123119819Y-98472744D01*
X123119819Y-98472744D02*
X123167438Y-98329887D01*
X123167438Y-98329887D02*
X123262676Y-98234649D01*
X123262676Y-98234649D02*
X123357914Y-98187030D01*
X123357914Y-98187030D02*
X123548390Y-98139411D01*
X123548390Y-98139411D02*
X123691247Y-98139411D01*
X123691247Y-98139411D02*
X123881723Y-98187030D01*
X123881723Y-98187030D02*
X123976961Y-98234649D01*
X123976961Y-98234649D02*
X124072200Y-98329887D01*
X124072200Y-98329887D02*
X124119819Y-98472744D01*
X124119819Y-98472744D02*
X124119819Y-98710839D01*
X123834104Y-97758458D02*
X123834104Y-97282268D01*
X124119819Y-97853696D02*
X123119819Y-97520363D01*
X123119819Y-97520363D02*
X124119819Y-97187030D01*
X63394819Y-93187030D02*
X63394819Y-93663220D01*
X63394819Y-93663220D02*
X63871009Y-93710839D01*
X63871009Y-93710839D02*
X63823390Y-93663220D01*
X63823390Y-93663220D02*
X63775771Y-93567982D01*
X63775771Y-93567982D02*
X63775771Y-93329887D01*
X63775771Y-93329887D02*
X63823390Y-93234649D01*
X63823390Y-93234649D02*
X63871009Y-93187030D01*
X63871009Y-93187030D02*
X63966247Y-93139411D01*
X63966247Y-93139411D02*
X64204342Y-93139411D01*
X64204342Y-93139411D02*
X64299580Y-93187030D01*
X64299580Y-93187030D02*
X64347200Y-93234649D01*
X64347200Y-93234649D02*
X64394819Y-93329887D01*
X64394819Y-93329887D02*
X64394819Y-93567982D01*
X64394819Y-93567982D02*
X64347200Y-93663220D01*
X64347200Y-93663220D02*
X64299580Y-93710839D01*
X63394819Y-92853696D02*
X64394819Y-92520363D01*
X64394819Y-92520363D02*
X63394819Y-92187030D01*
X113869819Y-112913220D02*
X112869819Y-112913220D01*
X112869819Y-112913220D02*
X112869819Y-112675125D01*
X112869819Y-112675125D02*
X112917438Y-112532268D01*
X112917438Y-112532268D02*
X113012676Y-112437030D01*
X113012676Y-112437030D02*
X113107914Y-112389411D01*
X113107914Y-112389411D02*
X113298390Y-112341792D01*
X113298390Y-112341792D02*
X113441247Y-112341792D01*
X113441247Y-112341792D02*
X113631723Y-112389411D01*
X113631723Y-112389411D02*
X113726961Y-112437030D01*
X113726961Y-112437030D02*
X113822200Y-112532268D01*
X113822200Y-112532268D02*
X113869819Y-112675125D01*
X113869819Y-112675125D02*
X113869819Y-112913220D01*
X112965057Y-111960839D02*
X112917438Y-111913220D01*
X112917438Y-111913220D02*
X112869819Y-111817982D01*
X112869819Y-111817982D02*
X112869819Y-111579887D01*
X112869819Y-111579887D02*
X112917438Y-111484649D01*
X112917438Y-111484649D02*
X112965057Y-111437030D01*
X112965057Y-111437030D02*
X113060295Y-111389411D01*
X113060295Y-111389411D02*
X113155533Y-111389411D01*
X113155533Y-111389411D02*
X113298390Y-111437030D01*
X113298390Y-111437030D02*
X113869819Y-112008458D01*
X113869819Y-112008458D02*
X113869819Y-111389411D01*
X112869819Y-111056077D02*
X112869819Y-110437030D01*
X112869819Y-110437030D02*
X113250771Y-110770363D01*
X113250771Y-110770363D02*
X113250771Y-110627506D01*
X113250771Y-110627506D02*
X113298390Y-110532268D01*
X113298390Y-110532268D02*
X113346009Y-110484649D01*
X113346009Y-110484649D02*
X113441247Y-110437030D01*
X113441247Y-110437030D02*
X113679342Y-110437030D01*
X113679342Y-110437030D02*
X113774580Y-110484649D01*
X113774580Y-110484649D02*
X113822200Y-110532268D01*
X113822200Y-110532268D02*
X113869819Y-110627506D01*
X113869819Y-110627506D02*
X113869819Y-110913220D01*
X113869819Y-110913220D02*
X113822200Y-111008458D01*
X113822200Y-111008458D02*
X113774580Y-111056077D01*
X64822200Y-129210839D02*
X64869819Y-129067982D01*
X64869819Y-129067982D02*
X64869819Y-128829887D01*
X64869819Y-128829887D02*
X64822200Y-128734649D01*
X64822200Y-128734649D02*
X64774580Y-128687030D01*
X64774580Y-128687030D02*
X64679342Y-128639411D01*
X64679342Y-128639411D02*
X64584104Y-128639411D01*
X64584104Y-128639411D02*
X64488866Y-128687030D01*
X64488866Y-128687030D02*
X64441247Y-128734649D01*
X64441247Y-128734649D02*
X64393628Y-128829887D01*
X64393628Y-128829887D02*
X64346009Y-129020363D01*
X64346009Y-129020363D02*
X64298390Y-129115601D01*
X64298390Y-129115601D02*
X64250771Y-129163220D01*
X64250771Y-129163220D02*
X64155533Y-129210839D01*
X64155533Y-129210839D02*
X64060295Y-129210839D01*
X64060295Y-129210839D02*
X63965057Y-129163220D01*
X63965057Y-129163220D02*
X63917438Y-129115601D01*
X63917438Y-129115601D02*
X63869819Y-129020363D01*
X63869819Y-129020363D02*
X63869819Y-128782268D01*
X63869819Y-128782268D02*
X63917438Y-128639411D01*
X64774580Y-127639411D02*
X64822200Y-127687030D01*
X64822200Y-127687030D02*
X64869819Y-127829887D01*
X64869819Y-127829887D02*
X64869819Y-127925125D01*
X64869819Y-127925125D02*
X64822200Y-128067982D01*
X64822200Y-128067982D02*
X64726961Y-128163220D01*
X64726961Y-128163220D02*
X64631723Y-128210839D01*
X64631723Y-128210839D02*
X64441247Y-128258458D01*
X64441247Y-128258458D02*
X64298390Y-128258458D01*
X64298390Y-128258458D02*
X64107914Y-128210839D01*
X64107914Y-128210839D02*
X64012676Y-128163220D01*
X64012676Y-128163220D02*
X63917438Y-128067982D01*
X63917438Y-128067982D02*
X63869819Y-127925125D01*
X63869819Y-127925125D02*
X63869819Y-127829887D01*
X63869819Y-127829887D02*
X63917438Y-127687030D01*
X63917438Y-127687030D02*
X63965057Y-127639411D01*
X64869819Y-126734649D02*
X64869819Y-127210839D01*
X64869819Y-127210839D02*
X63869819Y-127210839D01*
X123822200Y-74710839D02*
X123869819Y-74567982D01*
X123869819Y-74567982D02*
X123869819Y-74329887D01*
X123869819Y-74329887D02*
X123822200Y-74234649D01*
X123822200Y-74234649D02*
X123774580Y-74187030D01*
X123774580Y-74187030D02*
X123679342Y-74139411D01*
X123679342Y-74139411D02*
X123584104Y-74139411D01*
X123584104Y-74139411D02*
X123488866Y-74187030D01*
X123488866Y-74187030D02*
X123441247Y-74234649D01*
X123441247Y-74234649D02*
X123393628Y-74329887D01*
X123393628Y-74329887D02*
X123346009Y-74520363D01*
X123346009Y-74520363D02*
X123298390Y-74615601D01*
X123298390Y-74615601D02*
X123250771Y-74663220D01*
X123250771Y-74663220D02*
X123155533Y-74710839D01*
X123155533Y-74710839D02*
X123060295Y-74710839D01*
X123060295Y-74710839D02*
X122965057Y-74663220D01*
X122965057Y-74663220D02*
X122917438Y-74615601D01*
X122917438Y-74615601D02*
X122869819Y-74520363D01*
X122869819Y-74520363D02*
X122869819Y-74282268D01*
X122869819Y-74282268D02*
X122917438Y-74139411D01*
X123774580Y-73139411D02*
X123822200Y-73187030D01*
X123822200Y-73187030D02*
X123869819Y-73329887D01*
X123869819Y-73329887D02*
X123869819Y-73425125D01*
X123869819Y-73425125D02*
X123822200Y-73567982D01*
X123822200Y-73567982D02*
X123726961Y-73663220D01*
X123726961Y-73663220D02*
X123631723Y-73710839D01*
X123631723Y-73710839D02*
X123441247Y-73758458D01*
X123441247Y-73758458D02*
X123298390Y-73758458D01*
X123298390Y-73758458D02*
X123107914Y-73710839D01*
X123107914Y-73710839D02*
X123012676Y-73663220D01*
X123012676Y-73663220D02*
X122917438Y-73567982D01*
X122917438Y-73567982D02*
X122869819Y-73425125D01*
X122869819Y-73425125D02*
X122869819Y-73329887D01*
X122869819Y-73329887D02*
X122917438Y-73187030D01*
X122917438Y-73187030D02*
X122965057Y-73139411D01*
X123869819Y-72234649D02*
X123869819Y-72710839D01*
X123869819Y-72710839D02*
X122869819Y-72710839D01*
X65527255Y-135369819D02*
X65717731Y-135369819D01*
X65717731Y-135369819D02*
X65812969Y-135417438D01*
X65812969Y-135417438D02*
X65908207Y-135512676D01*
X65908207Y-135512676D02*
X65955826Y-135703152D01*
X65955826Y-135703152D02*
X65955826Y-136036485D01*
X65955826Y-136036485D02*
X65908207Y-136226961D01*
X65908207Y-136226961D02*
X65812969Y-136322200D01*
X65812969Y-136322200D02*
X65717731Y-136369819D01*
X65717731Y-136369819D02*
X65527255Y-136369819D01*
X65527255Y-136369819D02*
X65432017Y-136322200D01*
X65432017Y-136322200D02*
X65336779Y-136226961D01*
X65336779Y-136226961D02*
X65289160Y-136036485D01*
X65289160Y-136036485D02*
X65289160Y-135703152D01*
X65289160Y-135703152D02*
X65336779Y-135512676D01*
X65336779Y-135512676D02*
X65432017Y-135417438D01*
X65432017Y-135417438D02*
X65527255Y-135369819D01*
X66384398Y-135369819D02*
X66384398Y-136179342D01*
X66384398Y-136179342D02*
X66432017Y-136274580D01*
X66432017Y-136274580D02*
X66479636Y-136322200D01*
X66479636Y-136322200D02*
X66574874Y-136369819D01*
X66574874Y-136369819D02*
X66765350Y-136369819D01*
X66765350Y-136369819D02*
X66860588Y-136322200D01*
X66860588Y-136322200D02*
X66908207Y-136274580D01*
X66908207Y-136274580D02*
X66955826Y-136179342D01*
X66955826Y-136179342D02*
X66955826Y-135369819D01*
X67289160Y-135369819D02*
X67860588Y-135369819D01*
X67574874Y-136369819D02*
X67574874Y-135369819D01*
X124072200Y-110960839D02*
X124119819Y-110817982D01*
X124119819Y-110817982D02*
X124119819Y-110579887D01*
X124119819Y-110579887D02*
X124072200Y-110484649D01*
X124072200Y-110484649D02*
X124024580Y-110437030D01*
X124024580Y-110437030D02*
X123929342Y-110389411D01*
X123929342Y-110389411D02*
X123834104Y-110389411D01*
X123834104Y-110389411D02*
X123738866Y-110437030D01*
X123738866Y-110437030D02*
X123691247Y-110484649D01*
X123691247Y-110484649D02*
X123643628Y-110579887D01*
X123643628Y-110579887D02*
X123596009Y-110770363D01*
X123596009Y-110770363D02*
X123548390Y-110865601D01*
X123548390Y-110865601D02*
X123500771Y-110913220D01*
X123500771Y-110913220D02*
X123405533Y-110960839D01*
X123405533Y-110960839D02*
X123310295Y-110960839D01*
X123310295Y-110960839D02*
X123215057Y-110913220D01*
X123215057Y-110913220D02*
X123167438Y-110865601D01*
X123167438Y-110865601D02*
X123119819Y-110770363D01*
X123119819Y-110770363D02*
X123119819Y-110532268D01*
X123119819Y-110532268D02*
X123167438Y-110389411D01*
X124024580Y-109389411D02*
X124072200Y-109437030D01*
X124072200Y-109437030D02*
X124119819Y-109579887D01*
X124119819Y-109579887D02*
X124119819Y-109675125D01*
X124119819Y-109675125D02*
X124072200Y-109817982D01*
X124072200Y-109817982D02*
X123976961Y-109913220D01*
X123976961Y-109913220D02*
X123881723Y-109960839D01*
X123881723Y-109960839D02*
X123691247Y-110008458D01*
X123691247Y-110008458D02*
X123548390Y-110008458D01*
X123548390Y-110008458D02*
X123357914Y-109960839D01*
X123357914Y-109960839D02*
X123262676Y-109913220D01*
X123262676Y-109913220D02*
X123167438Y-109817982D01*
X123167438Y-109817982D02*
X123119819Y-109675125D01*
X123119819Y-109675125D02*
X123119819Y-109579887D01*
X123119819Y-109579887D02*
X123167438Y-109437030D01*
X123167438Y-109437030D02*
X123215057Y-109389411D01*
X124119819Y-108484649D02*
X124119819Y-108960839D01*
X124119819Y-108960839D02*
X123119819Y-108960839D01*
X64822200Y-118710839D02*
X64869819Y-118567982D01*
X64869819Y-118567982D02*
X64869819Y-118329887D01*
X64869819Y-118329887D02*
X64822200Y-118234649D01*
X64822200Y-118234649D02*
X64774580Y-118187030D01*
X64774580Y-118187030D02*
X64679342Y-118139411D01*
X64679342Y-118139411D02*
X64584104Y-118139411D01*
X64584104Y-118139411D02*
X64488866Y-118187030D01*
X64488866Y-118187030D02*
X64441247Y-118234649D01*
X64441247Y-118234649D02*
X64393628Y-118329887D01*
X64393628Y-118329887D02*
X64346009Y-118520363D01*
X64346009Y-118520363D02*
X64298390Y-118615601D01*
X64298390Y-118615601D02*
X64250771Y-118663220D01*
X64250771Y-118663220D02*
X64155533Y-118710839D01*
X64155533Y-118710839D02*
X64060295Y-118710839D01*
X64060295Y-118710839D02*
X63965057Y-118663220D01*
X63965057Y-118663220D02*
X63917438Y-118615601D01*
X63917438Y-118615601D02*
X63869819Y-118520363D01*
X63869819Y-118520363D02*
X63869819Y-118282268D01*
X63869819Y-118282268D02*
X63917438Y-118139411D01*
X64869819Y-117710839D02*
X63869819Y-117710839D01*
X63869819Y-117710839D02*
X63869819Y-117472744D01*
X63869819Y-117472744D02*
X63917438Y-117329887D01*
X63917438Y-117329887D02*
X64012676Y-117234649D01*
X64012676Y-117234649D02*
X64107914Y-117187030D01*
X64107914Y-117187030D02*
X64298390Y-117139411D01*
X64298390Y-117139411D02*
X64441247Y-117139411D01*
X64441247Y-117139411D02*
X64631723Y-117187030D01*
X64631723Y-117187030D02*
X64726961Y-117234649D01*
X64726961Y-117234649D02*
X64822200Y-117329887D01*
X64822200Y-117329887D02*
X64869819Y-117472744D01*
X64869819Y-117472744D02*
X64869819Y-117710839D01*
X64584104Y-116758458D02*
X64584104Y-116282268D01*
X64869819Y-116853696D02*
X63869819Y-116520363D01*
X63869819Y-116520363D02*
X64869819Y-116187030D01*
X64347200Y-104210839D02*
X64394819Y-104067982D01*
X64394819Y-104067982D02*
X64394819Y-103829887D01*
X64394819Y-103829887D02*
X64347200Y-103734649D01*
X64347200Y-103734649D02*
X64299580Y-103687030D01*
X64299580Y-103687030D02*
X64204342Y-103639411D01*
X64204342Y-103639411D02*
X64109104Y-103639411D01*
X64109104Y-103639411D02*
X64013866Y-103687030D01*
X64013866Y-103687030D02*
X63966247Y-103734649D01*
X63966247Y-103734649D02*
X63918628Y-103829887D01*
X63918628Y-103829887D02*
X63871009Y-104020363D01*
X63871009Y-104020363D02*
X63823390Y-104115601D01*
X63823390Y-104115601D02*
X63775771Y-104163220D01*
X63775771Y-104163220D02*
X63680533Y-104210839D01*
X63680533Y-104210839D02*
X63585295Y-104210839D01*
X63585295Y-104210839D02*
X63490057Y-104163220D01*
X63490057Y-104163220D02*
X63442438Y-104115601D01*
X63442438Y-104115601D02*
X63394819Y-104020363D01*
X63394819Y-104020363D02*
X63394819Y-103782268D01*
X63394819Y-103782268D02*
X63442438Y-103639411D01*
X64394819Y-103210839D02*
X63394819Y-103210839D01*
X63394819Y-103210839D02*
X63394819Y-102972744D01*
X63394819Y-102972744D02*
X63442438Y-102829887D01*
X63442438Y-102829887D02*
X63537676Y-102734649D01*
X63537676Y-102734649D02*
X63632914Y-102687030D01*
X63632914Y-102687030D02*
X63823390Y-102639411D01*
X63823390Y-102639411D02*
X63966247Y-102639411D01*
X63966247Y-102639411D02*
X64156723Y-102687030D01*
X64156723Y-102687030D02*
X64251961Y-102734649D01*
X64251961Y-102734649D02*
X64347200Y-102829887D01*
X64347200Y-102829887D02*
X64394819Y-102972744D01*
X64394819Y-102972744D02*
X64394819Y-103210839D01*
X64109104Y-102258458D02*
X64109104Y-101782268D01*
X64394819Y-102353696D02*
X63394819Y-102020363D01*
X63394819Y-102020363D02*
X64394819Y-101687030D01*
X98860588Y-134917438D02*
X98765350Y-134869819D01*
X98765350Y-134869819D02*
X98622493Y-134869819D01*
X98622493Y-134869819D02*
X98479636Y-134917438D01*
X98479636Y-134917438D02*
X98384398Y-135012676D01*
X98384398Y-135012676D02*
X98336779Y-135107914D01*
X98336779Y-135107914D02*
X98289160Y-135298390D01*
X98289160Y-135298390D02*
X98289160Y-135441247D01*
X98289160Y-135441247D02*
X98336779Y-135631723D01*
X98336779Y-135631723D02*
X98384398Y-135726961D01*
X98384398Y-135726961D02*
X98479636Y-135822200D01*
X98479636Y-135822200D02*
X98622493Y-135869819D01*
X98622493Y-135869819D02*
X98717731Y-135869819D01*
X98717731Y-135869819D02*
X98860588Y-135822200D01*
X98860588Y-135822200D02*
X98908207Y-135774580D01*
X98908207Y-135774580D02*
X98908207Y-135441247D01*
X98908207Y-135441247D02*
X98717731Y-135441247D01*
X99336779Y-135869819D02*
X99336779Y-134869819D01*
X99336779Y-134869819D02*
X99908207Y-135869819D01*
X99908207Y-135869819D02*
X99908207Y-134869819D01*
X100384398Y-135869819D02*
X100384398Y-134869819D01*
X100384398Y-134869819D02*
X100622493Y-134869819D01*
X100622493Y-134869819D02*
X100765350Y-134917438D01*
X100765350Y-134917438D02*
X100860588Y-135012676D01*
X100860588Y-135012676D02*
X100908207Y-135107914D01*
X100908207Y-135107914D02*
X100955826Y-135298390D01*
X100955826Y-135298390D02*
X100955826Y-135441247D01*
X100955826Y-135441247D02*
X100908207Y-135631723D01*
X100908207Y-135631723D02*
X100860588Y-135726961D01*
X100860588Y-135726961D02*
X100765350Y-135822200D01*
X100765350Y-135822200D02*
X100622493Y-135869819D01*
X100622493Y-135869819D02*
X100384398Y-135869819D01*
X122869819Y-52187030D02*
X122869819Y-52663220D01*
X122869819Y-52663220D02*
X123346009Y-52710839D01*
X123346009Y-52710839D02*
X123298390Y-52663220D01*
X123298390Y-52663220D02*
X123250771Y-52567982D01*
X123250771Y-52567982D02*
X123250771Y-52329887D01*
X123250771Y-52329887D02*
X123298390Y-52234649D01*
X123298390Y-52234649D02*
X123346009Y-52187030D01*
X123346009Y-52187030D02*
X123441247Y-52139411D01*
X123441247Y-52139411D02*
X123679342Y-52139411D01*
X123679342Y-52139411D02*
X123774580Y-52187030D01*
X123774580Y-52187030D02*
X123822200Y-52234649D01*
X123822200Y-52234649D02*
X123869819Y-52329887D01*
X123869819Y-52329887D02*
X123869819Y-52567982D01*
X123869819Y-52567982D02*
X123822200Y-52663220D01*
X123822200Y-52663220D02*
X123774580Y-52710839D01*
X122869819Y-51853696D02*
X123869819Y-51520363D01*
X123869819Y-51520363D02*
X122869819Y-51187030D01*
X63442438Y-96639411D02*
X63394819Y-96734649D01*
X63394819Y-96734649D02*
X63394819Y-96877506D01*
X63394819Y-96877506D02*
X63442438Y-97020363D01*
X63442438Y-97020363D02*
X63537676Y-97115601D01*
X63537676Y-97115601D02*
X63632914Y-97163220D01*
X63632914Y-97163220D02*
X63823390Y-97210839D01*
X63823390Y-97210839D02*
X63966247Y-97210839D01*
X63966247Y-97210839D02*
X64156723Y-97163220D01*
X64156723Y-97163220D02*
X64251961Y-97115601D01*
X64251961Y-97115601D02*
X64347200Y-97020363D01*
X64347200Y-97020363D02*
X64394819Y-96877506D01*
X64394819Y-96877506D02*
X64394819Y-96782268D01*
X64394819Y-96782268D02*
X64347200Y-96639411D01*
X64347200Y-96639411D02*
X64299580Y-96591792D01*
X64299580Y-96591792D02*
X63966247Y-96591792D01*
X63966247Y-96591792D02*
X63966247Y-96782268D01*
X64394819Y-96163220D02*
X63394819Y-96163220D01*
X63394819Y-96163220D02*
X64394819Y-95591792D01*
X64394819Y-95591792D02*
X63394819Y-95591792D01*
X64394819Y-95115601D02*
X63394819Y-95115601D01*
X63394819Y-95115601D02*
X63394819Y-94877506D01*
X63394819Y-94877506D02*
X63442438Y-94734649D01*
X63442438Y-94734649D02*
X63537676Y-94639411D01*
X63537676Y-94639411D02*
X63632914Y-94591792D01*
X63632914Y-94591792D02*
X63823390Y-94544173D01*
X63823390Y-94544173D02*
X63966247Y-94544173D01*
X63966247Y-94544173D02*
X64156723Y-94591792D01*
X64156723Y-94591792D02*
X64251961Y-94639411D01*
X64251961Y-94639411D02*
X64347200Y-94734649D01*
X64347200Y-94734649D02*
X64394819Y-94877506D01*
X64394819Y-94877506D02*
X64394819Y-95115601D01*
X114619819Y-99758458D02*
X114619819Y-99091792D01*
X114619819Y-99091792D02*
X115619819Y-99520363D01*
X114619819Y-98853696D02*
X115619819Y-98520363D01*
X115619819Y-98520363D02*
X114619819Y-98187030D01*
X114953152Y-97425125D02*
X115619819Y-97425125D01*
X114572200Y-97663220D02*
X115286485Y-97901315D01*
X115286485Y-97901315D02*
X115286485Y-97282268D01*
X63869819Y-121687030D02*
X63869819Y-122163220D01*
X63869819Y-122163220D02*
X64346009Y-122210839D01*
X64346009Y-122210839D02*
X64298390Y-122163220D01*
X64298390Y-122163220D02*
X64250771Y-122067982D01*
X64250771Y-122067982D02*
X64250771Y-121829887D01*
X64250771Y-121829887D02*
X64298390Y-121734649D01*
X64298390Y-121734649D02*
X64346009Y-121687030D01*
X64346009Y-121687030D02*
X64441247Y-121639411D01*
X64441247Y-121639411D02*
X64679342Y-121639411D01*
X64679342Y-121639411D02*
X64774580Y-121687030D01*
X64774580Y-121687030D02*
X64822200Y-121734649D01*
X64822200Y-121734649D02*
X64869819Y-121829887D01*
X64869819Y-121829887D02*
X64869819Y-122067982D01*
X64869819Y-122067982D02*
X64822200Y-122163220D01*
X64822200Y-122163220D02*
X64774580Y-122210839D01*
X63869819Y-121353696D02*
X64869819Y-121020363D01*
X64869819Y-121020363D02*
X63869819Y-120687030D01*
X64822200Y-132710839D02*
X64869819Y-132567982D01*
X64869819Y-132567982D02*
X64869819Y-132329887D01*
X64869819Y-132329887D02*
X64822200Y-132234649D01*
X64822200Y-132234649D02*
X64774580Y-132187030D01*
X64774580Y-132187030D02*
X64679342Y-132139411D01*
X64679342Y-132139411D02*
X64584104Y-132139411D01*
X64584104Y-132139411D02*
X64488866Y-132187030D01*
X64488866Y-132187030D02*
X64441247Y-132234649D01*
X64441247Y-132234649D02*
X64393628Y-132329887D01*
X64393628Y-132329887D02*
X64346009Y-132520363D01*
X64346009Y-132520363D02*
X64298390Y-132615601D01*
X64298390Y-132615601D02*
X64250771Y-132663220D01*
X64250771Y-132663220D02*
X64155533Y-132710839D01*
X64155533Y-132710839D02*
X64060295Y-132710839D01*
X64060295Y-132710839D02*
X63965057Y-132663220D01*
X63965057Y-132663220D02*
X63917438Y-132615601D01*
X63917438Y-132615601D02*
X63869819Y-132520363D01*
X63869819Y-132520363D02*
X63869819Y-132282268D01*
X63869819Y-132282268D02*
X63917438Y-132139411D01*
X64869819Y-131710839D02*
X63869819Y-131710839D01*
X63869819Y-131710839D02*
X63869819Y-131472744D01*
X63869819Y-131472744D02*
X63917438Y-131329887D01*
X63917438Y-131329887D02*
X64012676Y-131234649D01*
X64012676Y-131234649D02*
X64107914Y-131187030D01*
X64107914Y-131187030D02*
X64298390Y-131139411D01*
X64298390Y-131139411D02*
X64441247Y-131139411D01*
X64441247Y-131139411D02*
X64631723Y-131187030D01*
X64631723Y-131187030D02*
X64726961Y-131234649D01*
X64726961Y-131234649D02*
X64822200Y-131329887D01*
X64822200Y-131329887D02*
X64869819Y-131472744D01*
X64869819Y-131472744D02*
X64869819Y-131710839D01*
X64584104Y-130758458D02*
X64584104Y-130282268D01*
X64869819Y-130853696D02*
X63869819Y-130520363D01*
X63869819Y-130520363D02*
X64869819Y-130187030D01*
X123822200Y-59710839D02*
X123869819Y-59567982D01*
X123869819Y-59567982D02*
X123869819Y-59329887D01*
X123869819Y-59329887D02*
X123822200Y-59234649D01*
X123822200Y-59234649D02*
X123774580Y-59187030D01*
X123774580Y-59187030D02*
X123679342Y-59139411D01*
X123679342Y-59139411D02*
X123584104Y-59139411D01*
X123584104Y-59139411D02*
X123488866Y-59187030D01*
X123488866Y-59187030D02*
X123441247Y-59234649D01*
X123441247Y-59234649D02*
X123393628Y-59329887D01*
X123393628Y-59329887D02*
X123346009Y-59520363D01*
X123346009Y-59520363D02*
X123298390Y-59615601D01*
X123298390Y-59615601D02*
X123250771Y-59663220D01*
X123250771Y-59663220D02*
X123155533Y-59710839D01*
X123155533Y-59710839D02*
X123060295Y-59710839D01*
X123060295Y-59710839D02*
X122965057Y-59663220D01*
X122965057Y-59663220D02*
X122917438Y-59615601D01*
X122917438Y-59615601D02*
X122869819Y-59520363D01*
X122869819Y-59520363D02*
X122869819Y-59282268D01*
X122869819Y-59282268D02*
X122917438Y-59139411D01*
X123774580Y-58139411D02*
X123822200Y-58187030D01*
X123822200Y-58187030D02*
X123869819Y-58329887D01*
X123869819Y-58329887D02*
X123869819Y-58425125D01*
X123869819Y-58425125D02*
X123822200Y-58567982D01*
X123822200Y-58567982D02*
X123726961Y-58663220D01*
X123726961Y-58663220D02*
X123631723Y-58710839D01*
X123631723Y-58710839D02*
X123441247Y-58758458D01*
X123441247Y-58758458D02*
X123298390Y-58758458D01*
X123298390Y-58758458D02*
X123107914Y-58710839D01*
X123107914Y-58710839D02*
X123012676Y-58663220D01*
X123012676Y-58663220D02*
X122917438Y-58567982D01*
X122917438Y-58567982D02*
X122869819Y-58425125D01*
X122869819Y-58425125D02*
X122869819Y-58329887D01*
X122869819Y-58329887D02*
X122917438Y-58187030D01*
X122917438Y-58187030D02*
X122965057Y-58139411D01*
X123869819Y-57234649D02*
X123869819Y-57710839D01*
X123869819Y-57710839D02*
X122869819Y-57710839D01*
X123167438Y-92139411D02*
X123119819Y-92234649D01*
X123119819Y-92234649D02*
X123119819Y-92377506D01*
X123119819Y-92377506D02*
X123167438Y-92520363D01*
X123167438Y-92520363D02*
X123262676Y-92615601D01*
X123262676Y-92615601D02*
X123357914Y-92663220D01*
X123357914Y-92663220D02*
X123548390Y-92710839D01*
X123548390Y-92710839D02*
X123691247Y-92710839D01*
X123691247Y-92710839D02*
X123881723Y-92663220D01*
X123881723Y-92663220D02*
X123976961Y-92615601D01*
X123976961Y-92615601D02*
X124072200Y-92520363D01*
X124072200Y-92520363D02*
X124119819Y-92377506D01*
X124119819Y-92377506D02*
X124119819Y-92282268D01*
X124119819Y-92282268D02*
X124072200Y-92139411D01*
X124072200Y-92139411D02*
X124024580Y-92091792D01*
X124024580Y-92091792D02*
X123691247Y-92091792D01*
X123691247Y-92091792D02*
X123691247Y-92282268D01*
X124119819Y-91663220D02*
X123119819Y-91663220D01*
X123119819Y-91663220D02*
X124119819Y-91091792D01*
X124119819Y-91091792D02*
X123119819Y-91091792D01*
X124119819Y-90615601D02*
X123119819Y-90615601D01*
X123119819Y-90615601D02*
X123119819Y-90377506D01*
X123119819Y-90377506D02*
X123167438Y-90234649D01*
X123167438Y-90234649D02*
X123262676Y-90139411D01*
X123262676Y-90139411D02*
X123357914Y-90091792D01*
X123357914Y-90091792D02*
X123548390Y-90044173D01*
X123548390Y-90044173D02*
X123691247Y-90044173D01*
X123691247Y-90044173D02*
X123881723Y-90091792D01*
X123881723Y-90091792D02*
X123976961Y-90139411D01*
X123976961Y-90139411D02*
X124072200Y-90234649D01*
X124072200Y-90234649D02*
X124119819Y-90377506D01*
X124119819Y-90377506D02*
X124119819Y-90615601D01*
X92193922Y-134869819D02*
X92527255Y-135869819D01*
X92527255Y-135869819D02*
X92860588Y-134869819D01*
X93765350Y-135774580D02*
X93717731Y-135822200D01*
X93717731Y-135822200D02*
X93574874Y-135869819D01*
X93574874Y-135869819D02*
X93479636Y-135869819D01*
X93479636Y-135869819D02*
X93336779Y-135822200D01*
X93336779Y-135822200D02*
X93241541Y-135726961D01*
X93241541Y-135726961D02*
X93193922Y-135631723D01*
X93193922Y-135631723D02*
X93146303Y-135441247D01*
X93146303Y-135441247D02*
X93146303Y-135298390D01*
X93146303Y-135298390D02*
X93193922Y-135107914D01*
X93193922Y-135107914D02*
X93241541Y-135012676D01*
X93241541Y-135012676D02*
X93336779Y-134917438D01*
X93336779Y-134917438D02*
X93479636Y-134869819D01*
X93479636Y-134869819D02*
X93574874Y-134869819D01*
X93574874Y-134869819D02*
X93717731Y-134917438D01*
X93717731Y-134917438D02*
X93765350Y-134965057D01*
X94765350Y-135774580D02*
X94717731Y-135822200D01*
X94717731Y-135822200D02*
X94574874Y-135869819D01*
X94574874Y-135869819D02*
X94479636Y-135869819D01*
X94479636Y-135869819D02*
X94336779Y-135822200D01*
X94336779Y-135822200D02*
X94241541Y-135726961D01*
X94241541Y-135726961D02*
X94193922Y-135631723D01*
X94193922Y-135631723D02*
X94146303Y-135441247D01*
X94146303Y-135441247D02*
X94146303Y-135298390D01*
X94146303Y-135298390D02*
X94193922Y-135107914D01*
X94193922Y-135107914D02*
X94241541Y-135012676D01*
X94241541Y-135012676D02*
X94336779Y-134917438D01*
X94336779Y-134917438D02*
X94479636Y-134869819D01*
X94479636Y-134869819D02*
X94574874Y-134869819D01*
X94574874Y-134869819D02*
X94717731Y-134917438D01*
X94717731Y-134917438D02*
X94765350Y-134965057D01*
X122869819Y-67187030D02*
X122869819Y-67663220D01*
X122869819Y-67663220D02*
X123346009Y-67710839D01*
X123346009Y-67710839D02*
X123298390Y-67663220D01*
X123298390Y-67663220D02*
X123250771Y-67567982D01*
X123250771Y-67567982D02*
X123250771Y-67329887D01*
X123250771Y-67329887D02*
X123298390Y-67234649D01*
X123298390Y-67234649D02*
X123346009Y-67187030D01*
X123346009Y-67187030D02*
X123441247Y-67139411D01*
X123441247Y-67139411D02*
X123679342Y-67139411D01*
X123679342Y-67139411D02*
X123774580Y-67187030D01*
X123774580Y-67187030D02*
X123822200Y-67234649D01*
X123822200Y-67234649D02*
X123869819Y-67329887D01*
X123869819Y-67329887D02*
X123869819Y-67567982D01*
X123869819Y-67567982D02*
X123822200Y-67663220D01*
X123822200Y-67663220D02*
X123774580Y-67710839D01*
X122869819Y-66853696D02*
X123869819Y-66520363D01*
X123869819Y-66520363D02*
X122869819Y-66187030D01*
X112869819Y-109306077D02*
X113869819Y-108972744D01*
X113869819Y-108972744D02*
X112869819Y-108639411D01*
X113869819Y-108306077D02*
X112869819Y-108306077D01*
X113869819Y-107829887D02*
X112869819Y-107829887D01*
X112869819Y-107829887D02*
X113869819Y-107258459D01*
X113869819Y-107258459D02*
X112869819Y-107258459D01*
X112917438Y-105639411D02*
X112869819Y-105734649D01*
X112869819Y-105734649D02*
X112869819Y-105877506D01*
X112869819Y-105877506D02*
X112917438Y-106020363D01*
X112917438Y-106020363D02*
X113012676Y-106115601D01*
X113012676Y-106115601D02*
X113107914Y-106163220D01*
X113107914Y-106163220D02*
X113298390Y-106210839D01*
X113298390Y-106210839D02*
X113441247Y-106210839D01*
X113441247Y-106210839D02*
X113631723Y-106163220D01*
X113631723Y-106163220D02*
X113726961Y-106115601D01*
X113726961Y-106115601D02*
X113822200Y-106020363D01*
X113822200Y-106020363D02*
X113869819Y-105877506D01*
X113869819Y-105877506D02*
X113869819Y-105782268D01*
X113869819Y-105782268D02*
X113822200Y-105639411D01*
X113822200Y-105639411D02*
X113774580Y-105591792D01*
X113774580Y-105591792D02*
X113441247Y-105591792D01*
X113441247Y-105591792D02*
X113441247Y-105782268D01*
X113869819Y-105163220D02*
X112869819Y-105163220D01*
X112869819Y-105163220D02*
X113869819Y-104591792D01*
X113869819Y-104591792D02*
X112869819Y-104591792D01*
X113869819Y-104115601D02*
X112869819Y-104115601D01*
X112869819Y-104115601D02*
X112869819Y-103877506D01*
X112869819Y-103877506D02*
X112917438Y-103734649D01*
X112917438Y-103734649D02*
X113012676Y-103639411D01*
X113012676Y-103639411D02*
X113107914Y-103591792D01*
X113107914Y-103591792D02*
X113298390Y-103544173D01*
X113298390Y-103544173D02*
X113441247Y-103544173D01*
X113441247Y-103544173D02*
X113631723Y-103591792D01*
X113631723Y-103591792D02*
X113726961Y-103639411D01*
X113726961Y-103639411D02*
X113822200Y-103734649D01*
X113822200Y-103734649D02*
X113869819Y-103877506D01*
X113869819Y-103877506D02*
X113869819Y-104115601D01*
X69360588Y-135417438D02*
X69265350Y-135369819D01*
X69265350Y-135369819D02*
X69122493Y-135369819D01*
X69122493Y-135369819D02*
X68979636Y-135417438D01*
X68979636Y-135417438D02*
X68884398Y-135512676D01*
X68884398Y-135512676D02*
X68836779Y-135607914D01*
X68836779Y-135607914D02*
X68789160Y-135798390D01*
X68789160Y-135798390D02*
X68789160Y-135941247D01*
X68789160Y-135941247D02*
X68836779Y-136131723D01*
X68836779Y-136131723D02*
X68884398Y-136226961D01*
X68884398Y-136226961D02*
X68979636Y-136322200D01*
X68979636Y-136322200D02*
X69122493Y-136369819D01*
X69122493Y-136369819D02*
X69217731Y-136369819D01*
X69217731Y-136369819D02*
X69360588Y-136322200D01*
X69360588Y-136322200D02*
X69408207Y-136274580D01*
X69408207Y-136274580D02*
X69408207Y-135941247D01*
X69408207Y-135941247D02*
X69217731Y-135941247D01*
X69836779Y-136369819D02*
X69836779Y-135369819D01*
X69836779Y-135369819D02*
X70408207Y-136369819D01*
X70408207Y-136369819D02*
X70408207Y-135369819D01*
X70884398Y-136369819D02*
X70884398Y-135369819D01*
X70884398Y-135369819D02*
X71122493Y-135369819D01*
X71122493Y-135369819D02*
X71265350Y-135417438D01*
X71265350Y-135417438D02*
X71360588Y-135512676D01*
X71360588Y-135512676D02*
X71408207Y-135607914D01*
X71408207Y-135607914D02*
X71455826Y-135798390D01*
X71455826Y-135798390D02*
X71455826Y-135941247D01*
X71455826Y-135941247D02*
X71408207Y-136131723D01*
X71408207Y-136131723D02*
X71360588Y-136226961D01*
X71360588Y-136226961D02*
X71265350Y-136322200D01*
X71265350Y-136322200D02*
X71122493Y-136369819D01*
X71122493Y-136369819D02*
X70884398Y-136369819D01*
X64347200Y-100710839D02*
X64394819Y-100567982D01*
X64394819Y-100567982D02*
X64394819Y-100329887D01*
X64394819Y-100329887D02*
X64347200Y-100234649D01*
X64347200Y-100234649D02*
X64299580Y-100187030D01*
X64299580Y-100187030D02*
X64204342Y-100139411D01*
X64204342Y-100139411D02*
X64109104Y-100139411D01*
X64109104Y-100139411D02*
X64013866Y-100187030D01*
X64013866Y-100187030D02*
X63966247Y-100234649D01*
X63966247Y-100234649D02*
X63918628Y-100329887D01*
X63918628Y-100329887D02*
X63871009Y-100520363D01*
X63871009Y-100520363D02*
X63823390Y-100615601D01*
X63823390Y-100615601D02*
X63775771Y-100663220D01*
X63775771Y-100663220D02*
X63680533Y-100710839D01*
X63680533Y-100710839D02*
X63585295Y-100710839D01*
X63585295Y-100710839D02*
X63490057Y-100663220D01*
X63490057Y-100663220D02*
X63442438Y-100615601D01*
X63442438Y-100615601D02*
X63394819Y-100520363D01*
X63394819Y-100520363D02*
X63394819Y-100282268D01*
X63394819Y-100282268D02*
X63442438Y-100139411D01*
X64299580Y-99139411D02*
X64347200Y-99187030D01*
X64347200Y-99187030D02*
X64394819Y-99329887D01*
X64394819Y-99329887D02*
X64394819Y-99425125D01*
X64394819Y-99425125D02*
X64347200Y-99567982D01*
X64347200Y-99567982D02*
X64251961Y-99663220D01*
X64251961Y-99663220D02*
X64156723Y-99710839D01*
X64156723Y-99710839D02*
X63966247Y-99758458D01*
X63966247Y-99758458D02*
X63823390Y-99758458D01*
X63823390Y-99758458D02*
X63632914Y-99710839D01*
X63632914Y-99710839D02*
X63537676Y-99663220D01*
X63537676Y-99663220D02*
X63442438Y-99567982D01*
X63442438Y-99567982D02*
X63394819Y-99425125D01*
X63394819Y-99425125D02*
X63394819Y-99329887D01*
X63394819Y-99329887D02*
X63442438Y-99187030D01*
X63442438Y-99187030D02*
X63490057Y-99139411D01*
X64394819Y-98234649D02*
X64394819Y-98710839D01*
X64394819Y-98710839D02*
X63394819Y-98710839D01*
X123119819Y-103437030D02*
X123119819Y-103913220D01*
X123119819Y-103913220D02*
X123596009Y-103960839D01*
X123596009Y-103960839D02*
X123548390Y-103913220D01*
X123548390Y-103913220D02*
X123500771Y-103817982D01*
X123500771Y-103817982D02*
X123500771Y-103579887D01*
X123500771Y-103579887D02*
X123548390Y-103484649D01*
X123548390Y-103484649D02*
X123596009Y-103437030D01*
X123596009Y-103437030D02*
X123691247Y-103389411D01*
X123691247Y-103389411D02*
X123929342Y-103389411D01*
X123929342Y-103389411D02*
X124024580Y-103437030D01*
X124024580Y-103437030D02*
X124072200Y-103484649D01*
X124072200Y-103484649D02*
X124119819Y-103579887D01*
X124119819Y-103579887D02*
X124119819Y-103817982D01*
X124119819Y-103817982D02*
X124072200Y-103913220D01*
X124072200Y-103913220D02*
X124024580Y-103960839D01*
X123119819Y-103103696D02*
X124119819Y-102770363D01*
X124119819Y-102770363D02*
X123119819Y-102437030D01*
X123822200Y-63210839D02*
X123869819Y-63067982D01*
X123869819Y-63067982D02*
X123869819Y-62829887D01*
X123869819Y-62829887D02*
X123822200Y-62734649D01*
X123822200Y-62734649D02*
X123774580Y-62687030D01*
X123774580Y-62687030D02*
X123679342Y-62639411D01*
X123679342Y-62639411D02*
X123584104Y-62639411D01*
X123584104Y-62639411D02*
X123488866Y-62687030D01*
X123488866Y-62687030D02*
X123441247Y-62734649D01*
X123441247Y-62734649D02*
X123393628Y-62829887D01*
X123393628Y-62829887D02*
X123346009Y-63020363D01*
X123346009Y-63020363D02*
X123298390Y-63115601D01*
X123298390Y-63115601D02*
X123250771Y-63163220D01*
X123250771Y-63163220D02*
X123155533Y-63210839D01*
X123155533Y-63210839D02*
X123060295Y-63210839D01*
X123060295Y-63210839D02*
X122965057Y-63163220D01*
X122965057Y-63163220D02*
X122917438Y-63115601D01*
X122917438Y-63115601D02*
X122869819Y-63020363D01*
X122869819Y-63020363D02*
X122869819Y-62782268D01*
X122869819Y-62782268D02*
X122917438Y-62639411D01*
X123869819Y-62210839D02*
X122869819Y-62210839D01*
X122869819Y-62210839D02*
X122869819Y-61972744D01*
X122869819Y-61972744D02*
X122917438Y-61829887D01*
X122917438Y-61829887D02*
X123012676Y-61734649D01*
X123012676Y-61734649D02*
X123107914Y-61687030D01*
X123107914Y-61687030D02*
X123298390Y-61639411D01*
X123298390Y-61639411D02*
X123441247Y-61639411D01*
X123441247Y-61639411D02*
X123631723Y-61687030D01*
X123631723Y-61687030D02*
X123726961Y-61734649D01*
X123726961Y-61734649D02*
X123822200Y-61829887D01*
X123822200Y-61829887D02*
X123869819Y-61972744D01*
X123869819Y-61972744D02*
X123869819Y-62210839D01*
X123584104Y-61258458D02*
X123584104Y-60782268D01*
X123869819Y-61353696D02*
X122869819Y-61020363D01*
X122869819Y-61020363D02*
X123869819Y-60687030D01*
X123822200Y-78210839D02*
X123869819Y-78067982D01*
X123869819Y-78067982D02*
X123869819Y-77829887D01*
X123869819Y-77829887D02*
X123822200Y-77734649D01*
X123822200Y-77734649D02*
X123774580Y-77687030D01*
X123774580Y-77687030D02*
X123679342Y-77639411D01*
X123679342Y-77639411D02*
X123584104Y-77639411D01*
X123584104Y-77639411D02*
X123488866Y-77687030D01*
X123488866Y-77687030D02*
X123441247Y-77734649D01*
X123441247Y-77734649D02*
X123393628Y-77829887D01*
X123393628Y-77829887D02*
X123346009Y-78020363D01*
X123346009Y-78020363D02*
X123298390Y-78115601D01*
X123298390Y-78115601D02*
X123250771Y-78163220D01*
X123250771Y-78163220D02*
X123155533Y-78210839D01*
X123155533Y-78210839D02*
X123060295Y-78210839D01*
X123060295Y-78210839D02*
X122965057Y-78163220D01*
X122965057Y-78163220D02*
X122917438Y-78115601D01*
X122917438Y-78115601D02*
X122869819Y-78020363D01*
X122869819Y-78020363D02*
X122869819Y-77782268D01*
X122869819Y-77782268D02*
X122917438Y-77639411D01*
X123869819Y-77210839D02*
X122869819Y-77210839D01*
X122869819Y-77210839D02*
X122869819Y-76972744D01*
X122869819Y-76972744D02*
X122917438Y-76829887D01*
X122917438Y-76829887D02*
X123012676Y-76734649D01*
X123012676Y-76734649D02*
X123107914Y-76687030D01*
X123107914Y-76687030D02*
X123298390Y-76639411D01*
X123298390Y-76639411D02*
X123441247Y-76639411D01*
X123441247Y-76639411D02*
X123631723Y-76687030D01*
X123631723Y-76687030D02*
X123726961Y-76734649D01*
X123726961Y-76734649D02*
X123822200Y-76829887D01*
X123822200Y-76829887D02*
X123869819Y-76972744D01*
X123869819Y-76972744D02*
X123869819Y-77210839D01*
X123584104Y-76258458D02*
X123584104Y-75782268D01*
X123869819Y-76353696D02*
X122869819Y-76020363D01*
X122869819Y-76020363D02*
X123869819Y-75687030D01*
X123119819Y-88687030D02*
X123119819Y-89163220D01*
X123119819Y-89163220D02*
X123596009Y-89210839D01*
X123596009Y-89210839D02*
X123548390Y-89163220D01*
X123548390Y-89163220D02*
X123500771Y-89067982D01*
X123500771Y-89067982D02*
X123500771Y-88829887D01*
X123500771Y-88829887D02*
X123548390Y-88734649D01*
X123548390Y-88734649D02*
X123596009Y-88687030D01*
X123596009Y-88687030D02*
X123691247Y-88639411D01*
X123691247Y-88639411D02*
X123929342Y-88639411D01*
X123929342Y-88639411D02*
X124024580Y-88687030D01*
X124024580Y-88687030D02*
X124072200Y-88734649D01*
X124072200Y-88734649D02*
X124119819Y-88829887D01*
X124119819Y-88829887D02*
X124119819Y-89067982D01*
X124119819Y-89067982D02*
X124072200Y-89163220D01*
X124072200Y-89163220D02*
X124024580Y-89210839D01*
X123119819Y-88353696D02*
X124119819Y-88020363D01*
X124119819Y-88020363D02*
X123119819Y-87687030D01*
X122917438Y-55639411D02*
X122869819Y-55734649D01*
X122869819Y-55734649D02*
X122869819Y-55877506D01*
X122869819Y-55877506D02*
X122917438Y-56020363D01*
X122917438Y-56020363D02*
X123012676Y-56115601D01*
X123012676Y-56115601D02*
X123107914Y-56163220D01*
X123107914Y-56163220D02*
X123298390Y-56210839D01*
X123298390Y-56210839D02*
X123441247Y-56210839D01*
X123441247Y-56210839D02*
X123631723Y-56163220D01*
X123631723Y-56163220D02*
X123726961Y-56115601D01*
X123726961Y-56115601D02*
X123822200Y-56020363D01*
X123822200Y-56020363D02*
X123869819Y-55877506D01*
X123869819Y-55877506D02*
X123869819Y-55782268D01*
X123869819Y-55782268D02*
X123822200Y-55639411D01*
X123822200Y-55639411D02*
X123774580Y-55591792D01*
X123774580Y-55591792D02*
X123441247Y-55591792D01*
X123441247Y-55591792D02*
X123441247Y-55782268D01*
X123869819Y-55163220D02*
X122869819Y-55163220D01*
X122869819Y-55163220D02*
X123869819Y-54591792D01*
X123869819Y-54591792D02*
X122869819Y-54591792D01*
X123869819Y-54115601D02*
X122869819Y-54115601D01*
X122869819Y-54115601D02*
X122869819Y-53877506D01*
X122869819Y-53877506D02*
X122917438Y-53734649D01*
X122917438Y-53734649D02*
X123012676Y-53639411D01*
X123012676Y-53639411D02*
X123107914Y-53591792D01*
X123107914Y-53591792D02*
X123298390Y-53544173D01*
X123298390Y-53544173D02*
X123441247Y-53544173D01*
X123441247Y-53544173D02*
X123631723Y-53591792D01*
X123631723Y-53591792D02*
X123726961Y-53639411D01*
X123726961Y-53639411D02*
X123822200Y-53734649D01*
X123822200Y-53734649D02*
X123869819Y-53877506D01*
X123869819Y-53877506D02*
X123869819Y-54115601D01*
X124072200Y-114460839D02*
X124119819Y-114317982D01*
X124119819Y-114317982D02*
X124119819Y-114079887D01*
X124119819Y-114079887D02*
X124072200Y-113984649D01*
X124072200Y-113984649D02*
X124024580Y-113937030D01*
X124024580Y-113937030D02*
X123929342Y-113889411D01*
X123929342Y-113889411D02*
X123834104Y-113889411D01*
X123834104Y-113889411D02*
X123738866Y-113937030D01*
X123738866Y-113937030D02*
X123691247Y-113984649D01*
X123691247Y-113984649D02*
X123643628Y-114079887D01*
X123643628Y-114079887D02*
X123596009Y-114270363D01*
X123596009Y-114270363D02*
X123548390Y-114365601D01*
X123548390Y-114365601D02*
X123500771Y-114413220D01*
X123500771Y-114413220D02*
X123405533Y-114460839D01*
X123405533Y-114460839D02*
X123310295Y-114460839D01*
X123310295Y-114460839D02*
X123215057Y-114413220D01*
X123215057Y-114413220D02*
X123167438Y-114365601D01*
X123167438Y-114365601D02*
X123119819Y-114270363D01*
X123119819Y-114270363D02*
X123119819Y-114032268D01*
X123119819Y-114032268D02*
X123167438Y-113889411D01*
X124119819Y-113460839D02*
X123119819Y-113460839D01*
X123119819Y-113460839D02*
X123119819Y-113222744D01*
X123119819Y-113222744D02*
X123167438Y-113079887D01*
X123167438Y-113079887D02*
X123262676Y-112984649D01*
X123262676Y-112984649D02*
X123357914Y-112937030D01*
X123357914Y-112937030D02*
X123548390Y-112889411D01*
X123548390Y-112889411D02*
X123691247Y-112889411D01*
X123691247Y-112889411D02*
X123881723Y-112937030D01*
X123881723Y-112937030D02*
X123976961Y-112984649D01*
X123976961Y-112984649D02*
X124072200Y-113079887D01*
X124072200Y-113079887D02*
X124119819Y-113222744D01*
X124119819Y-113222744D02*
X124119819Y-113460839D01*
X123834104Y-112508458D02*
X123834104Y-112032268D01*
X124119819Y-112603696D02*
X123119819Y-112270363D01*
X123119819Y-112270363D02*
X124119819Y-111937030D01*
X132254819Y-58202380D02*
X131254819Y-58202380D01*
X131350057Y-57773809D02*
X131302438Y-57726190D01*
X131302438Y-57726190D02*
X131254819Y-57630952D01*
X131254819Y-57630952D02*
X131254819Y-57392857D01*
X131254819Y-57392857D02*
X131302438Y-57297619D01*
X131302438Y-57297619D02*
X131350057Y-57250000D01*
X131350057Y-57250000D02*
X131445295Y-57202381D01*
X131445295Y-57202381D02*
X131540533Y-57202381D01*
X131540533Y-57202381D02*
X131683390Y-57250000D01*
X131683390Y-57250000D02*
X132254819Y-57821428D01*
X132254819Y-57821428D02*
X132254819Y-57202381D01*
X132159580Y-56202381D02*
X132207200Y-56250000D01*
X132207200Y-56250000D02*
X132254819Y-56392857D01*
X132254819Y-56392857D02*
X132254819Y-56488095D01*
X132254819Y-56488095D02*
X132207200Y-56630952D01*
X132207200Y-56630952D02*
X132111961Y-56726190D01*
X132111961Y-56726190D02*
X132016723Y-56773809D01*
X132016723Y-56773809D02*
X131826247Y-56821428D01*
X131826247Y-56821428D02*
X131683390Y-56821428D01*
X131683390Y-56821428D02*
X131492914Y-56773809D01*
X131492914Y-56773809D02*
X131397676Y-56726190D01*
X131397676Y-56726190D02*
X131302438Y-56630952D01*
X131302438Y-56630952D02*
X131254819Y-56488095D01*
X131254819Y-56488095D02*
X131254819Y-56392857D01*
X131254819Y-56392857D02*
X131302438Y-56250000D01*
X131302438Y-56250000D02*
X131350057Y-56202381D01*
X131350057Y-55821428D02*
X131302438Y-55773809D01*
X131302438Y-55773809D02*
X131254819Y-55678571D01*
X131254819Y-55678571D02*
X131254819Y-55440476D01*
X131254819Y-55440476D02*
X131302438Y-55345238D01*
X131302438Y-55345238D02*
X131350057Y-55297619D01*
X131350057Y-55297619D02*
X131445295Y-55250000D01*
X131445295Y-55250000D02*
X131540533Y-55250000D01*
X131540533Y-55250000D02*
X131683390Y-55297619D01*
X131683390Y-55297619D02*
X132254819Y-55869047D01*
X132254819Y-55869047D02*
X132254819Y-55250000D01*
X132504819Y-109491666D02*
X132028628Y-109824999D01*
X132504819Y-110063094D02*
X131504819Y-110063094D01*
X131504819Y-110063094D02*
X131504819Y-109682142D01*
X131504819Y-109682142D02*
X131552438Y-109586904D01*
X131552438Y-109586904D02*
X131600057Y-109539285D01*
X131600057Y-109539285D02*
X131695295Y-109491666D01*
X131695295Y-109491666D02*
X131838152Y-109491666D01*
X131838152Y-109491666D02*
X131933390Y-109539285D01*
X131933390Y-109539285D02*
X131981009Y-109586904D01*
X131981009Y-109586904D02*
X132028628Y-109682142D01*
X132028628Y-109682142D02*
X132028628Y-110063094D01*
X131552438Y-108539285D02*
X131504819Y-108634523D01*
X131504819Y-108634523D02*
X131504819Y-108777380D01*
X131504819Y-108777380D02*
X131552438Y-108920237D01*
X131552438Y-108920237D02*
X131647676Y-109015475D01*
X131647676Y-109015475D02*
X131742914Y-109063094D01*
X131742914Y-109063094D02*
X131933390Y-109110713D01*
X131933390Y-109110713D02*
X132076247Y-109110713D01*
X132076247Y-109110713D02*
X132266723Y-109063094D01*
X132266723Y-109063094D02*
X132361961Y-109015475D01*
X132361961Y-109015475D02*
X132457200Y-108920237D01*
X132457200Y-108920237D02*
X132504819Y-108777380D01*
X132504819Y-108777380D02*
X132504819Y-108682142D01*
X132504819Y-108682142D02*
X132457200Y-108539285D01*
X132457200Y-108539285D02*
X132409580Y-108491666D01*
X132409580Y-108491666D02*
X132076247Y-108491666D01*
X132076247Y-108491666D02*
X132076247Y-108682142D01*
X131981009Y-107729761D02*
X132028628Y-107586904D01*
X132028628Y-107586904D02*
X132076247Y-107539285D01*
X132076247Y-107539285D02*
X132171485Y-107491666D01*
X132171485Y-107491666D02*
X132314342Y-107491666D01*
X132314342Y-107491666D02*
X132409580Y-107539285D01*
X132409580Y-107539285D02*
X132457200Y-107586904D01*
X132457200Y-107586904D02*
X132504819Y-107682142D01*
X132504819Y-107682142D02*
X132504819Y-108063094D01*
X132504819Y-108063094D02*
X131504819Y-108063094D01*
X131504819Y-108063094D02*
X131504819Y-107729761D01*
X131504819Y-107729761D02*
X131552438Y-107634523D01*
X131552438Y-107634523D02*
X131600057Y-107586904D01*
X131600057Y-107586904D02*
X131695295Y-107539285D01*
X131695295Y-107539285D02*
X131790533Y-107539285D01*
X131790533Y-107539285D02*
X131885771Y-107586904D01*
X131885771Y-107586904D02*
X131933390Y-107634523D01*
X131933390Y-107634523D02*
X131981009Y-107729761D01*
X131981009Y-107729761D02*
X131981009Y-108063094D01*
X131600057Y-107110713D02*
X131552438Y-107063094D01*
X131552438Y-107063094D02*
X131504819Y-106967856D01*
X131504819Y-106967856D02*
X131504819Y-106729761D01*
X131504819Y-106729761D02*
X131552438Y-106634523D01*
X131552438Y-106634523D02*
X131600057Y-106586904D01*
X131600057Y-106586904D02*
X131695295Y-106539285D01*
X131695295Y-106539285D02*
X131790533Y-106539285D01*
X131790533Y-106539285D02*
X131933390Y-106586904D01*
X131933390Y-106586904D02*
X132504819Y-107158332D01*
X132504819Y-107158332D02*
X132504819Y-106539285D01*
X130091009Y-132411428D02*
X130138628Y-132268571D01*
X130138628Y-132268571D02*
X130186247Y-132220952D01*
X130186247Y-132220952D02*
X130281485Y-132173333D01*
X130281485Y-132173333D02*
X130424342Y-132173333D01*
X130424342Y-132173333D02*
X130519580Y-132220952D01*
X130519580Y-132220952D02*
X130567200Y-132268571D01*
X130567200Y-132268571D02*
X130614819Y-132363809D01*
X130614819Y-132363809D02*
X130614819Y-132744761D01*
X130614819Y-132744761D02*
X129614819Y-132744761D01*
X129614819Y-132744761D02*
X129614819Y-132411428D01*
X129614819Y-132411428D02*
X129662438Y-132316190D01*
X129662438Y-132316190D02*
X129710057Y-132268571D01*
X129710057Y-132268571D02*
X129805295Y-132220952D01*
X129805295Y-132220952D02*
X129900533Y-132220952D01*
X129900533Y-132220952D02*
X129995771Y-132268571D01*
X129995771Y-132268571D02*
X130043390Y-132316190D01*
X130043390Y-132316190D02*
X130091009Y-132411428D01*
X130091009Y-132411428D02*
X130091009Y-132744761D01*
X130614819Y-131601904D02*
X130567200Y-131697142D01*
X130567200Y-131697142D02*
X130519580Y-131744761D01*
X130519580Y-131744761D02*
X130424342Y-131792380D01*
X130424342Y-131792380D02*
X130138628Y-131792380D01*
X130138628Y-131792380D02*
X130043390Y-131744761D01*
X130043390Y-131744761D02*
X129995771Y-131697142D01*
X129995771Y-131697142D02*
X129948152Y-131601904D01*
X129948152Y-131601904D02*
X129948152Y-131459047D01*
X129948152Y-131459047D02*
X129995771Y-131363809D01*
X129995771Y-131363809D02*
X130043390Y-131316190D01*
X130043390Y-131316190D02*
X130138628Y-131268571D01*
X130138628Y-131268571D02*
X130424342Y-131268571D01*
X130424342Y-131268571D02*
X130519580Y-131316190D01*
X130519580Y-131316190D02*
X130567200Y-131363809D01*
X130567200Y-131363809D02*
X130614819Y-131459047D01*
X130614819Y-131459047D02*
X130614819Y-131601904D01*
X129948152Y-130982856D02*
X129948152Y-130601904D01*
X129614819Y-130839999D02*
X130471961Y-130839999D01*
X130471961Y-130839999D02*
X130567200Y-130792380D01*
X130567200Y-130792380D02*
X130614819Y-130697142D01*
X130614819Y-130697142D02*
X130614819Y-130601904D01*
X130614819Y-130125713D02*
X130567200Y-130220951D01*
X130567200Y-130220951D02*
X130519580Y-130268570D01*
X130519580Y-130268570D02*
X130424342Y-130316189D01*
X130424342Y-130316189D02*
X130138628Y-130316189D01*
X130138628Y-130316189D02*
X130043390Y-130268570D01*
X130043390Y-130268570D02*
X129995771Y-130220951D01*
X129995771Y-130220951D02*
X129948152Y-130125713D01*
X129948152Y-130125713D02*
X129948152Y-129982856D01*
X129948152Y-129982856D02*
X129995771Y-129887618D01*
X129995771Y-129887618D02*
X130043390Y-129839999D01*
X130043390Y-129839999D02*
X130138628Y-129792380D01*
X130138628Y-129792380D02*
X130424342Y-129792380D01*
X130424342Y-129792380D02*
X130519580Y-129839999D01*
X130519580Y-129839999D02*
X130567200Y-129887618D01*
X130567200Y-129887618D02*
X130614819Y-129982856D01*
X130614819Y-129982856D02*
X130614819Y-130125713D01*
X129948152Y-129363808D02*
X130614819Y-129363808D01*
X130043390Y-129363808D02*
X129995771Y-129316189D01*
X129995771Y-129316189D02*
X129948152Y-129220951D01*
X129948152Y-129220951D02*
X129948152Y-129078094D01*
X129948152Y-129078094D02*
X129995771Y-128982856D01*
X129995771Y-128982856D02*
X130091009Y-128935237D01*
X130091009Y-128935237D02*
X130614819Y-128935237D01*
X132504819Y-94916666D02*
X132028628Y-95249999D01*
X132504819Y-95488094D02*
X131504819Y-95488094D01*
X131504819Y-95488094D02*
X131504819Y-95107142D01*
X131504819Y-95107142D02*
X131552438Y-95011904D01*
X131552438Y-95011904D02*
X131600057Y-94964285D01*
X131600057Y-94964285D02*
X131695295Y-94916666D01*
X131695295Y-94916666D02*
X131838152Y-94916666D01*
X131838152Y-94916666D02*
X131933390Y-94964285D01*
X131933390Y-94964285D02*
X131981009Y-95011904D01*
X131981009Y-95011904D02*
X132028628Y-95107142D01*
X132028628Y-95107142D02*
X132028628Y-95488094D01*
X131552438Y-93964285D02*
X131504819Y-94059523D01*
X131504819Y-94059523D02*
X131504819Y-94202380D01*
X131504819Y-94202380D02*
X131552438Y-94345237D01*
X131552438Y-94345237D02*
X131647676Y-94440475D01*
X131647676Y-94440475D02*
X131742914Y-94488094D01*
X131742914Y-94488094D02*
X131933390Y-94535713D01*
X131933390Y-94535713D02*
X132076247Y-94535713D01*
X132076247Y-94535713D02*
X132266723Y-94488094D01*
X132266723Y-94488094D02*
X132361961Y-94440475D01*
X132361961Y-94440475D02*
X132457200Y-94345237D01*
X132457200Y-94345237D02*
X132504819Y-94202380D01*
X132504819Y-94202380D02*
X132504819Y-94107142D01*
X132504819Y-94107142D02*
X132457200Y-93964285D01*
X132457200Y-93964285D02*
X132409580Y-93916666D01*
X132409580Y-93916666D02*
X132076247Y-93916666D01*
X132076247Y-93916666D02*
X132076247Y-94107142D01*
X131981009Y-93154761D02*
X132028628Y-93011904D01*
X132028628Y-93011904D02*
X132076247Y-92964285D01*
X132076247Y-92964285D02*
X132171485Y-92916666D01*
X132171485Y-92916666D02*
X132314342Y-92916666D01*
X132314342Y-92916666D02*
X132409580Y-92964285D01*
X132409580Y-92964285D02*
X132457200Y-93011904D01*
X132457200Y-93011904D02*
X132504819Y-93107142D01*
X132504819Y-93107142D02*
X132504819Y-93488094D01*
X132504819Y-93488094D02*
X131504819Y-93488094D01*
X131504819Y-93488094D02*
X131504819Y-93154761D01*
X131504819Y-93154761D02*
X131552438Y-93059523D01*
X131552438Y-93059523D02*
X131600057Y-93011904D01*
X131600057Y-93011904D02*
X131695295Y-92964285D01*
X131695295Y-92964285D02*
X131790533Y-92964285D01*
X131790533Y-92964285D02*
X131885771Y-93011904D01*
X131885771Y-93011904D02*
X131933390Y-93059523D01*
X131933390Y-93059523D02*
X131981009Y-93154761D01*
X131981009Y-93154761D02*
X131981009Y-93488094D01*
X132504819Y-91964285D02*
X132504819Y-92535713D01*
X132504819Y-92249999D02*
X131504819Y-92249999D01*
X131504819Y-92249999D02*
X131647676Y-92345237D01*
X131647676Y-92345237D02*
X131742914Y-92440475D01*
X131742914Y-92440475D02*
X131790533Y-92535713D01*
X73954819Y-114511905D02*
X73954819Y-114988095D01*
X73954819Y-114988095D02*
X72954819Y-114988095D01*
X73954819Y-113750000D02*
X73431009Y-113750000D01*
X73431009Y-113750000D02*
X73335771Y-113797619D01*
X73335771Y-113797619D02*
X73288152Y-113892857D01*
X73288152Y-113892857D02*
X73288152Y-114083333D01*
X73288152Y-114083333D02*
X73335771Y-114178571D01*
X73907200Y-113750000D02*
X73954819Y-113845238D01*
X73954819Y-113845238D02*
X73954819Y-114083333D01*
X73954819Y-114083333D02*
X73907200Y-114178571D01*
X73907200Y-114178571D02*
X73811961Y-114226190D01*
X73811961Y-114226190D02*
X73716723Y-114226190D01*
X73716723Y-114226190D02*
X73621485Y-114178571D01*
X73621485Y-114178571D02*
X73573866Y-114083333D01*
X73573866Y-114083333D02*
X73573866Y-113845238D01*
X73573866Y-113845238D02*
X73526247Y-113750000D01*
X73907200Y-113321428D02*
X73954819Y-113226190D01*
X73954819Y-113226190D02*
X73954819Y-113035714D01*
X73954819Y-113035714D02*
X73907200Y-112940476D01*
X73907200Y-112940476D02*
X73811961Y-112892857D01*
X73811961Y-112892857D02*
X73764342Y-112892857D01*
X73764342Y-112892857D02*
X73669104Y-112940476D01*
X73669104Y-112940476D02*
X73621485Y-113035714D01*
X73621485Y-113035714D02*
X73621485Y-113178571D01*
X73621485Y-113178571D02*
X73573866Y-113273809D01*
X73573866Y-113273809D02*
X73478628Y-113321428D01*
X73478628Y-113321428D02*
X73431009Y-113321428D01*
X73431009Y-113321428D02*
X73335771Y-113273809D01*
X73335771Y-113273809D02*
X73288152Y-113178571D01*
X73288152Y-113178571D02*
X73288152Y-113035714D01*
X73288152Y-113035714D02*
X73335771Y-112940476D01*
X73907200Y-112083333D02*
X73954819Y-112178571D01*
X73954819Y-112178571D02*
X73954819Y-112369047D01*
X73954819Y-112369047D02*
X73907200Y-112464285D01*
X73907200Y-112464285D02*
X73811961Y-112511904D01*
X73811961Y-112511904D02*
X73431009Y-112511904D01*
X73431009Y-112511904D02*
X73335771Y-112464285D01*
X73335771Y-112464285D02*
X73288152Y-112369047D01*
X73288152Y-112369047D02*
X73288152Y-112178571D01*
X73288152Y-112178571D02*
X73335771Y-112083333D01*
X73335771Y-112083333D02*
X73431009Y-112035714D01*
X73431009Y-112035714D02*
X73526247Y-112035714D01*
X73526247Y-112035714D02*
X73621485Y-112511904D01*
X73954819Y-111607142D02*
X73288152Y-111607142D01*
X73478628Y-111607142D02*
X73383390Y-111559523D01*
X73383390Y-111559523D02*
X73335771Y-111511904D01*
X73335771Y-111511904D02*
X73288152Y-111416666D01*
X73288152Y-111416666D02*
X73288152Y-111321428D01*
X73050057Y-111035713D02*
X73002438Y-110988094D01*
X73002438Y-110988094D02*
X72954819Y-110892856D01*
X72954819Y-110892856D02*
X72954819Y-110654761D01*
X72954819Y-110654761D02*
X73002438Y-110559523D01*
X73002438Y-110559523D02*
X73050057Y-110511904D01*
X73050057Y-110511904D02*
X73145295Y-110464285D01*
X73145295Y-110464285D02*
X73240533Y-110464285D01*
X73240533Y-110464285D02*
X73383390Y-110511904D01*
X73383390Y-110511904D02*
X73954819Y-111083332D01*
X73954819Y-111083332D02*
X73954819Y-110464285D01*
X132279819Y-73452380D02*
X131279819Y-73452380D01*
X131375057Y-73023809D02*
X131327438Y-72976190D01*
X131327438Y-72976190D02*
X131279819Y-72880952D01*
X131279819Y-72880952D02*
X131279819Y-72642857D01*
X131279819Y-72642857D02*
X131327438Y-72547619D01*
X131327438Y-72547619D02*
X131375057Y-72500000D01*
X131375057Y-72500000D02*
X131470295Y-72452381D01*
X131470295Y-72452381D02*
X131565533Y-72452381D01*
X131565533Y-72452381D02*
X131708390Y-72500000D01*
X131708390Y-72500000D02*
X132279819Y-73071428D01*
X132279819Y-73071428D02*
X132279819Y-72452381D01*
X132184580Y-71452381D02*
X132232200Y-71500000D01*
X132232200Y-71500000D02*
X132279819Y-71642857D01*
X132279819Y-71642857D02*
X132279819Y-71738095D01*
X132279819Y-71738095D02*
X132232200Y-71880952D01*
X132232200Y-71880952D02*
X132136961Y-71976190D01*
X132136961Y-71976190D02*
X132041723Y-72023809D01*
X132041723Y-72023809D02*
X131851247Y-72071428D01*
X131851247Y-72071428D02*
X131708390Y-72071428D01*
X131708390Y-72071428D02*
X131517914Y-72023809D01*
X131517914Y-72023809D02*
X131422676Y-71976190D01*
X131422676Y-71976190D02*
X131327438Y-71880952D01*
X131327438Y-71880952D02*
X131279819Y-71738095D01*
X131279819Y-71738095D02*
X131279819Y-71642857D01*
X131279819Y-71642857D02*
X131327438Y-71500000D01*
X131327438Y-71500000D02*
X131375057Y-71452381D01*
X132279819Y-70500000D02*
X132279819Y-71071428D01*
X132279819Y-70785714D02*
X131279819Y-70785714D01*
X131279819Y-70785714D02*
X131422676Y-70880952D01*
X131422676Y-70880952D02*
X131517914Y-70976190D01*
X131517914Y-70976190D02*
X131565533Y-71071428D01*
X94404761Y-143931009D02*
X94547618Y-143978628D01*
X94547618Y-143978628D02*
X94595237Y-144026247D01*
X94595237Y-144026247D02*
X94642856Y-144121485D01*
X94642856Y-144121485D02*
X94642856Y-144264342D01*
X94642856Y-144264342D02*
X94595237Y-144359580D01*
X94595237Y-144359580D02*
X94547618Y-144407200D01*
X94547618Y-144407200D02*
X94452380Y-144454819D01*
X94452380Y-144454819D02*
X94071428Y-144454819D01*
X94071428Y-144454819D02*
X94071428Y-143454819D01*
X94071428Y-143454819D02*
X94404761Y-143454819D01*
X94404761Y-143454819D02*
X94499999Y-143502438D01*
X94499999Y-143502438D02*
X94547618Y-143550057D01*
X94547618Y-143550057D02*
X94595237Y-143645295D01*
X94595237Y-143645295D02*
X94595237Y-143740533D01*
X94595237Y-143740533D02*
X94547618Y-143835771D01*
X94547618Y-143835771D02*
X94499999Y-143883390D01*
X94499999Y-143883390D02*
X94404761Y-143931009D01*
X94404761Y-143931009D02*
X94071428Y-143931009D01*
X95499999Y-144454819D02*
X95499999Y-143931009D01*
X95499999Y-143931009D02*
X95452380Y-143835771D01*
X95452380Y-143835771D02*
X95357142Y-143788152D01*
X95357142Y-143788152D02*
X95166666Y-143788152D01*
X95166666Y-143788152D02*
X95071428Y-143835771D01*
X95499999Y-144407200D02*
X95404761Y-144454819D01*
X95404761Y-144454819D02*
X95166666Y-144454819D01*
X95166666Y-144454819D02*
X95071428Y-144407200D01*
X95071428Y-144407200D02*
X95023809Y-144311961D01*
X95023809Y-144311961D02*
X95023809Y-144216723D01*
X95023809Y-144216723D02*
X95071428Y-144121485D01*
X95071428Y-144121485D02*
X95166666Y-144073866D01*
X95166666Y-144073866D02*
X95404761Y-144073866D01*
X95404761Y-144073866D02*
X95499999Y-144026247D01*
X95833333Y-143788152D02*
X96214285Y-143788152D01*
X95976190Y-143454819D02*
X95976190Y-144311961D01*
X95976190Y-144311961D02*
X96023809Y-144407200D01*
X96023809Y-144407200D02*
X96119047Y-144454819D01*
X96119047Y-144454819D02*
X96214285Y-144454819D01*
X96928571Y-144407200D02*
X96833333Y-144454819D01*
X96833333Y-144454819D02*
X96642857Y-144454819D01*
X96642857Y-144454819D02*
X96547619Y-144407200D01*
X96547619Y-144407200D02*
X96500000Y-144311961D01*
X96500000Y-144311961D02*
X96500000Y-143931009D01*
X96500000Y-143931009D02*
X96547619Y-143835771D01*
X96547619Y-143835771D02*
X96642857Y-143788152D01*
X96642857Y-143788152D02*
X96833333Y-143788152D01*
X96833333Y-143788152D02*
X96928571Y-143835771D01*
X96928571Y-143835771D02*
X96976190Y-143931009D01*
X96976190Y-143931009D02*
X96976190Y-144026247D01*
X96976190Y-144026247D02*
X96500000Y-144121485D01*
X97404762Y-144454819D02*
X97404762Y-143788152D01*
X97404762Y-143978628D02*
X97452381Y-143883390D01*
X97452381Y-143883390D02*
X97500000Y-143835771D01*
X97500000Y-143835771D02*
X97595238Y-143788152D01*
X97595238Y-143788152D02*
X97690476Y-143788152D01*
X98023810Y-144454819D02*
X98023810Y-143788152D01*
X98023810Y-143454819D02*
X97976191Y-143502438D01*
X97976191Y-143502438D02*
X98023810Y-143550057D01*
X98023810Y-143550057D02*
X98071429Y-143502438D01*
X98071429Y-143502438D02*
X98023810Y-143454819D01*
X98023810Y-143454819D02*
X98023810Y-143550057D01*
X98928571Y-144454819D02*
X98928571Y-143931009D01*
X98928571Y-143931009D02*
X98880952Y-143835771D01*
X98880952Y-143835771D02*
X98785714Y-143788152D01*
X98785714Y-143788152D02*
X98595238Y-143788152D01*
X98595238Y-143788152D02*
X98500000Y-143835771D01*
X98928571Y-144407200D02*
X98833333Y-144454819D01*
X98833333Y-144454819D02*
X98595238Y-144454819D01*
X98595238Y-144454819D02*
X98500000Y-144407200D01*
X98500000Y-144407200D02*
X98452381Y-144311961D01*
X98452381Y-144311961D02*
X98452381Y-144216723D01*
X98452381Y-144216723D02*
X98500000Y-144121485D01*
X98500000Y-144121485D02*
X98595238Y-144073866D01*
X98595238Y-144073866D02*
X98833333Y-144073866D01*
X98833333Y-144073866D02*
X98928571Y-144026247D01*
X91271428Y-62334819D02*
X90938095Y-61858628D01*
X90700000Y-62334819D02*
X90700000Y-61334819D01*
X90700000Y-61334819D02*
X91080952Y-61334819D01*
X91080952Y-61334819D02*
X91176190Y-61382438D01*
X91176190Y-61382438D02*
X91223809Y-61430057D01*
X91223809Y-61430057D02*
X91271428Y-61525295D01*
X91271428Y-61525295D02*
X91271428Y-61668152D01*
X91271428Y-61668152D02*
X91223809Y-61763390D01*
X91223809Y-61763390D02*
X91176190Y-61811009D01*
X91176190Y-61811009D02*
X91080952Y-61858628D01*
X91080952Y-61858628D02*
X90700000Y-61858628D01*
X92080952Y-62287200D02*
X91985714Y-62334819D01*
X91985714Y-62334819D02*
X91795238Y-62334819D01*
X91795238Y-62334819D02*
X91700000Y-62287200D01*
X91700000Y-62287200D02*
X91652381Y-62191961D01*
X91652381Y-62191961D02*
X91652381Y-61811009D01*
X91652381Y-61811009D02*
X91700000Y-61715771D01*
X91700000Y-61715771D02*
X91795238Y-61668152D01*
X91795238Y-61668152D02*
X91985714Y-61668152D01*
X91985714Y-61668152D02*
X92080952Y-61715771D01*
X92080952Y-61715771D02*
X92128571Y-61811009D01*
X92128571Y-61811009D02*
X92128571Y-61906247D01*
X92128571Y-61906247D02*
X91652381Y-62001485D01*
X92509524Y-62287200D02*
X92604762Y-62334819D01*
X92604762Y-62334819D02*
X92795238Y-62334819D01*
X92795238Y-62334819D02*
X92890476Y-62287200D01*
X92890476Y-62287200D02*
X92938095Y-62191961D01*
X92938095Y-62191961D02*
X92938095Y-62144342D01*
X92938095Y-62144342D02*
X92890476Y-62049104D01*
X92890476Y-62049104D02*
X92795238Y-62001485D01*
X92795238Y-62001485D02*
X92652381Y-62001485D01*
X92652381Y-62001485D02*
X92557143Y-61953866D01*
X92557143Y-61953866D02*
X92509524Y-61858628D01*
X92509524Y-61858628D02*
X92509524Y-61811009D01*
X92509524Y-61811009D02*
X92557143Y-61715771D01*
X92557143Y-61715771D02*
X92652381Y-61668152D01*
X92652381Y-61668152D02*
X92795238Y-61668152D01*
X92795238Y-61668152D02*
X92890476Y-61715771D01*
X93366667Y-62334819D02*
X93366667Y-61668152D01*
X93366667Y-61334819D02*
X93319048Y-61382438D01*
X93319048Y-61382438D02*
X93366667Y-61430057D01*
X93366667Y-61430057D02*
X93414286Y-61382438D01*
X93414286Y-61382438D02*
X93366667Y-61334819D01*
X93366667Y-61334819D02*
X93366667Y-61430057D01*
X93795238Y-62287200D02*
X93890476Y-62334819D01*
X93890476Y-62334819D02*
X94080952Y-62334819D01*
X94080952Y-62334819D02*
X94176190Y-62287200D01*
X94176190Y-62287200D02*
X94223809Y-62191961D01*
X94223809Y-62191961D02*
X94223809Y-62144342D01*
X94223809Y-62144342D02*
X94176190Y-62049104D01*
X94176190Y-62049104D02*
X94080952Y-62001485D01*
X94080952Y-62001485D02*
X93938095Y-62001485D01*
X93938095Y-62001485D02*
X93842857Y-61953866D01*
X93842857Y-61953866D02*
X93795238Y-61858628D01*
X93795238Y-61858628D02*
X93795238Y-61811009D01*
X93795238Y-61811009D02*
X93842857Y-61715771D01*
X93842857Y-61715771D02*
X93938095Y-61668152D01*
X93938095Y-61668152D02*
X94080952Y-61668152D01*
X94080952Y-61668152D02*
X94176190Y-61715771D01*
X94509524Y-61668152D02*
X94890476Y-61668152D01*
X94652381Y-61334819D02*
X94652381Y-62191961D01*
X94652381Y-62191961D02*
X94700000Y-62287200D01*
X94700000Y-62287200D02*
X94795238Y-62334819D01*
X94795238Y-62334819D02*
X94890476Y-62334819D01*
X95604762Y-62287200D02*
X95509524Y-62334819D01*
X95509524Y-62334819D02*
X95319048Y-62334819D01*
X95319048Y-62334819D02*
X95223810Y-62287200D01*
X95223810Y-62287200D02*
X95176191Y-62191961D01*
X95176191Y-62191961D02*
X95176191Y-61811009D01*
X95176191Y-61811009D02*
X95223810Y-61715771D01*
X95223810Y-61715771D02*
X95319048Y-61668152D01*
X95319048Y-61668152D02*
X95509524Y-61668152D01*
X95509524Y-61668152D02*
X95604762Y-61715771D01*
X95604762Y-61715771D02*
X95652381Y-61811009D01*
X95652381Y-61811009D02*
X95652381Y-61906247D01*
X95652381Y-61906247D02*
X95176191Y-62001485D01*
X96080953Y-61668152D02*
X96080953Y-62334819D01*
X96080953Y-61763390D02*
X96128572Y-61715771D01*
X96128572Y-61715771D02*
X96223810Y-61668152D01*
X96223810Y-61668152D02*
X96366667Y-61668152D01*
X96366667Y-61668152D02*
X96461905Y-61715771D01*
X96461905Y-61715771D02*
X96509524Y-61811009D01*
X96509524Y-61811009D02*
X96509524Y-62334819D01*
X97414286Y-62287200D02*
X97319048Y-62334819D01*
X97319048Y-62334819D02*
X97128572Y-62334819D01*
X97128572Y-62334819D02*
X97033334Y-62287200D01*
X97033334Y-62287200D02*
X96985715Y-62239580D01*
X96985715Y-62239580D02*
X96938096Y-62144342D01*
X96938096Y-62144342D02*
X96938096Y-61858628D01*
X96938096Y-61858628D02*
X96985715Y-61763390D01*
X96985715Y-61763390D02*
X97033334Y-61715771D01*
X97033334Y-61715771D02*
X97128572Y-61668152D01*
X97128572Y-61668152D02*
X97319048Y-61668152D01*
X97319048Y-61668152D02*
X97414286Y-61715771D01*
X97842858Y-62334819D02*
X97842858Y-61668152D01*
X97842858Y-61334819D02*
X97795239Y-61382438D01*
X97795239Y-61382438D02*
X97842858Y-61430057D01*
X97842858Y-61430057D02*
X97890477Y-61382438D01*
X97890477Y-61382438D02*
X97842858Y-61334819D01*
X97842858Y-61334819D02*
X97842858Y-61430057D01*
X98747619Y-62334819D02*
X98747619Y-61811009D01*
X98747619Y-61811009D02*
X98700000Y-61715771D01*
X98700000Y-61715771D02*
X98604762Y-61668152D01*
X98604762Y-61668152D02*
X98414286Y-61668152D01*
X98414286Y-61668152D02*
X98319048Y-61715771D01*
X98747619Y-62287200D02*
X98652381Y-62334819D01*
X98652381Y-62334819D02*
X98414286Y-62334819D01*
X98414286Y-62334819D02*
X98319048Y-62287200D01*
X98319048Y-62287200D02*
X98271429Y-62191961D01*
X98271429Y-62191961D02*
X98271429Y-62096723D01*
X98271429Y-62096723D02*
X98319048Y-62001485D01*
X98319048Y-62001485D02*
X98414286Y-61953866D01*
X98414286Y-61953866D02*
X98652381Y-61953866D01*
X98652381Y-61953866D02*
X98747619Y-61906247D01*
X99747619Y-62334819D02*
X99176191Y-62334819D01*
X99461905Y-62334819D02*
X99461905Y-61334819D01*
X99461905Y-61334819D02*
X99366667Y-61477676D01*
X99366667Y-61477676D02*
X99271429Y-61572914D01*
X99271429Y-61572914D02*
X99176191Y-61620533D01*
X121982200Y-110715475D02*
X122029819Y-110572618D01*
X122029819Y-110572618D02*
X122029819Y-110334523D01*
X122029819Y-110334523D02*
X121982200Y-110239285D01*
X121982200Y-110239285D02*
X121934580Y-110191666D01*
X121934580Y-110191666D02*
X121839342Y-110144047D01*
X121839342Y-110144047D02*
X121744104Y-110144047D01*
X121744104Y-110144047D02*
X121648866Y-110191666D01*
X121648866Y-110191666D02*
X121601247Y-110239285D01*
X121601247Y-110239285D02*
X121553628Y-110334523D01*
X121553628Y-110334523D02*
X121506009Y-110524999D01*
X121506009Y-110524999D02*
X121458390Y-110620237D01*
X121458390Y-110620237D02*
X121410771Y-110667856D01*
X121410771Y-110667856D02*
X121315533Y-110715475D01*
X121315533Y-110715475D02*
X121220295Y-110715475D01*
X121220295Y-110715475D02*
X121125057Y-110667856D01*
X121125057Y-110667856D02*
X121077438Y-110620237D01*
X121077438Y-110620237D02*
X121029819Y-110524999D01*
X121029819Y-110524999D02*
X121029819Y-110286904D01*
X121029819Y-110286904D02*
X121077438Y-110144047D01*
X121506009Y-109715475D02*
X121506009Y-109382142D01*
X122029819Y-109239285D02*
X122029819Y-109715475D01*
X122029819Y-109715475D02*
X121029819Y-109715475D01*
X121029819Y-109715475D02*
X121029819Y-109239285D01*
X122029819Y-108239285D02*
X121553628Y-108572618D01*
X122029819Y-108810713D02*
X121029819Y-108810713D01*
X121029819Y-108810713D02*
X121029819Y-108429761D01*
X121029819Y-108429761D02*
X121077438Y-108334523D01*
X121077438Y-108334523D02*
X121125057Y-108286904D01*
X121125057Y-108286904D02*
X121220295Y-108239285D01*
X121220295Y-108239285D02*
X121363152Y-108239285D01*
X121363152Y-108239285D02*
X121458390Y-108286904D01*
X121458390Y-108286904D02*
X121506009Y-108334523D01*
X121506009Y-108334523D02*
X121553628Y-108429761D01*
X121553628Y-108429761D02*
X121553628Y-108810713D01*
X121029819Y-107953570D02*
X122029819Y-107620237D01*
X122029819Y-107620237D02*
X121029819Y-107286904D01*
X121029819Y-106763094D02*
X121029819Y-106572618D01*
X121029819Y-106572618D02*
X121077438Y-106477380D01*
X121077438Y-106477380D02*
X121172676Y-106382142D01*
X121172676Y-106382142D02*
X121363152Y-106334523D01*
X121363152Y-106334523D02*
X121696485Y-106334523D01*
X121696485Y-106334523D02*
X121886961Y-106382142D01*
X121886961Y-106382142D02*
X121982200Y-106477380D01*
X121982200Y-106477380D02*
X122029819Y-106572618D01*
X122029819Y-106572618D02*
X122029819Y-106763094D01*
X122029819Y-106763094D02*
X121982200Y-106858332D01*
X121982200Y-106858332D02*
X121886961Y-106953570D01*
X121886961Y-106953570D02*
X121696485Y-107001189D01*
X121696485Y-107001189D02*
X121363152Y-107001189D01*
X121363152Y-107001189D02*
X121172676Y-106953570D01*
X121172676Y-106953570D02*
X121077438Y-106858332D01*
X121077438Y-106858332D02*
X121029819Y-106763094D01*
X73929819Y-128511905D02*
X73929819Y-128988095D01*
X73929819Y-128988095D02*
X72929819Y-128988095D01*
X73929819Y-127750000D02*
X73406009Y-127750000D01*
X73406009Y-127750000D02*
X73310771Y-127797619D01*
X73310771Y-127797619D02*
X73263152Y-127892857D01*
X73263152Y-127892857D02*
X73263152Y-128083333D01*
X73263152Y-128083333D02*
X73310771Y-128178571D01*
X73882200Y-127750000D02*
X73929819Y-127845238D01*
X73929819Y-127845238D02*
X73929819Y-128083333D01*
X73929819Y-128083333D02*
X73882200Y-128178571D01*
X73882200Y-128178571D02*
X73786961Y-128226190D01*
X73786961Y-128226190D02*
X73691723Y-128226190D01*
X73691723Y-128226190D02*
X73596485Y-128178571D01*
X73596485Y-128178571D02*
X73548866Y-128083333D01*
X73548866Y-128083333D02*
X73548866Y-127845238D01*
X73548866Y-127845238D02*
X73501247Y-127750000D01*
X73882200Y-127321428D02*
X73929819Y-127226190D01*
X73929819Y-127226190D02*
X73929819Y-127035714D01*
X73929819Y-127035714D02*
X73882200Y-126940476D01*
X73882200Y-126940476D02*
X73786961Y-126892857D01*
X73786961Y-126892857D02*
X73739342Y-126892857D01*
X73739342Y-126892857D02*
X73644104Y-126940476D01*
X73644104Y-126940476D02*
X73596485Y-127035714D01*
X73596485Y-127035714D02*
X73596485Y-127178571D01*
X73596485Y-127178571D02*
X73548866Y-127273809D01*
X73548866Y-127273809D02*
X73453628Y-127321428D01*
X73453628Y-127321428D02*
X73406009Y-127321428D01*
X73406009Y-127321428D02*
X73310771Y-127273809D01*
X73310771Y-127273809D02*
X73263152Y-127178571D01*
X73263152Y-127178571D02*
X73263152Y-127035714D01*
X73263152Y-127035714D02*
X73310771Y-126940476D01*
X73882200Y-126083333D02*
X73929819Y-126178571D01*
X73929819Y-126178571D02*
X73929819Y-126369047D01*
X73929819Y-126369047D02*
X73882200Y-126464285D01*
X73882200Y-126464285D02*
X73786961Y-126511904D01*
X73786961Y-126511904D02*
X73406009Y-126511904D01*
X73406009Y-126511904D02*
X73310771Y-126464285D01*
X73310771Y-126464285D02*
X73263152Y-126369047D01*
X73263152Y-126369047D02*
X73263152Y-126178571D01*
X73263152Y-126178571D02*
X73310771Y-126083333D01*
X73310771Y-126083333D02*
X73406009Y-126035714D01*
X73406009Y-126035714D02*
X73501247Y-126035714D01*
X73501247Y-126035714D02*
X73596485Y-126511904D01*
X73929819Y-125607142D02*
X73263152Y-125607142D01*
X73453628Y-125607142D02*
X73358390Y-125559523D01*
X73358390Y-125559523D02*
X73310771Y-125511904D01*
X73310771Y-125511904D02*
X73263152Y-125416666D01*
X73263152Y-125416666D02*
X73263152Y-125321428D01*
X72929819Y-125083332D02*
X72929819Y-124464285D01*
X72929819Y-124464285D02*
X73310771Y-124797618D01*
X73310771Y-124797618D02*
X73310771Y-124654761D01*
X73310771Y-124654761D02*
X73358390Y-124559523D01*
X73358390Y-124559523D02*
X73406009Y-124511904D01*
X73406009Y-124511904D02*
X73501247Y-124464285D01*
X73501247Y-124464285D02*
X73739342Y-124464285D01*
X73739342Y-124464285D02*
X73834580Y-124511904D01*
X73834580Y-124511904D02*
X73882200Y-124559523D01*
X73882200Y-124559523D02*
X73929819Y-124654761D01*
X73929819Y-124654761D02*
X73929819Y-124940475D01*
X73929819Y-124940475D02*
X73882200Y-125035713D01*
X73882200Y-125035713D02*
X73834580Y-125083332D01*
X66547618Y-142359580D02*
X66499999Y-142407200D01*
X66499999Y-142407200D02*
X66357142Y-142454819D01*
X66357142Y-142454819D02*
X66261904Y-142454819D01*
X66261904Y-142454819D02*
X66119047Y-142407200D01*
X66119047Y-142407200D02*
X66023809Y-142311961D01*
X66023809Y-142311961D02*
X65976190Y-142216723D01*
X65976190Y-142216723D02*
X65928571Y-142026247D01*
X65928571Y-142026247D02*
X65928571Y-141883390D01*
X65928571Y-141883390D02*
X65976190Y-141692914D01*
X65976190Y-141692914D02*
X66023809Y-141597676D01*
X66023809Y-141597676D02*
X66119047Y-141502438D01*
X66119047Y-141502438D02*
X66261904Y-141454819D01*
X66261904Y-141454819D02*
X66357142Y-141454819D01*
X66357142Y-141454819D02*
X66499999Y-141502438D01*
X66499999Y-141502438D02*
X66547618Y-141550057D01*
X67119047Y-142454819D02*
X67023809Y-142407200D01*
X67023809Y-142407200D02*
X66976190Y-142359580D01*
X66976190Y-142359580D02*
X66928571Y-142264342D01*
X66928571Y-142264342D02*
X66928571Y-141978628D01*
X66928571Y-141978628D02*
X66976190Y-141883390D01*
X66976190Y-141883390D02*
X67023809Y-141835771D01*
X67023809Y-141835771D02*
X67119047Y-141788152D01*
X67119047Y-141788152D02*
X67261904Y-141788152D01*
X67261904Y-141788152D02*
X67357142Y-141835771D01*
X67357142Y-141835771D02*
X67404761Y-141883390D01*
X67404761Y-141883390D02*
X67452380Y-141978628D01*
X67452380Y-141978628D02*
X67452380Y-142264342D01*
X67452380Y-142264342D02*
X67404761Y-142359580D01*
X67404761Y-142359580D02*
X67357142Y-142407200D01*
X67357142Y-142407200D02*
X67261904Y-142454819D01*
X67261904Y-142454819D02*
X67119047Y-142454819D01*
X67880952Y-141788152D02*
X67880952Y-142454819D01*
X67880952Y-141883390D02*
X67928571Y-141835771D01*
X67928571Y-141835771D02*
X68023809Y-141788152D01*
X68023809Y-141788152D02*
X68166666Y-141788152D01*
X68166666Y-141788152D02*
X68261904Y-141835771D01*
X68261904Y-141835771D02*
X68309523Y-141931009D01*
X68309523Y-141931009D02*
X68309523Y-142454819D01*
X68690476Y-141788152D02*
X68928571Y-142454819D01*
X68928571Y-142454819D02*
X69166666Y-141788152D01*
X69928571Y-142407200D02*
X69833333Y-142454819D01*
X69833333Y-142454819D02*
X69642857Y-142454819D01*
X69642857Y-142454819D02*
X69547619Y-142407200D01*
X69547619Y-142407200D02*
X69500000Y-142311961D01*
X69500000Y-142311961D02*
X69500000Y-141931009D01*
X69500000Y-141931009D02*
X69547619Y-141835771D01*
X69547619Y-141835771D02*
X69642857Y-141788152D01*
X69642857Y-141788152D02*
X69833333Y-141788152D01*
X69833333Y-141788152D02*
X69928571Y-141835771D01*
X69928571Y-141835771D02*
X69976190Y-141931009D01*
X69976190Y-141931009D02*
X69976190Y-142026247D01*
X69976190Y-142026247D02*
X69500000Y-142121485D01*
X70404762Y-142454819D02*
X70404762Y-141788152D01*
X70404762Y-141978628D02*
X70452381Y-141883390D01*
X70452381Y-141883390D02*
X70500000Y-141835771D01*
X70500000Y-141835771D02*
X70595238Y-141788152D01*
X70595238Y-141788152D02*
X70690476Y-141788152D01*
X70880953Y-141788152D02*
X71261905Y-141788152D01*
X71023810Y-141454819D02*
X71023810Y-142311961D01*
X71023810Y-142311961D02*
X71071429Y-142407200D01*
X71071429Y-142407200D02*
X71166667Y-142454819D01*
X71166667Y-142454819D02*
X71261905Y-142454819D01*
X71595239Y-142454819D02*
X71595239Y-141788152D01*
X71595239Y-141454819D02*
X71547620Y-141502438D01*
X71547620Y-141502438D02*
X71595239Y-141550057D01*
X71595239Y-141550057D02*
X71642858Y-141502438D01*
X71642858Y-141502438D02*
X71595239Y-141454819D01*
X71595239Y-141454819D02*
X71595239Y-141550057D01*
X72500000Y-142454819D02*
X72500000Y-141454819D01*
X72500000Y-142407200D02*
X72404762Y-142454819D01*
X72404762Y-142454819D02*
X72214286Y-142454819D01*
X72214286Y-142454819D02*
X72119048Y-142407200D01*
X72119048Y-142407200D02*
X72071429Y-142359580D01*
X72071429Y-142359580D02*
X72023810Y-142264342D01*
X72023810Y-142264342D02*
X72023810Y-141978628D01*
X72023810Y-141978628D02*
X72071429Y-141883390D01*
X72071429Y-141883390D02*
X72119048Y-141835771D01*
X72119048Y-141835771D02*
X72214286Y-141788152D01*
X72214286Y-141788152D02*
X72404762Y-141788152D01*
X72404762Y-141788152D02*
X72500000Y-141835771D01*
X73119048Y-142454819D02*
X73023810Y-142407200D01*
X73023810Y-142407200D02*
X72976191Y-142359580D01*
X72976191Y-142359580D02*
X72928572Y-142264342D01*
X72928572Y-142264342D02*
X72928572Y-141978628D01*
X72928572Y-141978628D02*
X72976191Y-141883390D01*
X72976191Y-141883390D02*
X73023810Y-141835771D01*
X73023810Y-141835771D02*
X73119048Y-141788152D01*
X73119048Y-141788152D02*
X73261905Y-141788152D01*
X73261905Y-141788152D02*
X73357143Y-141835771D01*
X73357143Y-141835771D02*
X73404762Y-141883390D01*
X73404762Y-141883390D02*
X73452381Y-141978628D01*
X73452381Y-141978628D02*
X73452381Y-142264342D01*
X73452381Y-142264342D02*
X73404762Y-142359580D01*
X73404762Y-142359580D02*
X73357143Y-142407200D01*
X73357143Y-142407200D02*
X73261905Y-142454819D01*
X73261905Y-142454819D02*
X73119048Y-142454819D01*
X73880953Y-142454819D02*
X73880953Y-141788152D01*
X73880953Y-141978628D02*
X73928572Y-141883390D01*
X73928572Y-141883390D02*
X73976191Y-141835771D01*
X73976191Y-141835771D02*
X74071429Y-141788152D01*
X74071429Y-141788152D02*
X74166667Y-141788152D01*
X107644819Y-104762856D02*
X107644819Y-104191428D01*
X108644819Y-104477142D02*
X107644819Y-104477142D01*
X108121009Y-103524761D02*
X108168628Y-103381904D01*
X108168628Y-103381904D02*
X108216247Y-103334285D01*
X108216247Y-103334285D02*
X108311485Y-103286666D01*
X108311485Y-103286666D02*
X108454342Y-103286666D01*
X108454342Y-103286666D02*
X108549580Y-103334285D01*
X108549580Y-103334285D02*
X108597200Y-103381904D01*
X108597200Y-103381904D02*
X108644819Y-103477142D01*
X108644819Y-103477142D02*
X108644819Y-103858094D01*
X108644819Y-103858094D02*
X107644819Y-103858094D01*
X107644819Y-103858094D02*
X107644819Y-103524761D01*
X107644819Y-103524761D02*
X107692438Y-103429523D01*
X107692438Y-103429523D02*
X107740057Y-103381904D01*
X107740057Y-103381904D02*
X107835295Y-103334285D01*
X107835295Y-103334285D02*
X107930533Y-103334285D01*
X107930533Y-103334285D02*
X108025771Y-103381904D01*
X108025771Y-103381904D02*
X108073390Y-103429523D01*
X108073390Y-103429523D02*
X108121009Y-103524761D01*
X108121009Y-103524761D02*
X108121009Y-103858094D01*
X107644819Y-102429523D02*
X107644819Y-102619999D01*
X107644819Y-102619999D02*
X107692438Y-102715237D01*
X107692438Y-102715237D02*
X107740057Y-102762856D01*
X107740057Y-102762856D02*
X107882914Y-102858094D01*
X107882914Y-102858094D02*
X108073390Y-102905713D01*
X108073390Y-102905713D02*
X108454342Y-102905713D01*
X108454342Y-102905713D02*
X108549580Y-102858094D01*
X108549580Y-102858094D02*
X108597200Y-102810475D01*
X108597200Y-102810475D02*
X108644819Y-102715237D01*
X108644819Y-102715237D02*
X108644819Y-102524761D01*
X108644819Y-102524761D02*
X108597200Y-102429523D01*
X108597200Y-102429523D02*
X108549580Y-102381904D01*
X108549580Y-102381904D02*
X108454342Y-102334285D01*
X108454342Y-102334285D02*
X108216247Y-102334285D01*
X108216247Y-102334285D02*
X108121009Y-102381904D01*
X108121009Y-102381904D02*
X108073390Y-102429523D01*
X108073390Y-102429523D02*
X108025771Y-102524761D01*
X108025771Y-102524761D02*
X108025771Y-102715237D01*
X108025771Y-102715237D02*
X108073390Y-102810475D01*
X108073390Y-102810475D02*
X108121009Y-102858094D01*
X108121009Y-102858094D02*
X108216247Y-102905713D01*
X107644819Y-101477142D02*
X107644819Y-101667618D01*
X107644819Y-101667618D02*
X107692438Y-101762856D01*
X107692438Y-101762856D02*
X107740057Y-101810475D01*
X107740057Y-101810475D02*
X107882914Y-101905713D01*
X107882914Y-101905713D02*
X108073390Y-101953332D01*
X108073390Y-101953332D02*
X108454342Y-101953332D01*
X108454342Y-101953332D02*
X108549580Y-101905713D01*
X108549580Y-101905713D02*
X108597200Y-101858094D01*
X108597200Y-101858094D02*
X108644819Y-101762856D01*
X108644819Y-101762856D02*
X108644819Y-101572380D01*
X108644819Y-101572380D02*
X108597200Y-101477142D01*
X108597200Y-101477142D02*
X108549580Y-101429523D01*
X108549580Y-101429523D02*
X108454342Y-101381904D01*
X108454342Y-101381904D02*
X108216247Y-101381904D01*
X108216247Y-101381904D02*
X108121009Y-101429523D01*
X108121009Y-101429523D02*
X108073390Y-101477142D01*
X108073390Y-101477142D02*
X108025771Y-101572380D01*
X108025771Y-101572380D02*
X108025771Y-101762856D01*
X108025771Y-101762856D02*
X108073390Y-101858094D01*
X108073390Y-101858094D02*
X108121009Y-101905713D01*
X108121009Y-101905713D02*
X108216247Y-101953332D01*
X108644819Y-100429523D02*
X108644819Y-101000951D01*
X108644819Y-100715237D02*
X107644819Y-100715237D01*
X107644819Y-100715237D02*
X107787676Y-100810475D01*
X107787676Y-100810475D02*
X107882914Y-100905713D01*
X107882914Y-100905713D02*
X107930533Y-101000951D01*
X107740057Y-100048570D02*
X107692438Y-100000951D01*
X107692438Y-100000951D02*
X107644819Y-99905713D01*
X107644819Y-99905713D02*
X107644819Y-99667618D01*
X107644819Y-99667618D02*
X107692438Y-99572380D01*
X107692438Y-99572380D02*
X107740057Y-99524761D01*
X107740057Y-99524761D02*
X107835295Y-99477142D01*
X107835295Y-99477142D02*
X107930533Y-99477142D01*
X107930533Y-99477142D02*
X108073390Y-99524761D01*
X108073390Y-99524761D02*
X108644819Y-100096189D01*
X108644819Y-100096189D02*
X108644819Y-99477142D01*
X108121009Y-98715237D02*
X108121009Y-99048570D01*
X108644819Y-99048570D02*
X107644819Y-99048570D01*
X107644819Y-99048570D02*
X107644819Y-98572380D01*
X108644819Y-98191427D02*
X107644819Y-98191427D01*
X107644819Y-98191427D02*
X108644819Y-97619999D01*
X108644819Y-97619999D02*
X107644819Y-97619999D01*
X107692438Y-96619999D02*
X107644819Y-96715237D01*
X107644819Y-96715237D02*
X107644819Y-96858094D01*
X107644819Y-96858094D02*
X107692438Y-97000951D01*
X107692438Y-97000951D02*
X107787676Y-97096189D01*
X107787676Y-97096189D02*
X107882914Y-97143808D01*
X107882914Y-97143808D02*
X108073390Y-97191427D01*
X108073390Y-97191427D02*
X108216247Y-97191427D01*
X108216247Y-97191427D02*
X108406723Y-97143808D01*
X108406723Y-97143808D02*
X108501961Y-97096189D01*
X108501961Y-97096189D02*
X108597200Y-97000951D01*
X108597200Y-97000951D02*
X108644819Y-96858094D01*
X108644819Y-96858094D02*
X108644819Y-96762856D01*
X108644819Y-96762856D02*
X108597200Y-96619999D01*
X108597200Y-96619999D02*
X108549580Y-96572380D01*
X108549580Y-96572380D02*
X108216247Y-96572380D01*
X108216247Y-96572380D02*
X108216247Y-96762856D01*
X81785714Y-144407200D02*
X81928571Y-144454819D01*
X81928571Y-144454819D02*
X82166666Y-144454819D01*
X82166666Y-144454819D02*
X82261904Y-144407200D01*
X82261904Y-144407200D02*
X82309523Y-144359580D01*
X82309523Y-144359580D02*
X82357142Y-144264342D01*
X82357142Y-144264342D02*
X82357142Y-144169104D01*
X82357142Y-144169104D02*
X82309523Y-144073866D01*
X82309523Y-144073866D02*
X82261904Y-144026247D01*
X82261904Y-144026247D02*
X82166666Y-143978628D01*
X82166666Y-143978628D02*
X81976190Y-143931009D01*
X81976190Y-143931009D02*
X81880952Y-143883390D01*
X81880952Y-143883390D02*
X81833333Y-143835771D01*
X81833333Y-143835771D02*
X81785714Y-143740533D01*
X81785714Y-143740533D02*
X81785714Y-143645295D01*
X81785714Y-143645295D02*
X81833333Y-143550057D01*
X81833333Y-143550057D02*
X81880952Y-143502438D01*
X81880952Y-143502438D02*
X81976190Y-143454819D01*
X81976190Y-143454819D02*
X82214285Y-143454819D01*
X82214285Y-143454819D02*
X82357142Y-143502438D01*
X82690476Y-143788152D02*
X82880952Y-144454819D01*
X82880952Y-144454819D02*
X83071428Y-143978628D01*
X83071428Y-143978628D02*
X83261904Y-144454819D01*
X83261904Y-144454819D02*
X83452380Y-143788152D01*
X83833333Y-144454819D02*
X83833333Y-143788152D01*
X83833333Y-143454819D02*
X83785714Y-143502438D01*
X83785714Y-143502438D02*
X83833333Y-143550057D01*
X83833333Y-143550057D02*
X83880952Y-143502438D01*
X83880952Y-143502438D02*
X83833333Y-143454819D01*
X83833333Y-143454819D02*
X83833333Y-143550057D01*
X84166666Y-143788152D02*
X84547618Y-143788152D01*
X84309523Y-143454819D02*
X84309523Y-144311961D01*
X84309523Y-144311961D02*
X84357142Y-144407200D01*
X84357142Y-144407200D02*
X84452380Y-144454819D01*
X84452380Y-144454819D02*
X84547618Y-144454819D01*
X85309523Y-144407200D02*
X85214285Y-144454819D01*
X85214285Y-144454819D02*
X85023809Y-144454819D01*
X85023809Y-144454819D02*
X84928571Y-144407200D01*
X84928571Y-144407200D02*
X84880952Y-144359580D01*
X84880952Y-144359580D02*
X84833333Y-144264342D01*
X84833333Y-144264342D02*
X84833333Y-143978628D01*
X84833333Y-143978628D02*
X84880952Y-143883390D01*
X84880952Y-143883390D02*
X84928571Y-143835771D01*
X84928571Y-143835771D02*
X85023809Y-143788152D01*
X85023809Y-143788152D02*
X85214285Y-143788152D01*
X85214285Y-143788152D02*
X85309523Y-143835771D01*
X85738095Y-144454819D02*
X85738095Y-143454819D01*
X86166666Y-144454819D02*
X86166666Y-143931009D01*
X86166666Y-143931009D02*
X86119047Y-143835771D01*
X86119047Y-143835771D02*
X86023809Y-143788152D01*
X86023809Y-143788152D02*
X85880952Y-143788152D01*
X85880952Y-143788152D02*
X85785714Y-143835771D01*
X85785714Y-143835771D02*
X85738095Y-143883390D01*
X67446009Y-69523809D02*
X67446009Y-69190476D01*
X67969819Y-69047619D02*
X67969819Y-69523809D01*
X67969819Y-69523809D02*
X66969819Y-69523809D01*
X66969819Y-69523809D02*
X66969819Y-69047619D01*
X67922200Y-68666666D02*
X67969819Y-68571428D01*
X67969819Y-68571428D02*
X67969819Y-68380952D01*
X67969819Y-68380952D02*
X67922200Y-68285714D01*
X67922200Y-68285714D02*
X67826961Y-68238095D01*
X67826961Y-68238095D02*
X67779342Y-68238095D01*
X67779342Y-68238095D02*
X67684104Y-68285714D01*
X67684104Y-68285714D02*
X67636485Y-68380952D01*
X67636485Y-68380952D02*
X67636485Y-68523809D01*
X67636485Y-68523809D02*
X67588866Y-68619047D01*
X67588866Y-68619047D02*
X67493628Y-68666666D01*
X67493628Y-68666666D02*
X67446009Y-68666666D01*
X67446009Y-68666666D02*
X67350771Y-68619047D01*
X67350771Y-68619047D02*
X67303152Y-68523809D01*
X67303152Y-68523809D02*
X67303152Y-68380952D01*
X67303152Y-68380952D02*
X67350771Y-68285714D01*
X67303152Y-67809523D02*
X68303152Y-67809523D01*
X67350771Y-67809523D02*
X67303152Y-67714285D01*
X67303152Y-67714285D02*
X67303152Y-67523809D01*
X67303152Y-67523809D02*
X67350771Y-67428571D01*
X67350771Y-67428571D02*
X67398390Y-67380952D01*
X67398390Y-67380952D02*
X67493628Y-67333333D01*
X67493628Y-67333333D02*
X67779342Y-67333333D01*
X67779342Y-67333333D02*
X67874580Y-67380952D01*
X67874580Y-67380952D02*
X67922200Y-67428571D01*
X67922200Y-67428571D02*
X67969819Y-67523809D01*
X67969819Y-67523809D02*
X67969819Y-67714285D01*
X67969819Y-67714285D02*
X67922200Y-67809523D01*
X66969819Y-66999999D02*
X66969819Y-66380952D01*
X66969819Y-66380952D02*
X67350771Y-66714285D01*
X67350771Y-66714285D02*
X67350771Y-66571428D01*
X67350771Y-66571428D02*
X67398390Y-66476190D01*
X67398390Y-66476190D02*
X67446009Y-66428571D01*
X67446009Y-66428571D02*
X67541247Y-66380952D01*
X67541247Y-66380952D02*
X67779342Y-66380952D01*
X67779342Y-66380952D02*
X67874580Y-66428571D01*
X67874580Y-66428571D02*
X67922200Y-66476190D01*
X67922200Y-66476190D02*
X67969819Y-66571428D01*
X67969819Y-66571428D02*
X67969819Y-66857142D01*
X67969819Y-66857142D02*
X67922200Y-66952380D01*
X67922200Y-66952380D02*
X67874580Y-66999999D01*
X67065057Y-65999999D02*
X67017438Y-65952380D01*
X67017438Y-65952380D02*
X66969819Y-65857142D01*
X66969819Y-65857142D02*
X66969819Y-65619047D01*
X66969819Y-65619047D02*
X67017438Y-65523809D01*
X67017438Y-65523809D02*
X67065057Y-65476190D01*
X67065057Y-65476190D02*
X67160295Y-65428571D01*
X67160295Y-65428571D02*
X67255533Y-65428571D01*
X67255533Y-65428571D02*
X67398390Y-65476190D01*
X67398390Y-65476190D02*
X67969819Y-66047618D01*
X67969819Y-66047618D02*
X67969819Y-65428571D01*
X73979819Y-100011905D02*
X73979819Y-100488095D01*
X73979819Y-100488095D02*
X72979819Y-100488095D01*
X73979819Y-99250000D02*
X73456009Y-99250000D01*
X73456009Y-99250000D02*
X73360771Y-99297619D01*
X73360771Y-99297619D02*
X73313152Y-99392857D01*
X73313152Y-99392857D02*
X73313152Y-99583333D01*
X73313152Y-99583333D02*
X73360771Y-99678571D01*
X73932200Y-99250000D02*
X73979819Y-99345238D01*
X73979819Y-99345238D02*
X73979819Y-99583333D01*
X73979819Y-99583333D02*
X73932200Y-99678571D01*
X73932200Y-99678571D02*
X73836961Y-99726190D01*
X73836961Y-99726190D02*
X73741723Y-99726190D01*
X73741723Y-99726190D02*
X73646485Y-99678571D01*
X73646485Y-99678571D02*
X73598866Y-99583333D01*
X73598866Y-99583333D02*
X73598866Y-99345238D01*
X73598866Y-99345238D02*
X73551247Y-99250000D01*
X73932200Y-98821428D02*
X73979819Y-98726190D01*
X73979819Y-98726190D02*
X73979819Y-98535714D01*
X73979819Y-98535714D02*
X73932200Y-98440476D01*
X73932200Y-98440476D02*
X73836961Y-98392857D01*
X73836961Y-98392857D02*
X73789342Y-98392857D01*
X73789342Y-98392857D02*
X73694104Y-98440476D01*
X73694104Y-98440476D02*
X73646485Y-98535714D01*
X73646485Y-98535714D02*
X73646485Y-98678571D01*
X73646485Y-98678571D02*
X73598866Y-98773809D01*
X73598866Y-98773809D02*
X73503628Y-98821428D01*
X73503628Y-98821428D02*
X73456009Y-98821428D01*
X73456009Y-98821428D02*
X73360771Y-98773809D01*
X73360771Y-98773809D02*
X73313152Y-98678571D01*
X73313152Y-98678571D02*
X73313152Y-98535714D01*
X73313152Y-98535714D02*
X73360771Y-98440476D01*
X73932200Y-97583333D02*
X73979819Y-97678571D01*
X73979819Y-97678571D02*
X73979819Y-97869047D01*
X73979819Y-97869047D02*
X73932200Y-97964285D01*
X73932200Y-97964285D02*
X73836961Y-98011904D01*
X73836961Y-98011904D02*
X73456009Y-98011904D01*
X73456009Y-98011904D02*
X73360771Y-97964285D01*
X73360771Y-97964285D02*
X73313152Y-97869047D01*
X73313152Y-97869047D02*
X73313152Y-97678571D01*
X73313152Y-97678571D02*
X73360771Y-97583333D01*
X73360771Y-97583333D02*
X73456009Y-97535714D01*
X73456009Y-97535714D02*
X73551247Y-97535714D01*
X73551247Y-97535714D02*
X73646485Y-98011904D01*
X73979819Y-97107142D02*
X73313152Y-97107142D01*
X73503628Y-97107142D02*
X73408390Y-97059523D01*
X73408390Y-97059523D02*
X73360771Y-97011904D01*
X73360771Y-97011904D02*
X73313152Y-96916666D01*
X73313152Y-96916666D02*
X73313152Y-96821428D01*
X73979819Y-95964285D02*
X73979819Y-96535713D01*
X73979819Y-96249999D02*
X72979819Y-96249999D01*
X72979819Y-96249999D02*
X73122676Y-96345237D01*
X73122676Y-96345237D02*
X73217914Y-96440475D01*
X73217914Y-96440475D02*
X73265533Y-96535713D01*
X120907200Y-101238094D02*
X120954819Y-101095237D01*
X120954819Y-101095237D02*
X120954819Y-100857142D01*
X120954819Y-100857142D02*
X120907200Y-100761904D01*
X120907200Y-100761904D02*
X120859580Y-100714285D01*
X120859580Y-100714285D02*
X120764342Y-100666666D01*
X120764342Y-100666666D02*
X120669104Y-100666666D01*
X120669104Y-100666666D02*
X120573866Y-100714285D01*
X120573866Y-100714285D02*
X120526247Y-100761904D01*
X120526247Y-100761904D02*
X120478628Y-100857142D01*
X120478628Y-100857142D02*
X120431009Y-101047618D01*
X120431009Y-101047618D02*
X120383390Y-101142856D01*
X120383390Y-101142856D02*
X120335771Y-101190475D01*
X120335771Y-101190475D02*
X120240533Y-101238094D01*
X120240533Y-101238094D02*
X120145295Y-101238094D01*
X120145295Y-101238094D02*
X120050057Y-101190475D01*
X120050057Y-101190475D02*
X120002438Y-101142856D01*
X120002438Y-101142856D02*
X119954819Y-101047618D01*
X119954819Y-101047618D02*
X119954819Y-100809523D01*
X119954819Y-100809523D02*
X120002438Y-100666666D01*
X120431009Y-100238094D02*
X120431009Y-99904761D01*
X120954819Y-99761904D02*
X120954819Y-100238094D01*
X120954819Y-100238094D02*
X119954819Y-100238094D01*
X119954819Y-100238094D02*
X119954819Y-99761904D01*
X120954819Y-98761904D02*
X120478628Y-99095237D01*
X120954819Y-99333332D02*
X119954819Y-99333332D01*
X119954819Y-99333332D02*
X119954819Y-98952380D01*
X119954819Y-98952380D02*
X120002438Y-98857142D01*
X120002438Y-98857142D02*
X120050057Y-98809523D01*
X120050057Y-98809523D02*
X120145295Y-98761904D01*
X120145295Y-98761904D02*
X120288152Y-98761904D01*
X120288152Y-98761904D02*
X120383390Y-98809523D01*
X120383390Y-98809523D02*
X120431009Y-98857142D01*
X120431009Y-98857142D02*
X120478628Y-98952380D01*
X120478628Y-98952380D02*
X120478628Y-99333332D01*
X119954819Y-98476189D02*
X120954819Y-98142856D01*
X120954819Y-98142856D02*
X119954819Y-97809523D01*
X119954819Y-97285713D02*
X119954819Y-97095237D01*
X119954819Y-97095237D02*
X120002438Y-96999999D01*
X120002438Y-96999999D02*
X120097676Y-96904761D01*
X120097676Y-96904761D02*
X120288152Y-96857142D01*
X120288152Y-96857142D02*
X120621485Y-96857142D01*
X120621485Y-96857142D02*
X120811961Y-96904761D01*
X120811961Y-96904761D02*
X120907200Y-96999999D01*
X120907200Y-96999999D02*
X120954819Y-97095237D01*
X120954819Y-97095237D02*
X120954819Y-97285713D01*
X120954819Y-97285713D02*
X120907200Y-97380951D01*
X120907200Y-97380951D02*
X120811961Y-97476189D01*
X120811961Y-97476189D02*
X120621485Y-97523808D01*
X120621485Y-97523808D02*
X120288152Y-97523808D01*
X120288152Y-97523808D02*
X120097676Y-97476189D01*
X120097676Y-97476189D02*
X120002438Y-97380951D01*
X120002438Y-97380951D02*
X119954819Y-97285713D01*
X120954819Y-96428570D02*
X119954819Y-96428570D01*
X119954819Y-96428570D02*
X119954819Y-96047618D01*
X119954819Y-96047618D02*
X120002438Y-95952380D01*
X120002438Y-95952380D02*
X120050057Y-95904761D01*
X120050057Y-95904761D02*
X120145295Y-95857142D01*
X120145295Y-95857142D02*
X120288152Y-95857142D01*
X120288152Y-95857142D02*
X120383390Y-95904761D01*
X120383390Y-95904761D02*
X120431009Y-95952380D01*
X120431009Y-95952380D02*
X120478628Y-96047618D01*
X120478628Y-96047618D02*
X120478628Y-96428570D01*
X119954819Y-95238094D02*
X119954819Y-95047618D01*
X119954819Y-95047618D02*
X120002438Y-94952380D01*
X120002438Y-94952380D02*
X120097676Y-94857142D01*
X120097676Y-94857142D02*
X120288152Y-94809523D01*
X120288152Y-94809523D02*
X120621485Y-94809523D01*
X120621485Y-94809523D02*
X120811961Y-94857142D01*
X120811961Y-94857142D02*
X120907200Y-94952380D01*
X120907200Y-94952380D02*
X120954819Y-95047618D01*
X120954819Y-95047618D02*
X120954819Y-95238094D01*
X120954819Y-95238094D02*
X120907200Y-95333332D01*
X120907200Y-95333332D02*
X120811961Y-95428570D01*
X120811961Y-95428570D02*
X120621485Y-95476189D01*
X120621485Y-95476189D02*
X120288152Y-95476189D01*
X120288152Y-95476189D02*
X120097676Y-95428570D01*
X120097676Y-95428570D02*
X120002438Y-95333332D01*
X120002438Y-95333332D02*
X119954819Y-95238094D01*
X119954819Y-94476189D02*
X120954819Y-94238094D01*
X120954819Y-94238094D02*
X120240533Y-94047618D01*
X120240533Y-94047618D02*
X120954819Y-93857142D01*
X120954819Y-93857142D02*
X119954819Y-93619047D01*
X120431009Y-93238094D02*
X120431009Y-92904761D01*
X120954819Y-92761904D02*
X120954819Y-93238094D01*
X120954819Y-93238094D02*
X119954819Y-93238094D01*
X119954819Y-93238094D02*
X119954819Y-92761904D01*
X120954819Y-91761904D02*
X120478628Y-92095237D01*
X120954819Y-92333332D02*
X119954819Y-92333332D01*
X119954819Y-92333332D02*
X119954819Y-91952380D01*
X119954819Y-91952380D02*
X120002438Y-91857142D01*
X120002438Y-91857142D02*
X120050057Y-91809523D01*
X120050057Y-91809523D02*
X120145295Y-91761904D01*
X120145295Y-91761904D02*
X120288152Y-91761904D01*
X120288152Y-91761904D02*
X120383390Y-91809523D01*
X120383390Y-91809523D02*
X120431009Y-91857142D01*
X120431009Y-91857142D02*
X120478628Y-91952380D01*
X120478628Y-91952380D02*
X120478628Y-92333332D01*
D12*
%TO.C,I2C2*%
X124740000Y-50440000D02*
X124740000Y-63060000D01*
X124740000Y-63060000D02*
X130710000Y-63060000D01*
X125500000Y-51200000D02*
X125500000Y-56750000D01*
X125500000Y-62300000D02*
X125500000Y-56750000D01*
X128450000Y-50450000D02*
X128450000Y-51200000D01*
X128450000Y-51200000D02*
X125500000Y-51200000D01*
X128450000Y-62300000D02*
X125500000Y-62300000D01*
X128450000Y-63050000D02*
X128450000Y-62300000D01*
X129950000Y-50450000D02*
X129950000Y-52250000D01*
X129950000Y-52250000D02*
X130700000Y-52250000D01*
X129950000Y-53750000D02*
X129950000Y-59750000D01*
X129950000Y-59750000D02*
X130700000Y-59750000D01*
X129950000Y-61250000D02*
X129950000Y-63050000D01*
X129950000Y-63050000D02*
X130700000Y-63050000D01*
X130700000Y-50450000D02*
X129950000Y-50450000D01*
X130700000Y-52250000D02*
X130700000Y-50450000D01*
X130700000Y-53750000D02*
X129950000Y-53750000D01*
X130700000Y-59750000D02*
X130700000Y-53750000D01*
X130700000Y-61250000D02*
X129950000Y-61250000D01*
X130700000Y-63050000D02*
X130700000Y-61250000D01*
X130710000Y-50440000D02*
X124740000Y-50440000D01*
X130710000Y-63060000D02*
X130710000Y-50440000D01*
X131000000Y-50150000D02*
X129750000Y-50150000D01*
X131000000Y-51400000D02*
X131000000Y-50150000D01*
%TO.C,RGB2*%
X124990000Y-102015000D02*
X124990000Y-114635000D01*
X124990000Y-114635000D02*
X130960000Y-114635000D01*
X125750000Y-102775000D02*
X125750000Y-108325000D01*
X125750000Y-113875000D02*
X125750000Y-108325000D01*
X128700000Y-102025000D02*
X128700000Y-102775000D01*
X128700000Y-102775000D02*
X125750000Y-102775000D01*
X128700000Y-113875000D02*
X125750000Y-113875000D01*
X128700000Y-114625000D02*
X128700000Y-113875000D01*
X130200000Y-102025000D02*
X130200000Y-103825000D01*
X130200000Y-103825000D02*
X130950000Y-103825000D01*
X130200000Y-105325000D02*
X130200000Y-111325000D01*
X130200000Y-111325000D02*
X130950000Y-111325000D01*
X130200000Y-112825000D02*
X130200000Y-114625000D01*
X130200000Y-114625000D02*
X130950000Y-114625000D01*
X130950000Y-102025000D02*
X130200000Y-102025000D01*
X130950000Y-103825000D02*
X130950000Y-102025000D01*
X130950000Y-105325000D02*
X130200000Y-105325000D01*
X130950000Y-111325000D02*
X130950000Y-105325000D01*
X130950000Y-112825000D02*
X130200000Y-112825000D01*
X130950000Y-114625000D02*
X130950000Y-112825000D01*
X130960000Y-102015000D02*
X124990000Y-102015000D01*
X130960000Y-114635000D02*
X130960000Y-102015000D01*
X131250000Y-101725000D02*
X130000000Y-101725000D01*
X131250000Y-102975000D02*
X131250000Y-101725000D01*
%TO.C,Boton*%
X116850000Y-124860000D02*
X119570000Y-124860000D01*
X116850000Y-137160000D02*
X116850000Y-124860000D01*
X119570000Y-137160000D02*
X116850000Y-137160000D01*
X121430000Y-124860000D02*
X124570000Y-124860000D01*
X124570000Y-137160000D02*
X121430000Y-137160000D01*
X126430000Y-124860000D02*
X129150000Y-124860000D01*
X129150000Y-124860000D02*
X129150000Y-137160000D01*
X129150000Y-137160000D02*
X126430000Y-137160000D01*
X127539050Y-131110000D02*
G75*
G02*
X118380950Y-131110000I-4579050J0D01*
G01*
X118380950Y-131110000D02*
G75*
G02*
X127539050Y-131110000I4579050J0D01*
G01*
%TO.C,RGB1*%
X124990000Y-87440000D02*
X124990000Y-100060000D01*
X124990000Y-100060000D02*
X130960000Y-100060000D01*
X125750000Y-88200000D02*
X125750000Y-93750000D01*
X125750000Y-99300000D02*
X125750000Y-93750000D01*
X128700000Y-87450000D02*
X128700000Y-88200000D01*
X128700000Y-88200000D02*
X125750000Y-88200000D01*
X128700000Y-99300000D02*
X125750000Y-99300000D01*
X128700000Y-100050000D02*
X128700000Y-99300000D01*
X130200000Y-87450000D02*
X130200000Y-89250000D01*
X130200000Y-89250000D02*
X130950000Y-89250000D01*
X130200000Y-90750000D02*
X130200000Y-96750000D01*
X130200000Y-96750000D02*
X130950000Y-96750000D01*
X130200000Y-98250000D02*
X130200000Y-100050000D01*
X130200000Y-100050000D02*
X130950000Y-100050000D01*
X130950000Y-87450000D02*
X130200000Y-87450000D01*
X130950000Y-89250000D02*
X130950000Y-87450000D01*
X130950000Y-90750000D02*
X130200000Y-90750000D01*
X130950000Y-96750000D02*
X130950000Y-90750000D01*
X130950000Y-98250000D02*
X130200000Y-98250000D01*
X130950000Y-100050000D02*
X130950000Y-98250000D01*
X130960000Y-87440000D02*
X124990000Y-87440000D01*
X130960000Y-100060000D02*
X130960000Y-87440000D01*
X131250000Y-87150000D02*
X130000000Y-87150000D01*
X131250000Y-88400000D02*
X131250000Y-87150000D01*
%TO.C,Laser2*%
X65990000Y-106440000D02*
X65990000Y-119060000D01*
X65990000Y-119060000D02*
X71960000Y-119060000D01*
X66750000Y-107200000D02*
X66750000Y-112750000D01*
X66750000Y-118300000D02*
X66750000Y-112750000D01*
X69700000Y-106450000D02*
X69700000Y-107200000D01*
X69700000Y-107200000D02*
X66750000Y-107200000D01*
X69700000Y-118300000D02*
X66750000Y-118300000D01*
X69700000Y-119050000D02*
X69700000Y-118300000D01*
X71200000Y-106450000D02*
X71200000Y-108250000D01*
X71200000Y-108250000D02*
X71950000Y-108250000D01*
X71200000Y-109750000D02*
X71200000Y-115750000D01*
X71200000Y-115750000D02*
X71950000Y-115750000D01*
X71200000Y-117250000D02*
X71200000Y-119050000D01*
X71200000Y-119050000D02*
X71950000Y-119050000D01*
X71950000Y-106450000D02*
X71200000Y-106450000D01*
X71950000Y-108250000D02*
X71950000Y-106450000D01*
X71950000Y-109750000D02*
X71200000Y-109750000D01*
X71950000Y-115750000D02*
X71950000Y-109750000D01*
X71950000Y-117250000D02*
X71200000Y-117250000D01*
X71950000Y-119050000D02*
X71950000Y-117250000D01*
X71960000Y-106440000D02*
X65990000Y-106440000D01*
X71960000Y-119060000D02*
X71960000Y-106440000D01*
X72250000Y-106150000D02*
X71000000Y-106150000D01*
X72250000Y-107400000D02*
X72250000Y-106150000D01*
%TO.C,I2C1*%
X124765000Y-65690000D02*
X124765000Y-78310000D01*
X124765000Y-78310000D02*
X130735000Y-78310000D01*
X125525000Y-66450000D02*
X125525000Y-72000000D01*
X125525000Y-77550000D02*
X125525000Y-72000000D01*
X128475000Y-65700000D02*
X128475000Y-66450000D01*
X128475000Y-66450000D02*
X125525000Y-66450000D01*
X128475000Y-77550000D02*
X125525000Y-77550000D01*
X128475000Y-78300000D02*
X128475000Y-77550000D01*
X129975000Y-65700000D02*
X129975000Y-67500000D01*
X129975000Y-67500000D02*
X130725000Y-67500000D01*
X129975000Y-69000000D02*
X129975000Y-75000000D01*
X129975000Y-75000000D02*
X130725000Y-75000000D01*
X129975000Y-76500000D02*
X129975000Y-78300000D01*
X129975000Y-78300000D02*
X130725000Y-78300000D01*
X130725000Y-65700000D02*
X129975000Y-65700000D01*
X130725000Y-67500000D02*
X130725000Y-65700000D01*
X130725000Y-69000000D02*
X129975000Y-69000000D01*
X130725000Y-75000000D02*
X130725000Y-69000000D01*
X130725000Y-76500000D02*
X129975000Y-76500000D01*
X130725000Y-78300000D02*
X130725000Y-76500000D01*
X130735000Y-65690000D02*
X124765000Y-65690000D01*
X130735000Y-78310000D02*
X130735000Y-65690000D01*
X131025000Y-65400000D02*
X129775000Y-65400000D01*
X131025000Y-66650000D02*
X131025000Y-65400000D01*
%TO.C,Bateria*%
X91150000Y-136250000D02*
X91150000Y-137500000D01*
X91440000Y-136540000D02*
X91440000Y-142510000D01*
X91440000Y-142510000D02*
X101560000Y-142510000D01*
X91450000Y-136550000D02*
X91450000Y-137300000D01*
X91450000Y-137300000D02*
X93250000Y-137300000D01*
X91450000Y-138800000D02*
X92200000Y-138800000D01*
X92200000Y-138800000D02*
X92200000Y-141750000D01*
X92200000Y-141750000D02*
X96500000Y-141750000D01*
X92400000Y-136250000D02*
X91150000Y-136250000D01*
X93250000Y-136550000D02*
X91450000Y-136550000D01*
X93250000Y-137300000D02*
X93250000Y-136550000D01*
X94750000Y-136550000D02*
X94750000Y-137300000D01*
X94750000Y-137300000D02*
X98250000Y-137300000D01*
X98250000Y-136550000D02*
X94750000Y-136550000D01*
X98250000Y-137300000D02*
X98250000Y-136550000D01*
X99750000Y-136550000D02*
X99750000Y-137300000D01*
X99750000Y-137300000D02*
X101550000Y-137300000D01*
X100800000Y-138800000D02*
X100800000Y-141750000D01*
X100800000Y-141750000D02*
X96500000Y-141750000D01*
X101550000Y-136550000D02*
X99750000Y-136550000D01*
X101550000Y-137300000D02*
X101550000Y-136550000D01*
X101550000Y-138800000D02*
X100800000Y-138800000D01*
X101560000Y-136540000D02*
X91440000Y-136540000D01*
X101560000Y-142510000D02*
X101560000Y-136540000D01*
%TO.C,Resistencia1*%
X83940000Y-66000000D02*
X86580000Y-66000000D01*
X86580000Y-62880000D02*
X86580000Y-69120000D01*
X86580000Y-69120000D02*
X103820000Y-69120000D01*
X103820000Y-62880000D02*
X86580000Y-62880000D01*
X103820000Y-69120000D02*
X103820000Y-62880000D01*
X106460000Y-66000000D02*
X103820000Y-66000000D01*
%TO.C,SERVO*%
X114515000Y-103465000D02*
X114515000Y-113585000D01*
X114515000Y-113585000D02*
X120485000Y-113585000D01*
X115275000Y-104225000D02*
X115275000Y-108525000D01*
X115275000Y-112825000D02*
X115275000Y-108525000D01*
X118225000Y-103475000D02*
X118225000Y-104225000D01*
X118225000Y-104225000D02*
X115275000Y-104225000D01*
X118225000Y-112825000D02*
X115275000Y-112825000D01*
X118225000Y-113575000D02*
X118225000Y-112825000D01*
X119725000Y-103475000D02*
X119725000Y-105275000D01*
X119725000Y-105275000D02*
X120475000Y-105275000D01*
X119725000Y-106775000D02*
X119725000Y-110275000D01*
X119725000Y-110275000D02*
X120475000Y-110275000D01*
X119725000Y-111775000D02*
X119725000Y-113575000D01*
X119725000Y-113575000D02*
X120475000Y-113575000D01*
X120475000Y-103475000D02*
X119725000Y-103475000D01*
X120475000Y-105275000D02*
X120475000Y-103475000D01*
X120475000Y-106775000D02*
X119725000Y-106775000D01*
X120475000Y-110275000D02*
X120475000Y-106775000D01*
X120475000Y-111775000D02*
X119725000Y-111775000D01*
X120475000Y-113575000D02*
X120475000Y-111775000D01*
X120485000Y-103465000D02*
X114515000Y-103465000D01*
X120485000Y-113585000D02*
X120485000Y-103465000D01*
X120775000Y-103175000D02*
X119525000Y-103175000D01*
X120775000Y-104425000D02*
X120775000Y-103175000D01*
%TO.C,Laser3*%
X65990000Y-120440000D02*
X65990000Y-133060000D01*
X65990000Y-133060000D02*
X71960000Y-133060000D01*
X66750000Y-121200000D02*
X66750000Y-126750000D01*
X66750000Y-132300000D02*
X66750000Y-126750000D01*
X69700000Y-120450000D02*
X69700000Y-121200000D01*
X69700000Y-121200000D02*
X66750000Y-121200000D01*
X69700000Y-132300000D02*
X66750000Y-132300000D01*
X69700000Y-133050000D02*
X69700000Y-132300000D01*
X71200000Y-120450000D02*
X71200000Y-122250000D01*
X71200000Y-122250000D02*
X71950000Y-122250000D01*
X71200000Y-123750000D02*
X71200000Y-129750000D01*
X71200000Y-129750000D02*
X71950000Y-129750000D01*
X71200000Y-131250000D02*
X71200000Y-133050000D01*
X71200000Y-133050000D02*
X71950000Y-133050000D01*
X71950000Y-120450000D02*
X71200000Y-120450000D01*
X71950000Y-122250000D02*
X71950000Y-120450000D01*
X71950000Y-123750000D02*
X71200000Y-123750000D01*
X71950000Y-129750000D02*
X71950000Y-123750000D01*
X71950000Y-131250000D02*
X71200000Y-131250000D01*
X71950000Y-133050000D02*
X71950000Y-131250000D01*
X71960000Y-120440000D02*
X65990000Y-120440000D01*
X71960000Y-133060000D02*
X71960000Y-120440000D01*
X72250000Y-120150000D02*
X71000000Y-120150000D01*
X72250000Y-121400000D02*
X72250000Y-120150000D01*
%TO.C,Convertidor*%
X66090000Y-140330000D02*
X66090000Y-139000000D01*
X67420000Y-140330000D02*
X66090000Y-140330000D01*
X68690000Y-137670000D02*
X73830000Y-137670000D01*
X68690000Y-140330000D02*
X68690000Y-137670000D01*
X68690000Y-140330000D02*
X73830000Y-140330000D01*
X73830000Y-140330000D02*
X73830000Y-137670000D01*
D13*
%TO.C,TB6612FNG*%
X86030000Y-91730000D02*
X86030000Y-90460000D01*
X86030000Y-107120000D02*
X86030000Y-94120000D01*
X86030000Y-109510000D02*
X86030000Y-110780000D01*
X86030000Y-110780000D02*
X106350000Y-110780000D01*
X106350000Y-90460000D02*
X86030000Y-90460000D01*
X106350000Y-91730000D02*
X106350000Y-90460000D01*
X106350000Y-107120000D02*
X106350000Y-94120000D01*
X106350000Y-109510000D02*
X106350000Y-110780000D01*
D14*
X88190000Y-103120000D02*
X91190000Y-103120000D01*
X91190000Y-98620000D01*
X88190000Y-98620000D01*
X88190000Y-103120000D01*
X94190000Y-104620000D02*
X103690000Y-104620000D01*
X103690000Y-96620000D01*
X94190000Y-96620000D01*
X94190000Y-104620000D01*
D12*
%TO.C,Switch*%
X78650000Y-136250000D02*
X78650000Y-137500000D01*
X78940000Y-136540000D02*
X78940000Y-142510000D01*
X78940000Y-142510000D02*
X89060000Y-142510000D01*
X78950000Y-136550000D02*
X78950000Y-137300000D01*
X78950000Y-137300000D02*
X80750000Y-137300000D01*
X78950000Y-138800000D02*
X79700000Y-138800000D01*
X79700000Y-138800000D02*
X79700000Y-141750000D01*
X79700000Y-141750000D02*
X84000000Y-141750000D01*
X79900000Y-136250000D02*
X78650000Y-136250000D01*
X80750000Y-136550000D02*
X78950000Y-136550000D01*
X80750000Y-137300000D02*
X80750000Y-136550000D01*
X82250000Y-136550000D02*
X82250000Y-137300000D01*
X82250000Y-137300000D02*
X85750000Y-137300000D01*
X85750000Y-136550000D02*
X82250000Y-136550000D01*
X85750000Y-137300000D02*
X85750000Y-136550000D01*
X87250000Y-136550000D02*
X87250000Y-137300000D01*
X87250000Y-137300000D02*
X89050000Y-137300000D01*
X88300000Y-138800000D02*
X88300000Y-141750000D01*
X88300000Y-141750000D02*
X84000000Y-141750000D01*
X89050000Y-136550000D02*
X87250000Y-136550000D01*
X89050000Y-137300000D02*
X89050000Y-136550000D01*
X89050000Y-138800000D02*
X88300000Y-138800000D01*
X89060000Y-136540000D02*
X78940000Y-136540000D01*
X89060000Y-142510000D02*
X89060000Y-136540000D01*
D13*
%TO.C,Esp32*%
X70040000Y-53270000D02*
X120990000Y-53270000D01*
X70040000Y-53270000D02*
X120990000Y-53270000D01*
X70040000Y-64000000D02*
X70040000Y-53270000D01*
X70040000Y-70711000D02*
X70040000Y-64000000D01*
X70040000Y-81780000D02*
X70040000Y-53270000D01*
X70040000Y-81780000D02*
X70040000Y-70711000D01*
X120990000Y-53270000D02*
X120990000Y-81780000D01*
X120990000Y-58720000D02*
X120990000Y-53270000D01*
X120990000Y-76410000D02*
X120990000Y-58720000D01*
X120990000Y-81780000D02*
X70040000Y-81780000D01*
X120990000Y-81780000D02*
X70040000Y-81780000D01*
X120990000Y-81780000D02*
X120990000Y-76410000D01*
D15*
X80100000Y-82350000D02*
G75*
G02*
X79900000Y-82350000I-100000J0D01*
G01*
X79900000Y-82350000D02*
G75*
G02*
X80100000Y-82350000I100000J0D01*
G01*
D12*
%TO.C,Laser1*%
X66015000Y-91940000D02*
X66015000Y-104560000D01*
X66015000Y-104560000D02*
X71985000Y-104560000D01*
X66775000Y-92700000D02*
X66775000Y-98250000D01*
X66775000Y-103800000D02*
X66775000Y-98250000D01*
X69725000Y-91950000D02*
X69725000Y-92700000D01*
X69725000Y-92700000D02*
X66775000Y-92700000D01*
X69725000Y-103800000D02*
X66775000Y-103800000D01*
X69725000Y-104550000D02*
X69725000Y-103800000D01*
X71225000Y-91950000D02*
X71225000Y-93750000D01*
X71225000Y-93750000D02*
X71975000Y-93750000D01*
X71225000Y-95250000D02*
X71225000Y-101250000D01*
X71225000Y-101250000D02*
X71975000Y-101250000D01*
X71225000Y-102750000D02*
X71225000Y-104550000D01*
X71225000Y-104550000D02*
X71975000Y-104550000D01*
X71975000Y-91950000D02*
X71225000Y-91950000D01*
X71975000Y-93750000D02*
X71975000Y-91950000D01*
X71975000Y-95250000D02*
X71225000Y-95250000D01*
X71975000Y-101250000D02*
X71975000Y-95250000D01*
X71975000Y-102750000D02*
X71225000Y-102750000D01*
X71975000Y-104550000D02*
X71975000Y-102750000D01*
X71985000Y-91940000D02*
X66015000Y-91940000D01*
X71985000Y-104560000D02*
X71985000Y-91940000D01*
X72275000Y-91650000D02*
X71025000Y-91650000D01*
X72275000Y-92900000D02*
X72275000Y-91650000D01*
%TO.C,SERVOPOWER*%
X116390000Y-94470000D02*
X117500000Y-94470000D01*
X116390000Y-95230000D02*
X116390000Y-94470000D01*
X116390000Y-95990000D02*
X116390000Y-98465000D01*
X116390000Y-95990000D02*
X116936529Y-95990000D01*
X116390000Y-98465000D02*
X117192470Y-98465000D01*
X117807530Y-98465000D02*
X118610000Y-98465000D01*
X118063471Y-95990000D02*
X118610000Y-95990000D01*
X118610000Y-95990000D02*
X118610000Y-98465000D01*
%TD*%
%LPC*%
D16*
%TO.C,I2C2*%
X128250000Y-53000000D03*
D17*
X128250000Y-55500000D03*
X128250000Y-58000000D03*
X128250000Y-60500000D03*
%TD*%
%TO.C,RGB2*%
X128500000Y-104575000D03*
D18*
X128500000Y-107075000D03*
D17*
X128500000Y-109575000D03*
X128500000Y-112075000D03*
%TD*%
D19*
%TO.C,Boton*%
X125500000Y-124760000D03*
X125500000Y-137260000D03*
X120500000Y-124760000D03*
X120500000Y-137260000D03*
%TD*%
D17*
%TO.C,RGB1*%
X128500000Y-90000000D03*
D18*
X128500000Y-92500000D03*
D17*
X128500000Y-95000000D03*
X128500000Y-97500000D03*
%TD*%
%TO.C,Laser2*%
X69500000Y-109000000D03*
D18*
X69500000Y-111500000D03*
D17*
X69500000Y-114000000D03*
X69500000Y-116500000D03*
%TD*%
D16*
%TO.C,I2C1*%
X128275000Y-68250000D03*
D17*
X128275000Y-70750000D03*
X128275000Y-73250000D03*
X128275000Y-75750000D03*
%TD*%
D20*
%TO.C,Bateria*%
X94000000Y-139000000D03*
D21*
X96500000Y-139000000D03*
X99000000Y-139000000D03*
%TD*%
D22*
%TO.C,Resistencia1*%
X82500000Y-66000000D03*
D23*
X107900000Y-66000000D03*
%TD*%
D16*
%TO.C,SERVO*%
X118025000Y-106025000D03*
D17*
X118025000Y-108525000D03*
X118025000Y-111025000D03*
%TD*%
%TO.C,Laser3*%
X69500000Y-123000000D03*
D18*
X69500000Y-125500000D03*
D17*
X69500000Y-128000000D03*
X69500000Y-130500000D03*
%TD*%
D24*
%TO.C,Convertidor*%
X67420000Y-139000000D03*
D25*
X69960000Y-139000000D03*
D24*
X72500000Y-139000000D03*
%TD*%
D26*
%TO.C,TB6612FNG*%
X87300000Y-108240000D03*
X89840000Y-108240000D03*
D27*
X92380000Y-108240000D03*
D26*
X94920000Y-108240000D03*
X97460000Y-108240000D03*
X100000000Y-108240000D03*
X102540000Y-108240000D03*
D27*
X105080000Y-108240000D03*
X105080000Y-93000000D03*
D26*
X102540000Y-93000000D03*
X100000000Y-93000000D03*
X97460000Y-93000000D03*
X94920000Y-93000000D03*
X92380000Y-93000000D03*
X89840000Y-93000000D03*
X87300000Y-93000000D03*
%TD*%
D20*
%TO.C,Switch*%
X81500000Y-139000000D03*
D21*
X84000000Y-139000000D03*
X86500000Y-139000000D03*
%TD*%
D28*
%TO.C,Esp32*%
X80000000Y-80200000D03*
D29*
X82540000Y-80200000D03*
X85080000Y-80200000D03*
X87620000Y-80200000D03*
X90160000Y-80200000D03*
X92700000Y-80200000D03*
X95240000Y-80200000D03*
X97780000Y-80200000D03*
X100320000Y-80200000D03*
X102860000Y-80200000D03*
X105400000Y-80200000D03*
X107940000Y-80200000D03*
X110480000Y-80200000D03*
X113020000Y-80200000D03*
X115560000Y-80200000D03*
X115560000Y-54800000D03*
X113020000Y-54800000D03*
X110480000Y-54800000D03*
X107940000Y-54800000D03*
X105400000Y-54800000D03*
X102860000Y-54800000D03*
X100320000Y-54800000D03*
X97780000Y-54800000D03*
X95240000Y-54800000D03*
X92700000Y-54800000D03*
X90160000Y-54800000D03*
X87620000Y-54800000D03*
X85080000Y-54800000D03*
X82540000Y-54800000D03*
X80000000Y-54800000D03*
%TD*%
D17*
%TO.C,Laser1*%
X69525000Y-94500000D03*
D18*
X69525000Y-97000000D03*
D17*
X69525000Y-99500000D03*
X69525000Y-102000000D03*
%TD*%
D30*
%TO.C,SERVOPOWER*%
X117500000Y-95230000D03*
X117500000Y-96500000D03*
X117500000Y-97770000D03*
%TD*%
D16*
%TO.C,EncoderB*%
X107500000Y-131470000D03*
D17*
X107500000Y-133970000D03*
X107500000Y-136470000D03*
%TD*%
D20*
%TO.C,SigueLineas*%
X83500000Y-45000000D03*
D21*
X86000000Y-45000000D03*
X88500000Y-45000000D03*
X91000000Y-45000000D03*
X93500000Y-45000000D03*
X96000000Y-45000000D03*
X98500000Y-45000000D03*
X101000000Y-45000000D03*
X103500000Y-45000000D03*
X106000000Y-45000000D03*
X108500000Y-45000000D03*
%TD*%
D16*
%TO.C,EncoderA*%
X107500000Y-117500000D03*
D17*
X107500000Y-120000000D03*
X107500000Y-122500000D03*
%TD*%
D31*
%TO.C,MotorA1*%
X81250000Y-122750000D03*
X83750000Y-122750000D03*
%TD*%
%TO.C,MotorB1*%
X91500000Y-122750000D03*
X94000000Y-122750000D03*
%TD*%
%LPD*%
M02*
