%TF.GenerationSoftware,KiCad,Pcbnew,8.0.0*%
%TF.CreationDate,2024-03-17T22:05:12-03:00*%
%TF.ProjectId,RescueLineRobot,52657363-7565-44c6-996e-65526f626f74,rev?*%
%TF.SameCoordinates,Original*%
%TF.FileFunction,Copper,L1,Top*%
%TF.FilePolarity,Positive*%
%FSLAX46Y46*%
G04 Gerber Fmt 4.6, Leading zero omitted, Abs format (unit mm)*
G04 Created by KiCad (PCBNEW 8.0.0) date 2024-03-17 22:05:13*
%MOMM*%
%LPD*%
G01*
G04 APERTURE LIST*
G04 Aperture macros list*
%AMRoundRect*
0 Rectangle with rounded corners*
0 $1 Rounding radius*
0 $2 $3 $4 $5 $6 $7 $8 $9 X,Y pos of 4 corners*
0 Add a 4 corners polygon primitive as box body*
4,1,4,$2,$3,$4,$5,$6,$7,$8,$9,$2,$3,0*
0 Add four circle primitives for the rounded corners*
1,1,$1+$1,$2,$3*
1,1,$1+$1,$4,$5*
1,1,$1+$1,$6,$7*
1,1,$1+$1,$8,$9*
0 Add four rect primitives between the rounded corners*
20,1,$1+$1,$2,$3,$4,$5,0*
20,1,$1+$1,$4,$5,$6,$7,0*
20,1,$1+$1,$6,$7,$8,$9,0*
20,1,$1+$1,$8,$9,$2,$3,0*%
G04 Aperture macros list end*
%TA.AperFunction,ComponentPad*%
%ADD10RoundRect,0.250000X-0.725000X0.600000X-0.725000X-0.600000X0.725000X-0.600000X0.725000X0.600000X0*%
%TD*%
%TA.AperFunction,ComponentPad*%
%ADD11O,1.950000X1.700000*%
%TD*%
%TA.AperFunction,ComponentPad*%
%ADD12R,1.950000X1.700000*%
%TD*%
%TA.AperFunction,ComponentPad*%
%ADD13O,1.850000X3.048000*%
%TD*%
%TA.AperFunction,ComponentPad*%
%ADD14RoundRect,0.250000X-0.600000X-0.725000X0.600000X-0.725000X0.600000X0.725000X-0.600000X0.725000X0*%
%TD*%
%TA.AperFunction,ComponentPad*%
%ADD15O,1.700000X1.950000*%
%TD*%
%TA.AperFunction,ComponentPad*%
%ADD16C,2.400000*%
%TD*%
%TA.AperFunction,ComponentPad*%
%ADD17O,2.400000X2.400000*%
%TD*%
%TA.AperFunction,ComponentPad*%
%ADD18O,1.700000X1.700000*%
%TD*%
%TA.AperFunction,ComponentPad*%
%ADD19R,1.700000X1.700000*%
%TD*%
%TA.AperFunction,ComponentPad*%
%ADD20C,1.980000*%
%TD*%
%TA.AperFunction,ComponentPad*%
%ADD21R,1.980000X1.980000*%
%TD*%
%TA.AperFunction,ComponentPad*%
%ADD22R,2.000000X2.000000*%
%TD*%
%TA.AperFunction,ComponentPad*%
%ADD23C,2.000000*%
%TD*%
%TA.AperFunction,ComponentPad*%
%ADD24O,1.000000X1.000000*%
%TD*%
%TA.AperFunction,ComponentPad*%
%ADD25O,1.700000X2.000000*%
%TD*%
%TA.AperFunction,ViaPad*%
%ADD26C,0.600000*%
%TD*%
%TA.AperFunction,Conductor*%
%ADD27C,0.400000*%
%TD*%
%TA.AperFunction,Conductor*%
%ADD28C,1.000000*%
%TD*%
%TA.AperFunction,Conductor*%
%ADD29C,0.600000*%
%TD*%
G04 APERTURE END LIST*
D10*
%TO.P,I2C2,1,Pin_1*%
%TO.N,5V*%
X128250000Y-53000000D03*
D11*
%TO.P,I2C2,2,Pin_2*%
%TO.N,GND*%
X128250000Y-55500000D03*
%TO.P,I2C2,3,Pin_3*%
%TO.N,D22*%
X128250000Y-58000000D03*
%TO.P,I2C2,4,Pin_4*%
%TO.N,D21*%
X128250000Y-60500000D03*
%TD*%
%TO.P,RGB2,1,Pin_1*%
%TO.N,5V*%
X128500000Y-104575000D03*
D12*
%TO.P,RGB2,2,Pin_2*%
%TO.N,GND*%
X128500000Y-107075000D03*
D11*
%TO.P,RGB2,3,Pin_3*%
%TO.N,D22*%
X128500000Y-109575000D03*
%TO.P,RGB2,4,Pin_4*%
%TO.N,D21*%
X128500000Y-112075000D03*
%TD*%
D13*
%TO.P,Boton,1,1*%
%TO.N,D12*%
X125500000Y-124760000D03*
X125500000Y-137260000D03*
%TO.P,Boton,2,2*%
%TO.N,5V*%
X120500000Y-124760000D03*
X120500000Y-137260000D03*
%TD*%
D11*
%TO.P,RGB1,1,Pin_1*%
%TO.N,5V*%
X128500000Y-90000000D03*
D12*
%TO.P,RGB1,2,Pin_2*%
%TO.N,GND*%
X128500000Y-92500000D03*
D11*
%TO.P,RGB1,3,Pin_3*%
%TO.N,D22*%
X128500000Y-95000000D03*
%TO.P,RGB1,4,Pin_4*%
%TO.N,D21*%
X128500000Y-97500000D03*
%TD*%
%TO.P,Laser2,1,Pin_1*%
%TO.N,5V*%
X69500000Y-109000000D03*
D12*
%TO.P,Laser2,2,Pin_2*%
%TO.N,GND*%
X69500000Y-111500000D03*
D11*
%TO.P,Laser2,3,Pin_3*%
%TO.N,D22*%
X69500000Y-114000000D03*
%TO.P,Laser2,4,Pin_4*%
%TO.N,D21*%
X69500000Y-116500000D03*
%TD*%
D10*
%TO.P,I2C1,1,Pin_1*%
%TO.N,5V*%
X128275000Y-68250000D03*
D11*
%TO.P,I2C1,2,Pin_2*%
%TO.N,GND*%
X128275000Y-70750000D03*
%TO.P,I2C1,3,Pin_3*%
%TO.N,D22*%
X128275000Y-73250000D03*
%TO.P,I2C1,4,Pin_4*%
%TO.N,D21*%
X128275000Y-75750000D03*
%TD*%
D14*
%TO.P,Bateria,1,Pin_1*%
%TO.N,VIN*%
X94000000Y-139000000D03*
D15*
%TO.P,Bateria,2,Pin_2*%
%TO.N,unconnected-(Bateria1-Pin_2-Pad2)*%
X96500000Y-139000000D03*
%TO.P,Bateria,3,Pin_3*%
%TO.N,GND*%
X99000000Y-139000000D03*
%TD*%
D16*
%TO.P,Resistencia1,1*%
%TO.N,GND*%
X82500000Y-66000000D03*
D17*
%TO.P,Resistencia1,2*%
%TO.N,D12*%
X107900000Y-66000000D03*
%TD*%
D10*
%TO.P,SERVO,1,Pin_1*%
%TO.N,GND*%
X118025000Y-106025000D03*
D11*
%TO.P,SERVO,2,Pin_2*%
%TO.N,ServoV*%
X118025000Y-108525000D03*
%TO.P,SERVO,3,Pin_3*%
%TO.N,D23*%
X118025000Y-111025000D03*
%TD*%
%TO.P,Laser3,1,Pin_1*%
%TO.N,5V*%
X69500000Y-123000000D03*
D12*
%TO.P,Laser3,2,Pin_2*%
%TO.N,GND*%
X69500000Y-125500000D03*
D11*
%TO.P,Laser3,3,Pin_3*%
%TO.N,D22*%
X69500000Y-128000000D03*
%TO.P,Laser3,4,Pin_4*%
%TO.N,D21*%
X69500000Y-130500000D03*
%TD*%
D18*
%TO.P,Convertidor,1,Pin_1*%
%TO.N,5V*%
X67420000Y-139000000D03*
D19*
%TO.P,Convertidor,2,Pin_2*%
%TO.N,GND*%
X69960000Y-139000000D03*
D18*
%TO.P,Convertidor,3,Pin_3*%
%TO.N,7V4*%
X72500000Y-139000000D03*
%TD*%
D20*
%TO.P,TB6612FNG,1,VM*%
%TO.N,7V4*%
X87300000Y-108240000D03*
%TO.P,TB6612FNG,2,VCC*%
%TO.N,3V3*%
X89840000Y-108240000D03*
D21*
%TO.P,TB6612FNG,3,GND*%
%TO.N,GND*%
X92380000Y-108240000D03*
D20*
%TO.P,TB6612FNG,4,A01*%
%TO.N,Net-(MotorA1-Pin_1)*%
X94920000Y-108240000D03*
%TO.P,TB6612FNG,5,A02*%
%TO.N,Net-(MotorA1-Pin_2)*%
X97460000Y-108240000D03*
%TO.P,TB6612FNG,6,B02*%
%TO.N,Net-(MotorB1-Pin_1)*%
X100000000Y-108240000D03*
%TO.P,TB6612FNG,7,B01*%
%TO.N,Net-(MotorB1-Pin_2)*%
X102540000Y-108240000D03*
D21*
%TO.P,TB6612FNG,8,GND*%
%TO.N,GND*%
X105080000Y-108240000D03*
%TO.P,TB6612FNG,9,GND*%
X105080000Y-93000000D03*
D20*
%TO.P,TB6612FNG,10,PWMB*%
%TO.N,D19*%
X102540000Y-93000000D03*
%TO.P,TB6612FNG,11,BI2*%
%TO.N,D18*%
X100000000Y-93000000D03*
%TO.P,TB6612FNG,12,BI1*%
%TO.N,D5*%
X97460000Y-93000000D03*
%TO.P,TB6612FNG,13,STBY*%
%TO.N,3V3*%
X94920000Y-93000000D03*
%TO.P,TB6612FNG,14,AI1*%
%TO.N,D17*%
X92380000Y-93000000D03*
%TO.P,TB6612FNG,15,AI2*%
%TO.N,D16*%
X89840000Y-93000000D03*
%TO.P,TB6612FNG,16,PWMA*%
%TO.N,D4*%
X87300000Y-93000000D03*
%TD*%
D14*
%TO.P,Switch,1,Pin_1*%
%TO.N,unconnected-(Switch1-Pin_1-Pad1)*%
X81500000Y-139000000D03*
D15*
%TO.P,Switch,2,Pin_2*%
%TO.N,VIN*%
X84000000Y-139000000D03*
%TO.P,Switch,3,Pin_3*%
%TO.N,7V4*%
X86500000Y-139000000D03*
%TD*%
D22*
%TO.P,Esp32,1,3V3*%
%TO.N,3V3*%
X80000000Y-80200000D03*
D23*
%TO.P,Esp32,2,GND*%
%TO.N,GND*%
X82540000Y-80200000D03*
%TO.P,Esp32,3,D15*%
%TO.N,unconnected-(Esp32-D15-Pad3)*%
X85080000Y-80200000D03*
%TO.P,Esp32,4,D2*%
%TO.N,unconnected-(Esp32-D2-Pad4)*%
X87620000Y-80200000D03*
%TO.P,Esp32,5,D4*%
%TO.N,D4*%
X90160000Y-80200000D03*
%TO.P,Esp32,6,RX2*%
%TO.N,D16*%
X92700000Y-80200000D03*
%TO.P,Esp32,7,TX2*%
%TO.N,D17*%
X95240000Y-80200000D03*
%TO.P,Esp32,8,D5*%
%TO.N,D5*%
X97780000Y-80200000D03*
%TO.P,Esp32,9,D18*%
%TO.N,D18*%
X100320000Y-80200000D03*
%TO.P,Esp32,10,D19*%
%TO.N,D19*%
X102860000Y-80200000D03*
%TO.P,Esp32,11,D21*%
%TO.N,D21*%
X105400000Y-80200000D03*
%TO.P,Esp32,12,RX0*%
%TO.N,unconnected-(Esp32-RX0-Pad12)*%
X107940000Y-80200000D03*
%TO.P,Esp32,13,TX0*%
%TO.N,unconnected-(Esp32-TX0-Pad13)*%
X110480000Y-80200000D03*
%TO.P,Esp32,14,D22*%
%TO.N,D22*%
X113020000Y-80200000D03*
%TO.P,Esp32,15,D23*%
%TO.N,D23*%
X115560000Y-80200000D03*
%TO.P,Esp32,16,EN*%
%TO.N,unconnected-(Esp32-EN-Pad16)*%
X115560000Y-54800000D03*
%TO.P,Esp32,17,VP*%
%TO.N,D36*%
X113020000Y-54800000D03*
%TO.P,Esp32,18,VN*%
%TO.N,D39*%
X110480000Y-54800000D03*
%TO.P,Esp32,19,D34*%
%TO.N,D34*%
X107940000Y-54800000D03*
%TO.P,Esp32,20,D35*%
%TO.N,D35*%
X105400000Y-54800000D03*
%TO.P,Esp32,21,D32*%
%TO.N,D32*%
X102860000Y-54800000D03*
%TO.P,Esp32,22,D33*%
%TO.N,D33*%
X100320000Y-54800000D03*
%TO.P,Esp32,23,D25*%
%TO.N,D25*%
X97780000Y-54800000D03*
%TO.P,Esp32,24,D26*%
%TO.N,D26*%
X95240000Y-54800000D03*
%TO.P,Esp32,25,D27*%
%TO.N,D27*%
X92700000Y-54800000D03*
%TO.P,Esp32,26,D14*%
%TO.N,D14*%
X90160000Y-54800000D03*
%TO.P,Esp32,27,D12*%
%TO.N,D12*%
X87620000Y-54800000D03*
%TO.P,Esp32,28,D13*%
%TO.N,D13*%
X85080000Y-54800000D03*
%TO.P,Esp32,29,GND*%
%TO.N,GND*%
X82540000Y-54800000D03*
%TO.P,Esp32,30,VIN*%
%TO.N,5V*%
X80000000Y-54800000D03*
%TD*%
D11*
%TO.P,Laser1,1,Pin_1*%
%TO.N,5V*%
X69525000Y-94500000D03*
D12*
%TO.P,Laser1,2,Pin_2*%
%TO.N,GND*%
X69525000Y-97000000D03*
D11*
%TO.P,Laser1,3,Pin_3*%
%TO.N,D22*%
X69525000Y-99500000D03*
%TO.P,Laser1,4,Pin_4*%
%TO.N,D21*%
X69525000Y-102000000D03*
%TD*%
D24*
%TO.P,SERVOPOWER,1,Pin_1*%
%TO.N,5V*%
X117500000Y-95230000D03*
%TO.P,SERVOPOWER,2,Pin_2*%
%TO.N,ServoV*%
X117500000Y-96500000D03*
%TO.P,SERVOPOWER,3,Pin_3*%
%TO.N,7V4*%
X117500000Y-97770000D03*
%TD*%
D10*
%TO.P,EncoderB,1,Pin_1*%
%TO.N,GND*%
X107500000Y-131470000D03*
D11*
%TO.P,EncoderB,2,Pin_2*%
%TO.N,D14*%
X107500000Y-133970000D03*
%TO.P,EncoderB,3,Pin_3*%
%TO.N,5V*%
X107500000Y-136470000D03*
%TD*%
D14*
%TO.P,SigueLineas,1,Pin_1*%
%TO.N,GND*%
X83500000Y-45000000D03*
D15*
%TO.P,SigueLineas,2,Pin_2*%
%TO.N,D27*%
X86000000Y-45000000D03*
%TO.P,SigueLineas,3,Pin_3*%
%TO.N,D26*%
X88500000Y-45000000D03*
%TO.P,SigueLineas,4,Pin_4*%
%TO.N,D25*%
X91000000Y-45000000D03*
%TO.P,SigueLineas,5,Pin_5*%
%TO.N,D33*%
X93500000Y-45000000D03*
%TO.P,SigueLineas,6,Pin_6*%
%TO.N,D32*%
X96000000Y-45000000D03*
%TO.P,SigueLineas,7,Pin_7*%
%TO.N,D35*%
X98500000Y-45000000D03*
%TO.P,SigueLineas,8,Pin_8*%
%TO.N,D34*%
X101000000Y-45000000D03*
%TO.P,SigueLineas,9,Pin_9*%
%TO.N,D39*%
X103500000Y-45000000D03*
%TO.P,SigueLineas,10,Pin_10*%
%TO.N,D36*%
X106000000Y-45000000D03*
%TO.P,SigueLineas,11,Pin_11*%
%TO.N,5V*%
X108500000Y-45000000D03*
%TD*%
D10*
%TO.P,EncoderA,1,Pin_1*%
%TO.N,GND*%
X107500000Y-117500000D03*
D11*
%TO.P,EncoderA,2,Pin_2*%
%TO.N,D13*%
X107500000Y-120000000D03*
%TO.P,EncoderA,3,Pin_3*%
%TO.N,5V*%
X107500000Y-122500000D03*
%TD*%
D25*
%TO.P,MotorA1,1,Pin_1*%
%TO.N,Net-(MotorA1-Pin_1)*%
X81250000Y-122750000D03*
%TO.P,MotorA1,2,Pin_2*%
%TO.N,Net-(MotorA1-Pin_2)*%
X83750000Y-122750000D03*
%TD*%
%TO.P,MotorB1,1,Pin_1*%
%TO.N,Net-(MotorB1-Pin_1)*%
X91500000Y-122750000D03*
%TO.P,MotorB1,2,Pin_2*%
%TO.N,Net-(MotorB1-Pin_2)*%
X94000000Y-122750000D03*
%TD*%
D26*
%TO.N,D21*%
X87500000Y-83500000D03*
%TO.N,GND*%
X92000000Y-131500000D03*
X133250000Y-87500000D03*
%TO.N,D12*%
X91500000Y-57750000D03*
X121750000Y-94000000D03*
X118000000Y-82750000D03*
%TO.N,D13*%
X112000000Y-87250000D03*
%TO.N,D14*%
X85000000Y-58000000D03*
%TO.N,D22*%
X76250000Y-98000000D03*
X107750000Y-95500000D03*
X85250000Y-98000000D03*
X115250000Y-70250000D03*
%TO.N,D23*%
X113000000Y-88750000D03*
X115500000Y-87750000D03*
%TD*%
D27*
%TO.N,D21*%
X75500000Y-126250000D02*
X71250000Y-130500000D01*
X71250000Y-116500000D02*
X69500000Y-116500000D01*
X71250000Y-130500000D02*
X69500000Y-130500000D01*
X75500000Y-98500000D02*
X72000000Y-102000000D01*
X75500000Y-95500000D02*
X75500000Y-98500000D01*
X87500000Y-83500000D02*
X75500000Y-95500000D01*
X75500000Y-112250000D02*
X71250000Y-116500000D01*
X75500000Y-110500000D02*
X75500000Y-112250000D01*
X75500000Y-98500000D02*
X75500000Y-110500000D01*
X72000000Y-102000000D02*
X69525000Y-102000000D01*
X75500000Y-110500000D02*
X75500000Y-126250000D01*
D28*
%TO.N,VIN*%
X84000000Y-140000000D02*
X86000000Y-142000000D01*
X94000000Y-139500000D02*
X94000000Y-139000000D01*
X84000000Y-139000000D02*
X84000000Y-140000000D01*
X91500000Y-142000000D02*
X94000000Y-139500000D01*
X86000000Y-142000000D02*
X91500000Y-142000000D01*
%TO.N,GND*%
X99000000Y-120000000D02*
X99000000Y-129000000D01*
X96500000Y-145500000D02*
X99000000Y-143000000D01*
D29*
X107500000Y-114000000D02*
X107500000Y-117500000D01*
X105080000Y-108240000D02*
X105080000Y-111580000D01*
D28*
X96500000Y-131500000D02*
X95500000Y-131500000D01*
X69960000Y-139000000D02*
X69960000Y-140960000D01*
D29*
X105080000Y-111580000D02*
X107500000Y-114000000D01*
D28*
X69960000Y-140960000D02*
X74500000Y-145500000D01*
D29*
X82540000Y-56540000D02*
X82540000Y-65460000D01*
D28*
X95500000Y-131500000D02*
X92000000Y-131500000D01*
D29*
X82540000Y-49960000D02*
X83500000Y-49000000D01*
X82540000Y-54800000D02*
X82540000Y-49960000D01*
X133250000Y-87500000D02*
X119000000Y-73250000D01*
X83500000Y-49000000D02*
X83500000Y-45000000D01*
D28*
X74500000Y-145500000D02*
X96500000Y-145500000D01*
X99000000Y-120000000D02*
X92380000Y-113380000D01*
D29*
X98250000Y-73250000D02*
X82540000Y-57540000D01*
D28*
X99000000Y-143000000D02*
X99000000Y-139000000D01*
D29*
X105080000Y-108240000D02*
X105080000Y-93000000D01*
D28*
X99000000Y-129000000D02*
X96500000Y-131500000D01*
X92380000Y-113380000D02*
X92380000Y-108240000D01*
D29*
X82540000Y-54800000D02*
X82540000Y-56540000D01*
X82540000Y-57540000D02*
X82540000Y-54800000D01*
X82540000Y-65460000D02*
X82500000Y-65500000D01*
X119000000Y-73250000D02*
X98250000Y-73250000D01*
D27*
%TO.N,D12*%
X91500000Y-57750000D02*
X99750000Y-66000000D01*
X99750000Y-66000000D02*
X107900000Y-66000000D01*
X118000000Y-82750000D02*
X122750000Y-87500000D01*
X122750000Y-90000000D02*
X122750000Y-93000000D01*
X122750000Y-93000000D02*
X121750000Y-94000000D01*
X122750000Y-87500000D02*
X122750000Y-90000000D01*
D29*
%TO.N,5V*%
X62000000Y-67500000D02*
X74700000Y-54800000D01*
X131250000Y-89750000D02*
X131250000Y-102000000D01*
X80000000Y-54800000D02*
X80000000Y-69250000D01*
X128500000Y-88250000D02*
X128500000Y-90000000D01*
X116960000Y-76710000D02*
X128500000Y-88250000D01*
X62000000Y-135000000D02*
X62000000Y-127000000D01*
X128250000Y-49000000D02*
X128250000Y-49250000D01*
X111500000Y-122500000D02*
X107500000Y-122500000D01*
X118980000Y-95230000D02*
X117500000Y-95230000D01*
X120500000Y-96750000D02*
X118980000Y-95230000D01*
X111500000Y-134000000D02*
X109030000Y-136470000D01*
X131250000Y-52250000D02*
X131250000Y-65275000D01*
X118000000Y-121750000D02*
X120500000Y-124250000D01*
X128500000Y-88250000D02*
X129750000Y-88250000D01*
X80000000Y-69250000D02*
X87460000Y-76710000D01*
X62000000Y-113500000D02*
X66500000Y-109000000D01*
X109030000Y-136470000D02*
X107500000Y-136470000D01*
X112250000Y-121750000D02*
X111500000Y-122500000D01*
X128675000Y-104575000D02*
X128500000Y-104575000D01*
X66500000Y-109000000D02*
X69500000Y-109000000D01*
X111500000Y-122500000D02*
X111500000Y-134000000D01*
X131250000Y-102000000D02*
X131250000Y-114500000D01*
X108500000Y-45000000D02*
X124250000Y-45000000D01*
X127500000Y-118250000D02*
X121500000Y-118250000D01*
X62000000Y-127000000D02*
X62000000Y-113500000D01*
X120500000Y-119250000D02*
X118000000Y-121750000D01*
X74700000Y-54800000D02*
X80000000Y-54800000D01*
X66000000Y-123000000D02*
X69500000Y-123000000D01*
X87460000Y-76710000D02*
X116960000Y-76710000D01*
X131250000Y-65275000D02*
X128275000Y-68250000D01*
X66000000Y-139000000D02*
X62000000Y-135000000D01*
X62000000Y-100500000D02*
X68000000Y-94500000D01*
X121500000Y-118250000D02*
X120500000Y-119250000D01*
X131250000Y-114500000D02*
X127500000Y-118250000D01*
X128250000Y-49250000D02*
X128250000Y-53000000D01*
X67420000Y-139000000D02*
X66000000Y-139000000D01*
X62000000Y-113500000D02*
X62000000Y-100500000D01*
X129750000Y-88250000D02*
X131250000Y-89750000D01*
X131250000Y-102000000D02*
X128675000Y-104575000D01*
X62000000Y-100500000D02*
X62000000Y-67500000D01*
X120500000Y-124250000D02*
X120500000Y-124760000D01*
X62000000Y-127000000D02*
X66000000Y-123000000D01*
X68000000Y-94500000D02*
X69525000Y-94500000D01*
X120500000Y-119250000D02*
X120500000Y-96750000D01*
X118000000Y-121750000D02*
X112250000Y-121750000D01*
X128250000Y-49250000D02*
X131250000Y-52250000D01*
X124250000Y-45000000D02*
X128250000Y-49000000D01*
D27*
%TO.N,D13*%
X112000000Y-87250000D02*
X110500000Y-88750000D01*
X110500000Y-88750000D02*
X110500000Y-118250000D01*
X108750000Y-120000000D02*
X107500000Y-120000000D01*
X110500000Y-118250000D02*
X108750000Y-120000000D01*
%TO.N,D14*%
X90160000Y-57090000D02*
X90160000Y-54800000D01*
X85000000Y-58000000D02*
X89250000Y-58000000D01*
X89250000Y-58000000D02*
X90160000Y-57090000D01*
%TO.N,D26*%
X88500000Y-46500000D02*
X95240000Y-53240000D01*
X88500000Y-45000000D02*
X88500000Y-46500000D01*
X95240000Y-53240000D02*
X95240000Y-54800000D01*
%TO.N,D39*%
X103500000Y-45000000D02*
X103500000Y-46500000D01*
X103500000Y-46500000D02*
X110480000Y-53480000D01*
X110480000Y-53480000D02*
X110480000Y-54800000D01*
%TO.N,D19*%
X102860000Y-87360000D02*
X102540000Y-87680000D01*
X102540000Y-87680000D02*
X102540000Y-93000000D01*
X102860000Y-80200000D02*
X102860000Y-87360000D01*
%TO.N,D4*%
X90160000Y-84340000D02*
X90160000Y-80200000D01*
X87300000Y-93000000D02*
X87300000Y-87200000D01*
X87300000Y-87200000D02*
X90160000Y-84340000D01*
%TO.N,D5*%
X97460000Y-87040000D02*
X97460000Y-93000000D01*
X97780000Y-80200000D02*
X97780000Y-86720000D01*
X97780000Y-86720000D02*
X97460000Y-87040000D01*
%TO.N,D16*%
X92700000Y-84300000D02*
X89840000Y-87160000D01*
X89840000Y-87160000D02*
X89840000Y-93000000D01*
X92700000Y-80200000D02*
X92700000Y-84300000D01*
%TO.N,D35*%
X98500000Y-46500000D02*
X105400000Y-53400000D01*
X105400000Y-53400000D02*
X105400000Y-54800000D01*
X98500000Y-45000000D02*
X98500000Y-46500000D01*
%TO.N,D36*%
X106000000Y-46500000D02*
X113020000Y-53520000D01*
X113020000Y-53520000D02*
X113020000Y-54800000D01*
X106000000Y-45000000D02*
X106000000Y-46500000D01*
%TO.N,D22*%
X108500000Y-94750000D02*
X107750000Y-95500000D01*
X108500000Y-88750000D02*
X108500000Y-94750000D01*
X113000000Y-84250000D02*
X108500000Y-88750000D01*
X124250000Y-97250000D02*
X126500000Y-95000000D01*
X128500000Y-109575000D02*
X126325000Y-109575000D01*
X124250000Y-107500000D02*
X124250000Y-97250000D01*
X125250000Y-58000000D02*
X129250000Y-58000000D01*
X122500000Y-63000000D02*
X122500000Y-60750000D01*
X113020000Y-84250000D02*
X113000000Y-84250000D01*
X126000000Y-73250000D02*
X129275000Y-73250000D01*
X122500000Y-60750000D02*
X125250000Y-58000000D01*
X113020000Y-80200000D02*
X113020000Y-84250000D01*
X113020000Y-84250000D02*
X113020000Y-87020000D01*
X126500000Y-95000000D02*
X128500000Y-95000000D01*
X126325000Y-109575000D02*
X124250000Y-107500000D01*
X122500000Y-69750000D02*
X126000000Y-73250000D01*
X85250000Y-98000000D02*
X76250000Y-98000000D01*
X113020000Y-87020000D02*
X124250000Y-98250000D01*
X122500000Y-62750000D02*
X122500000Y-69750000D01*
X115250000Y-70250000D02*
X122500000Y-63000000D01*
%TO.N,D34*%
X107940000Y-53440000D02*
X107940000Y-54800000D01*
X101000000Y-46500000D02*
X107940000Y-53440000D01*
X101000000Y-45000000D02*
X101000000Y-46500000D01*
%TO.N,D18*%
X100320000Y-80200000D02*
X100320000Y-87180000D01*
X100320000Y-87180000D02*
X100000000Y-87500000D01*
X100000000Y-87500000D02*
X100000000Y-93000000D01*
%TO.N,D32*%
X96000000Y-45000000D02*
X96000000Y-46500000D01*
X96000000Y-46500000D02*
X102860000Y-53360000D01*
X102860000Y-53360000D02*
X102860000Y-54800000D01*
%TO.N,D17*%
X95240000Y-84260000D02*
X95240000Y-80200000D01*
X92380000Y-93000000D02*
X92380000Y-87120000D01*
X92380000Y-87120000D02*
X95240000Y-84260000D01*
%TO.N,D25*%
X91000000Y-45000000D02*
X91000000Y-46500000D01*
X91000000Y-46500000D02*
X97780000Y-53280000D01*
X97780000Y-53280000D02*
X97780000Y-54800000D01*
%TO.N,D33*%
X93500000Y-46500000D02*
X100320000Y-53320000D01*
X93500000Y-45000000D02*
X93500000Y-46500000D01*
X100320000Y-53320000D02*
X100320000Y-54800000D01*
%TO.N,D27*%
X92700000Y-53200000D02*
X92700000Y-54800000D01*
X86000000Y-45000000D02*
X86000000Y-46500000D01*
X86000000Y-46500000D02*
X92700000Y-53200000D01*
%TO.N,D23*%
X114025000Y-111025000D02*
X113000000Y-110000000D01*
X115500000Y-87750000D02*
X115560000Y-87690000D01*
X118025000Y-111025000D02*
X114025000Y-111025000D01*
X115560000Y-87690000D02*
X115560000Y-80200000D01*
X111750000Y-90000000D02*
X113000000Y-88750000D01*
X111750000Y-90250000D02*
X111750000Y-90000000D01*
X113000000Y-110000000D02*
X111750000Y-108750000D01*
X111750000Y-108750000D02*
X111750000Y-90250000D01*
D29*
%TO.N,ServoV*%
X113250000Y-107250000D02*
X113250000Y-98250000D01*
X115000000Y-96500000D02*
X117500000Y-96500000D01*
X118025000Y-108525000D02*
X114525000Y-108525000D01*
X113250000Y-98250000D02*
X115000000Y-96500000D01*
X114525000Y-108525000D02*
X113250000Y-107250000D01*
D28*
%TO.N,7V4*%
X87300000Y-108240000D02*
X87300000Y-131700000D01*
X87300000Y-131700000D02*
X86500000Y-132500000D01*
X86500000Y-132500000D02*
X86500000Y-139000000D01*
%TD*%
M02*
