<?xml version="1.0" encoding="utf-8"?>
<!-- Generator: Fusion 360, Shaper Origin Export Add-In, Version 1.8.0  -->
<svg xmlns="http://www.w3.org/2000/svg" xmlns:xlink="http://www.w3.org/1999/xlink" xmlns:shaper="http://www.shapertools.com/namespaces/shaper" shaper:fusionaddin="version:1.8.0" width="14cm" height="10.5005598cm" version="1.1" x="0cm" y="0cm" viewBox="0 0 14 10.5005598" enable-background="new 0 0 14 10.5005598" xml:space="preserve"><g id="Body_Base"><path d="M-4.6384867,-0.7136702 L8.6615133,-0.7136702 A0.35,0.35 270 0,1 9.0115133,-0.3636702 L9.0115133,9.4368896 A0.35,0.35 0 0,1 8.6615133,9.7868896 L-4.6384867,9.7868896 A0.35,0.35 90 0,1 -4.9884867,9.4368896 L-4.9884867,-0.3636702 A0.35,0.35 180 0,1 -4.6384867,-0.7136702z" transform="matrix(1,0,0,-1,4.9884867,9.7868896)" fill="rgb(0,0,0)" shaper:cutDepth="0.3cm" stroke-linecap="round" stroke-linejoin="round" /><path d="M8.2999999,4.8999781 a0.2,0.2 0 1,1 0.4,0 a0.2,0.2 0 1,1 -0.4,0z" transform="matrix(1,0,0,-1,4.9884867,9.7868896)" fill="rgb(255,255,255)" stroke="rgb(0,0,0)" stroke-width="0.0010cm" stroke-linecap="round" stroke-linejoin="round" shaper:cutDepth="0.3cm" /><path d="M-4.7000001,4.8998041 a0.2,0.2 0 1,1 0.4,0 a0.2,0.2 0 1,1 -0.4,0z" transform="matrix(1,0,0,-1,4.9884867,9.7868896)" fill="rgb(255,255,255)" stroke="rgb(0,0,0)" stroke-width="0.0010cm" stroke-linecap="round" stroke-linejoin="round" shaper:cutDepth="0.3cm" /><path d="M-4.7000001,5.7001421 a0.2,0.2 0 1,1 0.4,0 a0.2,0.2 0 1,1 -0.4,0z" transform="matrix(1,0,0,-1,4.9884867,9.7868896)" fill="rgb(255,255,255)" stroke="rgb(0,0,0)" stroke-width="0.0010cm" stroke-linecap="round" stroke-linejoin="round" shaper:cutDepth="0.3cm" /><path d="M8.2999999,5.6999867 a0.2,0.2 0 1,1 0.4,0 a0.2,0.2 0 1,1 -0.4,0z" transform="matrix(1,0,0,-1,4.9884867,9.7868896)" fill="rgb(255,255,255)" stroke="rgb(0,0,0)" stroke-width="0.0010cm" stroke-linecap="round" stroke-linejoin="round" shaper:cutDepth="0.3cm" /><path d="M7.625,-0.0607959 a0.175,0.175 0 1,1 0.35,0 a0.175,0.175 0 1,1 -0.35,0z" transform="matrix(1,0,0,-1,4.9884867,9.7868896)" fill="rgb(255,255,255)" stroke="rgb(0,0,0)" stroke-width="0.0010cm" stroke-linecap="round" stroke-linejoin="round" shaper:cutDepth="0.3cm" /><path d="M6.6,0.74 a0.5,0.5 0 1,1 1,0 a0.5,0.5 0 1,1 -1,0z" transform="matrix(1,0,0,-1,4.9884867,9.7868896)" fill="rgb(255,255,255)" stroke="rgb(0,0,0)" stroke-width="0.0010cm" stroke-linecap="round" stroke-linejoin="round" shaper:cutDepth="0.3cm" /><path d="M7.625,1.5392041 a0.175,0.175 0 1,1 0.35,0 a0.175,0.175 0 1,1 -0.35,0z" transform="matrix(1,0,0,-1,4.9884867,9.7868896)" fill="rgb(255,255,255)" stroke="rgb(0,0,0)" stroke-width="0.0010cm" stroke-linecap="round" stroke-linejoin="round" shaper:cutDepth="0.3cm" /><path d="M6.225,-0.0607959 a0.175,0.175 0 1,1 0.35,0 a0.175,0.175 0 1,1 -0.35,0z" transform="matrix(1,0,0,-1,4.9884867,9.7868896)" fill="rgb(255,255,255)" stroke="rgb(0,0,0)" stroke-width="0.0010cm" stroke-linecap="round" stroke-linejoin="round" shaper:cutDepth="0.3cm" /><path d="M6.225,1.5392041 a0.175,0.175 0 1,1 0.35,0 a0.175,0.175 0 1,1 -0.35,0z" transform="matrix(1,0,0,-1,4.9884867,9.7868896)" fill="rgb(255,255,255)" stroke="rgb(0,0,0)" stroke-width="0.0010cm" stroke-linecap="round" stroke-linejoin="round" shaper:cutDepth="0.3cm" /><path d="M-2.575,1.5207959 a0.175,0.175 0 1,1 0.35,0 a0.175,0.175 0 1,1 -0.35,0z" transform="matrix(1,0,0,-1,4.9884867,9.7868896)" fill="rgb(255,255,255)" stroke="rgb(0,0,0)" stroke-width="0.0010cm" stroke-linecap="round" stroke-linejoin="round" shaper:cutDepth="0.3cm" /><path d="M-2.575,-0.0792041 a0.175,0.175 0 1,1 0.35,0 a0.175,0.175 0 1,1 -0.35,0z" transform="matrix(1,0,0,-1,4.9884867,9.7868896)" fill="rgb(255,255,255)" stroke="rgb(0,0,0)" stroke-width="0.0010cm" stroke-linecap="round" stroke-linejoin="round" shaper:cutDepth="0.3cm" /><path d="M-3.975,1.5207959 a0.175,0.175 0 1,1 0.35,0 a0.175,0.175 0 1,1 -0.35,0z" transform="matrix(1,0,0,-1,4.9884867,9.7868896)" fill="rgb(255,255,255)" stroke="rgb(0,0,0)" stroke-width="0.0010cm" stroke-linecap="round" stroke-linejoin="round" shaper:cutDepth="0.3cm" /><path d="M-3.975,-0.0792041 a0.175,0.175 0 1,1 0.35,0 a0.175,0.175 0 1,1 -0.35,0z" transform="matrix(1,0,0,-1,4.9884867,9.7868896)" fill="rgb(255,255,255)" stroke="rgb(0,0,0)" stroke-width="0.0010cm" stroke-linecap="round" stroke-linejoin="round" shaper:cutDepth="0.3cm" /><path d="M-3.6,0.72 a0.5,0.5 0 1,1 1,0 a0.5,0.5 0 1,1 -1,0z" transform="matrix(1,0,0,-1,4.9884867,9.7868896)" fill="rgb(255,255,255)" stroke="rgb(0,0,0)" stroke-width="0.0010cm" stroke-linecap="round" stroke-linejoin="round" shaper:cutDepth="0.3cm" /><path d="M1.2786493,4.3863298 a0.175,0.175 0 1,1 0.35,0 a0.175,0.175 0 1,1 -0.35,0z" transform="matrix(1,0,0,-1,4.9884867,9.7868896)" fill="rgb(255,255,255)" stroke="rgb(0,0,0)" stroke-width="0.0010cm" stroke-linecap="round" stroke-linejoin="round" shaper:cutDepth="0.3cm" /><path d="M2.4786493,4.3863298 a0.175,0.175 0 1,1 0.35,0 a0.175,0.175 0 1,1 -0.35,0z" transform="matrix(1,0,0,-1,4.9884867,9.7868896)" fill="rgb(255,255,255)" stroke="rgb(0,0,0)" stroke-width="0.0010cm" stroke-linecap="round" stroke-linejoin="round" shaper:cutDepth="0.3cm" /><path d="M0.8,-0.2500001 a0.15,0.15 0 1,1 0.3,0 a0.15,0.15 0 1,1 -0.3,0z" transform="matrix(1,0,0,-1,4.9884867,9.7868896)" fill="rgb(255,255,255)" stroke="rgb(0,0,0)" stroke-width="0.0010cm" stroke-linecap="round" stroke-linejoin="round" shaper:cutDepth="0.3cm" /><path d="M2.8,-0.2500001 a0.15,0.15 0 1,1 0.3,0 a0.15,0.15 0 1,1 -0.3,0z" transform="matrix(1,0,0,-1,4.9884867,9.7868896)" fill="rgb(255,255,255)" stroke="rgb(0,0,0)" stroke-width="0.0010cm" stroke-linecap="round" stroke-linejoin="round" shaper:cutDepth="0.3cm" /><path d="M0.3536493,2.3863298 L0.3536493,1.2863298 3.7536493,1.2863298 3.7536493,2.3863298 0.3536493,2.3863298z" transform="matrix(1,0,0,-1,4.9884867,9.7868896)" fill="rgb(255,255,255)" stroke="rgb(0,0,0)" stroke-width="0.0010cm" stroke-linecap="round" stroke-linejoin="round" shaper:cutDepth="0.3cm" /><path d="M-0.8477067,0.3168923 a0.10922,0.10922 0 1,1 0.21844,0 a0.10922,0.10922 0 1,1 -0.21844,0z" transform="matrix(1,0,0,-1,4.9884867,9.7868896)" fill="rgb(255,255,255)" stroke="rgb(0,0,0)" stroke-width="0.0010cm" stroke-linecap="round" stroke-linejoin="round" shaper:cutDepth="0.3cm" /><path d="M4.7522933,0.3168923 a0.10922,0.10922 0 1,1 0.21844,0 a0.10922,0.10922 0 1,1 -0.21844,0z" transform="matrix(1,0,0,-1,4.9884867,9.7868896)" fill="rgb(255,255,255)" stroke="rgb(0,0,0)" stroke-width="0.0010cm" stroke-linecap="round" stroke-linejoin="round" shaper:cutDepth="0.3cm" /><path d="M6.8615133,2.4863298 a0.15,0.15 0 1,1 0.3,0 a0.15,0.15 0 1,1 -0.3,0z" transform="matrix(1,0,0,-1,4.9884867,9.7868896)" fill="rgb(255,255,255)" stroke="rgb(0,0,0)" stroke-width="0.0010cm" stroke-linecap="round" stroke-linejoin="round" shaper:cutDepth="0.3cm" /><path d="M6.8615133,9.4863299 a0.15,0.15 0 1,1 0.3,0 a0.15,0.15 0 1,1 -0.3,0z" transform="matrix(1,0,0,-1,4.9884867,9.7868896)" fill="rgb(255,255,255)" stroke="rgb(0,0,0)" stroke-width="0.0010cm" stroke-linecap="round" stroke-linejoin="round" shaper:cutDepth="0.3cm" /><path d="M-3.1384868,9.4863299 a0.15,0.15 0 1,1 0.3,0 a0.15,0.15 0 1,1 -0.3,0z" transform="matrix(1,0,0,-1,4.9884867,9.7868896)" fill="rgb(255,255,255)" stroke="rgb(0,0,0)" stroke-width="0.0010cm" stroke-linecap="round" stroke-linejoin="round" shaper:cutDepth="0.3cm" /><path d="M-3.1384868,2.4863298 a0.15,0.15 0 1,1 0.3,0 a0.15,0.15 0 1,1 -0.3,0z" transform="matrix(1,0,0,-1,4.9884867,9.7868896)" fill="rgb(255,255,255)" stroke="rgb(0,0,0)" stroke-width="0.0010cm" stroke-linecap="round" stroke-linejoin="round" shaper:cutDepth="0.3cm" /><path d="M-3.9634867,8.5071257 a0.175,0.175 0 1,1 0.35,0 a0.175,0.175 0 1,1 -0.35,0z" transform="matrix(1,0,0,-1,4.9884867,9.7868896)" fill="rgb(255,255,255)" stroke="rgb(0,0,0)" stroke-width="0.0010cm" stroke-linecap="round" stroke-linejoin="round" shaper:cutDepth="0.3cm" /><path d="M7.6365133,8.525534 a0.175,0.175 0 1,1 0.35,0 a0.175,0.175 0 1,1 -0.35,0z" transform="matrix(1,0,0,-1,4.9884867,9.7868896)" fill="rgb(255,255,255)" stroke="rgb(0,0,0)" stroke-width="0.0010cm" stroke-linecap="round" stroke-linejoin="round" shaper:cutDepth="0.3cm" /><path d="M-3.9634867,6.9071257 a0.175,0.175 0 1,1 0.35,0 a0.175,0.175 0 1,1 -0.35,0z" transform="matrix(1,0,0,-1,4.9884867,9.7868896)" fill="rgb(255,255,255)" stroke="rgb(0,0,0)" stroke-width="0.0010cm" stroke-linecap="round" stroke-linejoin="round" shaper:cutDepth="0.3cm" /><path d="M-2.5634867,6.9071257 a0.175,0.175 0 1,1 0.35,0 a0.175,0.175 0 1,1 -0.35,0z" transform="matrix(1,0,0,-1,4.9884867,9.7868896)" fill="rgb(255,255,255)" stroke="rgb(0,0,0)" stroke-width="0.0010cm" stroke-linecap="round" stroke-linejoin="round" shaper:cutDepth="0.3cm" /><path d="M-2.5634867,8.5071257 a0.175,0.175 0 1,1 0.35,0 a0.175,0.175 0 1,1 -0.35,0z" transform="matrix(1,0,0,-1,4.9884867,9.7868896)" fill="rgb(255,255,255)" stroke="rgb(0,0,0)" stroke-width="0.0010cm" stroke-linecap="round" stroke-linejoin="round" shaper:cutDepth="0.3cm" /><path d="M-3.5884867,7.7063298 a0.5,0.5 0 1,1 1,0 a0.5,0.5 0 1,1 -1,0z" transform="matrix(1,0,0,-1,4.9884867,9.7868896)" fill="rgb(255,255,255)" stroke="rgb(0,0,0)" stroke-width="0.0010cm" stroke-linecap="round" stroke-linejoin="round" shaper:cutDepth="0.3cm" /><path d="M6.6115133,7.7263298 a0.5,0.5 0 1,1 1,0 a0.5,0.5 0 1,1 -1,0z" transform="matrix(1,0,0,-1,4.9884867,9.7868896)" fill="rgb(255,255,255)" stroke="rgb(0,0,0)" stroke-width="0.0010cm" stroke-linecap="round" stroke-linejoin="round" shaper:cutDepth="0.3cm" /><path d="M6.2365133,8.525534 a0.175,0.175 0 1,1 0.35,0 a0.175,0.175 0 1,1 -0.35,0z" transform="matrix(1,0,0,-1,4.9884867,9.7868896)" fill="rgb(255,255,255)" stroke="rgb(0,0,0)" stroke-width="0.0010cm" stroke-linecap="round" stroke-linejoin="round" shaper:cutDepth="0.3cm" /><path d="M7.6365133,6.925534 a0.175,0.175 0 1,1 0.35,0 a0.175,0.175 0 1,1 -0.35,0z" transform="matrix(1,0,0,-1,4.9884867,9.7868896)" fill="rgb(255,255,255)" stroke="rgb(0,0,0)" stroke-width="0.0010cm" stroke-linecap="round" stroke-linejoin="round" shaper:cutDepth="0.3cm" /><path d="M6.2365133,6.925534 a0.175,0.175 0 1,1 0.35,0 a0.175,0.175 0 1,1 -0.35,0z" transform="matrix(1,0,0,-1,4.9884867,9.7868896)" fill="rgb(255,255,255)" stroke="rgb(0,0,0)" stroke-width="0.0010cm" stroke-linecap="round" stroke-linejoin="round" shaper:cutDepth="0.3cm" /></g></svg>