999
"DXF R12 Output" (www.mydxf.blogspot.com)
 0 
SECTION
 2 
HEADER
 9 
$ACADVER
 1 
AC1009
 9 
$EXTMIN
 10 
 0 
 20 
 0 
 9 
$EXTMAX
 10 
 8.5 
 20 
 11 
 0 
ENDSEC
 0 
SECTION
 2 
ENTITIES
0
LINE
8
Layer 1
10
3.500033
20
-0.000002
11
136.500033
21
-0.000002
0
LINE
8
Layer 1
10
136.500033
20
-0.000002
11
137.839425
21
0.266420
0
LINE
8
Layer 1
10
137.839425
20
0.266420
11
138.974907
21
1.025124
0
LINE
8
Layer 1
10
138.974907
20
1.025124
11
139.733611
21
2.160606
0
LINE
8
Layer 1
10
139.733611
20
2.160606
11
140.000033
21
3.499998
0
LINE
8
Layer 1
10
140.000033
20
3.499998
11
140.000033
21
101.505596
0
LINE
8
Layer 1
10
140.000033
20
101.505596
11
139.733611
21
102.844988
0
LINE
8
Layer 1
10
139.733611
20
102.844988
11
138.974907
21
103.980470
0
LINE
8
Layer 1
10
138.974907
20
103.980470
11
137.839425
21
104.739174
0
LINE
8
Layer 1
10
137.839425
20
104.739174
11
136.500033
21
105.005596
0
LINE
8
Layer 1
10
136.500033
20
105.005596
11
3.500033
21
105.005596
0
LINE
8
Layer 1
10
3.500033
20
105.005596
11
2.160641
21
104.739174
0
LINE
8
Layer 1
10
2.160641
20
104.739174
11
1.025159
21
103.980470
0
LINE
8
Layer 1
10
1.025159
20
103.980470
11
0.266455
21
102.844988
0
LINE
8
Layer 1
10
0.266455
20
102.844988
11
0.000033
21
101.505596
0
LINE
8
Layer 1
10
0.000033
20
101.505596
11
0.000033
21
3.499998
0
LINE
8
Layer 1
10
0.000033
20
3.499998
11
0.266455
21
2.160606
0
LINE
8
Layer 1
10
0.266455
20
2.160606
11
1.025159
21
1.025124
0
LINE
8
Layer 1
10
1.025159
20
1.025124
11
2.160641
21
0.266420
0
LINE
8
Layer 1
10
2.160641
20
0.266420
11
3.500033
21
-0.000002
0
LINE
8
Layer 1
10
3.500033
20
-0.000002
11
3.500033
21
-0.000002
0
LINE
8
Layer 1
10
132.884899
20
56.136481
11
133.152848
21
55.136481
0
LINE
8
Layer 1
10
133.152848
20
55.136481
11
133.884899
21
54.404430
0
LINE
8
Layer 1
10
133.884899
20
54.404430
11
134.884899
21
54.136481
0
LINE
8
Layer 1
10
134.884899
20
54.136481
11
135.884899
21
54.404430
0
LINE
8
Layer 1
10
135.884899
20
54.404430
11
136.616950
21
55.136481
0
LINE
8
Layer 1
10
136.616950
20
55.136481
11
136.884899
21
56.136481
0
LINE
8
Layer 1
10
136.884899
20
56.136481
11
136.616950
21
57.136481
0
LINE
8
Layer 1
10
136.616950
20
57.136481
11
135.884899
21
57.868532
0
LINE
8
Layer 1
10
135.884899
20
57.868532
11
134.884899
21
58.136481
0
LINE
8
Layer 1
10
134.884899
20
58.136481
11
133.884899
21
57.868532
0
LINE
8
Layer 1
10
133.884899
20
57.868532
11
133.152848
21
57.136481
0
LINE
8
Layer 1
10
133.152848
20
57.136481
11
132.884899
21
56.136481
0
LINE
8
Layer 1
10
132.884899
20
56.136481
11
132.884899
21
56.136481
0
LINE
8
Layer 1
10
2.884899
20
56.134741
11
3.152848
21
55.134741
0
LINE
8
Layer 1
10
3.152848
20
55.134741
11
3.884899
21
54.402690
0
LINE
8
Layer 1
10
3.884899
20
54.402690
11
4.884899
21
54.134741
0
LINE
8
Layer 1
10
4.884899
20
54.134741
11
5.884899
21
54.402690
0
LINE
8
Layer 1
10
5.884899
20
54.402690
11
6.616950
21
55.134741
0
LINE
8
Layer 1
10
6.616950
20
55.134741
11
6.884899
21
56.134741
0
LINE
8
Layer 1
10
6.884899
20
56.134741
11
6.616950
21
57.134741
0
LINE
8
Layer 1
10
6.616950
20
57.134741
11
5.884899
21
57.866792
0
LINE
8
Layer 1
10
5.884899
20
57.866792
11
4.884899
21
58.134741
0
LINE
8
Layer 1
10
4.884899
20
58.134741
11
3.884899
21
57.866792
0
LINE
8
Layer 1
10
3.884899
20
57.866792
11
3.152848
21
57.134741
0
LINE
8
Layer 1
10
3.152848
20
57.134741
11
2.884899
21
56.134741
0
LINE
8
Layer 1
10
2.884899
20
56.134741
11
2.884899
21
56.134741
0
LINE
8
Layer 1
10
2.884899
20
64.138121
11
3.152848
21
63.138121
0
LINE
8
Layer 1
10
3.152848
20
63.138121
11
3.884899
21
62.406070
0
LINE
8
Layer 1
10
3.884899
20
62.406070
11
4.884899
21
62.138121
0
LINE
8
Layer 1
10
4.884899
20
62.138121
11
5.884899
21
62.406070
0
LINE
8
Layer 1
10
5.884899
20
62.406070
11
6.616950
21
63.138121
0
LINE
8
Layer 1
10
6.616950
20
63.138121
11
6.884899
21
64.138121
0
LINE
8
Layer 1
10
6.884899
20
64.138121
11
6.616950
21
65.138121
0
LINE
8
Layer 1
10
6.616950
20
65.138121
11
5.884899
21
65.870172
0
LINE
8
Layer 1
10
5.884899
20
65.870172
11
4.884899
21
66.138121
0
LINE
8
Layer 1
10
4.884899
20
66.138121
11
3.884899
21
65.870172
0
LINE
8
Layer 1
10
3.884899
20
65.870172
11
3.152848
21
65.138121
0
LINE
8
Layer 1
10
3.152848
20
65.138121
11
2.884899
21
64.138121
0
LINE
8
Layer 1
10
2.884899
20
64.138121
11
2.884899
21
64.138121
0
LINE
8
Layer 1
10
132.884899
20
64.136567
11
133.152848
21
63.136567
0
LINE
8
Layer 1
10
133.152848
20
63.136567
11
133.884899
21
62.404516
0
LINE
8
Layer 1
10
133.884899
20
62.404516
11
134.884899
21
62.136567
0
LINE
8
Layer 1
10
134.884899
20
62.136567
11
135.884899
21
62.404516
0
LINE
8
Layer 1
10
135.884899
20
62.404516
11
136.616950
21
63.136567
0
LINE
8
Layer 1
10
136.616950
20
63.136567
11
136.884899
21
64.136567
0
LINE
8
Layer 1
10
136.884899
20
64.136567
11
136.616950
21
65.136567
0
LINE
8
Layer 1
10
136.616950
20
65.136567
11
135.884899
21
65.868618
0
LINE
8
Layer 1
10
135.884899
20
65.868618
11
134.884899
21
66.136567
0
LINE
8
Layer 1
10
134.884899
20
66.136567
11
133.884899
21
65.868618
0
LINE
8
Layer 1
10
133.884899
20
65.868618
11
133.152848
21
65.136567
0
LINE
8
Layer 1
10
133.152848
20
65.136567
11
132.884899
21
64.136567
0
LINE
8
Layer 1
10
132.884899
20
64.136567
11
132.884899
21
64.136567
0
LINE
8
Layer 1
10
126.134900
20
6.528741
11
126.369356
21
5.653741
0
LINE
8
Layer 1
10
126.369356
20
5.653741
11
127.009900
21
5.013197
0
LINE
8
Layer 1
10
127.009900
20
5.013197
11
127.884900
21
4.778741
0
LINE
8
Layer 1
10
127.884900
20
4.778741
11
128.759900
21
5.013197
0
LINE
8
Layer 1
10
128.759900
20
5.013197
11
129.400444
21
5.653741
0
LINE
8
Layer 1
10
129.400444
20
5.653741
11
129.634900
21
6.528741
0
LINE
8
Layer 1
10
129.634900
20
6.528741
11
129.400444
21
7.403741
0
LINE
8
Layer 1
10
129.400444
20
7.403741
11
128.759900
21
8.044285
0
LINE
8
Layer 1
10
128.759900
20
8.044285
11
127.884900
21
8.278741
0
LINE
8
Layer 1
10
127.884900
20
8.278741
11
127.009900
21
8.044285
0
LINE
8
Layer 1
10
127.009900
20
8.044285
11
126.369356
21
7.403741
0
LINE
8
Layer 1
10
126.369356
20
7.403741
11
126.134900
21
6.528741
0
LINE
8
Layer 1
10
126.134900
20
6.528741
11
126.134900
21
6.528741
0
LINE
8
Layer 1
10
115.884900
20
14.536700
11
116.057977
21
13.232112
0
LINE
8
Layer 1
10
116.057977
20
13.232112
11
116.554773
21
12.036700
0
LINE
8
Layer 1
10
116.554773
20
12.036700
11
117.341632
21
11.008757
0
LINE
8
Layer 1
10
117.341632
20
11.008757
11
118.384900
21
10.206573
0
LINE
8
Layer 1
10
118.384900
20
10.206573
11
119.601245
21
9.704168
0
LINE
8
Layer 1
10
119.601245
20
9.704168
11
120.884900
21
9.536700
0
LINE
8
Layer 1
10
120.884900
20
9.536700
11
122.168555
21
9.704168
0
LINE
8
Layer 1
10
122.168555
20
9.704168
11
123.384900
21
10.206573
0
LINE
8
Layer 1
10
123.384900
20
10.206573
11
124.428168
21
11.008757
0
LINE
8
Layer 1
10
124.428168
20
11.008757
11
125.215027
21
12.036700
0
LINE
8
Layer 1
10
125.215027
20
12.036700
11
125.711823
21
13.232112
0
LINE
8
Layer 1
10
125.711823
20
13.232112
11
125.884900
21
14.536700
0
LINE
8
Layer 1
10
125.884900
20
14.536700
11
125.711823
21
15.841288
0
LINE
8
Layer 1
10
125.711823
20
15.841288
11
125.215027
21
17.036700
0
LINE
8
Layer 1
10
125.215027
20
17.036700
11
124.428168
21
18.064643
0
LINE
8
Layer 1
10
124.428168
20
18.064643
11
123.384900
21
18.866827
0
LINE
8
Layer 1
10
123.384900
20
18.866827
11
122.168555
21
19.369232
0
LINE
8
Layer 1
10
122.168555
20
19.369232
11
120.884900
21
19.536700
0
LINE
8
Layer 1
10
120.884900
20
19.536700
11
119.601245
21
19.369232
0
LINE
8
Layer 1
10
119.601245
20
19.369232
11
118.384900
21
18.866827
0
LINE
8
Layer 1
10
118.384900
20
18.866827
11
117.341632
21
18.064643
0
LINE
8
Layer 1
10
117.341632
20
18.064643
11
116.554773
21
17.036700
0
LINE
8
Layer 1
10
116.554773
20
17.036700
11
116.057977
21
15.841288
0
LINE
8
Layer 1
10
116.057977
20
15.841288
11
115.884900
21
14.536700
0
LINE
8
Layer 1
10
115.884900
20
14.536700
11
115.884900
21
14.536700
0
LINE
8
Layer 1
10
126.134900
20
22.528741
11
126.369356
21
21.653741
0
LINE
8
Layer 1
10
126.369356
20
21.653741
11
127.009900
21
21.013197
0
LINE
8
Layer 1
10
127.009900
20
21.013197
11
127.884900
21
20.778741
0
LINE
8
Layer 1
10
127.884900
20
20.778741
11
128.759900
21
21.013197
0
LINE
8
Layer 1
10
128.759900
20
21.013197
11
129.400444
21
21.653741
0
LINE
8
Layer 1
10
129.400444
20
21.653741
11
129.634900
21
22.528741
0
LINE
8
Layer 1
10
129.634900
20
22.528741
11
129.400444
21
23.403741
0
LINE
8
Layer 1
10
129.400444
20
23.403741
11
128.759900
21
24.044285
0
LINE
8
Layer 1
10
128.759900
20
24.044285
11
127.884900
21
24.278741
0
LINE
8
Layer 1
10
127.884900
20
24.278741
11
127.009900
21
24.044285
0
LINE
8
Layer 1
10
127.009900
20
24.044285
11
126.369356
21
23.403741
0
LINE
8
Layer 1
10
126.369356
20
23.403741
11
126.134900
21
22.528741
0
LINE
8
Layer 1
10
126.134900
20
22.528741
11
126.134900
21
22.528741
0
LINE
8
Layer 1
10
112.134900
20
6.528741
11
112.369356
21
5.653741
0
LINE
8
Layer 1
10
112.369356
20
5.653741
11
113.009900
21
5.013197
0
LINE
8
Layer 1
10
113.009900
20
5.013197
11
113.884900
21
4.778741
0
LINE
8
Layer 1
10
113.884900
20
4.778741
11
114.759900
21
5.013197
0
LINE
8
Layer 1
10
114.759900
20
5.013197
11
115.400444
21
5.653741
0
LINE
8
Layer 1
10
115.400444
20
5.653741
11
115.634900
21
6.528741
0
LINE
8
Layer 1
10
115.634900
20
6.528741
11
115.400444
21
7.403741
0
LINE
8
Layer 1
10
115.400444
20
7.403741
11
114.759900
21
8.044285
0
LINE
8
Layer 1
10
114.759900
20
8.044285
11
113.884900
21
8.278741
0
LINE
8
Layer 1
10
113.884900
20
8.278741
11
113.009900
21
8.044285
0
LINE
8
Layer 1
10
113.009900
20
8.044285
11
112.369356
21
7.403741
0
LINE
8
Layer 1
10
112.369356
20
7.403741
11
112.134900
21
6.528741
0
LINE
8
Layer 1
10
112.134900
20
6.528741
11
112.134900
21
6.528741
0
LINE
8
Layer 1
10
112.134900
20
22.528741
11
112.369356
21
21.653741
0
LINE
8
Layer 1
10
112.369356
20
21.653741
11
113.009900
21
21.013197
0
LINE
8
Layer 1
10
113.009900
20
21.013197
11
113.884900
21
20.778741
0
LINE
8
Layer 1
10
113.884900
20
20.778741
11
114.759900
21
21.013197
0
LINE
8
Layer 1
10
114.759900
20
21.013197
11
115.400444
21
21.653741
0
LINE
8
Layer 1
10
115.400444
20
21.653741
11
115.634900
21
22.528741
0
LINE
8
Layer 1
10
115.634900
20
22.528741
11
115.400444
21
23.403741
0
LINE
8
Layer 1
10
115.400444
20
23.403741
11
114.759900
21
24.044285
0
LINE
8
Layer 1
10
114.759900
20
24.044285
11
113.884900
21
24.278741
0
LINE
8
Layer 1
10
113.884900
20
24.278741
11
113.009900
21
24.044285
0
LINE
8
Layer 1
10
113.009900
20
24.044285
11
112.369356
21
23.403741
0
LINE
8
Layer 1
10
112.369356
20
23.403741
11
112.134900
21
22.528741
0
LINE
8
Layer 1
10
112.134900
20
22.528741
11
112.134900
21
22.528741
0
LINE
8
Layer 1
10
24.134900
20
22.344659
11
24.369356
21
21.469659
0
LINE
8
Layer 1
10
24.369356
20
21.469659
11
25.009900
21
20.829115
0
LINE
8
Layer 1
10
25.009900
20
20.829115
11
25.884900
21
20.594659
0
LINE
8
Layer 1
10
25.884900
20
20.594659
11
26.759900
21
20.829115
0
LINE
8
Layer 1
10
26.759900
20
20.829115
11
27.400444
21
21.469659
0
LINE
8
Layer 1
10
27.400444
20
21.469659
11
27.634900
21
22.344659
0
LINE
8
Layer 1
10
27.634900
20
22.344659
11
27.400444
21
23.219659
0
LINE
8
Layer 1
10
27.400444
20
23.219659
11
26.759900
21
23.860203
0
LINE
8
Layer 1
10
26.759900
20
23.860203
11
25.884900
21
24.094659
0
LINE
8
Layer 1
10
25.884900
20
24.094659
11
25.009900
21
23.860203
0
LINE
8
Layer 1
10
25.009900
20
23.860203
11
24.369356
21
23.219659
0
LINE
8
Layer 1
10
24.369356
20
23.219659
11
24.134900
21
22.344659
0
LINE
8
Layer 1
10
24.134900
20
22.344659
11
24.134900
21
22.344659
0
LINE
8
Layer 1
10
24.134900
20
6.344659
11
24.369356
21
5.469659
0
LINE
8
Layer 1
10
24.369356
20
5.469659
11
25.009900
21
4.829115
0
LINE
8
Layer 1
10
25.009900
20
4.829115
11
25.884900
21
4.594659
0
LINE
8
Layer 1
10
25.884900
20
4.594659
11
26.759900
21
4.829115
0
LINE
8
Layer 1
10
26.759900
20
4.829115
11
27.400444
21
5.469659
0
LINE
8
Layer 1
10
27.400444
20
5.469659
11
27.634900
21
6.344659
0
LINE
8
Layer 1
10
27.634900
20
6.344659
11
27.400444
21
7.219659
0
LINE
8
Layer 1
10
27.400444
20
7.219659
11
26.759900
21
7.860203
0
LINE
8
Layer 1
10
26.759900
20
7.860203
11
25.884900
21
8.094659
0
LINE
8
Layer 1
10
25.884900
20
8.094659
11
25.009900
21
7.860203
0
LINE
8
Layer 1
10
25.009900
20
7.860203
11
24.369356
21
7.219659
0
LINE
8
Layer 1
10
24.369356
20
7.219659
11
24.134900
21
6.344659
0
LINE
8
Layer 1
10
24.134900
20
6.344659
11
24.134900
21
6.344659
0
LINE
8
Layer 1
10
10.134900
20
22.344659
11
10.369356
21
21.469659
0
LINE
8
Layer 1
10
10.369356
20
21.469659
11
11.009900
21
20.829115
0
LINE
8
Layer 1
10
11.009900
20
20.829115
11
11.884900
21
20.594659
0
LINE
8
Layer 1
10
11.884900
20
20.594659
11
12.759900
21
20.829115
0
LINE
8
Layer 1
10
12.759900
20
20.829115
11
13.400444
21
21.469659
0
LINE
8
Layer 1
10
13.400444
20
21.469659
11
13.634900
21
22.344659
0
LINE
8
Layer 1
10
13.634900
20
22.344659
11
13.400444
21
23.219659
0
LINE
8
Layer 1
10
13.400444
20
23.219659
11
12.759900
21
23.860203
0
LINE
8
Layer 1
10
12.759900
20
23.860203
11
11.884900
21
24.094659
0
LINE
8
Layer 1
10
11.884900
20
24.094659
11
11.009900
21
23.860203
0
LINE
8
Layer 1
10
11.009900
20
23.860203
11
10.369356
21
23.219659
0
LINE
8
Layer 1
10
10.369356
20
23.219659
11
10.134900
21
22.344659
0
LINE
8
Layer 1
10
10.134900
20
22.344659
11
10.134900
21
22.344659
0
LINE
8
Layer 1
10
10.134900
20
6.344659
11
10.369356
21
5.469659
0
LINE
8
Layer 1
10
10.369356
20
5.469659
11
11.009900
21
4.829115
0
LINE
8
Layer 1
10
11.009900
20
4.829115
11
11.884900
21
4.594659
0
LINE
8
Layer 1
10
11.884900
20
4.594659
11
12.759900
21
4.829115
0
LINE
8
Layer 1
10
12.759900
20
4.829115
11
13.400444
21
5.469659
0
LINE
8
Layer 1
10
13.400444
20
5.469659
11
13.634900
21
6.344659
0
LINE
8
Layer 1
10
13.634900
20
6.344659
11
13.400444
21
7.219659
0
LINE
8
Layer 1
10
13.400444
20
7.219659
11
12.759900
21
7.860203
0
LINE
8
Layer 1
10
12.759900
20
7.860203
11
11.884900
21
8.094659
0
LINE
8
Layer 1
10
11.884900
20
8.094659
11
11.009900
21
7.860203
0
LINE
8
Layer 1
10
11.009900
20
7.860203
11
10.369356
21
7.219659
0
LINE
8
Layer 1
10
10.369356
20
7.219659
11
10.134900
21
6.344659
0
LINE
8
Layer 1
10
10.134900
20
6.344659
11
10.134900
21
6.344659
0
LINE
8
Layer 1
10
13.884900
20
14.336700
11
14.057977
21
13.032112
0
LINE
8
Layer 1
10
14.057977
20
13.032112
11
14.554773
21
11.836700
0
LINE
8
Layer 1
10
14.554773
20
11.836700
11
15.341632
21
10.808757
0
LINE
8
Layer 1
10
15.341632
20
10.808757
11
16.384900
21
10.006573
0
LINE
8
Layer 1
10
16.384900
20
10.006573
11
17.601245
21
9.504168
0
LINE
8
Layer 1
10
17.601245
20
9.504168
11
18.884900
21
9.336700
0
LINE
8
Layer 1
10
18.884900
20
9.336700
11
20.168555
21
9.504168
0
LINE
8
Layer 1
10
20.168555
20
9.504168
11
21.384900
21
10.006573
0
LINE
8
Layer 1
10
21.384900
20
10.006573
11
22.428168
21
10.808757
0
LINE
8
Layer 1
10
22.428168
20
10.808757
11
23.215027
21
11.836700
0
LINE
8
Layer 1
10
23.215027
20
11.836700
11
23.711823
21
13.032112
0
LINE
8
Layer 1
10
23.711823
20
13.032112
11
23.884900
21
14.336700
0
LINE
8
Layer 1
10
23.884900
20
14.336700
11
23.711823
21
15.641288
0
LINE
8
Layer 1
10
23.711823
20
15.641288
11
23.215027
21
16.836700
0
LINE
8
Layer 1
10
23.215027
20
16.836700
11
22.428168
21
17.864643
0
LINE
8
Layer 1
10
22.428168
20
17.864643
11
21.384900
21
18.666827
0
LINE
8
Layer 1
10
21.384900
20
18.666827
11
20.168555
21
19.169232
0
LINE
8
Layer 1
10
20.168555
20
19.169232
11
18.884900
21
19.336700
0
LINE
8
Layer 1
10
18.884900
20
19.336700
11
17.601245
21
19.169232
0
LINE
8
Layer 1
10
17.601245
20
19.169232
11
16.384900
21
18.666827
0
LINE
8
Layer 1
10
16.384900
20
18.666827
11
15.341632
21
17.864643
0
LINE
8
Layer 1
10
15.341632
20
17.864643
11
14.554773
21
16.836700
0
LINE
8
Layer 1
10
14.554773
20
16.836700
11
14.057977
21
15.641288
0
LINE
8
Layer 1
10
14.057977
20
15.641288
11
13.884900
21
14.336700
0
LINE
8
Layer 1
10
13.884900
20
14.336700
11
13.884900
21
14.336700
0
LINE
8
Layer 1
10
62.671393
20
50.999998
11
62.905848
21
50.124998
0
LINE
8
Layer 1
10
62.905848
20
50.124998
11
63.546393
21
49.484453
0
LINE
8
Layer 1
10
63.546393
20
49.484453
11
64.421393
21
49.249998
0
LINE
8
Layer 1
10
64.421393
20
49.249998
11
65.296393
21
49.484453
0
LINE
8
Layer 1
10
65.296393
20
49.484453
11
65.936938
21
50.124998
0
LINE
8
Layer 1
10
65.936938
20
50.124998
11
66.171393
21
50.999998
0
LINE
8
Layer 1
10
66.171393
20
50.999998
11
65.936938
21
51.874998
0
LINE
8
Layer 1
10
65.936938
20
51.874998
11
65.296393
21
52.515543
0
LINE
8
Layer 1
10
65.296393
20
52.515543
11
64.421393
21
52.749998
0
LINE
8
Layer 1
10
64.421393
20
52.749998
11
63.546393
21
52.515543
0
LINE
8
Layer 1
10
63.546393
20
52.515543
11
62.905848
21
51.874998
0
LINE
8
Layer 1
10
62.905848
20
51.874998
11
62.671393
21
50.999998
0
LINE
8
Layer 1
10
62.671393
20
50.999998
11
62.671393
21
50.999998
0
LINE
8
Layer 1
10
74.671393
20
50.999998
11
74.905849
21
50.124998
0
LINE
8
Layer 1
10
74.905849
20
50.124998
11
75.546393
21
49.484454
0
LINE
8
Layer 1
10
75.546393
20
49.484454
11
76.421393
21
49.249998
0
LINE
8
Layer 1
10
76.421393
20
49.249998
11
77.296393
21
49.484454
0
LINE
8
Layer 1
10
77.296393
20
49.484454
11
77.936937
21
50.124998
0
LINE
8
Layer 1
10
77.936937
20
50.124998
11
78.171393
21
50.999998
0
LINE
8
Layer 1
10
78.171393
20
50.999998
11
77.936937
21
51.874998
0
LINE
8
Layer 1
10
77.936937
20
51.874998
11
77.296393
21
52.515542
0
LINE
8
Layer 1
10
77.296393
20
52.515542
11
76.421393
21
52.749998
0
LINE
8
Layer 1
10
76.421393
20
52.749998
11
75.546393
21
52.515542
0
LINE
8
Layer 1
10
75.546393
20
52.515542
11
74.905849
21
51.874998
0
LINE
8
Layer 1
10
74.905849
20
51.874998
11
74.671393
21
50.999998
0
LINE
8
Layer 1
10
74.671393
20
50.999998
11
74.671393
21
50.999998
0
LINE
8
Layer 1
10
57.884900
20
4.636699
11
58.085862
21
3.886699
0
LINE
8
Layer 1
10
58.085862
20
3.886699
11
58.634900
21
3.337661
0
LINE
8
Layer 1
10
58.634900
20
3.337661
11
59.384900
21
3.136699
0
LINE
8
Layer 1
10
59.384900
20
3.136699
11
60.134900
21
3.337661
0
LINE
8
Layer 1
10
60.134900
20
3.337661
11
60.683938
21
3.886699
0
LINE
8
Layer 1
10
60.683938
20
3.886699
11
60.884900
21
4.636699
0
LINE
8
Layer 1
10
60.884900
20
4.636699
11
60.683938
21
5.386699
0
LINE
8
Layer 1
10
60.683938
20
5.386699
11
60.134900
21
5.935737
0
LINE
8
Layer 1
10
60.134900
20
5.935737
11
59.384900
21
6.136699
0
LINE
8
Layer 1
10
59.384900
20
6.136699
11
58.634900
21
5.935737
0
LINE
8
Layer 1
10
58.634900
20
5.935737
11
58.085862
21
5.386699
0
LINE
8
Layer 1
10
58.085862
20
5.386699
11
57.884900
21
4.636699
0
LINE
8
Layer 1
10
57.884900
20
4.636699
11
57.884900
21
4.636699
0
LINE
8
Layer 1
10
77.884900
20
4.636699
11
78.085862
21
3.886699
0
LINE
8
Layer 1
10
78.085862
20
3.886699
11
78.634900
21
3.337661
0
LINE
8
Layer 1
10
78.634900
20
3.337661
11
79.384900
21
3.136699
0
LINE
8
Layer 1
10
79.384900
20
3.136699
11
80.134900
21
3.337661
0
LINE
8
Layer 1
10
80.134900
20
3.337661
11
80.683938
21
3.886699
0
LINE
8
Layer 1
10
80.683938
20
3.886699
11
80.884900
21
4.636699
0
LINE
8
Layer 1
10
80.884900
20
4.636699
11
80.683938
21
5.386699
0
LINE
8
Layer 1
10
80.683938
20
5.386699
11
80.134900
21
5.935737
0
LINE
8
Layer 1
10
80.134900
20
5.935737
11
79.384900
21
6.136699
0
LINE
8
Layer 1
10
79.384900
20
6.136699
11
78.634900
21
5.935737
0
LINE
8
Layer 1
10
78.634900
20
5.935737
11
78.085862
21
5.386699
0
LINE
8
Layer 1
10
78.085862
20
5.386699
11
77.884900
21
4.636699
0
LINE
8
Layer 1
10
77.884900
20
4.636699
11
77.884900
21
4.636699
0
LINE
8
Layer 1
10
53.421393
20
30.999998
11
53.421393
21
19.999998
0
LINE
8
Layer 1
10
53.421393
20
19.999998
11
87.421393
21
19.999998
0
LINE
8
Layer 1
10
87.421393
20
19.999998
11
87.421393
21
30.999998
0
LINE
8
Layer 1
10
87.421393
20
30.999998
11
53.421393
21
30.999998
0
LINE
8
Layer 1
10
53.421393
20
30.999998
11
53.421393
21
30.999998
0
LINE
8
Layer 1
10
41.407833
20
10.305623
11
41.554160
21
9.759523
0
LINE
8
Layer 1
10
41.554160
20
9.759523
11
41.953933
21
9.359750
0
LINE
8
Layer 1
10
41.953933
20
9.359750
11
42.500033
21
9.213423
0
LINE
8
Layer 1
10
42.500033
20
9.213423
11
43.046133
21
9.359750
0
LINE
8
Layer 1
10
43.046133
20
9.359750
11
43.445906
21
9.759523
0
LINE
8
Layer 1
10
43.445906
20
9.759523
11
43.592233
21
10.305623
0
LINE
8
Layer 1
10
43.592233
20
10.305623
11
43.445906
21
10.851723
0
LINE
8
Layer 1
10
43.445906
20
10.851723
11
43.046133
21
11.251496
0
LINE
8
Layer 1
10
43.046133
20
11.251496
11
42.500033
21
11.397823
0
LINE
8
Layer 1
10
42.500033
20
11.397823
11
41.953933
21
11.251496
0
LINE
8
Layer 1
10
41.953933
20
11.251496
11
41.554160
21
10.851723
0
LINE
8
Layer 1
10
41.554160
20
10.851723
11
41.407833
21
10.305623
0
LINE
8
Layer 1
10
41.407833
20
10.305623
11
41.407833
21
10.305623
0
LINE
8
Layer 1
10
97.407833
20
10.305623
11
97.554160
21
9.759523
0
LINE
8
Layer 1
10
97.554160
20
9.759523
11
97.953933
21
9.359750
0
LINE
8
Layer 1
10
97.953933
20
9.359750
11
98.500033
21
9.213423
0
LINE
8
Layer 1
10
98.500033
20
9.213423
11
99.046133
21
9.359750
0
LINE
8
Layer 1
10
99.046133
20
9.359750
11
99.445906
21
9.759523
0
LINE
8
Layer 1
10
99.445906
20
9.759523
11
99.592233
21
10.305623
0
LINE
8
Layer 1
10
99.592233
20
10.305623
11
99.445906
21
10.851723
0
LINE
8
Layer 1
10
99.445906
20
10.851723
11
99.046133
21
11.251496
0
LINE
8
Layer 1
10
99.046133
20
11.251496
11
98.500033
21
11.397823
0
LINE
8
Layer 1
10
98.500033
20
11.397823
11
97.953933
21
11.251496
0
LINE
8
Layer 1
10
97.953933
20
11.251496
11
97.554160
21
10.851723
0
LINE
8
Layer 1
10
97.554160
20
10.851723
11
97.407833
21
10.305623
0
LINE
8
Layer 1
10
97.407833
20
10.305623
11
97.407833
21
10.305623
0
LINE
8
Layer 1
10
118.500033
20
31.999998
11
118.700995
21
31.249998
0
LINE
8
Layer 1
10
118.700995
20
31.249998
11
119.250033
21
30.700960
0
LINE
8
Layer 1
10
119.250033
20
30.700960
11
120.000033
21
30.499998
0
LINE
8
Layer 1
10
120.000033
20
30.499998
11
120.750033
21
30.700960
0
LINE
8
Layer 1
10
120.750033
20
30.700960
11
121.299071
21
31.249998
0
LINE
8
Layer 1
10
121.299071
20
31.249998
11
121.500033
21
31.999998
0
LINE
8
Layer 1
10
121.500033
20
31.999998
11
121.299071
21
32.749998
0
LINE
8
Layer 1
10
121.299071
20
32.749998
11
120.750033
21
33.299036
0
LINE
8
Layer 1
10
120.750033
20
33.299036
11
120.000033
21
33.499998
0
LINE
8
Layer 1
10
120.000033
20
33.499998
11
119.250033
21
33.299036
0
LINE
8
Layer 1
10
119.250033
20
33.299036
11
118.700995
21
32.749998
0
LINE
8
Layer 1
10
118.700995
20
32.749998
11
118.500033
21
31.999998
0
LINE
8
Layer 1
10
118.500033
20
31.999998
11
118.500033
21
31.999998
0
LINE
8
Layer 1
10
118.500033
20
101.999999
11
118.700995
21
101.249999
0
LINE
8
Layer 1
10
118.700995
20
101.249999
11
119.250033
21
100.700961
0
LINE
8
Layer 1
10
119.250033
20
100.700961
11
120.000033
21
100.499999
0
LINE
8
Layer 1
10
120.000033
20
100.499999
11
120.750033
21
100.700961
0
LINE
8
Layer 1
10
120.750033
20
100.700961
11
121.299071
21
101.249999
0
LINE
8
Layer 1
10
121.299071
20
101.249999
11
121.500033
21
101.999999
0
LINE
8
Layer 1
10
121.500033
20
101.999999
11
121.299071
21
102.749999
0
LINE
8
Layer 1
10
121.299071
20
102.749999
11
120.750033
21
103.299037
0
LINE
8
Layer 1
10
120.750033
20
103.299037
11
120.000033
21
103.499999
0
LINE
8
Layer 1
10
120.000033
20
103.499999
11
119.250033
21
103.299037
0
LINE
8
Layer 1
10
119.250033
20
103.299037
11
118.700995
21
102.749999
0
LINE
8
Layer 1
10
118.700995
20
102.749999
11
118.500033
21
101.999999
0
LINE
8
Layer 1
10
118.500033
20
101.999999
11
118.500033
21
101.999999
0
LINE
8
Layer 1
10
18.500032
20
101.999999
11
18.700994
21
101.249999
0
LINE
8
Layer 1
10
18.700994
20
101.249999
11
19.250032
21
100.700961
0
LINE
8
Layer 1
10
19.250032
20
100.700961
11
20.000032
21
100.499999
0
LINE
8
Layer 1
10
20.000032
20
100.499999
11
20.750032
21
100.700961
0
LINE
8
Layer 1
10
20.750032
20
100.700961
11
21.299070
21
101.249999
0
LINE
8
Layer 1
10
21.299070
20
101.249999
11
21.500032
21
101.999999
0
LINE
8
Layer 1
10
21.500032
20
101.999999
11
21.299070
21
102.749999
0
LINE
8
Layer 1
10
21.299070
20
102.749999
11
20.750032
21
103.299037
0
LINE
8
Layer 1
10
20.750032
20
103.299037
11
20.000032
21
103.499999
0
LINE
8
Layer 1
10
20.000032
20
103.499999
11
19.250032
21
103.299037
0
LINE
8
Layer 1
10
19.250032
20
103.299037
11
18.700994
21
102.749999
0
LINE
8
Layer 1
10
18.700994
20
102.749999
11
18.500032
21
101.999999
0
LINE
8
Layer 1
10
18.500032
20
101.999999
11
18.500032
21
101.999999
0
LINE
8
Layer 1
10
18.500032
20
31.999998
11
18.700994
21
31.249998
0
LINE
8
Layer 1
10
18.700994
20
31.249998
11
19.250032
21
30.700960
0
LINE
8
Layer 1
10
19.250032
20
30.700960
11
20.000032
21
30.499998
0
LINE
8
Layer 1
10
20.000032
20
30.499998
11
20.750032
21
30.700960
0
LINE
8
Layer 1
10
20.750032
20
30.700960
11
21.299070
21
31.249998
0
LINE
8
Layer 1
10
21.299070
20
31.249998
11
21.500032
21
31.999998
0
LINE
8
Layer 1
10
21.500032
20
31.999998
11
21.299070
21
32.749998
0
LINE
8
Layer 1
10
21.299070
20
32.749998
11
20.750032
21
33.299036
0
LINE
8
Layer 1
10
20.750032
20
33.299036
11
20.000032
21
33.499998
0
LINE
8
Layer 1
10
20.000032
20
33.499998
11
19.250032
21
33.299036
0
LINE
8
Layer 1
10
19.250032
20
33.299036
11
18.700994
21
32.749998
0
LINE
8
Layer 1
10
18.700994
20
32.749998
11
18.500032
21
31.999998
0
LINE
8
Layer 1
10
18.500032
20
31.999998
11
18.500032
21
31.999998
0
LINE
8
Layer 1
10
10.250033
20
92.207957
11
10.484489
21
91.332957
0
LINE
8
Layer 1
10
10.484489
20
91.332957
11
11.125033
21
90.692413
0
LINE
8
Layer 1
10
11.125033
20
90.692413
11
12.000033
21
90.457957
0
LINE
8
Layer 1
10
12.000033
20
90.457957
11
12.875033
21
90.692413
0
LINE
8
Layer 1
10
12.875033
20
90.692413
11
13.515577
21
91.332957
0
LINE
8
Layer 1
10
13.515577
20
91.332957
11
13.750033
21
92.207957
0
LINE
8
Layer 1
10
13.750033
20
92.207957
11
13.515577
21
93.082957
0
LINE
8
Layer 1
10
13.515577
20
93.082957
11
12.875033
21
93.723501
0
LINE
8
Layer 1
10
12.875033
20
93.723501
11
12.000033
21
93.957957
0
LINE
8
Layer 1
10
12.000033
20
93.957957
11
11.125033
21
93.723501
0
LINE
8
Layer 1
10
11.125033
20
93.723501
11
10.484489
21
93.082957
0
LINE
8
Layer 1
10
10.484489
20
93.082957
11
10.250033
21
92.207957
0
LINE
8
Layer 1
10
10.250033
20
92.207957
11
10.250033
21
92.207957
0
LINE
8
Layer 1
10
126.250033
20
92.392040
11
126.484489
21
91.517040
0
LINE
8
Layer 1
10
126.484489
20
91.517040
11
127.125033
21
90.876496
0
LINE
8
Layer 1
10
127.125033
20
90.876496
11
128.000033
21
90.642040
0
LINE
8
Layer 1
10
128.000033
20
90.642040
11
128.875033
21
90.876496
0
LINE
8
Layer 1
10
128.875033
20
90.876496
11
129.515577
21
91.517040
0
LINE
8
Layer 1
10
129.515577
20
91.517040
11
129.750033
21
92.392040
0
LINE
8
Layer 1
10
129.750033
20
92.392040
11
129.515577
21
93.267040
0
LINE
8
Layer 1
10
129.515577
20
93.267040
11
128.875033
21
93.907584
0
LINE
8
Layer 1
10
128.875033
20
93.907584
11
128.000033
21
94.142040
0
LINE
8
Layer 1
10
128.000033
20
94.142040
11
127.125033
21
93.907584
0
LINE
8
Layer 1
10
127.125033
20
93.907584
11
126.484489
21
93.267040
0
LINE
8
Layer 1
10
126.484489
20
93.267040
11
126.250033
21
92.392040
0
LINE
8
Layer 1
10
126.250033
20
92.392040
11
126.250033
21
92.392040
0
LINE
8
Layer 1
10
10.250033
20
76.207957
11
10.484489
21
75.332957
0
LINE
8
Layer 1
10
10.484489
20
75.332957
11
11.125033
21
74.692413
0
LINE
8
Layer 1
10
11.125033
20
74.692413
11
12.000033
21
74.457957
0
LINE
8
Layer 1
10
12.000033
20
74.457957
11
12.875033
21
74.692413
0
LINE
8
Layer 1
10
12.875033
20
74.692413
11
13.515577
21
75.332957
0
LINE
8
Layer 1
10
13.515577
20
75.332957
11
13.750033
21
76.207957
0
LINE
8
Layer 1
10
13.750033
20
76.207957
11
13.515577
21
77.082957
0
LINE
8
Layer 1
10
13.515577
20
77.082957
11
12.875033
21
77.723501
0
LINE
8
Layer 1
10
12.875033
20
77.723501
11
12.000033
21
77.957957
0
LINE
8
Layer 1
10
12.000033
20
77.957957
11
11.125033
21
77.723501
0
LINE
8
Layer 1
10
11.125033
20
77.723501
11
10.484489
21
77.082957
0
LINE
8
Layer 1
10
10.484489
20
77.082957
11
10.250033
21
76.207957
0
LINE
8
Layer 1
10
10.250033
20
76.207957
11
10.250033
21
76.207957
0
LINE
8
Layer 1
10
24.250033
20
76.207957
11
24.484489
21
75.332957
0
LINE
8
Layer 1
10
24.484489
20
75.332957
11
25.125033
21
74.692413
0
LINE
8
Layer 1
10
25.125033
20
74.692413
11
26.000033
21
74.457957
0
LINE
8
Layer 1
10
26.000033
20
74.457957
11
26.875033
21
74.692413
0
LINE
8
Layer 1
10
26.875033
20
74.692413
11
27.515577
21
75.332957
0
LINE
8
Layer 1
10
27.515577
20
75.332957
11
27.750033
21
76.207957
0
LINE
8
Layer 1
10
27.750033
20
76.207957
11
27.515577
21
77.082957
0
LINE
8
Layer 1
10
27.515577
20
77.082957
11
26.875033
21
77.723501
0
LINE
8
Layer 1
10
26.875033
20
77.723501
11
26.000033
21
77.957957
0
LINE
8
Layer 1
10
26.000033
20
77.957957
11
25.125033
21
77.723501
0
LINE
8
Layer 1
10
25.125033
20
77.723501
11
24.484489
21
77.082957
0
LINE
8
Layer 1
10
24.484489
20
77.082957
11
24.250033
21
76.207957
0
LINE
8
Layer 1
10
24.250033
20
76.207957
11
24.250033
21
76.207957
0
LINE
8
Layer 1
10
24.250033
20
92.207957
11
24.484489
21
91.332957
0
LINE
8
Layer 1
10
24.484489
20
91.332957
11
25.125033
21
90.692413
0
LINE
8
Layer 1
10
25.125033
20
90.692413
11
26.000033
21
90.457957
0
LINE
8
Layer 1
10
26.000033
20
90.457957
11
26.875033
21
90.692413
0
LINE
8
Layer 1
10
26.875033
20
90.692413
11
27.515577
21
91.332957
0
LINE
8
Layer 1
10
27.515577
20
91.332957
11
27.750033
21
92.207957
0
LINE
8
Layer 1
10
27.750033
20
92.207957
11
27.515577
21
93.082957
0
LINE
8
Layer 1
10
27.515577
20
93.082957
11
26.875033
21
93.723501
0
LINE
8
Layer 1
10
26.875033
20
93.723501
11
26.000033
21
93.957957
0
LINE
8
Layer 1
10
26.000033
20
93.957957
11
25.125033
21
93.723501
0
LINE
8
Layer 1
10
25.125033
20
93.723501
11
24.484489
21
93.082957
0
LINE
8
Layer 1
10
24.484489
20
93.082957
11
24.250033
21
92.207957
0
LINE
8
Layer 1
10
24.250033
20
92.207957
11
24.250033
21
92.207957
0
LINE
8
Layer 1
10
14.000033
20
84.199998
11
14.173110
21
82.895410
0
LINE
8
Layer 1
10
14.173110
20
82.895410
11
14.669906
21
81.699998
0
LINE
8
Layer 1
10
14.669906
20
81.699998
11
15.456765
21
80.672055
0
LINE
8
Layer 1
10
15.456765
20
80.672055
11
16.500033
21
79.869871
0
LINE
8
Layer 1
10
16.500033
20
79.869871
11
17.716378
21
79.367466
0
LINE
8
Layer 1
10
17.716378
20
79.367466
11
19.000033
21
79.199998
0
LINE
8
Layer 1
10
19.000033
20
79.199998
11
20.283688
21
79.367466
0
LINE
8
Layer 1
10
20.283688
20
79.367466
11
21.500033
21
79.869871
0
LINE
8
Layer 1
10
21.500033
20
79.869871
11
22.543301
21
80.672055
0
LINE
8
Layer 1
10
22.543301
20
80.672055
11
23.330160
21
81.699998
0
LINE
8
Layer 1
10
23.330160
20
81.699998
11
23.826956
21
82.895410
0
LINE
8
Layer 1
10
23.826956
20
82.895410
11
24.000033
21
84.199998
0
LINE
8
Layer 1
10
24.000033
20
84.199998
11
23.826956
21
85.504586
0
LINE
8
Layer 1
10
23.826956
20
85.504586
11
23.330160
21
86.699998
0
LINE
8
Layer 1
10
23.330160
20
86.699998
11
22.543301
21
87.727941
0
LINE
8
Layer 1
10
22.543301
20
87.727941
11
21.500033
21
88.530125
0
LINE
8
Layer 1
10
21.500033
20
88.530125
11
20.283688
21
89.032530
0
LINE
8
Layer 1
10
20.283688
20
89.032530
11
19.000033
21
89.199998
0
LINE
8
Layer 1
10
19.000033
20
89.199998
11
17.716378
21
89.032530
0
LINE
8
Layer 1
10
17.716378
20
89.032530
11
16.500033
21
88.530125
0
LINE
8
Layer 1
10
16.500033
20
88.530125
11
15.456765
21
87.727941
0
LINE
8
Layer 1
10
15.456765
20
87.727941
11
14.669906
21
86.699998
0
LINE
8
Layer 1
10
14.669906
20
86.699998
11
14.173110
21
85.504586
0
LINE
8
Layer 1
10
14.173110
20
85.504586
11
14.000033
21
84.199998
0
LINE
8
Layer 1
10
14.000033
20
84.199998
11
14.000033
21
84.199998
0
LINE
8
Layer 1
10
116.000033
20
84.399998
11
116.173110
21
83.095410
0
LINE
8
Layer 1
10
116.173110
20
83.095410
11
116.669906
21
81.899998
0
LINE
8
Layer 1
10
116.669906
20
81.899998
11
117.456765
21
80.872055
0
LINE
8
Layer 1
10
117.456765
20
80.872055
11
118.500033
21
80.069871
0
LINE
8
Layer 1
10
118.500033
20
80.069871
11
119.716378
21
79.567466
0
LINE
8
Layer 1
10
119.716378
20
79.567466
11
121.000033
21
79.399998
0
LINE
8
Layer 1
10
121.000033
20
79.399998
11
122.283688
21
79.567466
0
LINE
8
Layer 1
10
122.283688
20
79.567466
11
123.500033
21
80.069871
0
LINE
8
Layer 1
10
123.500033
20
80.069871
11
124.543301
21
80.872055
0
LINE
8
Layer 1
10
124.543301
20
80.872055
11
125.330160
21
81.899998
0
LINE
8
Layer 1
10
125.330160
20
81.899998
11
125.826956
21
83.095410
0
LINE
8
Layer 1
10
125.826956
20
83.095410
11
126.000033
21
84.399998
0
LINE
8
Layer 1
10
126.000033
20
84.399998
11
125.826956
21
85.704586
0
LINE
8
Layer 1
10
125.826956
20
85.704586
11
125.330160
21
86.899998
0
LINE
8
Layer 1
10
125.330160
20
86.899998
11
124.543301
21
87.927941
0
LINE
8
Layer 1
10
124.543301
20
87.927941
11
123.500033
21
88.730125
0
LINE
8
Layer 1
10
123.500033
20
88.730125
11
122.283688
21
89.232530
0
LINE
8
Layer 1
10
122.283688
20
89.232530
11
121.000033
21
89.399998
0
LINE
8
Layer 1
10
121.000033
20
89.399998
11
119.716378
21
89.232530
0
LINE
8
Layer 1
10
119.716378
20
89.232530
11
118.500033
21
88.730125
0
LINE
8
Layer 1
10
118.500033
20
88.730125
11
117.456765
21
87.927941
0
LINE
8
Layer 1
10
117.456765
20
87.927941
11
116.669906
21
86.899998
0
LINE
8
Layer 1
10
116.669906
20
86.899998
11
116.173110
21
85.704586
0
LINE
8
Layer 1
10
116.173110
20
85.704586
11
116.000033
21
84.399998
0
LINE
8
Layer 1
10
116.000033
20
84.399998
11
116.000033
21
84.399998
0
LINE
8
Layer 1
10
112.250033
20
92.392040
11
112.484489
21
91.517040
0
LINE
8
Layer 1
10
112.484489
20
91.517040
11
113.125033
21
90.876496
0
LINE
8
Layer 1
10
113.125033
20
90.876496
11
114.000033
21
90.642040
0
LINE
8
Layer 1
10
114.000033
20
90.642040
11
114.875033
21
90.876496
0
LINE
8
Layer 1
10
114.875033
20
90.876496
11
115.515577
21
91.517040
0
LINE
8
Layer 1
10
115.515577
20
91.517040
11
115.750033
21
92.392040
0
LINE
8
Layer 1
10
115.750033
20
92.392040
11
115.515577
21
93.267040
0
LINE
8
Layer 1
10
115.515577
20
93.267040
11
114.875033
21
93.907584
0
LINE
8
Layer 1
10
114.875033
20
93.907584
11
114.000033
21
94.142040
0
LINE
8
Layer 1
10
114.000033
20
94.142040
11
113.125033
21
93.907584
0
LINE
8
Layer 1
10
113.125033
20
93.907584
11
112.484489
21
93.267040
0
LINE
8
Layer 1
10
112.484489
20
93.267040
11
112.250033
21
92.392040
0
LINE
8
Layer 1
10
112.250033
20
92.392040
11
112.250033
21
92.392040
0
LINE
8
Layer 1
10
126.250033
20
76.392040
11
126.484489
21
75.517040
0
LINE
8
Layer 1
10
126.484489
20
75.517040
11
127.125033
21
74.876496
0
LINE
8
Layer 1
10
127.125033
20
74.876496
11
128.000033
21
74.642040
0
LINE
8
Layer 1
10
128.000033
20
74.642040
11
128.875033
21
74.876496
0
LINE
8
Layer 1
10
128.875033
20
74.876496
11
129.515577
21
75.517040
0
LINE
8
Layer 1
10
129.515577
20
75.517040
11
129.750033
21
76.392040
0
LINE
8
Layer 1
10
129.750033
20
76.392040
11
129.515577
21
77.267040
0
LINE
8
Layer 1
10
129.515577
20
77.267040
11
128.875033
21
77.907584
0
LINE
8
Layer 1
10
128.875033
20
77.907584
11
128.000033
21
78.142040
0
LINE
8
Layer 1
10
128.000033
20
78.142040
11
127.125033
21
77.907584
0
LINE
8
Layer 1
10
127.125033
20
77.907584
11
126.484489
21
77.267040
0
LINE
8
Layer 1
10
126.484489
20
77.267040
11
126.250033
21
76.392040
0
LINE
8
Layer 1
10
126.250033
20
76.392040
11
126.250033
21
76.392040
0
LINE
8
Layer 1
10
112.250033
20
76.392040
11
112.484489
21
75.517040
0
LINE
8
Layer 1
10
112.484489
20
75.517040
11
113.125033
21
74.876496
0
LINE
8
Layer 1
10
113.125033
20
74.876496
11
114.000033
21
74.642040
0
LINE
8
Layer 1
10
114.000033
20
74.642040
11
114.875033
21
74.876496
0
LINE
8
Layer 1
10
114.875033
20
74.876496
11
115.515577
21
75.517040
0
LINE
8
Layer 1
10
115.515577
20
75.517040
11
115.750033
21
76.392040
0
LINE
8
Layer 1
10
115.750033
20
76.392040
11
115.515577
21
77.267040
0
LINE
8
Layer 1
10
115.515577
20
77.267040
11
114.875033
21
77.907584
0
LINE
8
Layer 1
10
114.875033
20
77.907584
11
114.000033
21
78.142040
0
LINE
8
Layer 1
10
114.000033
20
78.142040
11
113.125033
21
77.907584
0
LINE
8
Layer 1
10
113.125033
20
77.907584
11
112.484489
21
77.267040
0
LINE
8
Layer 1
10
112.484489
20
77.267040
11
112.250033
21
76.392040
0
LINE
8
Layer 1
10
112.250033
20
76.392040
11
112.250033
21
76.392040
 0 
ENDSEC
 0 
EOF