999
"DXF R12 Output" (www.mydxf.blogspot.com)
 0 
SECTION
 2 
HEADER
 9 
$ACADVER
 1 
AC1009
 9 
$EXTMIN
 10 
 0 
 20 
 0 
 9 
$EXTMAX
 10 
 8.5 
 20 
 11 
 0 
ENDSEC
 0 
SECTION
 2 
ENTITIES
0
LINE
8
Layer 1
10
0.000000
20
113.083624
11
0.000000
21
3.000034
0
LINE
8
Layer 1
10
0.000000
20
3.000034
11
0.228362
21
1.851983
0
LINE
8
Layer 1
10
0.228362
20
1.851983
11
0.878681
21
0.878712
0
LINE
8
Layer 1
10
0.878681
20
0.878712
11
1.851952
21
0.228394
0
LINE
8
Layer 1
10
1.851952
20
0.228394
11
3.000004
21
0.000034
0
LINE
8
Layer 1
10
3.000004
20
0.000034
11
137.000004
21
0.000212
0
LINE
8
Layer 1
10
137.000004
20
0.000212
11
138.167738
21
0.235968
0
LINE
8
Layer 1
10
138.167738
20
0.235968
11
139.121322
21
0.878893
0
LINE
8
Layer 1
10
139.121322
20
0.878893
11
139.764246
21
1.832478
0
LINE
8
Layer 1
10
139.764246
20
1.832478
11
140.000000
21
3.000212
0
LINE
8
Layer 1
10
140.000000
20
3.000212
11
140.000000
21
113.082423
0
LINE
8
Layer 1
10
140.000000
20
113.082423
11
134.997618
21
117.490992
0
LINE
8
Layer 1
10
134.997618
20
117.490992
11
129.718266
21
121.563797
0
LINE
8
Layer 1
10
129.718266
20
121.563797
11
129.739668
21
121.041388
0
LINE
8
Layer 1
10
129.739668
20
121.041388
11
129.609949
21
120.546064
0
LINE
8
Layer 1
10
129.609949
20
120.546064
11
129.342560
21
120.109399
0
LINE
8
Layer 1
10
129.342560
20
120.109399
11
128.950956
21
119.762966
0
LINE
8
Layer 1
10
128.950956
20
119.762966
11
128.474557
21
119.547527
0
LINE
8
Layer 1
10
128.474557
20
119.547527
11
127.966693
21
119.482358
0
LINE
8
Layer 1
10
127.966693
20
119.482358
11
127.461677
21
119.566808
0
LINE
8
Layer 1
10
127.461677
20
119.566808
11
126.993823
21
119.800222
0
LINE
8
Layer 1
10
126.993823
20
119.800222
11
126.615687
21
120.161307
0
LINE
8
Layer 1
10
126.615687
20
120.161307
11
126.365111
21
120.607832
0
LINE
8
Layer 1
10
126.365111
20
120.607832
11
126.254336
21
121.107734
0
LINE
8
Layer 1
10
126.254336
20
121.107734
11
126.295605
21
121.628950
0
LINE
8
Layer 1
10
126.295605
20
121.628950
11
126.488850
21
122.114775
0
LINE
8
Layer 1
10
126.488850
20
122.114775
11
126.809079
21
122.514308
0
LINE
8
Layer 1
10
126.809079
20
122.514308
11
127.231145
21
122.804192
0
LINE
8
Layer 1
10
127.231145
20
122.804192
11
127.729902
21
122.961072
0
LINE
8
Layer 1
10
127.729902
20
122.961072
11
122.823887
21
126.120159
0
LINE
8
Layer 1
10
122.823887
20
126.120159
11
117.749682
21
128.991722
0
LINE
8
Layer 1
10
117.749682
20
128.991722
11
112.519901
21
131.569092
0
LINE
8
Layer 1
10
112.519901
20
131.569092
11
107.147161
21
133.845597
0
LINE
8
Layer 1
10
107.147161
20
133.845597
11
32.851562
21
133.845597
0
LINE
8
Layer 1
10
32.851562
20
133.845597
11
27.413174
21
131.539008
0
LINE
8
Layer 1
10
27.413174
20
131.539008
11
22.121573
21
128.924200
0
LINE
8
Layer 1
10
22.121573
20
128.924200
11
16.989840
21
126.008111
0
LINE
8
Layer 1
10
16.989840
20
126.008111
11
12.031053
21
122.797683
0
LINE
8
Layer 1
10
12.031053
20
122.797683
11
12.575720
21
122.700671
0
LINE
8
Layer 1
10
12.575720
20
122.700671
11
13.052529
21
122.446058
0
LINE
8
Layer 1
10
13.052529
20
122.446058
11
13.429064
21
122.058248
0
LINE
8
Layer 1
10
13.429064
20
122.058248
11
13.672909
21
121.561647
0
LINE
8
Layer 1
10
13.672909
20
121.561647
11
13.749783
21
121.013775
0
LINE
8
Layer 1
10
13.749783
20
121.013775
11
13.655778
21
120.481480
0
LINE
8
Layer 1
10
13.655778
20
120.481480
11
13.404027
21
120.003153
0
LINE
8
Layer 1
10
13.404027
20
120.003153
11
13.007666
21
119.617186
0
LINE
8
Layer 1
10
13.007666
20
119.617186
11
12.510731
21
119.374022
0
LINE
8
Layer 1
10
12.510731
20
119.374022
11
11.975553
21
119.298129
0
LINE
8
Layer 1
10
11.975553
20
119.298129
11
11.442704
21
119.388943
0
LINE
8
Layer 1
10
11.442704
20
119.388943
11
10.952757
21
119.645895
0
LINE
8
Layer 1
10
10.952757
20
119.645895
11
10.567332
21
120.042784
0
LINE
8
Layer 1
10
10.567332
20
120.042784
11
10.329042
21
120.527957
0
LINE
8
Layer 1
10
10.329042
20
120.527957
11
10.249944
21
121.062671
0
LINE
8
Layer 1
10
10.249944
20
121.062671
11
10.342094
21
121.608181
0
LINE
8
Layer 1
10
10.342094
20
121.608181
11
5.031082
21
117.515710
0
LINE
8
Layer 1
10
5.031082
20
117.515710
11
0.000000
21
113.083624
0
LINE
8
Layer 1
10
0.000000
20
113.083624
11
0.000000
21
113.083624
0
LINE
8
Layer 1
10
10.250000
20
105.047959
11
10.484456
21
104.172959
0
LINE
8
Layer 1
10
10.484456
20
104.172959
11
11.125000
21
103.532415
0
LINE
8
Layer 1
10
11.125000
20
103.532415
11
12.000000
21
103.297959
0
LINE
8
Layer 1
10
12.000000
20
103.297959
11
12.875000
21
103.532415
0
LINE
8
Layer 1
10
12.875000
20
103.532415
11
13.515544
21
104.172959
0
LINE
8
Layer 1
10
13.515544
20
104.172959
11
13.750000
21
105.047959
0
LINE
8
Layer 1
10
13.750000
20
105.047959
11
13.515544
21
105.922959
0
LINE
8
Layer 1
10
13.515544
20
105.922959
11
12.875000
21
106.563503
0
LINE
8
Layer 1
10
12.875000
20
106.563503
11
12.000000
21
106.797959
0
LINE
8
Layer 1
10
12.000000
20
106.797959
11
11.125000
21
106.563503
0
LINE
8
Layer 1
10
11.125000
20
106.563503
11
10.484456
21
105.922959
0
LINE
8
Layer 1
10
10.484456
20
105.922959
11
10.250000
21
105.047959
0
LINE
8
Layer 1
10
10.250000
20
105.047959
11
10.250000
21
105.047959
0
LINE
8
Layer 1
10
24.250000
20
105.047959
11
24.484456
21
104.172959
0
LINE
8
Layer 1
10
24.484456
20
104.172959
11
25.125000
21
103.532415
0
LINE
8
Layer 1
10
25.125000
20
103.532415
11
26.000000
21
103.297959
0
LINE
8
Layer 1
10
26.000000
20
103.297959
11
26.875000
21
103.532415
0
LINE
8
Layer 1
10
26.875000
20
103.532415
11
27.515544
21
104.172959
0
LINE
8
Layer 1
10
27.515544
20
104.172959
11
27.750000
21
105.047959
0
LINE
8
Layer 1
10
27.750000
20
105.047959
11
27.515544
21
105.922959
0
LINE
8
Layer 1
10
27.515544
20
105.922959
11
26.875000
21
106.563503
0
LINE
8
Layer 1
10
26.875000
20
106.563503
11
26.000000
21
106.797959
0
LINE
8
Layer 1
10
26.000000
20
106.797959
11
25.125000
21
106.563503
0
LINE
8
Layer 1
10
25.125000
20
106.563503
11
24.484456
21
105.922959
0
LINE
8
Layer 1
10
24.484456
20
105.922959
11
24.250000
21
105.047959
0
LINE
8
Layer 1
10
24.250000
20
105.047959
11
24.250000
21
105.047959
0
LINE
8
Layer 1
10
24.250000
20
121.047959
11
24.484456
21
120.172959
0
LINE
8
Layer 1
10
24.484456
20
120.172959
11
25.125000
21
119.532415
0
LINE
8
Layer 1
10
25.125000
20
119.532415
11
26.000000
21
119.297959
0
LINE
8
Layer 1
10
26.000000
20
119.297959
11
26.875000
21
119.532415
0
LINE
8
Layer 1
10
26.875000
20
119.532415
11
27.515544
21
120.172959
0
LINE
8
Layer 1
10
27.515544
20
120.172959
11
27.750000
21
121.047959
0
LINE
8
Layer 1
10
27.750000
20
121.047959
11
27.515544
21
121.922959
0
LINE
8
Layer 1
10
27.515544
20
121.922959
11
26.875000
21
122.563503
0
LINE
8
Layer 1
10
26.875000
20
122.563503
11
26.000000
21
122.797959
0
LINE
8
Layer 1
10
26.000000
20
122.797959
11
25.125000
21
122.563503
0
LINE
8
Layer 1
10
25.125000
20
122.563503
11
24.484456
21
121.922959
0
LINE
8
Layer 1
10
24.484456
20
121.922959
11
24.250000
21
121.047959
0
LINE
8
Layer 1
10
24.250000
20
121.047959
11
24.250000
21
121.047959
0
LINE
8
Layer 1
10
14.000000
20
113.040000
11
14.173077
21
111.735412
0
LINE
8
Layer 1
10
14.173077
20
111.735412
11
14.669873
21
110.540000
0
LINE
8
Layer 1
10
14.669873
20
110.540000
11
15.456732
21
109.512057
0
LINE
8
Layer 1
10
15.456732
20
109.512057
11
16.500000
21
108.709873
0
LINE
8
Layer 1
10
16.500000
20
108.709873
11
17.716345
21
108.207468
0
LINE
8
Layer 1
10
17.716345
20
108.207468
11
19.000000
21
108.040000
0
LINE
8
Layer 1
10
19.000000
20
108.040000
11
20.283655
21
108.207468
0
LINE
8
Layer 1
10
20.283655
20
108.207468
11
21.500000
21
108.709873
0
LINE
8
Layer 1
10
21.500000
20
108.709873
11
22.543268
21
109.512057
0
LINE
8
Layer 1
10
22.543268
20
109.512057
11
23.330127
21
110.540000
0
LINE
8
Layer 1
10
23.330127
20
110.540000
11
23.826923
21
111.735412
0
LINE
8
Layer 1
10
23.826923
20
111.735412
11
24.000000
21
113.040000
0
LINE
8
Layer 1
10
24.000000
20
113.040000
11
23.826923
21
114.344588
0
LINE
8
Layer 1
10
23.826923
20
114.344588
11
23.330127
21
115.540000
0
LINE
8
Layer 1
10
23.330127
20
115.540000
11
22.543268
21
116.567943
0
LINE
8
Layer 1
10
22.543268
20
116.567943
11
21.500000
21
117.370127
0
LINE
8
Layer 1
10
21.500000
20
117.370127
11
20.283655
21
117.872532
0
LINE
8
Layer 1
10
20.283655
20
117.872532
11
19.000000
21
118.040000
0
LINE
8
Layer 1
10
19.000000
20
118.040000
11
17.716345
21
117.872532
0
LINE
8
Layer 1
10
17.716345
20
117.872532
11
16.500000
21
117.370127
0
LINE
8
Layer 1
10
16.500000
20
117.370127
11
15.456732
21
116.567943
0
LINE
8
Layer 1
10
15.456732
20
116.567943
11
14.669873
21
115.540000
0
LINE
8
Layer 1
10
14.669873
20
115.540000
11
14.173077
21
114.344588
0
LINE
8
Layer 1
10
14.173077
20
114.344588
11
14.000000
21
113.040000
0
LINE
8
Layer 1
10
14.000000
20
113.040000
11
14.000000
21
113.040000
0
LINE
8
Layer 1
10
97.500000
20
9.145625
11
97.633975
21
8.645625
0
LINE
8
Layer 1
10
97.633975
20
8.645625
11
98.000000
21
8.279600
0
LINE
8
Layer 1
10
98.000000
20
8.279600
11
98.500000
21
8.145625
0
LINE
8
Layer 1
10
98.500000
20
8.145625
11
99.000000
21
8.279600
0
LINE
8
Layer 1
10
99.000000
20
8.279600
11
99.366025
21
8.645625
0
LINE
8
Layer 1
10
99.366025
20
8.645625
11
99.500000
21
9.145625
0
LINE
8
Layer 1
10
99.500000
20
9.145625
11
99.366025
21
9.645625
0
LINE
8
Layer 1
10
99.366025
20
9.645625
11
99.000000
21
10.011650
0
LINE
8
Layer 1
10
99.000000
20
10.011650
11
98.500000
21
10.145625
0
LINE
8
Layer 1
10
98.500000
20
10.145625
11
98.000000
21
10.011650
0
LINE
8
Layer 1
10
98.000000
20
10.011650
11
97.633975
21
9.645625
0
LINE
8
Layer 1
10
97.633975
20
9.645625
11
97.500000
21
9.145625
0
LINE
8
Layer 1
10
97.500000
20
9.145625
11
97.500000
21
9.145625
0
LINE
8
Layer 1
10
41.500000
20
9.145625
11
41.633975
21
8.645625
0
LINE
8
Layer 1
10
41.633975
20
8.645625
11
42.000000
21
8.279600
0
LINE
8
Layer 1
10
42.000000
20
8.279600
11
42.500000
21
8.145625
0
LINE
8
Layer 1
10
42.500000
20
8.145625
11
43.000000
21
8.279600
0
LINE
8
Layer 1
10
43.000000
20
8.279600
11
43.366025
21
8.645625
0
LINE
8
Layer 1
10
43.366025
20
8.645625
11
43.500000
21
9.145625
0
LINE
8
Layer 1
10
43.500000
20
9.145625
11
43.366025
21
9.645625
0
LINE
8
Layer 1
10
43.366025
20
9.645625
11
43.000000
21
10.011650
0
LINE
8
Layer 1
10
43.000000
20
10.011650
11
42.500000
21
10.145625
0
LINE
8
Layer 1
10
42.500000
20
10.145625
11
42.000000
21
10.011650
0
LINE
8
Layer 1
10
42.000000
20
10.011650
11
41.633975
21
9.645625
0
LINE
8
Layer 1
10
41.633975
20
9.645625
11
41.500000
21
9.145625
0
LINE
8
Layer 1
10
41.500000
20
9.145625
11
41.500000
21
9.145625
0
LINE
8
Layer 1
10
10.250000
20
5.047959
11
10.484456
21
4.172959
0
LINE
8
Layer 1
10
10.484456
20
4.172959
11
11.125000
21
3.532415
0
LINE
8
Layer 1
10
11.125000
20
3.532415
11
12.000000
21
3.297959
0
LINE
8
Layer 1
10
12.000000
20
3.297959
11
12.875000
21
3.532415
0
LINE
8
Layer 1
10
12.875000
20
3.532415
11
13.515544
21
4.172959
0
LINE
8
Layer 1
10
13.515544
20
4.172959
11
13.750000
21
5.047959
0
LINE
8
Layer 1
10
13.750000
20
5.047959
11
13.515544
21
5.922959
0
LINE
8
Layer 1
10
13.515544
20
5.922959
11
12.875000
21
6.563503
0
LINE
8
Layer 1
10
12.875000
20
6.563503
11
12.000000
21
6.797959
0
LINE
8
Layer 1
10
12.000000
20
6.797959
11
11.125000
21
6.563503
0
LINE
8
Layer 1
10
11.125000
20
6.563503
11
10.484456
21
5.922959
0
LINE
8
Layer 1
10
10.484456
20
5.922959
11
10.250000
21
5.047959
0
LINE
8
Layer 1
10
10.250000
20
5.047959
11
10.250000
21
5.047959
0
LINE
8
Layer 1
10
24.250000
20
5.047959
11
24.484456
21
4.172959
0
LINE
8
Layer 1
10
24.484456
20
4.172959
11
25.125000
21
3.532415
0
LINE
8
Layer 1
10
25.125000
20
3.532415
11
26.000000
21
3.297959
0
LINE
8
Layer 1
10
26.000000
20
3.297959
11
26.875000
21
3.532415
0
LINE
8
Layer 1
10
26.875000
20
3.532415
11
27.515544
21
4.172959
0
LINE
8
Layer 1
10
27.515544
20
4.172959
11
27.750000
21
5.047959
0
LINE
8
Layer 1
10
27.750000
20
5.047959
11
27.515544
21
5.922959
0
LINE
8
Layer 1
10
27.515544
20
5.922959
11
26.875000
21
6.563503
0
LINE
8
Layer 1
10
26.875000
20
6.563503
11
26.000000
21
6.797959
0
LINE
8
Layer 1
10
26.000000
20
6.797959
11
25.125000
21
6.563503
0
LINE
8
Layer 1
10
25.125000
20
6.563503
11
24.484456
21
5.922959
0
LINE
8
Layer 1
10
24.484456
20
5.922959
11
24.250000
21
5.047959
0
LINE
8
Layer 1
10
24.250000
20
5.047959
11
24.250000
21
5.047959
0
LINE
8
Layer 1
10
10.250000
20
21.047959
11
10.484456
21
20.172959
0
LINE
8
Layer 1
10
10.484456
20
20.172959
11
11.125000
21
19.532415
0
LINE
8
Layer 1
10
11.125000
20
19.532415
11
12.000000
21
19.297959
0
LINE
8
Layer 1
10
12.000000
20
19.297959
11
12.875000
21
19.532415
0
LINE
8
Layer 1
10
12.875000
20
19.532415
11
13.515544
21
20.172959
0
LINE
8
Layer 1
10
13.515544
20
20.172959
11
13.750000
21
21.047959
0
LINE
8
Layer 1
10
13.750000
20
21.047959
11
13.515544
21
21.922959
0
LINE
8
Layer 1
10
13.515544
20
21.922959
11
12.875000
21
22.563503
0
LINE
8
Layer 1
10
12.875000
20
22.563503
11
12.000000
21
22.797959
0
LINE
8
Layer 1
10
12.000000
20
22.797959
11
11.125000
21
22.563503
0
LINE
8
Layer 1
10
11.125000
20
22.563503
11
10.484456
21
21.922959
0
LINE
8
Layer 1
10
10.484456
20
21.922959
11
10.250000
21
21.047959
0
LINE
8
Layer 1
10
10.250000
20
21.047959
11
10.250000
21
21.047959
0
LINE
8
Layer 1
10
14.000000
20
13.040000
11
14.173077
21
11.735412
0
LINE
8
Layer 1
10
14.173077
20
11.735412
11
14.669873
21
10.540000
0
LINE
8
Layer 1
10
14.669873
20
10.540000
11
15.456732
21
9.512057
0
LINE
8
Layer 1
10
15.456732
20
9.512057
11
16.500000
21
8.709873
0
LINE
8
Layer 1
10
16.500000
20
8.709873
11
17.716345
21
8.207468
0
LINE
8
Layer 1
10
17.716345
20
8.207468
11
19.000000
21
8.040000
0
LINE
8
Layer 1
10
19.000000
20
8.040000
11
20.283655
21
8.207468
0
LINE
8
Layer 1
10
20.283655
20
8.207468
11
21.500000
21
8.709873
0
LINE
8
Layer 1
10
21.500000
20
8.709873
11
22.543268
21
9.512057
0
LINE
8
Layer 1
10
22.543268
20
9.512057
11
23.330127
21
10.540000
0
LINE
8
Layer 1
10
23.330127
20
10.540000
11
23.826923
21
11.735412
0
LINE
8
Layer 1
10
23.826923
20
11.735412
11
24.000000
21
13.040000
0
LINE
8
Layer 1
10
24.000000
20
13.040000
11
23.826923
21
14.344588
0
LINE
8
Layer 1
10
23.826923
20
14.344588
11
23.330127
21
15.540000
0
LINE
8
Layer 1
10
23.330127
20
15.540000
11
22.543268
21
16.567943
0
LINE
8
Layer 1
10
22.543268
20
16.567943
11
21.500000
21
17.370127
0
LINE
8
Layer 1
10
21.500000
20
17.370127
11
20.283655
21
17.872532
0
LINE
8
Layer 1
10
20.283655
20
17.872532
11
19.000000
21
18.040000
0
LINE
8
Layer 1
10
19.000000
20
18.040000
11
17.716345
21
17.872532
0
LINE
8
Layer 1
10
17.716345
20
17.872532
11
16.500000
21
17.370127
0
LINE
8
Layer 1
10
16.500000
20
17.370127
11
15.456732
21
16.567943
0
LINE
8
Layer 1
10
15.456732
20
16.567943
11
14.669873
21
15.540000
0
LINE
8
Layer 1
10
14.669873
20
15.540000
11
14.173077
21
14.344588
0
LINE
8
Layer 1
10
14.173077
20
14.344588
11
14.000000
21
13.040000
0
LINE
8
Layer 1
10
14.000000
20
13.040000
11
14.000000
21
13.040000
0
LINE
8
Layer 1
10
24.250000
20
21.047959
11
24.484456
21
20.172959
0
LINE
8
Layer 1
10
24.484456
20
20.172959
11
25.125000
21
19.532415
0
LINE
8
Layer 1
10
25.125000
20
19.532415
11
26.000000
21
19.297959
0
LINE
8
Layer 1
10
26.000000
20
19.297959
11
26.875000
21
19.532415
0
LINE
8
Layer 1
10
26.875000
20
19.532415
11
27.515544
21
20.172959
0
LINE
8
Layer 1
10
27.515544
20
20.172959
11
27.750000
21
21.047959
0
LINE
8
Layer 1
10
27.750000
20
21.047959
11
27.515544
21
21.922959
0
LINE
8
Layer 1
10
27.515544
20
21.922959
11
26.875000
21
22.563503
0
LINE
8
Layer 1
10
26.875000
20
22.563503
11
26.000000
21
22.797959
0
LINE
8
Layer 1
10
26.000000
20
22.797959
11
25.125000
21
22.563503
0
LINE
8
Layer 1
10
25.125000
20
22.563503
11
24.484456
21
21.922959
0
LINE
8
Layer 1
10
24.484456
20
21.922959
11
24.250000
21
21.047959
0
LINE
8
Layer 1
10
24.250000
20
21.047959
11
24.250000
21
21.047959
0
LINE
8
Layer 1
10
126.250000
20
5.232041
11
126.484456
21
4.357041
0
LINE
8
Layer 1
10
126.484456
20
4.357041
11
127.125000
21
3.716497
0
LINE
8
Layer 1
10
127.125000
20
3.716497
11
128.000000
21
3.482041
0
LINE
8
Layer 1
10
128.000000
20
3.482041
11
128.875000
21
3.716497
0
LINE
8
Layer 1
10
128.875000
20
3.716497
11
129.515544
21
4.357041
0
LINE
8
Layer 1
10
129.515544
20
4.357041
11
129.750000
21
5.232041
0
LINE
8
Layer 1
10
129.750000
20
5.232041
11
129.515544
21
6.107041
0
LINE
8
Layer 1
10
129.515544
20
6.107041
11
128.875000
21
6.747585
0
LINE
8
Layer 1
10
128.875000
20
6.747585
11
128.000000
21
6.982041
0
LINE
8
Layer 1
10
128.000000
20
6.982041
11
127.125000
21
6.747585
0
LINE
8
Layer 1
10
127.125000
20
6.747585
11
126.484456
21
6.107041
0
LINE
8
Layer 1
10
126.484456
20
6.107041
11
126.250000
21
5.232041
0
LINE
8
Layer 1
10
126.250000
20
5.232041
11
126.250000
21
5.232041
0
LINE
8
Layer 1
10
116.000000
20
13.240000
11
116.173077
21
11.935412
0
LINE
8
Layer 1
10
116.173077
20
11.935412
11
116.669873
21
10.740000
0
LINE
8
Layer 1
10
116.669873
20
10.740000
11
117.456732
21
9.712057
0
LINE
8
Layer 1
10
117.456732
20
9.712057
11
118.500000
21
8.909873
0
LINE
8
Layer 1
10
118.500000
20
8.909873
11
119.716345
21
8.407468
0
LINE
8
Layer 1
10
119.716345
20
8.407468
11
121.000000
21
8.240000
0
LINE
8
Layer 1
10
121.000000
20
8.240000
11
122.283655
21
8.407468
0
LINE
8
Layer 1
10
122.283655
20
8.407468
11
123.500000
21
8.909873
0
LINE
8
Layer 1
10
123.500000
20
8.909873
11
124.543268
21
9.712057
0
LINE
8
Layer 1
10
124.543268
20
9.712057
11
125.330127
21
10.740000
0
LINE
8
Layer 1
10
125.330127
20
10.740000
11
125.826923
21
11.935412
0
LINE
8
Layer 1
10
125.826923
20
11.935412
11
126.000000
21
13.240000
0
LINE
8
Layer 1
10
126.000000
20
13.240000
11
125.826923
21
14.544588
0
LINE
8
Layer 1
10
125.826923
20
14.544588
11
125.330127
21
15.740000
0
LINE
8
Layer 1
10
125.330127
20
15.740000
11
124.543268
21
16.767943
0
LINE
8
Layer 1
10
124.543268
20
16.767943
11
123.500000
21
17.570127
0
LINE
8
Layer 1
10
123.500000
20
17.570127
11
122.283655
21
18.072532
0
LINE
8
Layer 1
10
122.283655
20
18.072532
11
121.000000
21
18.240000
0
LINE
8
Layer 1
10
121.000000
20
18.240000
11
119.716345
21
18.072532
0
LINE
8
Layer 1
10
119.716345
20
18.072532
11
118.500000
21
17.570127
0
LINE
8
Layer 1
10
118.500000
20
17.570127
11
117.456732
21
16.767943
0
LINE
8
Layer 1
10
117.456732
20
16.767943
11
116.669873
21
15.740000
0
LINE
8
Layer 1
10
116.669873
20
15.740000
11
116.173077
21
14.544588
0
LINE
8
Layer 1
10
116.173077
20
14.544588
11
116.000000
21
13.240000
0
LINE
8
Layer 1
10
116.000000
20
13.240000
11
116.000000
21
13.240000
0
LINE
8
Layer 1
10
112.250000
20
5.232041
11
112.484456
21
4.357041
0
LINE
8
Layer 1
10
112.484456
20
4.357041
11
113.125000
21
3.716497
0
LINE
8
Layer 1
10
113.125000
20
3.716497
11
114.000000
21
3.482041
0
LINE
8
Layer 1
10
114.000000
20
3.482041
11
114.875000
21
3.716497
0
LINE
8
Layer 1
10
114.875000
20
3.716497
11
115.515544
21
4.357041
0
LINE
8
Layer 1
10
115.515544
20
4.357041
11
115.750000
21
5.232041
0
LINE
8
Layer 1
10
115.750000
20
5.232041
11
115.515544
21
6.107041
0
LINE
8
Layer 1
10
115.515544
20
6.107041
11
114.875000
21
6.747585
0
LINE
8
Layer 1
10
114.875000
20
6.747585
11
114.000000
21
6.982041
0
LINE
8
Layer 1
10
114.000000
20
6.982041
11
113.125000
21
6.747585
0
LINE
8
Layer 1
10
113.125000
20
6.747585
11
112.484456
21
6.107041
0
LINE
8
Layer 1
10
112.484456
20
6.107041
11
112.250000
21
5.232041
0
LINE
8
Layer 1
10
112.250000
20
5.232041
11
112.250000
21
5.232041
0
LINE
8
Layer 1
10
112.250000
20
21.232041
11
112.484456
21
20.357041
0
LINE
8
Layer 1
10
112.484456
20
20.357041
11
113.125000
21
19.716497
0
LINE
8
Layer 1
10
113.125000
20
19.716497
11
114.000000
21
19.482041
0
LINE
8
Layer 1
10
114.000000
20
19.482041
11
114.875000
21
19.716497
0
LINE
8
Layer 1
10
114.875000
20
19.716497
11
115.515544
21
20.357041
0
LINE
8
Layer 1
10
115.515544
20
20.357041
11
115.750000
21
21.232041
0
LINE
8
Layer 1
10
115.750000
20
21.232041
11
115.515544
21
22.107041
0
LINE
8
Layer 1
10
115.515544
20
22.107041
11
114.875000
21
22.747585
0
LINE
8
Layer 1
10
114.875000
20
22.747585
11
114.000000
21
22.982041
0
LINE
8
Layer 1
10
114.000000
20
22.982041
11
113.125000
21
22.747585
0
LINE
8
Layer 1
10
113.125000
20
22.747585
11
112.484456
21
22.107041
0
LINE
8
Layer 1
10
112.484456
20
22.107041
11
112.250000
21
21.232041
0
LINE
8
Layer 1
10
112.250000
20
21.232041
11
112.250000
21
21.232041
0
LINE
8
Layer 1
10
126.250000
20
21.232041
11
126.484456
21
20.357041
0
LINE
8
Layer 1
10
126.484456
20
20.357041
11
127.125000
21
19.716497
0
LINE
8
Layer 1
10
127.125000
20
19.716497
11
128.000000
21
19.482041
0
LINE
8
Layer 1
10
128.000000
20
19.482041
11
128.875000
21
19.716497
0
LINE
8
Layer 1
10
128.875000
20
19.716497
11
129.515544
21
20.357041
0
LINE
8
Layer 1
10
129.515544
20
20.357041
11
129.750000
21
21.232041
0
LINE
8
Layer 1
10
129.750000
20
21.232041
11
129.515544
21
22.107041
0
LINE
8
Layer 1
10
129.515544
20
22.107041
11
128.875000
21
22.747585
0
LINE
8
Layer 1
10
128.875000
20
22.747585
11
128.000000
21
22.982041
0
LINE
8
Layer 1
10
128.000000
20
22.982041
11
127.125000
21
22.747585
0
LINE
8
Layer 1
10
127.125000
20
22.747585
11
126.484456
21
22.107041
0
LINE
8
Layer 1
10
126.484456
20
22.107041
11
126.250000
21
21.232041
0
LINE
8
Layer 1
10
126.250000
20
21.232041
11
126.250000
21
21.232041
0
LINE
8
Layer 1
10
87.000000
20
35.840000
11
53.000000
21
35.840000
0
LINE
8
Layer 1
10
53.000000
20
35.840000
11
53.000000
21
15.840000
0
LINE
8
Layer 1
10
53.000000
20
15.840000
11
87.000001
21
15.840000
0
LINE
8
Layer 1
10
87.000001
20
15.840000
11
87.000000
21
35.840000
0
LINE
8
Layer 1
10
87.000000
20
35.840000
11
87.000000
21
35.840000
0
LINE
8
Layer 1
10
103.501278
20
30.901901
11
103.500000
21
30.840000
0
LINE
8
Layer 1
10
103.500000
20
30.840000
11
103.616312
21
30.259885
0
LINE
8
Layer 1
10
103.616312
20
30.259885
11
103.933877
21
29.784825
0
LINE
8
Layer 1
10
103.933877
20
29.784825
11
104.405633
21
29.462371
0
LINE
8
Layer 1
10
104.405633
20
29.462371
11
104.984516
21
29.340075
0
LINE
8
Layer 1
10
104.984516
20
29.340075
11
105.565799
21
29.450394
0
LINE
8
Layer 1
10
105.565799
20
29.450394
11
106.044111
21
29.763040
0
LINE
8
Layer 1
10
106.044111
20
29.763040
11
106.371417
21
30.231443
0
LINE
8
Layer 1
10
106.371417
20
30.231443
11
106.499680
21
30.809033
0
LINE
8
Layer 1
10
106.499680
20
30.809033
11
106.395365
21
31.391424
0
LINE
8
Layer 1
10
106.395365
20
31.391424
11
106.087672
21
31.872937
0
LINE
8
Layer 1
10
106.087672
20
31.872937
11
105.622672
21
32.205059
0
LINE
8
Layer 1
10
105.622672
20
32.205059
11
105.046437
21
32.339276
0
LINE
8
Layer 1
10
105.046437
20
32.339276
11
104.463000
21
32.240977
0
LINE
8
Layer 1
10
104.463000
20
32.240977
11
103.978337
21
31.938269
0
LINE
8
Layer 1
10
103.978337
20
31.938269
11
103.641435
21
31.476721
0
LINE
8
Layer 1
10
103.641435
20
31.476721
11
103.501278
21
30.901901
0
LINE
8
Layer 1
10
103.501278
20
30.901901
11
103.501278
21
30.901901
0
LINE
8
Layer 1
10
103.501278
20
130.901902
11
103.500000
21
130.840000
0
LINE
8
Layer 1
10
103.500000
20
130.840000
11
103.616313
21
130.259886
0
LINE
8
Layer 1
10
103.616313
20
130.259886
11
103.933878
21
129.784826
0
LINE
8
Layer 1
10
103.933878
20
129.784826
11
104.405634
21
129.462372
0
LINE
8
Layer 1
10
104.405634
20
129.462372
11
104.984516
21
129.340076
0
LINE
8
Layer 1
10
104.984516
20
129.340076
11
105.565800
21
129.450396
0
LINE
8
Layer 1
10
105.565800
20
129.450396
11
106.044112
21
129.763042
0
LINE
8
Layer 1
10
106.044112
20
129.763042
11
106.371417
21
130.231445
0
LINE
8
Layer 1
10
106.371417
20
130.231445
11
106.499680
21
130.809034
0
LINE
8
Layer 1
10
106.499680
20
130.809034
11
106.395365
21
131.391426
0
LINE
8
Layer 1
10
106.395365
20
131.391426
11
106.087672
21
131.872938
0
LINE
8
Layer 1
10
106.087672
20
131.872938
11
105.622672
21
132.205060
0
LINE
8
Layer 1
10
105.622672
20
132.205060
11
105.046436
21
132.339277
0
LINE
8
Layer 1
10
105.046436
20
132.339277
11
104.463000
21
132.240978
0
LINE
8
Layer 1
10
104.463000
20
132.240978
11
103.978337
21
131.938270
0
LINE
8
Layer 1
10
103.978337
20
131.938270
11
103.641435
21
131.476721
0
LINE
8
Layer 1
10
103.641435
20
131.476721
11
103.501278
21
130.901902
0
LINE
8
Layer 1
10
103.501278
20
130.901902
11
103.501278
21
130.901902
0
LINE
8
Layer 1
10
33.501279
20
30.901932
11
33.500000
21
30.840000
0
LINE
8
Layer 1
10
33.500000
20
30.840000
11
33.616314
21
30.259888
0
LINE
8
Layer 1
10
33.616314
20
30.259888
11
33.933880
21
29.784830
0
LINE
8
Layer 1
10
33.933880
20
29.784830
11
34.405634
21
29.462378
0
LINE
8
Layer 1
10
34.405634
20
29.462378
11
34.984515
21
29.340082
0
LINE
8
Layer 1
10
34.984515
20
29.340082
11
35.565797
21
29.450400
0
LINE
8
Layer 1
10
35.565797
20
29.450400
11
36.044108
21
29.763044
0
LINE
8
Layer 1
10
36.044108
20
29.763044
11
36.371414
21
30.231444
0
LINE
8
Layer 1
10
36.371414
20
30.231444
11
36.499680
21
30.809031
0
LINE
8
Layer 1
10
36.499680
20
30.809031
11
36.395369
21
31.391421
0
LINE
8
Layer 1
10
36.395369
20
31.391421
11
36.087681
21
31.872935
0
LINE
8
Layer 1
10
36.087681
20
31.872935
11
35.622685
21
32.205059
0
LINE
8
Layer 1
10
35.622685
20
32.205059
11
35.046453
21
32.339282
0
LINE
8
Layer 1
10
35.046453
20
32.339282
11
34.463017
21
32.240990
0
LINE
8
Layer 1
10
34.463017
20
32.240990
11
33.978352
21
31.938289
0
LINE
8
Layer 1
10
33.978352
20
31.938289
11
33.641444
21
31.476747
0
LINE
8
Layer 1
10
33.641444
20
31.476747
11
33.501279
21
30.901932
0
LINE
8
Layer 1
10
33.501279
20
30.901932
11
33.501279
21
30.901932
0
LINE
8
Layer 1
10
33.501279
20
130.901933
11
33.500000
21
130.840000
0
LINE
8
Layer 1
10
33.500000
20
130.840000
11
33.616314
21
130.259888
0
LINE
8
Layer 1
10
33.616314
20
130.259888
11
33.933880
21
129.784830
0
LINE
8
Layer 1
10
33.933880
20
129.784830
11
34.405635
21
129.462378
0
LINE
8
Layer 1
10
34.405635
20
129.462378
11
34.984515
21
129.340083
0
LINE
8
Layer 1
10
34.984515
20
129.340083
11
35.565797
21
129.450401
0
LINE
8
Layer 1
10
35.565797
20
129.450401
11
36.044108
21
129.763045
0
LINE
8
Layer 1
10
36.044108
20
129.763045
11
36.371414
21
130.231445
0
LINE
8
Layer 1
10
36.371414
20
130.231445
11
36.499680
21
130.809032
0
LINE
8
Layer 1
10
36.499680
20
130.809032
11
36.395369
21
131.391422
0
LINE
8
Layer 1
10
36.395369
20
131.391422
11
36.087681
21
131.872936
0
LINE
8
Layer 1
10
36.087681
20
131.872936
11
35.622685
21
132.205060
0
LINE
8
Layer 1
10
35.622685
20
132.205060
11
35.046453
21
132.339283
0
LINE
8
Layer 1
10
35.046453
20
132.339283
11
34.463017
21
132.240991
0
LINE
8
Layer 1
10
34.463017
20
132.240991
11
33.978352
21
131.938290
0
LINE
8
Layer 1
10
33.978352
20
131.938290
11
33.641444
21
131.476748
0
LINE
8
Layer 1
10
33.641444
20
131.476748
11
33.501279
21
130.901933
0
LINE
8
Layer 1
10
33.501279
20
130.901933
11
33.501279
21
130.901933
0
LINE
8
Layer 1
10
116.000000
20
113.240000
11
116.173077
21
111.935412
0
LINE
8
Layer 1
10
116.173077
20
111.935412
11
116.669873
21
110.740000
0
LINE
8
Layer 1
10
116.669873
20
110.740000
11
117.456732
21
109.712057
0
LINE
8
Layer 1
10
117.456732
20
109.712057
11
118.500000
21
108.909873
0
LINE
8
Layer 1
10
118.500000
20
108.909873
11
119.716345
21
108.407468
0
LINE
8
Layer 1
10
119.716345
20
108.407468
11
121.000000
21
108.240000
0
LINE
8
Layer 1
10
121.000000
20
108.240000
11
122.283655
21
108.407468
0
LINE
8
Layer 1
10
122.283655
20
108.407468
11
123.500000
21
108.909873
0
LINE
8
Layer 1
10
123.500000
20
108.909873
11
124.543268
21
109.712057
0
LINE
8
Layer 1
10
124.543268
20
109.712057
11
125.330127
21
110.740000
0
LINE
8
Layer 1
10
125.330127
20
110.740000
11
125.826923
21
111.935412
0
LINE
8
Layer 1
10
125.826923
20
111.935412
11
126.000000
21
113.240000
0
LINE
8
Layer 1
10
126.000000
20
113.240000
11
125.826923
21
114.544588
0
LINE
8
Layer 1
10
125.826923
20
114.544588
11
125.330127
21
115.740000
0
LINE
8
Layer 1
10
125.330127
20
115.740000
11
124.543268
21
116.767943
0
LINE
8
Layer 1
10
124.543268
20
116.767943
11
123.500000
21
117.570127
0
LINE
8
Layer 1
10
123.500000
20
117.570127
11
122.283655
21
118.072532
0
LINE
8
Layer 1
10
122.283655
20
118.072532
11
121.000000
21
118.240000
0
LINE
8
Layer 1
10
121.000000
20
118.240000
11
119.716345
21
118.072532
0
LINE
8
Layer 1
10
119.716345
20
118.072532
11
118.500000
21
117.570127
0
LINE
8
Layer 1
10
118.500000
20
117.570127
11
117.456732
21
116.767943
0
LINE
8
Layer 1
10
117.456732
20
116.767943
11
116.669873
21
115.740000
0
LINE
8
Layer 1
10
116.669873
20
115.740000
11
116.173077
21
114.544588
0
LINE
8
Layer 1
10
116.173077
20
114.544588
11
116.000000
21
113.240000
0
LINE
8
Layer 1
10
116.000000
20
113.240000
11
116.000000
21
113.240000
0
LINE
8
Layer 1
10
112.250000
20
121.232041
11
112.484456
21
120.357041
0
LINE
8
Layer 1
10
112.484456
20
120.357041
11
113.125000
21
119.716497
0
LINE
8
Layer 1
10
113.125000
20
119.716497
11
114.000000
21
119.482041
0
LINE
8
Layer 1
10
114.000000
20
119.482041
11
114.875000
21
119.716497
0
LINE
8
Layer 1
10
114.875000
20
119.716497
11
115.515544
21
120.357041
0
LINE
8
Layer 1
10
115.515544
20
120.357041
11
115.750000
21
121.232041
0
LINE
8
Layer 1
10
115.750000
20
121.232041
11
115.515544
21
122.107041
0
LINE
8
Layer 1
10
115.515544
20
122.107041
11
114.875000
21
122.747585
0
LINE
8
Layer 1
10
114.875000
20
122.747585
11
114.000000
21
122.982041
0
LINE
8
Layer 1
10
114.000000
20
122.982041
11
113.125000
21
122.747585
0
LINE
8
Layer 1
10
113.125000
20
122.747585
11
112.484456
21
122.107041
0
LINE
8
Layer 1
10
112.484456
20
122.107041
11
112.250000
21
121.232041
0
LINE
8
Layer 1
10
112.250000
20
121.232041
11
112.250000
21
121.232041
0
LINE
8
Layer 1
10
126.250000
20
105.232041
11
126.484456
21
104.357041
0
LINE
8
Layer 1
10
126.484456
20
104.357041
11
127.125000
21
103.716497
0
LINE
8
Layer 1
10
127.125000
20
103.716497
11
128.000000
21
103.482041
0
LINE
8
Layer 1
10
128.000000
20
103.482041
11
128.875000
21
103.716497
0
LINE
8
Layer 1
10
128.875000
20
103.716497
11
129.515544
21
104.357041
0
LINE
8
Layer 1
10
129.515544
20
104.357041
11
129.750000
21
105.232041
0
LINE
8
Layer 1
10
129.750000
20
105.232041
11
129.515544
21
106.107041
0
LINE
8
Layer 1
10
129.515544
20
106.107041
11
128.875000
21
106.747585
0
LINE
8
Layer 1
10
128.875000
20
106.747585
11
128.000000
21
106.982041
0
LINE
8
Layer 1
10
128.000000
20
106.982041
11
127.125000
21
106.747585
0
LINE
8
Layer 1
10
127.125000
20
106.747585
11
126.484456
21
106.107041
0
LINE
8
Layer 1
10
126.484456
20
106.107041
11
126.250000
21
105.232041
0
LINE
8
Layer 1
10
126.250000
20
105.232041
11
126.250000
21
105.232041
0
LINE
8
Layer 1
10
112.250000
20
105.232041
11
112.484456
21
104.357041
0
LINE
8
Layer 1
10
112.484456
20
104.357041
11
113.125000
21
103.716497
0
LINE
8
Layer 1
10
113.125000
20
103.716497
11
114.000000
21
103.482041
0
LINE
8
Layer 1
10
114.000000
20
103.482041
11
114.875000
21
103.716497
0
LINE
8
Layer 1
10
114.875000
20
103.716497
11
115.515544
21
104.357041
0
LINE
8
Layer 1
10
115.515544
20
104.357041
11
115.750000
21
105.232041
0
LINE
8
Layer 1
10
115.750000
20
105.232041
11
115.515544
21
106.107041
0
LINE
8
Layer 1
10
115.515544
20
106.107041
11
114.875000
21
106.747585
0
LINE
8
Layer 1
10
114.875000
20
106.747585
11
114.000000
21
106.982041
0
LINE
8
Layer 1
10
114.000000
20
106.982041
11
113.125000
21
106.747585
0
LINE
8
Layer 1
10
113.125000
20
106.747585
11
112.484456
21
106.107041
0
LINE
8
Layer 1
10
112.484456
20
106.107041
11
112.250000
21
105.232041
0
LINE
8
Layer 1
10
112.250000
20
105.232041
11
112.250000
21
105.232041
0
LINE
8
Layer 1
10
78.000000
20
3.339999
11
78.200962
21
2.589999
0
LINE
8
Layer 1
10
78.200962
20
2.589999
11
78.750000
21
2.040961
0
LINE
8
Layer 1
10
78.750000
20
2.040961
11
79.500000
21
1.839999
0
LINE
8
Layer 1
10
79.500000
20
1.839999
11
80.250000
21
2.040961
0
LINE
8
Layer 1
10
80.250000
20
2.040961
11
80.799038
21
2.589999
0
LINE
8
Layer 1
10
80.799038
20
2.589999
11
81.000000
21
3.339999
0
LINE
8
Layer 1
10
81.000000
20
3.339999
11
80.799038
21
4.089999
0
LINE
8
Layer 1
10
80.799038
20
4.089999
11
80.250000
21
4.639037
0
LINE
8
Layer 1
10
80.250000
20
4.639037
11
79.500000
21
4.839999
0
LINE
8
Layer 1
10
79.500000
20
4.839999
11
78.750000
21
4.639037
0
LINE
8
Layer 1
10
78.750000
20
4.639037
11
78.200962
21
4.089999
0
LINE
8
Layer 1
10
78.200962
20
4.089999
11
78.000000
21
3.339999
0
LINE
8
Layer 1
10
78.000000
20
3.339999
11
78.000000
21
3.339999
0
LINE
8
Layer 1
10
58.000000
20
3.339999
11
58.200962
21
2.589999
0
LINE
8
Layer 1
10
58.200962
20
2.589999
11
58.750000
21
2.040961
0
LINE
8
Layer 1
10
58.750000
20
2.040961
11
59.500000
21
1.839999
0
LINE
8
Layer 1
10
59.500000
20
1.839999
11
60.250000
21
2.040961
0
LINE
8
Layer 1
10
60.250000
20
2.040961
11
60.799038
21
2.589999
0
LINE
8
Layer 1
10
60.799038
20
2.589999
11
61.000000
21
3.339999
0
LINE
8
Layer 1
10
61.000000
20
3.339999
11
60.799038
21
4.089999
0
LINE
8
Layer 1
10
60.799038
20
4.089999
11
60.250000
21
4.639037
0
LINE
8
Layer 1
10
60.250000
20
4.639037
11
59.500000
21
4.839999
0
LINE
8
Layer 1
10
59.500000
20
4.839999
11
58.750000
21
4.639037
0
LINE
8
Layer 1
10
58.750000
20
4.639037
11
58.200962
21
4.089999
0
LINE
8
Layer 1
10
58.200962
20
4.089999
11
58.000000
21
3.339999
0
LINE
8
Layer 1
10
58.000000
20
3.339999
11
58.000000
21
3.339999
0
LINE
8
Layer 1
10
123.000001
20
70.839999
11
123.267950
21
69.839999
0
LINE
8
Layer 1
10
123.267950
20
69.839999
11
124.000001
21
69.107948
0
LINE
8
Layer 1
10
124.000001
20
69.107948
11
125.000001
21
68.839999
0
LINE
8
Layer 1
10
125.000001
20
68.839999
11
126.000001
21
69.107948
0
LINE
8
Layer 1
10
126.000001
20
69.107948
11
126.732052
21
69.839999
0
LINE
8
Layer 1
10
126.732052
20
69.839999
11
127.000001
21
70.839999
0
LINE
8
Layer 1
10
127.000001
20
70.839999
11
126.732052
21
71.839999
0
LINE
8
Layer 1
10
126.732052
20
71.839999
11
126.000001
21
72.572050
0
LINE
8
Layer 1
10
126.000001
20
72.572050
11
125.000001
21
72.839999
0
LINE
8
Layer 1
10
125.000001
20
72.839999
11
124.000001
21
72.572050
0
LINE
8
Layer 1
10
124.000001
20
72.572050
11
123.267950
21
71.839999
0
LINE
8
Layer 1
10
123.267950
20
71.839999
11
123.000001
21
70.839999
0
LINE
8
Layer 1
10
123.000001
20
70.839999
11
123.000001
21
70.839999
0
LINE
8
Layer 1
10
12.999998
20
70.837909
11
13.267947
21
69.837909
0
LINE
8
Layer 1
10
13.267947
20
69.837909
11
13.999998
21
69.105858
0
LINE
8
Layer 1
10
13.999998
20
69.105858
11
14.999998
21
68.837909
0
LINE
8
Layer 1
10
14.999998
20
68.837909
11
15.999998
21
69.105858
0
LINE
8
Layer 1
10
15.999998
20
69.105858
11
16.732049
21
69.837909
0
LINE
8
Layer 1
10
16.732049
20
69.837909
11
16.999998
21
70.837909
0
LINE
8
Layer 1
10
16.999998
20
70.837909
11
16.732049
21
71.837909
0
LINE
8
Layer 1
10
16.732049
20
71.837909
11
15.999998
21
72.569960
0
LINE
8
Layer 1
10
15.999998
20
72.569960
11
14.999998
21
72.837909
0
LINE
8
Layer 1
10
14.999998
20
72.837909
11
13.999998
21
72.569960
0
LINE
8
Layer 1
10
13.999998
20
72.569960
11
13.267947
21
71.837909
0
LINE
8
Layer 1
10
13.267947
20
71.837909
11
12.999998
21
70.837909
0
LINE
8
Layer 1
10
12.999998
20
70.837909
11
12.999998
21
70.837909
 0 
ENDSEC
 0 
EOF