%TF.GenerationSoftware,KiCad,Pcbnew,9.0.7*%
%TF.CreationDate,2026-02-27T12:26:58-03:00*%
%TF.ProjectId,RescueLineRobot,52657363-7565-44c6-996e-65526f626f74,rev?*%
%TF.SameCoordinates,Original*%
%TF.FileFunction,Copper,L2,Bot*%
%TF.FilePolarity,Positive*%
%FSLAX46Y46*%
G04 Gerber Fmt 4.6, Leading zero omitted, Abs format (unit mm)*
G04 Created by KiCad (PCBNEW 9.0.7) date 2026-02-27 12:26:58*
%MOMM*%
%LPD*%
G01*
G04 APERTURE LIST*
G04 Aperture macros list*
%AMRoundRect*
0 Rectangle with rounded corners*
0 $1 Rounding radius*
0 $2 $3 $4 $5 $6 $7 $8 $9 X,Y pos of 4 corners*
0 Add a 4 corners polygon primitive as box body*
4,1,4,$2,$3,$4,$5,$6,$7,$8,$9,$2,$3,0*
0 Add four circle primitives for the rounded corners*
1,1,$1+$1,$2,$3*
1,1,$1+$1,$4,$5*
1,1,$1+$1,$6,$7*
1,1,$1+$1,$8,$9*
0 Add four rect primitives between the rounded corners*
20,1,$1+$1,$2,$3,$4,$5,0*
20,1,$1+$1,$4,$5,$6,$7,0*
20,1,$1+$1,$6,$7,$8,$9,0*
20,1,$1+$1,$8,$9,$2,$3,0*%
G04 Aperture macros list end*
%TA.AperFunction,ComponentPad*%
%ADD10R,1.700000X1.700000*%
%TD*%
%TA.AperFunction,ComponentPad*%
%ADD11C,1.700000*%
%TD*%
%TA.AperFunction,ComponentPad*%
%ADD12O,1.950000X1.700000*%
%TD*%
%TA.AperFunction,ComponentPad*%
%ADD13RoundRect,0.250000X0.725000X-0.600000X0.725000X0.600000X-0.725000X0.600000X-0.725000X-0.600000X0*%
%TD*%
%TA.AperFunction,ComponentPad*%
%ADD14O,1.850000X3.048000*%
%TD*%
%TA.AperFunction,ComponentPad*%
%ADD15R,1.950000X1.700000*%
%TD*%
%TA.AperFunction,ComponentPad*%
%ADD16RoundRect,0.250000X-0.725000X0.600000X-0.725000X-0.600000X0.725000X-0.600000X0.725000X0.600000X0*%
%TD*%
%TA.AperFunction,ComponentPad*%
%ADD17RoundRect,0.250000X-0.600000X-0.725000X0.600000X-0.725000X0.600000X0.725000X-0.600000X0.725000X0*%
%TD*%
%TA.AperFunction,ComponentPad*%
%ADD18O,1.700000X1.950000*%
%TD*%
%TA.AperFunction,ComponentPad*%
%ADD19RoundRect,0.250000X0.750000X-0.600000X0.750000X0.600000X-0.750000X0.600000X-0.750000X-0.600000X0*%
%TD*%
%TA.AperFunction,ComponentPad*%
%ADD20O,2.000000X1.700000*%
%TD*%
%TA.AperFunction,ComponentPad*%
%ADD21C,1.980000*%
%TD*%
%TA.AperFunction,ComponentPad*%
%ADD22R,1.980000X1.980000*%
%TD*%
%TA.AperFunction,ComponentPad*%
%ADD23R,2.000000X2.000000*%
%TD*%
%TA.AperFunction,ComponentPad*%
%ADD24C,2.000000*%
%TD*%
%TA.AperFunction,ComponentPad*%
%ADD25C,2.400000*%
%TD*%
%TA.AperFunction,ComponentPad*%
%ADD26O,2.400000X2.400000*%
%TD*%
%TA.AperFunction,ViaPad*%
%ADD27C,0.600000*%
%TD*%
%TA.AperFunction,Conductor*%
%ADD28C,0.600000*%
%TD*%
%TA.AperFunction,Conductor*%
%ADD29C,0.400000*%
%TD*%
%TA.AperFunction,Conductor*%
%ADD30C,0.440000*%
%TD*%
%TA.AperFunction,Conductor*%
%ADD31C,0.200000*%
%TD*%
%TA.AperFunction,Conductor*%
%ADD32C,1.000000*%
%TD*%
G04 APERTURE END LIST*
D10*
%TO.P,I2C1,1,Pin_1*%
%TO.N,5V*%
X128475000Y-60050000D03*
D11*
%TO.P,I2C1,5*%
%TO.N,N/C*%
X125935000Y-60050000D03*
%TO.P,I2C1,2,Pin_2*%
%TO.N,GND*%
X128475000Y-62590000D03*
%TO.P,I2C1,6*%
%TO.N,N/C*%
X125935000Y-62590000D03*
%TO.P,I2C1,3,Pin_3*%
%TO.N,D22*%
X128475000Y-65130000D03*
%TO.P,I2C1,7*%
%TO.N,N/C*%
X125935000Y-65130000D03*
%TO.P,I2C1,4,Pin_4*%
%TO.N,D21*%
X128475000Y-67670000D03*
%TO.P,I2C1,8*%
%TO.N,N/C*%
X125935000Y-67670000D03*
%TD*%
D12*
%TO.P,SigueLineas1,11,Pin_11*%
%TO.N,D36*%
X60250000Y-88650000D03*
%TO.P,SigueLineas1,10,Pin_10*%
%TO.N,D39*%
X60250000Y-91150000D03*
%TO.P,SigueLineas1,9,Pin_9*%
%TO.N,D34*%
X60250000Y-93650000D03*
%TO.P,SigueLineas1,8,Pin_8*%
%TO.N,D35*%
X60250000Y-96150000D03*
%TO.P,SigueLineas1,7,Pin_7*%
%TO.N,D32*%
X60250000Y-98650000D03*
%TO.P,SigueLineas1,6,Pin_6*%
%TO.N,D33*%
X60250000Y-101150000D03*
%TO.P,SigueLineas1,5,Pin_5*%
%TO.N,D25*%
X60250000Y-103650000D03*
%TO.P,SigueLineas1,4,Pin_4*%
%TO.N,D26*%
X60250000Y-106150000D03*
%TO.P,SigueLineas1,3,Pin_3*%
%TO.N,D27*%
X60250000Y-108650000D03*
%TO.P,SigueLineas1,2,Pin_2*%
%TO.N,5V*%
X60250000Y-111150000D03*
D13*
%TO.P,SigueLineas1,1,Pin_1*%
%TO.N,GND*%
X60250000Y-113650000D03*
%TD*%
D11*
%TO.P,SERVOPOWER1,3,Pin_3*%
%TO.N,7V4*%
X117500000Y-100310000D03*
%TO.P,SERVOPOWER1,2,Pin_2*%
%TO.N,ServoV*%
X117500000Y-97770000D03*
D10*
%TO.P,SERVOPOWER1,1,Pin_1*%
%TO.N,5V*%
X117500000Y-95230000D03*
%TD*%
D14*
%TO.P,Boton1,2,2*%
%TO.N,5V*%
X120500000Y-137260000D03*
X120500000Y-124760000D03*
%TO.P,Boton1,1,1*%
%TO.N,D12*%
X125500000Y-137260000D03*
X125500000Y-124760000D03*
%TD*%
D12*
%TO.P,I2C4,1,Pin_1*%
%TO.N,5V*%
X128500000Y-104575000D03*
D15*
%TO.P,I2C4,2,Pin_2*%
%TO.N,GND*%
X128500000Y-107075000D03*
D12*
%TO.P,I2C4,3,Pin_3*%
%TO.N,D22*%
X128500000Y-109575000D03*
%TO.P,I2C4,4,Pin_4*%
%TO.N,D21*%
X128500000Y-112075000D03*
%TD*%
D16*
%TO.P,EncoderB1,1,Pin_1*%
%TO.N,GND*%
X107350000Y-131450000D03*
D12*
%TO.P,EncoderB1,2,Pin_2*%
%TO.N,D14*%
X107350000Y-133950000D03*
%TO.P,EncoderB1,3,Pin_3*%
%TO.N,5V*%
X107350000Y-136450000D03*
%TD*%
%TO.P,I2C3,1,Pin_1*%
%TO.N,5V*%
X128500000Y-90000000D03*
D15*
%TO.P,I2C3,2,Pin_2*%
%TO.N,GND*%
X128500000Y-92500000D03*
D12*
%TO.P,I2C3,3,Pin_3*%
%TO.N,D22*%
X128500000Y-95000000D03*
%TO.P,I2C3,4,Pin_4*%
%TO.N,D21*%
X128500000Y-97500000D03*
%TD*%
D16*
%TO.P,EncoderA1,1,Pin_1*%
%TO.N,GND*%
X107500000Y-117500000D03*
D12*
%TO.P,EncoderA1,2,Pin_2*%
%TO.N,D13*%
X107500000Y-120000000D03*
%TO.P,EncoderA1,3,Pin_3*%
%TO.N,5V*%
X107500000Y-122500000D03*
%TD*%
D16*
%TO.P,I2C2,1,Pin_1*%
%TO.N,5V*%
X128500000Y-75300000D03*
D12*
%TO.P,I2C2,2,Pin_2*%
%TO.N,GND*%
X128500000Y-77800000D03*
%TO.P,I2C2,3,Pin_3*%
%TO.N,D22*%
X128500000Y-80300000D03*
%TO.P,I2C2,4,Pin_4*%
%TO.N,D21*%
X128500000Y-82800000D03*
%TD*%
D17*
%TO.P,Bateria1,1,Pin_1*%
%TO.N,VIN*%
X94000000Y-139000000D03*
D18*
%TO.P,Bateria1,2,Pin_2*%
%TO.N,unconnected-(Bateria1-Pin_2-Pad2)*%
X96500000Y-139000000D03*
%TO.P,Bateria1,3,Pin_3*%
%TO.N,GND*%
X99000000Y-139000000D03*
%TD*%
D19*
%TO.P,MotorA1,1,Pin_1*%
%TO.N,Net-(MotorA1-Pin_1)*%
X81160000Y-122700000D03*
D20*
%TO.P,MotorA1,2,Pin_2*%
%TO.N,Net-(MotorA1-Pin_2)*%
X81160000Y-120200000D03*
%TD*%
D16*
%TO.P,SERVO1,1,Pin_1*%
%TO.N,GND*%
X117500000Y-106050000D03*
D12*
%TO.P,SERVO1,2,Pin_2*%
%TO.N,ServoV*%
X117500000Y-108550000D03*
%TO.P,SERVO1,3,Pin_3*%
%TO.N,D23*%
X117500000Y-111050000D03*
%TD*%
D11*
%TO.P,Convertidor1,1,Pin_1*%
%TO.N,5V*%
X66920000Y-128540000D03*
D10*
%TO.P,Convertidor1,2,Pin_2*%
%TO.N,GND*%
X69460000Y-128540000D03*
D11*
%TO.P,Convertidor1,3,Pin_3*%
%TO.N,7V4*%
X72000000Y-128540000D03*
%TO.P,Convertidor1,4,Pin_4*%
%TO.N,unconnected-(Convertidor1-Pin_4-Pad4)*%
X66920000Y-126000000D03*
%TO.P,Convertidor1,5,Pin_5*%
%TO.N,unconnected-(Convertidor1-Pin_5-Pad5)*%
X69460000Y-126000000D03*
%TO.P,Convertidor1,6,Pin_6*%
%TO.N,unconnected-(Convertidor1-Pin_6-Pad6)*%
X72000000Y-126000000D03*
%TD*%
D21*
%TO.P,TB6612FNG1,1,VM*%
%TO.N,7V4*%
X87300000Y-108240000D03*
%TO.P,TB6612FNG1,2,VCC*%
%TO.N,3V3*%
X89840000Y-108240000D03*
D22*
%TO.P,TB6612FNG1,3,GND*%
%TO.N,GND*%
X92380000Y-108240000D03*
D21*
%TO.P,TB6612FNG1,4,A01*%
%TO.N,Net-(MotorA1-Pin_1)*%
X94920000Y-108240000D03*
%TO.P,TB6612FNG1,5,A02*%
%TO.N,Net-(MotorA1-Pin_2)*%
X97460000Y-108240000D03*
%TO.P,TB6612FNG1,6,B02*%
%TO.N,Net-(MotorB1-Pin_1)*%
X100000000Y-108240000D03*
%TO.P,TB6612FNG1,7,B01*%
%TO.N,Net-(MotorB1-Pin_2)*%
X102540000Y-108240000D03*
D22*
%TO.P,TB6612FNG1,8,GND*%
%TO.N,GND*%
X105080000Y-108240000D03*
%TO.P,TB6612FNG1,9,GND*%
X105080000Y-93000000D03*
D21*
%TO.P,TB6612FNG1,10,PWMB*%
%TO.N,D19*%
X102540000Y-93000000D03*
%TO.P,TB6612FNG1,11,BI2*%
%TO.N,D18*%
X100000000Y-93000000D03*
%TO.P,TB6612FNG1,12,BI1*%
%TO.N,D5*%
X97460000Y-93000000D03*
%TO.P,TB6612FNG1,13,STBY*%
%TO.N,3V3*%
X94920000Y-93000000D03*
%TO.P,TB6612FNG1,14,AI1*%
%TO.N,D17*%
X92380000Y-93000000D03*
%TO.P,TB6612FNG1,15,AI2*%
%TO.N,D16*%
X89840000Y-93000000D03*
%TO.P,TB6612FNG1,16,PWMA*%
%TO.N,D4*%
X87300000Y-93000000D03*
%TD*%
D17*
%TO.P,Switch1,1,Pin_1*%
%TO.N,unconnected-(Switch1-Pin_1-Pad1)*%
X81500000Y-139000000D03*
D18*
%TO.P,Switch1,2,Pin_2*%
%TO.N,VIN*%
X84000000Y-139000000D03*
%TO.P,Switch1,3,Pin_3*%
%TO.N,7V4*%
X86500000Y-139000000D03*
%TD*%
D19*
%TO.P,MotorB1,1,Pin_1*%
%TO.N,Net-(MotorB1-Pin_1)*%
X91500000Y-122750000D03*
D20*
%TO.P,MotorB1,2,Pin_2*%
%TO.N,Net-(MotorB1-Pin_2)*%
X91500000Y-120250000D03*
%TD*%
D23*
%TO.P,Esp32,1,3V3*%
%TO.N,3V3*%
X80000000Y-80200000D03*
D24*
%TO.P,Esp32,2,GND*%
%TO.N,GND*%
X82540000Y-80200000D03*
%TO.P,Esp32,3,D15*%
%TO.N,unconnected-(Esp32-D15-Pad3)*%
X85080000Y-80200000D03*
%TO.P,Esp32,4,D2*%
%TO.N,unconnected-(Esp32-D2-Pad4)*%
X87620000Y-80200000D03*
%TO.P,Esp32,5,D4*%
%TO.N,D4*%
X90160000Y-80200000D03*
%TO.P,Esp32,6,RX2*%
%TO.N,D16*%
X92700000Y-80200000D03*
%TO.P,Esp32,7,TX2*%
%TO.N,D17*%
X95240000Y-80200000D03*
%TO.P,Esp32,8,D5*%
%TO.N,D5*%
X97780000Y-80200000D03*
%TO.P,Esp32,9,D18*%
%TO.N,D18*%
X100320000Y-80200000D03*
%TO.P,Esp32,10,D19*%
%TO.N,D19*%
X102860000Y-80200000D03*
%TO.P,Esp32,11,D21*%
%TO.N,D21*%
X105400000Y-80200000D03*
%TO.P,Esp32,12,RX0*%
%TO.N,unconnected-(Esp32-RX0-Pad12)*%
X107940000Y-80200000D03*
%TO.P,Esp32,13,TX0*%
%TO.N,unconnected-(Esp32-TX0-Pad13)*%
X110480000Y-80200000D03*
%TO.P,Esp32,14,D22*%
%TO.N,D22*%
X113020000Y-80200000D03*
%TO.P,Esp32,15,D23*%
%TO.N,D23*%
X115560000Y-80200000D03*
%TO.P,Esp32,16,EN*%
%TO.N,unconnected-(Esp32-EN-Pad16)*%
X115560000Y-54800000D03*
%TO.P,Esp32,17,VP*%
%TO.N,D36*%
X113020000Y-54800000D03*
%TO.P,Esp32,18,VN*%
%TO.N,D39*%
X110480000Y-54800000D03*
%TO.P,Esp32,19,D34*%
%TO.N,D34*%
X107940000Y-54800000D03*
%TO.P,Esp32,20,D35*%
%TO.N,D35*%
X105400000Y-54800000D03*
%TO.P,Esp32,21,D32*%
%TO.N,D32*%
X102860000Y-54800000D03*
%TO.P,Esp32,22,D33*%
%TO.N,D33*%
X100320000Y-54800000D03*
%TO.P,Esp32,23,D25*%
%TO.N,D25*%
X97780000Y-54800000D03*
%TO.P,Esp32,24,D26*%
%TO.N,D26*%
X95240000Y-54800000D03*
%TO.P,Esp32,25,D27*%
%TO.N,D27*%
X92700000Y-54800000D03*
%TO.P,Esp32,26,D14*%
%TO.N,D14*%
X90160000Y-54800000D03*
%TO.P,Esp32,27,D12*%
%TO.N,D12*%
X87620000Y-54800000D03*
%TO.P,Esp32,28,D13*%
%TO.N,D13*%
X85080000Y-54800000D03*
%TO.P,Esp32,29,GND*%
%TO.N,GND*%
X82540000Y-54800000D03*
%TO.P,Esp32,30,VIN*%
%TO.N,5V*%
X80000000Y-54800000D03*
%TD*%
D25*
%TO.P,Resistencia1,1*%
%TO.N,GND*%
X82500000Y-66000000D03*
D26*
%TO.P,Resistencia1,2*%
%TO.N,D12*%
X107900000Y-66000000D03*
%TD*%
D27*
%TO.N,GND*%
X123400000Y-54350000D03*
X92000000Y-131500000D03*
X86550000Y-85000000D03*
%TO.N,D12*%
X91500000Y-57750000D03*
X121750000Y-94000000D03*
X118000000Y-82750000D03*
%TO.N,D13*%
X112000000Y-87250000D03*
%TO.N,D14*%
X85000000Y-58000000D03*
%TD*%
D28*
%TO.N,GND*%
X133250000Y-60250000D02*
X133250000Y-75775000D01*
X128475000Y-62550000D02*
X130950000Y-62550000D01*
X130950000Y-62550000D02*
X133250000Y-60250000D01*
X133250000Y-58250000D02*
X133250000Y-60250000D01*
X129350000Y-54350000D02*
X133250000Y-58250000D01*
X123400000Y-54350000D02*
X129350000Y-54350000D01*
D29*
%TO.N,D21*%
X105400000Y-85350000D02*
X105400000Y-80200000D01*
X108700000Y-88650000D02*
X105400000Y-85350000D01*
X122550000Y-84200000D02*
X118100000Y-88650000D01*
X118100000Y-88650000D02*
X108700000Y-88650000D01*
X122550000Y-73175000D02*
X122550000Y-84200000D01*
X122725000Y-73000000D02*
X122550000Y-73175000D01*
X122725000Y-73000000D02*
X123725000Y-72000000D01*
X125225000Y-70500000D02*
X123725000Y-72000000D01*
X127000000Y-70500000D02*
X125225000Y-70500000D01*
X128475000Y-69025000D02*
X128475000Y-67550000D01*
X127000000Y-70500000D02*
X128475000Y-69025000D01*
%TO.N,D27*%
X64650000Y-108650000D02*
X60250000Y-108650000D01*
X74800000Y-98500000D02*
X64650000Y-108650000D01*
X74800000Y-98500000D02*
X74800000Y-53050000D01*
%TO.N,D26*%
X73500000Y-97000000D02*
X64350000Y-106150000D01*
X64350000Y-106150000D02*
X60250000Y-106150000D01*
%TO.N,D25*%
X72150000Y-95500000D02*
X64000000Y-103650000D01*
X64000000Y-103650000D02*
X60250000Y-103650000D01*
%TO.N,D33*%
X63350000Y-101150000D02*
X60250000Y-101150000D01*
X71000000Y-93500000D02*
X63350000Y-101150000D01*
D30*
%TO.N,D32*%
X69700000Y-92500000D02*
X63550000Y-98650000D01*
X63550000Y-98650000D02*
X60250000Y-98650000D01*
D29*
%TO.N,D35*%
X63100000Y-96150000D02*
X60250000Y-96150000D01*
X68250000Y-91000000D02*
X63100000Y-96150000D01*
%TO.N,D34*%
X62450000Y-93650000D02*
X60250000Y-93650000D01*
X67100000Y-89000000D02*
X62450000Y-93650000D01*
X67100000Y-89000000D02*
X67100000Y-49450000D01*
%TO.N,D39*%
X62000000Y-91150000D02*
X60250000Y-91150000D01*
X65650000Y-87500000D02*
X62000000Y-91150000D01*
%TO.N,D36*%
X62050000Y-88650000D02*
X60250000Y-88650000D01*
X64200000Y-86500000D02*
X62050000Y-88650000D01*
X64200000Y-83500000D02*
X64200000Y-86500000D01*
%TO.N,D21*%
X126575000Y-112075000D02*
X128500000Y-112075000D01*
X123725000Y-85300000D02*
X123725000Y-72000000D01*
X123725000Y-85300000D02*
X126225000Y-82800000D01*
X123500000Y-93250000D02*
X127750000Y-97500000D01*
X123500000Y-78250000D02*
X123500000Y-93250000D01*
X127750000Y-97500000D02*
X128500000Y-97500000D01*
X123500000Y-109000000D02*
X126575000Y-112075000D01*
X126225000Y-82800000D02*
X128500000Y-82800000D01*
X123500000Y-93250000D02*
X123500000Y-109000000D01*
D28*
%TO.N,Net-(MotorA1-Pin_1)*%
X84000000Y-116500000D02*
X81000000Y-119500000D01*
X81000000Y-119500000D02*
X81000000Y-122000000D01*
X89000000Y-116500000D02*
X84000000Y-116500000D01*
X94920000Y-110580000D02*
X89000000Y-116500000D01*
X94920000Y-108240000D02*
X94920000Y-110580000D01*
%TO.N,Net-(MotorA1-Pin_2)*%
X97460000Y-110290000D02*
X89500000Y-118250000D01*
X86250000Y-118250000D02*
X83700000Y-120800000D01*
X97460000Y-108240000D02*
X97460000Y-110290000D01*
X83700000Y-120800000D02*
X83700000Y-122000000D01*
D31*
X83700000Y-122000000D02*
X83500000Y-122000000D01*
D28*
X89500000Y-118250000D02*
X86250000Y-118250000D01*
%TO.N,Net-(MotorB1-Pin_2)*%
X102540000Y-109960000D02*
X94000000Y-118500000D01*
X102540000Y-108240000D02*
X102540000Y-109960000D01*
X94000000Y-118500000D02*
X94000000Y-122000000D01*
%TO.N,Net-(MotorB1-Pin_1)*%
X100000000Y-108240000D02*
X100000000Y-110000000D01*
X100000000Y-110000000D02*
X91500000Y-118500000D01*
X91500000Y-118500000D02*
X91500000Y-122000000D01*
%TO.N,GND*%
X86500000Y-85000000D02*
X86550000Y-85000000D01*
X110500000Y-129750000D02*
X110500000Y-119750000D01*
X82540000Y-56960000D02*
X82540000Y-54800000D01*
D29*
X110475000Y-106025000D02*
X108250000Y-108250000D01*
X107740000Y-108240000D02*
X105080000Y-108240000D01*
D31*
X82540000Y-80200000D02*
X82540000Y-81040000D01*
D28*
X133250000Y-75775000D02*
X131225000Y-77800000D01*
X130925000Y-107075000D02*
X128500000Y-107075000D01*
X110500000Y-119750000D02*
X108250000Y-117500000D01*
D32*
X69460000Y-130540000D02*
X69460000Y-128540000D01*
D28*
X105080000Y-88580000D02*
X105080000Y-93000000D01*
X133250000Y-104750000D02*
X130925000Y-107075000D01*
D32*
X63500000Y-133500000D02*
X66500000Y-133500000D01*
D28*
X133250000Y-89750000D02*
X133250000Y-75775000D01*
X107350000Y-131450000D02*
X108800000Y-131450000D01*
X133250000Y-89750000D02*
X130500000Y-92500000D01*
D32*
X61500000Y-131500000D02*
X63500000Y-133500000D01*
X73500000Y-122500000D02*
X64500000Y-122500000D01*
D28*
X108800000Y-131450000D02*
X110500000Y-129750000D01*
X108250000Y-117500000D02*
X107500000Y-117500000D01*
D32*
X82500000Y-131500000D02*
X73500000Y-122500000D01*
D29*
X118025000Y-106025000D02*
X110475000Y-106025000D01*
D32*
X92000000Y-131500000D02*
X82500000Y-131500000D01*
D28*
X131225000Y-77800000D02*
X128500000Y-77800000D01*
X82540000Y-81040000D02*
X86500000Y-85000000D01*
D32*
X66500000Y-133500000D02*
X69460000Y-130540000D01*
X64500000Y-122500000D02*
X61500000Y-125500000D01*
X61500000Y-125500000D02*
X61500000Y-131500000D01*
D29*
X107750000Y-108250000D02*
X108250000Y-108250000D01*
D28*
X101500000Y-85000000D02*
X105080000Y-88580000D01*
X86550000Y-85000000D02*
X101500000Y-85000000D01*
X133250000Y-89750000D02*
X133250000Y-104750000D01*
D31*
X107740000Y-108240000D02*
X107750000Y-108250000D01*
D28*
X130500000Y-92500000D02*
X128500000Y-92500000D01*
D29*
%TO.N,D12*%
X87620000Y-56620000D02*
X87620000Y-54800000D01*
X121750000Y-94000000D02*
X121750000Y-118750000D01*
X88750000Y-57750000D02*
X87620000Y-56620000D01*
X125500000Y-122500000D02*
X125500000Y-124760000D01*
X121750000Y-118750000D02*
X125500000Y-122500000D01*
X107900000Y-66000000D02*
X113250000Y-66000000D01*
X113250000Y-66000000D02*
X118000000Y-70750000D01*
X91500000Y-57750000D02*
X88750000Y-57750000D01*
X118000000Y-70750000D02*
X118000000Y-82750000D01*
%TO.N,D13*%
X85080000Y-56580000D02*
X85080000Y-54800000D01*
X113000000Y-86250000D02*
X116750000Y-86250000D01*
X88000000Y-59500000D02*
X85080000Y-56580000D01*
X120750000Y-82250000D02*
X120750000Y-64500000D01*
X112000000Y-87250000D02*
X113000000Y-86250000D01*
X120750000Y-64500000D02*
X115750000Y-59500000D01*
X115750000Y-59500000D02*
X88000000Y-59500000D01*
X116750000Y-86250000D02*
X120750000Y-82250000D01*
%TO.N,D14*%
X107500000Y-133970000D02*
X102970000Y-133970000D01*
X77750000Y-65250000D02*
X85000000Y-58000000D01*
X81500000Y-128500000D02*
X77500000Y-124500000D01*
X97500000Y-128500000D02*
X81500000Y-128500000D01*
X102970000Y-133970000D02*
X97500000Y-128500000D01*
X77500000Y-89500000D02*
X77500000Y-83000000D01*
X77500000Y-124500000D02*
X77500000Y-89500000D01*
X77500000Y-65500000D02*
X77750000Y-65250000D01*
X77500000Y-83000000D02*
X77500000Y-65500000D01*
%TO.N,D26*%
X74700000Y-50100000D02*
X73500000Y-51300000D01*
X73500000Y-51300000D02*
X73500000Y-97000000D01*
X95240000Y-54800000D02*
X95240000Y-51340000D01*
X95240000Y-51340000D02*
X94000000Y-50100000D01*
X94000000Y-50100000D02*
X74700000Y-50100000D01*
%TO.N,D39*%
X72100000Y-42900000D02*
X65650000Y-49350000D01*
X110480000Y-47080000D02*
X106300000Y-42900000D01*
X110480000Y-54800000D02*
X110480000Y-47080000D01*
X65650000Y-49350000D02*
X65650000Y-87500000D01*
X106300000Y-42900000D02*
X72100000Y-42900000D01*
%TO.N,3V3*%
X80000000Y-83500000D02*
X80000000Y-80200000D01*
X94920000Y-89080000D02*
X94920000Y-93000000D01*
X92840000Y-87000000D02*
X83500000Y-87000000D01*
X94920000Y-89080000D02*
X92840000Y-87000000D01*
X83500000Y-110000000D02*
X85000000Y-111500000D01*
X85000000Y-111500000D02*
X88250000Y-111500000D01*
X88250000Y-111500000D02*
X89840000Y-109910000D01*
X83500000Y-87000000D02*
X83500000Y-110000000D01*
X89840000Y-109910000D02*
X89840000Y-108240000D01*
X83500000Y-87000000D02*
X80000000Y-83500000D01*
%TO.N,D35*%
X68250000Y-49750000D02*
X68250000Y-91000000D01*
X103050000Y-45200000D02*
X72800000Y-45200000D01*
X105400000Y-47550000D02*
X103050000Y-45200000D01*
X72800000Y-45200000D02*
X68250000Y-49750000D01*
X105400000Y-54800000D02*
X105400000Y-47550000D01*
%TO.N,D36*%
X113020000Y-47570000D02*
X107300000Y-41850000D01*
X113020000Y-54800000D02*
X113020000Y-47570000D01*
X64200000Y-49550000D02*
X64200000Y-83500000D01*
X71900000Y-41850000D02*
X64200000Y-49550000D01*
X107300000Y-41850000D02*
X71900000Y-41850000D01*
%TO.N,D34*%
X72550000Y-44000000D02*
X104900000Y-44000000D01*
X67100000Y-49450000D02*
X72550000Y-44000000D01*
X107940000Y-47040000D02*
X107940000Y-54800000D01*
X104900000Y-44000000D02*
X107940000Y-47040000D01*
%TO.N,D32*%
X102860000Y-54800000D02*
X102860000Y-48440000D01*
X73300000Y-46300000D02*
X69700000Y-49900000D01*
X102860000Y-47810000D02*
X101350000Y-46300000D01*
D30*
X69700000Y-49900000D02*
X69700000Y-92500000D01*
D29*
X102860000Y-48440000D02*
X102860000Y-47810000D01*
D31*
X102860000Y-48440000D02*
X102900000Y-48400000D01*
D29*
X101350000Y-46300000D02*
X73300000Y-46300000D01*
%TO.N,D25*%
X97780000Y-54800000D02*
X97780000Y-50330000D01*
X97780000Y-50330000D02*
X96300000Y-48850000D01*
X73950000Y-48850000D02*
X72150000Y-50650000D01*
X96300000Y-48850000D02*
X73950000Y-48850000D01*
X72150000Y-50650000D02*
X72150000Y-95500000D01*
%TO.N,D33*%
X73700000Y-47350000D02*
X71000000Y-50050000D01*
X100320000Y-48670000D02*
X99000000Y-47350000D01*
X100320000Y-54800000D02*
X100320000Y-48670000D01*
X99000000Y-47350000D02*
X73700000Y-47350000D01*
X71000000Y-50050000D02*
X71000000Y-93500000D01*
%TO.N,D27*%
X74800000Y-53050000D02*
X76550000Y-51300000D01*
X76550000Y-51300000D02*
X91800000Y-51300000D01*
X92700000Y-52200000D02*
X92700000Y-54800000D01*
X91800000Y-51300000D02*
X92700000Y-52200000D01*
D28*
%TO.N,7V4*%
X87300000Y-104200000D02*
X91190000Y-100310000D01*
X87300000Y-108240000D02*
X87300000Y-104200000D01*
D32*
X75500000Y-142000000D02*
X72000000Y-138500000D01*
D28*
X91190000Y-100310000D02*
X117500000Y-100310000D01*
D32*
X72000000Y-138500000D02*
X72000000Y-128540000D01*
X86500000Y-140500000D02*
X85000000Y-142000000D01*
X86500000Y-139000000D02*
X86500000Y-140500000D01*
X85000000Y-142000000D02*
X75500000Y-142000000D01*
%TD*%
M02*
