M48
; DRILL file {KiCad 9.0.7} date 2026-02-27T12:26:54-0300
; FORMAT={-:-/ absolute / metric / decimal}
; #@! TF.CreationDate,2026-02-27T12:26:54-03:00
; #@! TF.GenerationSoftware,Kicad,Pcbnew,9.0.7
; #@! TF.FileFunction,Plated,1,2,PTH
FMAT,2
METRIC
; #@! TA.AperFunction,Plated,PTH,ViaDrill
T1C0.300
; #@! TA.AperFunction,Plated,PTH,ComponentDrill
T2C0.950
; #@! TA.AperFunction,Plated,PTH,ComponentDrill
T3C1.000
; #@! TA.AperFunction,Plated,PTH,ComponentDrill
T4C1.020
; #@! TA.AperFunction,Plated,PTH,ComponentDrill
T5C1.200
; #@! TA.AperFunction,Plated,PTH,ComponentDrill
T6C1.300
; #@! TA.AperFunction,Plated,PTH,ComponentDrill
T7C1.320
%
G90
G05
T1
X85.0Y-58.0
X86.55Y-85.0
X91.5Y-57.75
X92.0Y-131.5
X112.0Y-87.25
X118.0Y-82.75
X121.75Y-94.0
X123.4Y-54.35
T2
X60.25Y-88.65
X60.25Y-91.15
X60.25Y-93.65
X60.25Y-96.15
X60.25Y-98.65
X60.25Y-101.15
X60.25Y-103.65
X60.25Y-106.15
X60.25Y-108.65
X60.25Y-111.15
X60.25Y-113.65
X81.5Y-139.0
X84.0Y-139.0
X86.5Y-139.0
X94.0Y-139.0
X96.5Y-139.0
X99.0Y-139.0
X107.35Y-131.45
X107.35Y-133.95
X107.35Y-136.45
X107.5Y-117.5
X107.5Y-120.0
X107.5Y-122.5
X117.5Y-106.05
X117.5Y-108.55
X117.5Y-111.05
X128.5Y-75.3
X128.5Y-77.8
X128.5Y-80.3
X128.5Y-82.8
X128.5Y-90.0
X128.5Y-92.5
X128.5Y-95.0
X128.5Y-97.5
X128.5Y-104.575
X128.5Y-107.075
X128.5Y-109.575
X128.5Y-112.075
T3
X66.92Y-126.0
X66.92Y-128.54
X69.46Y-126.0
X69.46Y-128.54
X72.0Y-126.0
X72.0Y-128.54
X81.16Y-120.2
X81.16Y-122.7
X91.5Y-120.25
X91.5Y-122.75
X117.5Y-95.23
X117.5Y-97.77
X117.5Y-100.31
X125.935Y-60.05
X125.935Y-62.59
X125.935Y-65.13
X125.935Y-67.67
X128.475Y-60.05
X128.475Y-62.59
X128.475Y-65.13
X128.475Y-67.67
T4
X80.0Y-54.8
X80.0Y-80.2
X82.54Y-54.8
X82.54Y-80.2
X85.08Y-54.8
X85.08Y-80.2
X87.62Y-54.8
X87.62Y-80.2
X90.16Y-54.8
X90.16Y-80.2
X92.7Y-54.8
X92.7Y-80.2
X95.24Y-54.8
X95.24Y-80.2
X97.78Y-54.8
X97.78Y-80.2
X100.32Y-54.8
X100.32Y-80.2
X102.86Y-54.8
X102.86Y-80.2
X105.4Y-54.8
X105.4Y-80.2
X107.94Y-54.8
X107.94Y-80.2
X110.48Y-54.8
X110.48Y-80.2
X113.02Y-54.8
X113.02Y-80.2
X115.56Y-54.8
X115.56Y-80.2
T5
X82.5Y-66.0
X107.9Y-66.0
T6
X120.5Y-124.76
X120.5Y-137.26
X125.5Y-124.76
X125.5Y-137.26
T7
X87.3Y-93.0
X87.3Y-108.24
X89.84Y-93.0
X89.84Y-108.24
X92.38Y-93.0
X92.38Y-108.24
X94.92Y-93.0
X94.92Y-108.24
X97.46Y-93.0
X97.46Y-108.24
X100.0Y-93.0
X100.0Y-108.24
X102.54Y-93.0
X102.54Y-108.24
X105.08Y-93.0
X105.08Y-108.24
M30
