%TF.GenerationSoftware,KiCad,Pcbnew,9.0.7*%
%TF.CreationDate,2026-02-27T12:26:59-03:00*%
%TF.ProjectId,RescueLineRobot,52657363-7565-44c6-996e-65526f626f74,rev?*%
%TF.SameCoordinates,Original*%
%TF.FileFunction,Soldermask,Top*%
%TF.FilePolarity,Negative*%
%FSLAX46Y46*%
G04 Gerber Fmt 4.6, Leading zero omitted, Abs format (unit mm)*
G04 Created by KiCad (PCBNEW 9.0.7) date 2026-02-27 12:26:59*
%MOMM*%
%LPD*%
G01*
G04 APERTURE LIST*
G04 Aperture macros list*
%AMRoundRect*
0 Rectangle with rounded corners*
0 $1 Rounding radius*
0 $2 $3 $4 $5 $6 $7 $8 $9 X,Y pos of 4 corners*
0 Add a 4 corners polygon primitive as box body*
4,1,4,$2,$3,$4,$5,$6,$7,$8,$9,$2,$3,0*
0 Add four circle primitives for the rounded corners*
1,1,$1+$1,$2,$3*
1,1,$1+$1,$4,$5*
1,1,$1+$1,$6,$7*
1,1,$1+$1,$8,$9*
0 Add four rect primitives between the rounded corners*
20,1,$1+$1,$2,$3,$4,$5,0*
20,1,$1+$1,$4,$5,$6,$7,0*
20,1,$1+$1,$6,$7,$8,$9,0*
20,1,$1+$1,$8,$9,$2,$3,0*%
G04 Aperture macros list end*
%ADD10R,1.700000X1.700000*%
%ADD11C,1.700000*%
%ADD12O,1.950000X1.700000*%
%ADD13RoundRect,0.250000X0.725000X-0.600000X0.725000X0.600000X-0.725000X0.600000X-0.725000X-0.600000X0*%
%ADD14O,1.850000X3.048000*%
%ADD15R,1.950000X1.700000*%
%ADD16RoundRect,0.250000X-0.725000X0.600000X-0.725000X-0.600000X0.725000X-0.600000X0.725000X0.600000X0*%
%ADD17RoundRect,0.250000X-0.600000X-0.725000X0.600000X-0.725000X0.600000X0.725000X-0.600000X0.725000X0*%
%ADD18O,1.700000X1.950000*%
%ADD19RoundRect,0.250000X0.750000X-0.600000X0.750000X0.600000X-0.750000X0.600000X-0.750000X-0.600000X0*%
%ADD20O,2.000000X1.700000*%
%ADD21C,2.184000*%
%ADD22RoundRect,0.102000X0.990000X-0.990000X0.990000X0.990000X-0.990000X0.990000X-0.990000X-0.990000X0*%
%ADD23RoundRect,0.102000X1.000000X-1.000000X1.000000X1.000000X-1.000000X1.000000X-1.000000X-1.000000X0*%
%ADD24C,2.204000*%
%ADD25C,2.400000*%
%ADD26O,2.400000X2.400000*%
G04 APERTURE END LIST*
D10*
%TO.C,I2C1*%
X128475000Y-60050000D03*
D11*
X125935000Y-60050000D03*
X128475000Y-62590000D03*
X125935000Y-62590000D03*
X128475000Y-65130000D03*
X125935000Y-65130000D03*
X128475000Y-67670000D03*
X125935000Y-67670000D03*
%TD*%
D12*
%TO.C,SigueLineas1*%
X60250000Y-88650000D03*
X60250000Y-91150000D03*
X60250000Y-93650000D03*
X60250000Y-96150000D03*
X60250000Y-98650000D03*
X60250000Y-101150000D03*
X60250000Y-103650000D03*
X60250000Y-106150000D03*
X60250000Y-108650000D03*
X60250000Y-111150000D03*
D13*
X60250000Y-113650000D03*
%TD*%
D11*
%TO.C,SERVOPOWER1*%
X117500000Y-100310000D03*
X117500000Y-97770000D03*
D10*
X117500000Y-95230000D03*
%TD*%
D14*
%TO.C,Boton1*%
X120500000Y-137260000D03*
X120500000Y-124760000D03*
X125500000Y-137260000D03*
X125500000Y-124760000D03*
%TD*%
D12*
%TO.C,I2C4*%
X128500000Y-104575000D03*
D15*
X128500000Y-107075000D03*
D12*
X128500000Y-109575000D03*
X128500000Y-112075000D03*
%TD*%
D16*
%TO.C,EncoderB1*%
X107350000Y-131450000D03*
D12*
X107350000Y-133950000D03*
X107350000Y-136450000D03*
%TD*%
%TO.C,I2C3*%
X128500000Y-90000000D03*
D15*
X128500000Y-92500000D03*
D12*
X128500000Y-95000000D03*
X128500000Y-97500000D03*
%TD*%
D16*
%TO.C,EncoderA1*%
X107500000Y-117500000D03*
D12*
X107500000Y-120000000D03*
X107500000Y-122500000D03*
%TD*%
D16*
%TO.C,I2C2*%
X128500000Y-75300000D03*
D12*
X128500000Y-77800000D03*
X128500000Y-80300000D03*
X128500000Y-82800000D03*
%TD*%
D17*
%TO.C,Bateria1*%
X94000000Y-139000000D03*
D18*
X96500000Y-139000000D03*
X99000000Y-139000000D03*
%TD*%
D19*
%TO.C,MotorA1*%
X81160000Y-122700000D03*
D20*
X81160000Y-120200000D03*
%TD*%
D16*
%TO.C,SERVO1*%
X117500000Y-106050000D03*
D12*
X117500000Y-108550000D03*
X117500000Y-111050000D03*
%TD*%
D11*
%TO.C,Convertidor1*%
X66920000Y-128540000D03*
D10*
X69460000Y-128540000D03*
D11*
X72000000Y-128540000D03*
X66920000Y-126000000D03*
X69460000Y-126000000D03*
X72000000Y-126000000D03*
%TD*%
D21*
%TO.C,TB6612FNG1*%
X87300000Y-108240000D03*
X89840000Y-108240000D03*
D22*
X92380000Y-108240000D03*
D21*
X94920000Y-108240000D03*
X97460000Y-108240000D03*
X100000000Y-108240000D03*
X102540000Y-108240000D03*
D22*
X105080000Y-108240000D03*
X105080000Y-93000000D03*
D21*
X102540000Y-93000000D03*
X100000000Y-93000000D03*
X97460000Y-93000000D03*
X94920000Y-93000000D03*
X92380000Y-93000000D03*
X89840000Y-93000000D03*
X87300000Y-93000000D03*
%TD*%
D17*
%TO.C,Switch1*%
X81500000Y-139000000D03*
D18*
X84000000Y-139000000D03*
X86500000Y-139000000D03*
%TD*%
D19*
%TO.C,MotorB1*%
X91500000Y-122750000D03*
D20*
X91500000Y-120250000D03*
%TD*%
D23*
%TO.C,Esp32*%
X80000000Y-80200000D03*
D24*
X82540000Y-80200000D03*
X85080000Y-80200000D03*
X87620000Y-80200000D03*
X90160000Y-80200000D03*
X92700000Y-80200000D03*
X95240000Y-80200000D03*
X97780000Y-80200000D03*
X100320000Y-80200000D03*
X102860000Y-80200000D03*
X105400000Y-80200000D03*
X107940000Y-80200000D03*
X110480000Y-80200000D03*
X113020000Y-80200000D03*
X115560000Y-80200000D03*
X115560000Y-54800000D03*
X113020000Y-54800000D03*
X110480000Y-54800000D03*
X107940000Y-54800000D03*
X105400000Y-54800000D03*
X102860000Y-54800000D03*
X100320000Y-54800000D03*
X97780000Y-54800000D03*
X95240000Y-54800000D03*
X92700000Y-54800000D03*
X90160000Y-54800000D03*
X87620000Y-54800000D03*
X85080000Y-54800000D03*
X82540000Y-54800000D03*
X80000000Y-54800000D03*
%TD*%
D25*
%TO.C,Resistencia1*%
X82500000Y-66000000D03*
D26*
X107900000Y-66000000D03*
%TD*%
M02*
