%TF.GenerationSoftware,KiCad,Pcbnew,9.0.7*%
%TF.CreationDate,2026-03-05T11:36:29-03:00*%
%TF.ProjectId,RescueLineRobot,52657363-7565-44c6-996e-65526f626f74,rev?*%
%TF.SameCoordinates,Original*%
%TF.FileFunction,Legend,Top*%
%TF.FilePolarity,Positive*%
%FSLAX46Y46*%
G04 Gerber Fmt 4.6, Leading zero omitted, Abs format (unit mm)*
G04 Created by KiCad (PCBNEW 9.0.7) date 2026-03-05 11:36:29*
%MOMM*%
%LPD*%
G01*
G04 APERTURE LIST*
G04 Aperture macros list*
%AMRoundRect*
0 Rectangle with rounded corners*
0 $1 Rounding radius*
0 $2 $3 $4 $5 $6 $7 $8 $9 X,Y pos of 4 corners*
0 Add a 4 corners polygon primitive as box body*
4,1,4,$2,$3,$4,$5,$6,$7,$8,$9,$2,$3,0*
0 Add four circle primitives for the rounded corners*
1,1,$1+$1,$2,$3*
1,1,$1+$1,$4,$5*
1,1,$1+$1,$6,$7*
1,1,$1+$1,$8,$9*
0 Add four rect primitives between the rounded corners*
20,1,$1+$1,$2,$3,$4,$5,0*
20,1,$1+$1,$4,$5,$6,$7,0*
20,1,$1+$1,$6,$7,$8,$9,0*
20,1,$1+$1,$8,$9,$2,$3,0*%
G04 Aperture macros list end*
%ADD10C,0.200000*%
%ADD11C,0.150000*%
%ADD12C,0.120000*%
%ADD13C,0.127000*%
%ADD14C,0.100000*%
%ADD15R,1.700000X1.700000*%
%ADD16C,1.700000*%
%ADD17O,1.950000X1.700000*%
%ADD18R,1.950000X1.700000*%
%ADD19RoundRect,0.250000X-0.725000X0.600000X-0.725000X-0.600000X0.725000X-0.600000X0.725000X0.600000X0*%
%ADD20O,1.850000X3.048000*%
%ADD21RoundRect,0.250000X-0.600000X-0.725000X0.600000X-0.725000X0.600000X0.725000X-0.600000X0.725000X0*%
%ADD22O,1.700000X1.950000*%
%ADD23RoundRect,0.250000X0.750000X-0.600000X0.750000X0.600000X-0.750000X0.600000X-0.750000X-0.600000X0*%
%ADD24O,2.000000X1.700000*%
%ADD25C,2.400000*%
%ADD26O,2.400000X2.400000*%
%ADD27C,2.184000*%
%ADD28RoundRect,0.102000X0.990000X-0.990000X0.990000X0.990000X-0.990000X0.990000X-0.990000X-0.990000X0*%
%ADD29RoundRect,0.102000X1.000000X-1.000000X1.000000X1.000000X-1.000000X1.000000X-1.000000X-1.000000X0*%
%ADD30C,2.204000*%
%ADD31RoundRect,0.250000X0.725000X-0.600000X0.725000X0.600000X-0.725000X0.600000X-0.725000X-0.600000X0*%
G04 APERTURE END LIST*
D10*
X84000000Y-136500000D02*
X84000000Y-135500000D01*
X84000000Y-135500000D02*
X87000000Y-135500000D01*
X87000000Y-135500000D02*
X87000000Y-136500000D01*
D11*
X103419819Y-135063220D02*
X102419819Y-135063220D01*
X102419819Y-135063220D02*
X102419819Y-134825125D01*
X102419819Y-134825125D02*
X102467438Y-134682268D01*
X102467438Y-134682268D02*
X102562676Y-134587030D01*
X102562676Y-134587030D02*
X102657914Y-134539411D01*
X102657914Y-134539411D02*
X102848390Y-134491792D01*
X102848390Y-134491792D02*
X102991247Y-134491792D01*
X102991247Y-134491792D02*
X103181723Y-134539411D01*
X103181723Y-134539411D02*
X103276961Y-134587030D01*
X103276961Y-134587030D02*
X103372200Y-134682268D01*
X103372200Y-134682268D02*
X103419819Y-134825125D01*
X103419819Y-134825125D02*
X103419819Y-135063220D01*
X103419819Y-133539411D02*
X103419819Y-134110839D01*
X103419819Y-133825125D02*
X102419819Y-133825125D01*
X102419819Y-133825125D02*
X102562676Y-133920363D01*
X102562676Y-133920363D02*
X102657914Y-134015601D01*
X102657914Y-134015601D02*
X102705533Y-134110839D01*
X102753152Y-132682268D02*
X103419819Y-132682268D01*
X102372200Y-132920363D02*
X103086485Y-133158458D01*
X103086485Y-133158458D02*
X103086485Y-132539411D01*
X123142438Y-77689411D02*
X123094819Y-77784649D01*
X123094819Y-77784649D02*
X123094819Y-77927506D01*
X123094819Y-77927506D02*
X123142438Y-78070363D01*
X123142438Y-78070363D02*
X123237676Y-78165601D01*
X123237676Y-78165601D02*
X123332914Y-78213220D01*
X123332914Y-78213220D02*
X123523390Y-78260839D01*
X123523390Y-78260839D02*
X123666247Y-78260839D01*
X123666247Y-78260839D02*
X123856723Y-78213220D01*
X123856723Y-78213220D02*
X123951961Y-78165601D01*
X123951961Y-78165601D02*
X124047200Y-78070363D01*
X124047200Y-78070363D02*
X124094819Y-77927506D01*
X124094819Y-77927506D02*
X124094819Y-77832268D01*
X124094819Y-77832268D02*
X124047200Y-77689411D01*
X124047200Y-77689411D02*
X123999580Y-77641792D01*
X123999580Y-77641792D02*
X123666247Y-77641792D01*
X123666247Y-77641792D02*
X123666247Y-77832268D01*
X124094819Y-77213220D02*
X123094819Y-77213220D01*
X123094819Y-77213220D02*
X124094819Y-76641792D01*
X124094819Y-76641792D02*
X123094819Y-76641792D01*
X124094819Y-76165601D02*
X123094819Y-76165601D01*
X123094819Y-76165601D02*
X123094819Y-75927506D01*
X123094819Y-75927506D02*
X123142438Y-75784649D01*
X123142438Y-75784649D02*
X123237676Y-75689411D01*
X123237676Y-75689411D02*
X123332914Y-75641792D01*
X123332914Y-75641792D02*
X123523390Y-75594173D01*
X123523390Y-75594173D02*
X123666247Y-75594173D01*
X123666247Y-75594173D02*
X123856723Y-75641792D01*
X123856723Y-75641792D02*
X123951961Y-75689411D01*
X123951961Y-75689411D02*
X124047200Y-75784649D01*
X124047200Y-75784649D02*
X124094819Y-75927506D01*
X124094819Y-75927506D02*
X124094819Y-76165601D01*
X71836779Y-131869819D02*
X71836779Y-130869819D01*
X72312969Y-131869819D02*
X72312969Y-130869819D01*
X72312969Y-130869819D02*
X72884397Y-131869819D01*
X72884397Y-131869819D02*
X72884397Y-130869819D01*
X73360588Y-131488866D02*
X74122493Y-131488866D01*
X73741540Y-131869819D02*
X73741540Y-131107914D01*
X80527255Y-133869819D02*
X80717731Y-133869819D01*
X80717731Y-133869819D02*
X80812969Y-133917438D01*
X80812969Y-133917438D02*
X80908207Y-134012676D01*
X80908207Y-134012676D02*
X80955826Y-134203152D01*
X80955826Y-134203152D02*
X80955826Y-134536485D01*
X80955826Y-134536485D02*
X80908207Y-134726961D01*
X80908207Y-134726961D02*
X80812969Y-134822200D01*
X80812969Y-134822200D02*
X80717731Y-134869819D01*
X80717731Y-134869819D02*
X80527255Y-134869819D01*
X80527255Y-134869819D02*
X80432017Y-134822200D01*
X80432017Y-134822200D02*
X80336779Y-134726961D01*
X80336779Y-134726961D02*
X80289160Y-134536485D01*
X80289160Y-134536485D02*
X80289160Y-134203152D01*
X80289160Y-134203152D02*
X80336779Y-134012676D01*
X80336779Y-134012676D02*
X80432017Y-133917438D01*
X80432017Y-133917438D02*
X80527255Y-133869819D01*
X81717731Y-134346009D02*
X81384398Y-134346009D01*
X81384398Y-134869819D02*
X81384398Y-133869819D01*
X81384398Y-133869819D02*
X81860588Y-133869819D01*
X82574874Y-134346009D02*
X82241541Y-134346009D01*
X82241541Y-134869819D02*
X82241541Y-133869819D01*
X82241541Y-133869819D02*
X82717731Y-133869819D01*
X102467438Y-131239411D02*
X102419819Y-131334649D01*
X102419819Y-131334649D02*
X102419819Y-131477506D01*
X102419819Y-131477506D02*
X102467438Y-131620363D01*
X102467438Y-131620363D02*
X102562676Y-131715601D01*
X102562676Y-131715601D02*
X102657914Y-131763220D01*
X102657914Y-131763220D02*
X102848390Y-131810839D01*
X102848390Y-131810839D02*
X102991247Y-131810839D01*
X102991247Y-131810839D02*
X103181723Y-131763220D01*
X103181723Y-131763220D02*
X103276961Y-131715601D01*
X103276961Y-131715601D02*
X103372200Y-131620363D01*
X103372200Y-131620363D02*
X103419819Y-131477506D01*
X103419819Y-131477506D02*
X103419819Y-131382268D01*
X103419819Y-131382268D02*
X103372200Y-131239411D01*
X103372200Y-131239411D02*
X103324580Y-131191792D01*
X103324580Y-131191792D02*
X102991247Y-131191792D01*
X102991247Y-131191792D02*
X102991247Y-131382268D01*
X103419819Y-130763220D02*
X102419819Y-130763220D01*
X102419819Y-130763220D02*
X103419819Y-130191792D01*
X103419819Y-130191792D02*
X102419819Y-130191792D01*
X103419819Y-129715601D02*
X102419819Y-129715601D01*
X102419819Y-129715601D02*
X102419819Y-129477506D01*
X102419819Y-129477506D02*
X102467438Y-129334649D01*
X102467438Y-129334649D02*
X102562676Y-129239411D01*
X102562676Y-129239411D02*
X102657914Y-129191792D01*
X102657914Y-129191792D02*
X102848390Y-129144173D01*
X102848390Y-129144173D02*
X102991247Y-129144173D01*
X102991247Y-129144173D02*
X103181723Y-129191792D01*
X103181723Y-129191792D02*
X103276961Y-129239411D01*
X103276961Y-129239411D02*
X103372200Y-129334649D01*
X103372200Y-129334649D02*
X103419819Y-129477506D01*
X103419819Y-129477506D02*
X103419819Y-129715601D01*
X102519819Y-137187030D02*
X102519819Y-137663220D01*
X102519819Y-137663220D02*
X102996009Y-137710839D01*
X102996009Y-137710839D02*
X102948390Y-137663220D01*
X102948390Y-137663220D02*
X102900771Y-137567982D01*
X102900771Y-137567982D02*
X102900771Y-137329887D01*
X102900771Y-137329887D02*
X102948390Y-137234649D01*
X102948390Y-137234649D02*
X102996009Y-137187030D01*
X102996009Y-137187030D02*
X103091247Y-137139411D01*
X103091247Y-137139411D02*
X103329342Y-137139411D01*
X103329342Y-137139411D02*
X103424580Y-137187030D01*
X103424580Y-137187030D02*
X103472200Y-137234649D01*
X103472200Y-137234649D02*
X103519819Y-137329887D01*
X103519819Y-137329887D02*
X103519819Y-137567982D01*
X103519819Y-137567982D02*
X103472200Y-137663220D01*
X103472200Y-137663220D02*
X103424580Y-137710839D01*
X102519819Y-136853696D02*
X103519819Y-136520363D01*
X103519819Y-136520363D02*
X102519819Y-136187030D01*
X124072200Y-96210839D02*
X124119819Y-96067982D01*
X124119819Y-96067982D02*
X124119819Y-95829887D01*
X124119819Y-95829887D02*
X124072200Y-95734649D01*
X124072200Y-95734649D02*
X124024580Y-95687030D01*
X124024580Y-95687030D02*
X123929342Y-95639411D01*
X123929342Y-95639411D02*
X123834104Y-95639411D01*
X123834104Y-95639411D02*
X123738866Y-95687030D01*
X123738866Y-95687030D02*
X123691247Y-95734649D01*
X123691247Y-95734649D02*
X123643628Y-95829887D01*
X123643628Y-95829887D02*
X123596009Y-96020363D01*
X123596009Y-96020363D02*
X123548390Y-96115601D01*
X123548390Y-96115601D02*
X123500771Y-96163220D01*
X123500771Y-96163220D02*
X123405533Y-96210839D01*
X123405533Y-96210839D02*
X123310295Y-96210839D01*
X123310295Y-96210839D02*
X123215057Y-96163220D01*
X123215057Y-96163220D02*
X123167438Y-96115601D01*
X123167438Y-96115601D02*
X123119819Y-96020363D01*
X123119819Y-96020363D02*
X123119819Y-95782268D01*
X123119819Y-95782268D02*
X123167438Y-95639411D01*
X124024580Y-94639411D02*
X124072200Y-94687030D01*
X124072200Y-94687030D02*
X124119819Y-94829887D01*
X124119819Y-94829887D02*
X124119819Y-94925125D01*
X124119819Y-94925125D02*
X124072200Y-95067982D01*
X124072200Y-95067982D02*
X123976961Y-95163220D01*
X123976961Y-95163220D02*
X123881723Y-95210839D01*
X123881723Y-95210839D02*
X123691247Y-95258458D01*
X123691247Y-95258458D02*
X123548390Y-95258458D01*
X123548390Y-95258458D02*
X123357914Y-95210839D01*
X123357914Y-95210839D02*
X123262676Y-95163220D01*
X123262676Y-95163220D02*
X123167438Y-95067982D01*
X123167438Y-95067982D02*
X123119819Y-94925125D01*
X123119819Y-94925125D02*
X123119819Y-94829887D01*
X123119819Y-94829887D02*
X123167438Y-94687030D01*
X123167438Y-94687030D02*
X123215057Y-94639411D01*
X124119819Y-93734649D02*
X124119819Y-94210839D01*
X124119819Y-94210839D02*
X123119819Y-94210839D01*
X123167438Y-106889411D02*
X123119819Y-106984649D01*
X123119819Y-106984649D02*
X123119819Y-107127506D01*
X123119819Y-107127506D02*
X123167438Y-107270363D01*
X123167438Y-107270363D02*
X123262676Y-107365601D01*
X123262676Y-107365601D02*
X123357914Y-107413220D01*
X123357914Y-107413220D02*
X123548390Y-107460839D01*
X123548390Y-107460839D02*
X123691247Y-107460839D01*
X123691247Y-107460839D02*
X123881723Y-107413220D01*
X123881723Y-107413220D02*
X123976961Y-107365601D01*
X123976961Y-107365601D02*
X124072200Y-107270363D01*
X124072200Y-107270363D02*
X124119819Y-107127506D01*
X124119819Y-107127506D02*
X124119819Y-107032268D01*
X124119819Y-107032268D02*
X124072200Y-106889411D01*
X124072200Y-106889411D02*
X124024580Y-106841792D01*
X124024580Y-106841792D02*
X123691247Y-106841792D01*
X123691247Y-106841792D02*
X123691247Y-107032268D01*
X124119819Y-106413220D02*
X123119819Y-106413220D01*
X123119819Y-106413220D02*
X124119819Y-105841792D01*
X124119819Y-105841792D02*
X123119819Y-105841792D01*
X124119819Y-105365601D02*
X123119819Y-105365601D01*
X123119819Y-105365601D02*
X123119819Y-105127506D01*
X123119819Y-105127506D02*
X123167438Y-104984649D01*
X123167438Y-104984649D02*
X123262676Y-104889411D01*
X123262676Y-104889411D02*
X123357914Y-104841792D01*
X123357914Y-104841792D02*
X123548390Y-104794173D01*
X123548390Y-104794173D02*
X123691247Y-104794173D01*
X123691247Y-104794173D02*
X123881723Y-104841792D01*
X123881723Y-104841792D02*
X123976961Y-104889411D01*
X123976961Y-104889411D02*
X124072200Y-104984649D01*
X124072200Y-104984649D02*
X124119819Y-105127506D01*
X124119819Y-105127506D02*
X124119819Y-105365601D01*
X103669819Y-121063220D02*
X102669819Y-121063220D01*
X102669819Y-121063220D02*
X102669819Y-120825125D01*
X102669819Y-120825125D02*
X102717438Y-120682268D01*
X102717438Y-120682268D02*
X102812676Y-120587030D01*
X102812676Y-120587030D02*
X102907914Y-120539411D01*
X102907914Y-120539411D02*
X103098390Y-120491792D01*
X103098390Y-120491792D02*
X103241247Y-120491792D01*
X103241247Y-120491792D02*
X103431723Y-120539411D01*
X103431723Y-120539411D02*
X103526961Y-120587030D01*
X103526961Y-120587030D02*
X103622200Y-120682268D01*
X103622200Y-120682268D02*
X103669819Y-120825125D01*
X103669819Y-120825125D02*
X103669819Y-121063220D01*
X103669819Y-119539411D02*
X103669819Y-120110839D01*
X103669819Y-119825125D02*
X102669819Y-119825125D01*
X102669819Y-119825125D02*
X102812676Y-119920363D01*
X102812676Y-119920363D02*
X102907914Y-120015601D01*
X102907914Y-120015601D02*
X102955533Y-120110839D01*
X102669819Y-119206077D02*
X102669819Y-118587030D01*
X102669819Y-118587030D02*
X103050771Y-118920363D01*
X103050771Y-118920363D02*
X103050771Y-118777506D01*
X103050771Y-118777506D02*
X103098390Y-118682268D01*
X103098390Y-118682268D02*
X103146009Y-118634649D01*
X103146009Y-118634649D02*
X103241247Y-118587030D01*
X103241247Y-118587030D02*
X103479342Y-118587030D01*
X103479342Y-118587030D02*
X103574580Y-118634649D01*
X103574580Y-118634649D02*
X103622200Y-118682268D01*
X103622200Y-118682268D02*
X103669819Y-118777506D01*
X103669819Y-118777506D02*
X103669819Y-119063220D01*
X103669819Y-119063220D02*
X103622200Y-119158458D01*
X103622200Y-119158458D02*
X103574580Y-119206077D01*
X85027255Y-133869819D02*
X85217731Y-133869819D01*
X85217731Y-133869819D02*
X85312969Y-133917438D01*
X85312969Y-133917438D02*
X85408207Y-134012676D01*
X85408207Y-134012676D02*
X85455826Y-134203152D01*
X85455826Y-134203152D02*
X85455826Y-134536485D01*
X85455826Y-134536485D02*
X85408207Y-134726961D01*
X85408207Y-134726961D02*
X85312969Y-134822200D01*
X85312969Y-134822200D02*
X85217731Y-134869819D01*
X85217731Y-134869819D02*
X85027255Y-134869819D01*
X85027255Y-134869819D02*
X84932017Y-134822200D01*
X84932017Y-134822200D02*
X84836779Y-134726961D01*
X84836779Y-134726961D02*
X84789160Y-134536485D01*
X84789160Y-134536485D02*
X84789160Y-134203152D01*
X84789160Y-134203152D02*
X84836779Y-134012676D01*
X84836779Y-134012676D02*
X84932017Y-133917438D01*
X84932017Y-133917438D02*
X85027255Y-133869819D01*
X85884398Y-134869819D02*
X85884398Y-133869819D01*
X85884398Y-133869819D02*
X86455826Y-134869819D01*
X86455826Y-134869819D02*
X86455826Y-133869819D01*
X114569819Y-94937030D02*
X114569819Y-95413220D01*
X114569819Y-95413220D02*
X115046009Y-95460839D01*
X115046009Y-95460839D02*
X114998390Y-95413220D01*
X114998390Y-95413220D02*
X114950771Y-95317982D01*
X114950771Y-95317982D02*
X114950771Y-95079887D01*
X114950771Y-95079887D02*
X114998390Y-94984649D01*
X114998390Y-94984649D02*
X115046009Y-94937030D01*
X115046009Y-94937030D02*
X115141247Y-94889411D01*
X115141247Y-94889411D02*
X115379342Y-94889411D01*
X115379342Y-94889411D02*
X115474580Y-94937030D01*
X115474580Y-94937030D02*
X115522200Y-94984649D01*
X115522200Y-94984649D02*
X115569819Y-95079887D01*
X115569819Y-95079887D02*
X115569819Y-95317982D01*
X115569819Y-95317982D02*
X115522200Y-95413220D01*
X115522200Y-95413220D02*
X115474580Y-95460839D01*
X114569819Y-94603696D02*
X115569819Y-94270363D01*
X115569819Y-94270363D02*
X114569819Y-93937030D01*
X124072200Y-99710839D02*
X124119819Y-99567982D01*
X124119819Y-99567982D02*
X124119819Y-99329887D01*
X124119819Y-99329887D02*
X124072200Y-99234649D01*
X124072200Y-99234649D02*
X124024580Y-99187030D01*
X124024580Y-99187030D02*
X123929342Y-99139411D01*
X123929342Y-99139411D02*
X123834104Y-99139411D01*
X123834104Y-99139411D02*
X123738866Y-99187030D01*
X123738866Y-99187030D02*
X123691247Y-99234649D01*
X123691247Y-99234649D02*
X123643628Y-99329887D01*
X123643628Y-99329887D02*
X123596009Y-99520363D01*
X123596009Y-99520363D02*
X123548390Y-99615601D01*
X123548390Y-99615601D02*
X123500771Y-99663220D01*
X123500771Y-99663220D02*
X123405533Y-99710839D01*
X123405533Y-99710839D02*
X123310295Y-99710839D01*
X123310295Y-99710839D02*
X123215057Y-99663220D01*
X123215057Y-99663220D02*
X123167438Y-99615601D01*
X123167438Y-99615601D02*
X123119819Y-99520363D01*
X123119819Y-99520363D02*
X123119819Y-99282268D01*
X123119819Y-99282268D02*
X123167438Y-99139411D01*
X124119819Y-98710839D02*
X123119819Y-98710839D01*
X123119819Y-98710839D02*
X123119819Y-98472744D01*
X123119819Y-98472744D02*
X123167438Y-98329887D01*
X123167438Y-98329887D02*
X123262676Y-98234649D01*
X123262676Y-98234649D02*
X123357914Y-98187030D01*
X123357914Y-98187030D02*
X123548390Y-98139411D01*
X123548390Y-98139411D02*
X123691247Y-98139411D01*
X123691247Y-98139411D02*
X123881723Y-98187030D01*
X123881723Y-98187030D02*
X123976961Y-98234649D01*
X123976961Y-98234649D02*
X124072200Y-98329887D01*
X124072200Y-98329887D02*
X124119819Y-98472744D01*
X124119819Y-98472744D02*
X124119819Y-98710839D01*
X123834104Y-97758458D02*
X123834104Y-97282268D01*
X124119819Y-97853696D02*
X123119819Y-97520363D01*
X123119819Y-97520363D02*
X124119819Y-97187030D01*
X113369819Y-113163220D02*
X112369819Y-113163220D01*
X112369819Y-113163220D02*
X112369819Y-112925125D01*
X112369819Y-112925125D02*
X112417438Y-112782268D01*
X112417438Y-112782268D02*
X112512676Y-112687030D01*
X112512676Y-112687030D02*
X112607914Y-112639411D01*
X112607914Y-112639411D02*
X112798390Y-112591792D01*
X112798390Y-112591792D02*
X112941247Y-112591792D01*
X112941247Y-112591792D02*
X113131723Y-112639411D01*
X113131723Y-112639411D02*
X113226961Y-112687030D01*
X113226961Y-112687030D02*
X113322200Y-112782268D01*
X113322200Y-112782268D02*
X113369819Y-112925125D01*
X113369819Y-112925125D02*
X113369819Y-113163220D01*
X112465057Y-112210839D02*
X112417438Y-112163220D01*
X112417438Y-112163220D02*
X112369819Y-112067982D01*
X112369819Y-112067982D02*
X112369819Y-111829887D01*
X112369819Y-111829887D02*
X112417438Y-111734649D01*
X112417438Y-111734649D02*
X112465057Y-111687030D01*
X112465057Y-111687030D02*
X112560295Y-111639411D01*
X112560295Y-111639411D02*
X112655533Y-111639411D01*
X112655533Y-111639411D02*
X112798390Y-111687030D01*
X112798390Y-111687030D02*
X113369819Y-112258458D01*
X113369819Y-112258458D02*
X113369819Y-111639411D01*
X112369819Y-111306077D02*
X112369819Y-110687030D01*
X112369819Y-110687030D02*
X112750771Y-111020363D01*
X112750771Y-111020363D02*
X112750771Y-110877506D01*
X112750771Y-110877506D02*
X112798390Y-110782268D01*
X112798390Y-110782268D02*
X112846009Y-110734649D01*
X112846009Y-110734649D02*
X112941247Y-110687030D01*
X112941247Y-110687030D02*
X113179342Y-110687030D01*
X113179342Y-110687030D02*
X113274580Y-110734649D01*
X113274580Y-110734649D02*
X113322200Y-110782268D01*
X113322200Y-110782268D02*
X113369819Y-110877506D01*
X113369819Y-110877506D02*
X113369819Y-111163220D01*
X113369819Y-111163220D02*
X113322200Y-111258458D01*
X113322200Y-111258458D02*
X113274580Y-111306077D01*
X124047200Y-81760839D02*
X124094819Y-81617982D01*
X124094819Y-81617982D02*
X124094819Y-81379887D01*
X124094819Y-81379887D02*
X124047200Y-81284649D01*
X124047200Y-81284649D02*
X123999580Y-81237030D01*
X123999580Y-81237030D02*
X123904342Y-81189411D01*
X123904342Y-81189411D02*
X123809104Y-81189411D01*
X123809104Y-81189411D02*
X123713866Y-81237030D01*
X123713866Y-81237030D02*
X123666247Y-81284649D01*
X123666247Y-81284649D02*
X123618628Y-81379887D01*
X123618628Y-81379887D02*
X123571009Y-81570363D01*
X123571009Y-81570363D02*
X123523390Y-81665601D01*
X123523390Y-81665601D02*
X123475771Y-81713220D01*
X123475771Y-81713220D02*
X123380533Y-81760839D01*
X123380533Y-81760839D02*
X123285295Y-81760839D01*
X123285295Y-81760839D02*
X123190057Y-81713220D01*
X123190057Y-81713220D02*
X123142438Y-81665601D01*
X123142438Y-81665601D02*
X123094819Y-81570363D01*
X123094819Y-81570363D02*
X123094819Y-81332268D01*
X123094819Y-81332268D02*
X123142438Y-81189411D01*
X123999580Y-80189411D02*
X124047200Y-80237030D01*
X124047200Y-80237030D02*
X124094819Y-80379887D01*
X124094819Y-80379887D02*
X124094819Y-80475125D01*
X124094819Y-80475125D02*
X124047200Y-80617982D01*
X124047200Y-80617982D02*
X123951961Y-80713220D01*
X123951961Y-80713220D02*
X123856723Y-80760839D01*
X123856723Y-80760839D02*
X123666247Y-80808458D01*
X123666247Y-80808458D02*
X123523390Y-80808458D01*
X123523390Y-80808458D02*
X123332914Y-80760839D01*
X123332914Y-80760839D02*
X123237676Y-80713220D01*
X123237676Y-80713220D02*
X123142438Y-80617982D01*
X123142438Y-80617982D02*
X123094819Y-80475125D01*
X123094819Y-80475125D02*
X123094819Y-80379887D01*
X123094819Y-80379887D02*
X123142438Y-80237030D01*
X123142438Y-80237030D02*
X123190057Y-80189411D01*
X124094819Y-79284649D02*
X124094819Y-79760839D01*
X124094819Y-79760839D02*
X123094819Y-79760839D01*
X65027255Y-130869819D02*
X65217731Y-130869819D01*
X65217731Y-130869819D02*
X65312969Y-130917438D01*
X65312969Y-130917438D02*
X65408207Y-131012676D01*
X65408207Y-131012676D02*
X65455826Y-131203152D01*
X65455826Y-131203152D02*
X65455826Y-131536485D01*
X65455826Y-131536485D02*
X65408207Y-131726961D01*
X65408207Y-131726961D02*
X65312969Y-131822200D01*
X65312969Y-131822200D02*
X65217731Y-131869819D01*
X65217731Y-131869819D02*
X65027255Y-131869819D01*
X65027255Y-131869819D02*
X64932017Y-131822200D01*
X64932017Y-131822200D02*
X64836779Y-131726961D01*
X64836779Y-131726961D02*
X64789160Y-131536485D01*
X64789160Y-131536485D02*
X64789160Y-131203152D01*
X64789160Y-131203152D02*
X64836779Y-131012676D01*
X64836779Y-131012676D02*
X64932017Y-130917438D01*
X64932017Y-130917438D02*
X65027255Y-130869819D01*
X65884398Y-130869819D02*
X65884398Y-131679342D01*
X65884398Y-131679342D02*
X65932017Y-131774580D01*
X65932017Y-131774580D02*
X65979636Y-131822200D01*
X65979636Y-131822200D02*
X66074874Y-131869819D01*
X66074874Y-131869819D02*
X66265350Y-131869819D01*
X66265350Y-131869819D02*
X66360588Y-131822200D01*
X66360588Y-131822200D02*
X66408207Y-131774580D01*
X66408207Y-131774580D02*
X66455826Y-131679342D01*
X66455826Y-131679342D02*
X66455826Y-130869819D01*
X66789160Y-130869819D02*
X67360588Y-130869819D01*
X67074874Y-131869819D02*
X67074874Y-130869819D01*
X124072200Y-110960839D02*
X124119819Y-110817982D01*
X124119819Y-110817982D02*
X124119819Y-110579887D01*
X124119819Y-110579887D02*
X124072200Y-110484649D01*
X124072200Y-110484649D02*
X124024580Y-110437030D01*
X124024580Y-110437030D02*
X123929342Y-110389411D01*
X123929342Y-110389411D02*
X123834104Y-110389411D01*
X123834104Y-110389411D02*
X123738866Y-110437030D01*
X123738866Y-110437030D02*
X123691247Y-110484649D01*
X123691247Y-110484649D02*
X123643628Y-110579887D01*
X123643628Y-110579887D02*
X123596009Y-110770363D01*
X123596009Y-110770363D02*
X123548390Y-110865601D01*
X123548390Y-110865601D02*
X123500771Y-110913220D01*
X123500771Y-110913220D02*
X123405533Y-110960839D01*
X123405533Y-110960839D02*
X123310295Y-110960839D01*
X123310295Y-110960839D02*
X123215057Y-110913220D01*
X123215057Y-110913220D02*
X123167438Y-110865601D01*
X123167438Y-110865601D02*
X123119819Y-110770363D01*
X123119819Y-110770363D02*
X123119819Y-110532268D01*
X123119819Y-110532268D02*
X123167438Y-110389411D01*
X124024580Y-109389411D02*
X124072200Y-109437030D01*
X124072200Y-109437030D02*
X124119819Y-109579887D01*
X124119819Y-109579887D02*
X124119819Y-109675125D01*
X124119819Y-109675125D02*
X124072200Y-109817982D01*
X124072200Y-109817982D02*
X123976961Y-109913220D01*
X123976961Y-109913220D02*
X123881723Y-109960839D01*
X123881723Y-109960839D02*
X123691247Y-110008458D01*
X123691247Y-110008458D02*
X123548390Y-110008458D01*
X123548390Y-110008458D02*
X123357914Y-109960839D01*
X123357914Y-109960839D02*
X123262676Y-109913220D01*
X123262676Y-109913220D02*
X123167438Y-109817982D01*
X123167438Y-109817982D02*
X123119819Y-109675125D01*
X123119819Y-109675125D02*
X123119819Y-109579887D01*
X123119819Y-109579887D02*
X123167438Y-109437030D01*
X123167438Y-109437030D02*
X123215057Y-109389411D01*
X124119819Y-108484649D02*
X124119819Y-108960839D01*
X124119819Y-108960839D02*
X123119819Y-108960839D01*
X98860588Y-134917438D02*
X98765350Y-134869819D01*
X98765350Y-134869819D02*
X98622493Y-134869819D01*
X98622493Y-134869819D02*
X98479636Y-134917438D01*
X98479636Y-134917438D02*
X98384398Y-135012676D01*
X98384398Y-135012676D02*
X98336779Y-135107914D01*
X98336779Y-135107914D02*
X98289160Y-135298390D01*
X98289160Y-135298390D02*
X98289160Y-135441247D01*
X98289160Y-135441247D02*
X98336779Y-135631723D01*
X98336779Y-135631723D02*
X98384398Y-135726961D01*
X98384398Y-135726961D02*
X98479636Y-135822200D01*
X98479636Y-135822200D02*
X98622493Y-135869819D01*
X98622493Y-135869819D02*
X98717731Y-135869819D01*
X98717731Y-135869819D02*
X98860588Y-135822200D01*
X98860588Y-135822200D02*
X98908207Y-135774580D01*
X98908207Y-135774580D02*
X98908207Y-135441247D01*
X98908207Y-135441247D02*
X98717731Y-135441247D01*
X99336779Y-135869819D02*
X99336779Y-134869819D01*
X99336779Y-134869819D02*
X99908207Y-135869819D01*
X99908207Y-135869819D02*
X99908207Y-134869819D01*
X100384398Y-135869819D02*
X100384398Y-134869819D01*
X100384398Y-134869819D02*
X100622493Y-134869819D01*
X100622493Y-134869819D02*
X100765350Y-134917438D01*
X100765350Y-134917438D02*
X100860588Y-135012676D01*
X100860588Y-135012676D02*
X100908207Y-135107914D01*
X100908207Y-135107914D02*
X100955826Y-135298390D01*
X100955826Y-135298390D02*
X100955826Y-135441247D01*
X100955826Y-135441247D02*
X100908207Y-135631723D01*
X100908207Y-135631723D02*
X100860588Y-135726961D01*
X100860588Y-135726961D02*
X100765350Y-135822200D01*
X100765350Y-135822200D02*
X100622493Y-135869819D01*
X100622493Y-135869819D02*
X100384398Y-135869819D01*
X102717438Y-116639411D02*
X102669819Y-116734649D01*
X102669819Y-116734649D02*
X102669819Y-116877506D01*
X102669819Y-116877506D02*
X102717438Y-117020363D01*
X102717438Y-117020363D02*
X102812676Y-117115601D01*
X102812676Y-117115601D02*
X102907914Y-117163220D01*
X102907914Y-117163220D02*
X103098390Y-117210839D01*
X103098390Y-117210839D02*
X103241247Y-117210839D01*
X103241247Y-117210839D02*
X103431723Y-117163220D01*
X103431723Y-117163220D02*
X103526961Y-117115601D01*
X103526961Y-117115601D02*
X103622200Y-117020363D01*
X103622200Y-117020363D02*
X103669819Y-116877506D01*
X103669819Y-116877506D02*
X103669819Y-116782268D01*
X103669819Y-116782268D02*
X103622200Y-116639411D01*
X103622200Y-116639411D02*
X103574580Y-116591792D01*
X103574580Y-116591792D02*
X103241247Y-116591792D01*
X103241247Y-116591792D02*
X103241247Y-116782268D01*
X103669819Y-116163220D02*
X102669819Y-116163220D01*
X102669819Y-116163220D02*
X103669819Y-115591792D01*
X103669819Y-115591792D02*
X102669819Y-115591792D01*
X103669819Y-115115601D02*
X102669819Y-115115601D01*
X102669819Y-115115601D02*
X102669819Y-114877506D01*
X102669819Y-114877506D02*
X102717438Y-114734649D01*
X102717438Y-114734649D02*
X102812676Y-114639411D01*
X102812676Y-114639411D02*
X102907914Y-114591792D01*
X102907914Y-114591792D02*
X103098390Y-114544173D01*
X103098390Y-114544173D02*
X103241247Y-114544173D01*
X103241247Y-114544173D02*
X103431723Y-114591792D01*
X103431723Y-114591792D02*
X103526961Y-114639411D01*
X103526961Y-114639411D02*
X103622200Y-114734649D01*
X103622200Y-114734649D02*
X103669819Y-114877506D01*
X103669819Y-114877506D02*
X103669819Y-115115601D01*
X123119819Y-58687030D02*
X123119819Y-59163220D01*
X123119819Y-59163220D02*
X123596009Y-59210839D01*
X123596009Y-59210839D02*
X123548390Y-59163220D01*
X123548390Y-59163220D02*
X123500771Y-59067982D01*
X123500771Y-59067982D02*
X123500771Y-58829887D01*
X123500771Y-58829887D02*
X123548390Y-58734649D01*
X123548390Y-58734649D02*
X123596009Y-58687030D01*
X123596009Y-58687030D02*
X123691247Y-58639411D01*
X123691247Y-58639411D02*
X123929342Y-58639411D01*
X123929342Y-58639411D02*
X124024580Y-58687030D01*
X124024580Y-58687030D02*
X124072200Y-58734649D01*
X124072200Y-58734649D02*
X124119819Y-58829887D01*
X124119819Y-58829887D02*
X124119819Y-59067982D01*
X124119819Y-59067982D02*
X124072200Y-59163220D01*
X124072200Y-59163220D02*
X124024580Y-59210839D01*
X123119819Y-58353696D02*
X124119819Y-58020363D01*
X124119819Y-58020363D02*
X123119819Y-57687030D01*
X114569819Y-101258458D02*
X114569819Y-100591792D01*
X114569819Y-100591792D02*
X115569819Y-101020363D01*
X114569819Y-100353696D02*
X115569819Y-100020363D01*
X115569819Y-100020363D02*
X114569819Y-99687030D01*
X114903152Y-98925125D02*
X115569819Y-98925125D01*
X114522200Y-99163220D02*
X115236485Y-99401315D01*
X115236485Y-99401315D02*
X115236485Y-98782268D01*
X102669819Y-123187030D02*
X102669819Y-123663220D01*
X102669819Y-123663220D02*
X103146009Y-123710839D01*
X103146009Y-123710839D02*
X103098390Y-123663220D01*
X103098390Y-123663220D02*
X103050771Y-123567982D01*
X103050771Y-123567982D02*
X103050771Y-123329887D01*
X103050771Y-123329887D02*
X103098390Y-123234649D01*
X103098390Y-123234649D02*
X103146009Y-123187030D01*
X103146009Y-123187030D02*
X103241247Y-123139411D01*
X103241247Y-123139411D02*
X103479342Y-123139411D01*
X103479342Y-123139411D02*
X103574580Y-123187030D01*
X103574580Y-123187030D02*
X103622200Y-123234649D01*
X103622200Y-123234649D02*
X103669819Y-123329887D01*
X103669819Y-123329887D02*
X103669819Y-123567982D01*
X103669819Y-123567982D02*
X103622200Y-123663220D01*
X103622200Y-123663220D02*
X103574580Y-123710839D01*
X102669819Y-122853696D02*
X103669819Y-122520363D01*
X103669819Y-122520363D02*
X102669819Y-122187030D01*
X124072200Y-66460839D02*
X124119819Y-66317982D01*
X124119819Y-66317982D02*
X124119819Y-66079887D01*
X124119819Y-66079887D02*
X124072200Y-65984649D01*
X124072200Y-65984649D02*
X124024580Y-65937030D01*
X124024580Y-65937030D02*
X123929342Y-65889411D01*
X123929342Y-65889411D02*
X123834104Y-65889411D01*
X123834104Y-65889411D02*
X123738866Y-65937030D01*
X123738866Y-65937030D02*
X123691247Y-65984649D01*
X123691247Y-65984649D02*
X123643628Y-66079887D01*
X123643628Y-66079887D02*
X123596009Y-66270363D01*
X123596009Y-66270363D02*
X123548390Y-66365601D01*
X123548390Y-66365601D02*
X123500771Y-66413220D01*
X123500771Y-66413220D02*
X123405533Y-66460839D01*
X123405533Y-66460839D02*
X123310295Y-66460839D01*
X123310295Y-66460839D02*
X123215057Y-66413220D01*
X123215057Y-66413220D02*
X123167438Y-66365601D01*
X123167438Y-66365601D02*
X123119819Y-66270363D01*
X123119819Y-66270363D02*
X123119819Y-66032268D01*
X123119819Y-66032268D02*
X123167438Y-65889411D01*
X124024580Y-64889411D02*
X124072200Y-64937030D01*
X124072200Y-64937030D02*
X124119819Y-65079887D01*
X124119819Y-65079887D02*
X124119819Y-65175125D01*
X124119819Y-65175125D02*
X124072200Y-65317982D01*
X124072200Y-65317982D02*
X123976961Y-65413220D01*
X123976961Y-65413220D02*
X123881723Y-65460839D01*
X123881723Y-65460839D02*
X123691247Y-65508458D01*
X123691247Y-65508458D02*
X123548390Y-65508458D01*
X123548390Y-65508458D02*
X123357914Y-65460839D01*
X123357914Y-65460839D02*
X123262676Y-65413220D01*
X123262676Y-65413220D02*
X123167438Y-65317982D01*
X123167438Y-65317982D02*
X123119819Y-65175125D01*
X123119819Y-65175125D02*
X123119819Y-65079887D01*
X123119819Y-65079887D02*
X123167438Y-64937030D01*
X123167438Y-64937030D02*
X123215057Y-64889411D01*
X124119819Y-63984649D02*
X124119819Y-64460839D01*
X124119819Y-64460839D02*
X123119819Y-64460839D01*
X123167438Y-92139411D02*
X123119819Y-92234649D01*
X123119819Y-92234649D02*
X123119819Y-92377506D01*
X123119819Y-92377506D02*
X123167438Y-92520363D01*
X123167438Y-92520363D02*
X123262676Y-92615601D01*
X123262676Y-92615601D02*
X123357914Y-92663220D01*
X123357914Y-92663220D02*
X123548390Y-92710839D01*
X123548390Y-92710839D02*
X123691247Y-92710839D01*
X123691247Y-92710839D02*
X123881723Y-92663220D01*
X123881723Y-92663220D02*
X123976961Y-92615601D01*
X123976961Y-92615601D02*
X124072200Y-92520363D01*
X124072200Y-92520363D02*
X124119819Y-92377506D01*
X124119819Y-92377506D02*
X124119819Y-92282268D01*
X124119819Y-92282268D02*
X124072200Y-92139411D01*
X124072200Y-92139411D02*
X124024580Y-92091792D01*
X124024580Y-92091792D02*
X123691247Y-92091792D01*
X123691247Y-92091792D02*
X123691247Y-92282268D01*
X124119819Y-91663220D02*
X123119819Y-91663220D01*
X123119819Y-91663220D02*
X124119819Y-91091792D01*
X124119819Y-91091792D02*
X123119819Y-91091792D01*
X124119819Y-90615601D02*
X123119819Y-90615601D01*
X123119819Y-90615601D02*
X123119819Y-90377506D01*
X123119819Y-90377506D02*
X123167438Y-90234649D01*
X123167438Y-90234649D02*
X123262676Y-90139411D01*
X123262676Y-90139411D02*
X123357914Y-90091792D01*
X123357914Y-90091792D02*
X123548390Y-90044173D01*
X123548390Y-90044173D02*
X123691247Y-90044173D01*
X123691247Y-90044173D02*
X123881723Y-90091792D01*
X123881723Y-90091792D02*
X123976961Y-90139411D01*
X123976961Y-90139411D02*
X124072200Y-90234649D01*
X124072200Y-90234649D02*
X124119819Y-90377506D01*
X124119819Y-90377506D02*
X124119819Y-90615601D01*
X92193922Y-134869819D02*
X92527255Y-135869819D01*
X92527255Y-135869819D02*
X92860588Y-134869819D01*
X93765350Y-135774580D02*
X93717731Y-135822200D01*
X93717731Y-135822200D02*
X93574874Y-135869819D01*
X93574874Y-135869819D02*
X93479636Y-135869819D01*
X93479636Y-135869819D02*
X93336779Y-135822200D01*
X93336779Y-135822200D02*
X93241541Y-135726961D01*
X93241541Y-135726961D02*
X93193922Y-135631723D01*
X93193922Y-135631723D02*
X93146303Y-135441247D01*
X93146303Y-135441247D02*
X93146303Y-135298390D01*
X93146303Y-135298390D02*
X93193922Y-135107914D01*
X93193922Y-135107914D02*
X93241541Y-135012676D01*
X93241541Y-135012676D02*
X93336779Y-134917438D01*
X93336779Y-134917438D02*
X93479636Y-134869819D01*
X93479636Y-134869819D02*
X93574874Y-134869819D01*
X93574874Y-134869819D02*
X93717731Y-134917438D01*
X93717731Y-134917438D02*
X93765350Y-134965057D01*
X94765350Y-135774580D02*
X94717731Y-135822200D01*
X94717731Y-135822200D02*
X94574874Y-135869819D01*
X94574874Y-135869819D02*
X94479636Y-135869819D01*
X94479636Y-135869819D02*
X94336779Y-135822200D01*
X94336779Y-135822200D02*
X94241541Y-135726961D01*
X94241541Y-135726961D02*
X94193922Y-135631723D01*
X94193922Y-135631723D02*
X94146303Y-135441247D01*
X94146303Y-135441247D02*
X94146303Y-135298390D01*
X94146303Y-135298390D02*
X94193922Y-135107914D01*
X94193922Y-135107914D02*
X94241541Y-135012676D01*
X94241541Y-135012676D02*
X94336779Y-134917438D01*
X94336779Y-134917438D02*
X94479636Y-134869819D01*
X94479636Y-134869819D02*
X94574874Y-134869819D01*
X94574874Y-134869819D02*
X94717731Y-134917438D01*
X94717731Y-134917438D02*
X94765350Y-134965057D01*
X123094819Y-74237030D02*
X123094819Y-74713220D01*
X123094819Y-74713220D02*
X123571009Y-74760839D01*
X123571009Y-74760839D02*
X123523390Y-74713220D01*
X123523390Y-74713220D02*
X123475771Y-74617982D01*
X123475771Y-74617982D02*
X123475771Y-74379887D01*
X123475771Y-74379887D02*
X123523390Y-74284649D01*
X123523390Y-74284649D02*
X123571009Y-74237030D01*
X123571009Y-74237030D02*
X123666247Y-74189411D01*
X123666247Y-74189411D02*
X123904342Y-74189411D01*
X123904342Y-74189411D02*
X123999580Y-74237030D01*
X123999580Y-74237030D02*
X124047200Y-74284649D01*
X124047200Y-74284649D02*
X124094819Y-74379887D01*
X124094819Y-74379887D02*
X124094819Y-74617982D01*
X124094819Y-74617982D02*
X124047200Y-74713220D01*
X124047200Y-74713220D02*
X123999580Y-74760839D01*
X123094819Y-73903696D02*
X124094819Y-73570363D01*
X124094819Y-73570363D02*
X123094819Y-73237030D01*
X112369819Y-109306077D02*
X113369819Y-108972744D01*
X113369819Y-108972744D02*
X112369819Y-108639411D01*
X113369819Y-108306077D02*
X112369819Y-108306077D01*
X113369819Y-107829887D02*
X112369819Y-107829887D01*
X112369819Y-107829887D02*
X113369819Y-107258459D01*
X113369819Y-107258459D02*
X112369819Y-107258459D01*
X112417438Y-105689411D02*
X112369819Y-105784649D01*
X112369819Y-105784649D02*
X112369819Y-105927506D01*
X112369819Y-105927506D02*
X112417438Y-106070363D01*
X112417438Y-106070363D02*
X112512676Y-106165601D01*
X112512676Y-106165601D02*
X112607914Y-106213220D01*
X112607914Y-106213220D02*
X112798390Y-106260839D01*
X112798390Y-106260839D02*
X112941247Y-106260839D01*
X112941247Y-106260839D02*
X113131723Y-106213220D01*
X113131723Y-106213220D02*
X113226961Y-106165601D01*
X113226961Y-106165601D02*
X113322200Y-106070363D01*
X113322200Y-106070363D02*
X113369819Y-105927506D01*
X113369819Y-105927506D02*
X113369819Y-105832268D01*
X113369819Y-105832268D02*
X113322200Y-105689411D01*
X113322200Y-105689411D02*
X113274580Y-105641792D01*
X113274580Y-105641792D02*
X112941247Y-105641792D01*
X112941247Y-105641792D02*
X112941247Y-105832268D01*
X113369819Y-105213220D02*
X112369819Y-105213220D01*
X112369819Y-105213220D02*
X113369819Y-104641792D01*
X113369819Y-104641792D02*
X112369819Y-104641792D01*
X113369819Y-104165601D02*
X112369819Y-104165601D01*
X112369819Y-104165601D02*
X112369819Y-103927506D01*
X112369819Y-103927506D02*
X112417438Y-103784649D01*
X112417438Y-103784649D02*
X112512676Y-103689411D01*
X112512676Y-103689411D02*
X112607914Y-103641792D01*
X112607914Y-103641792D02*
X112798390Y-103594173D01*
X112798390Y-103594173D02*
X112941247Y-103594173D01*
X112941247Y-103594173D02*
X113131723Y-103641792D01*
X113131723Y-103641792D02*
X113226961Y-103689411D01*
X113226961Y-103689411D02*
X113322200Y-103784649D01*
X113322200Y-103784649D02*
X113369819Y-103927506D01*
X113369819Y-103927506D02*
X113369819Y-104165601D01*
X68860588Y-130917438D02*
X68765350Y-130869819D01*
X68765350Y-130869819D02*
X68622493Y-130869819D01*
X68622493Y-130869819D02*
X68479636Y-130917438D01*
X68479636Y-130917438D02*
X68384398Y-131012676D01*
X68384398Y-131012676D02*
X68336779Y-131107914D01*
X68336779Y-131107914D02*
X68289160Y-131298390D01*
X68289160Y-131298390D02*
X68289160Y-131441247D01*
X68289160Y-131441247D02*
X68336779Y-131631723D01*
X68336779Y-131631723D02*
X68384398Y-131726961D01*
X68384398Y-131726961D02*
X68479636Y-131822200D01*
X68479636Y-131822200D02*
X68622493Y-131869819D01*
X68622493Y-131869819D02*
X68717731Y-131869819D01*
X68717731Y-131869819D02*
X68860588Y-131822200D01*
X68860588Y-131822200D02*
X68908207Y-131774580D01*
X68908207Y-131774580D02*
X68908207Y-131441247D01*
X68908207Y-131441247D02*
X68717731Y-131441247D01*
X69336779Y-131869819D02*
X69336779Y-130869819D01*
X69336779Y-130869819D02*
X69908207Y-131869819D01*
X69908207Y-131869819D02*
X69908207Y-130869819D01*
X70384398Y-131869819D02*
X70384398Y-130869819D01*
X70384398Y-130869819D02*
X70622493Y-130869819D01*
X70622493Y-130869819D02*
X70765350Y-130917438D01*
X70765350Y-130917438D02*
X70860588Y-131012676D01*
X70860588Y-131012676D02*
X70908207Y-131107914D01*
X70908207Y-131107914D02*
X70955826Y-131298390D01*
X70955826Y-131298390D02*
X70955826Y-131441247D01*
X70955826Y-131441247D02*
X70908207Y-131631723D01*
X70908207Y-131631723D02*
X70860588Y-131726961D01*
X70860588Y-131726961D02*
X70765350Y-131822200D01*
X70765350Y-131822200D02*
X70622493Y-131869819D01*
X70622493Y-131869819D02*
X70384398Y-131869819D01*
X123119819Y-103437030D02*
X123119819Y-103913220D01*
X123119819Y-103913220D02*
X123596009Y-103960839D01*
X123596009Y-103960839D02*
X123548390Y-103913220D01*
X123548390Y-103913220D02*
X123500771Y-103817982D01*
X123500771Y-103817982D02*
X123500771Y-103579887D01*
X123500771Y-103579887D02*
X123548390Y-103484649D01*
X123548390Y-103484649D02*
X123596009Y-103437030D01*
X123596009Y-103437030D02*
X123691247Y-103389411D01*
X123691247Y-103389411D02*
X123929342Y-103389411D01*
X123929342Y-103389411D02*
X124024580Y-103437030D01*
X124024580Y-103437030D02*
X124072200Y-103484649D01*
X124072200Y-103484649D02*
X124119819Y-103579887D01*
X124119819Y-103579887D02*
X124119819Y-103817982D01*
X124119819Y-103817982D02*
X124072200Y-103913220D01*
X124072200Y-103913220D02*
X124024580Y-103960839D01*
X123119819Y-103103696D02*
X124119819Y-102770363D01*
X124119819Y-102770363D02*
X123119819Y-102437030D01*
X124072200Y-69710839D02*
X124119819Y-69567982D01*
X124119819Y-69567982D02*
X124119819Y-69329887D01*
X124119819Y-69329887D02*
X124072200Y-69234649D01*
X124072200Y-69234649D02*
X124024580Y-69187030D01*
X124024580Y-69187030D02*
X123929342Y-69139411D01*
X123929342Y-69139411D02*
X123834104Y-69139411D01*
X123834104Y-69139411D02*
X123738866Y-69187030D01*
X123738866Y-69187030D02*
X123691247Y-69234649D01*
X123691247Y-69234649D02*
X123643628Y-69329887D01*
X123643628Y-69329887D02*
X123596009Y-69520363D01*
X123596009Y-69520363D02*
X123548390Y-69615601D01*
X123548390Y-69615601D02*
X123500771Y-69663220D01*
X123500771Y-69663220D02*
X123405533Y-69710839D01*
X123405533Y-69710839D02*
X123310295Y-69710839D01*
X123310295Y-69710839D02*
X123215057Y-69663220D01*
X123215057Y-69663220D02*
X123167438Y-69615601D01*
X123167438Y-69615601D02*
X123119819Y-69520363D01*
X123119819Y-69520363D02*
X123119819Y-69282268D01*
X123119819Y-69282268D02*
X123167438Y-69139411D01*
X124119819Y-68710839D02*
X123119819Y-68710839D01*
X123119819Y-68710839D02*
X123119819Y-68472744D01*
X123119819Y-68472744D02*
X123167438Y-68329887D01*
X123167438Y-68329887D02*
X123262676Y-68234649D01*
X123262676Y-68234649D02*
X123357914Y-68187030D01*
X123357914Y-68187030D02*
X123548390Y-68139411D01*
X123548390Y-68139411D02*
X123691247Y-68139411D01*
X123691247Y-68139411D02*
X123881723Y-68187030D01*
X123881723Y-68187030D02*
X123976961Y-68234649D01*
X123976961Y-68234649D02*
X124072200Y-68329887D01*
X124072200Y-68329887D02*
X124119819Y-68472744D01*
X124119819Y-68472744D02*
X124119819Y-68710839D01*
X123834104Y-67758458D02*
X123834104Y-67282268D01*
X124119819Y-67853696D02*
X123119819Y-67520363D01*
X123119819Y-67520363D02*
X124119819Y-67187030D01*
X124047200Y-85260839D02*
X124094819Y-85117982D01*
X124094819Y-85117982D02*
X124094819Y-84879887D01*
X124094819Y-84879887D02*
X124047200Y-84784649D01*
X124047200Y-84784649D02*
X123999580Y-84737030D01*
X123999580Y-84737030D02*
X123904342Y-84689411D01*
X123904342Y-84689411D02*
X123809104Y-84689411D01*
X123809104Y-84689411D02*
X123713866Y-84737030D01*
X123713866Y-84737030D02*
X123666247Y-84784649D01*
X123666247Y-84784649D02*
X123618628Y-84879887D01*
X123618628Y-84879887D02*
X123571009Y-85070363D01*
X123571009Y-85070363D02*
X123523390Y-85165601D01*
X123523390Y-85165601D02*
X123475771Y-85213220D01*
X123475771Y-85213220D02*
X123380533Y-85260839D01*
X123380533Y-85260839D02*
X123285295Y-85260839D01*
X123285295Y-85260839D02*
X123190057Y-85213220D01*
X123190057Y-85213220D02*
X123142438Y-85165601D01*
X123142438Y-85165601D02*
X123094819Y-85070363D01*
X123094819Y-85070363D02*
X123094819Y-84832268D01*
X123094819Y-84832268D02*
X123142438Y-84689411D01*
X124094819Y-84260839D02*
X123094819Y-84260839D01*
X123094819Y-84260839D02*
X123094819Y-84022744D01*
X123094819Y-84022744D02*
X123142438Y-83879887D01*
X123142438Y-83879887D02*
X123237676Y-83784649D01*
X123237676Y-83784649D02*
X123332914Y-83737030D01*
X123332914Y-83737030D02*
X123523390Y-83689411D01*
X123523390Y-83689411D02*
X123666247Y-83689411D01*
X123666247Y-83689411D02*
X123856723Y-83737030D01*
X123856723Y-83737030D02*
X123951961Y-83784649D01*
X123951961Y-83784649D02*
X124047200Y-83879887D01*
X124047200Y-83879887D02*
X124094819Y-84022744D01*
X124094819Y-84022744D02*
X124094819Y-84260839D01*
X123809104Y-83308458D02*
X123809104Y-82832268D01*
X124094819Y-83403696D02*
X123094819Y-83070363D01*
X123094819Y-83070363D02*
X124094819Y-82737030D01*
X123119819Y-88687030D02*
X123119819Y-89163220D01*
X123119819Y-89163220D02*
X123596009Y-89210839D01*
X123596009Y-89210839D02*
X123548390Y-89163220D01*
X123548390Y-89163220D02*
X123500771Y-89067982D01*
X123500771Y-89067982D02*
X123500771Y-88829887D01*
X123500771Y-88829887D02*
X123548390Y-88734649D01*
X123548390Y-88734649D02*
X123596009Y-88687030D01*
X123596009Y-88687030D02*
X123691247Y-88639411D01*
X123691247Y-88639411D02*
X123929342Y-88639411D01*
X123929342Y-88639411D02*
X124024580Y-88687030D01*
X124024580Y-88687030D02*
X124072200Y-88734649D01*
X124072200Y-88734649D02*
X124119819Y-88829887D01*
X124119819Y-88829887D02*
X124119819Y-89067982D01*
X124119819Y-89067982D02*
X124072200Y-89163220D01*
X124072200Y-89163220D02*
X124024580Y-89210839D01*
X123119819Y-88353696D02*
X124119819Y-88020363D01*
X124119819Y-88020363D02*
X123119819Y-87687030D01*
X123167438Y-62389411D02*
X123119819Y-62484649D01*
X123119819Y-62484649D02*
X123119819Y-62627506D01*
X123119819Y-62627506D02*
X123167438Y-62770363D01*
X123167438Y-62770363D02*
X123262676Y-62865601D01*
X123262676Y-62865601D02*
X123357914Y-62913220D01*
X123357914Y-62913220D02*
X123548390Y-62960839D01*
X123548390Y-62960839D02*
X123691247Y-62960839D01*
X123691247Y-62960839D02*
X123881723Y-62913220D01*
X123881723Y-62913220D02*
X123976961Y-62865601D01*
X123976961Y-62865601D02*
X124072200Y-62770363D01*
X124072200Y-62770363D02*
X124119819Y-62627506D01*
X124119819Y-62627506D02*
X124119819Y-62532268D01*
X124119819Y-62532268D02*
X124072200Y-62389411D01*
X124072200Y-62389411D02*
X124024580Y-62341792D01*
X124024580Y-62341792D02*
X123691247Y-62341792D01*
X123691247Y-62341792D02*
X123691247Y-62532268D01*
X124119819Y-61913220D02*
X123119819Y-61913220D01*
X123119819Y-61913220D02*
X124119819Y-61341792D01*
X124119819Y-61341792D02*
X123119819Y-61341792D01*
X124119819Y-60865601D02*
X123119819Y-60865601D01*
X123119819Y-60865601D02*
X123119819Y-60627506D01*
X123119819Y-60627506D02*
X123167438Y-60484649D01*
X123167438Y-60484649D02*
X123262676Y-60389411D01*
X123262676Y-60389411D02*
X123357914Y-60341792D01*
X123357914Y-60341792D02*
X123548390Y-60294173D01*
X123548390Y-60294173D02*
X123691247Y-60294173D01*
X123691247Y-60294173D02*
X123881723Y-60341792D01*
X123881723Y-60341792D02*
X123976961Y-60389411D01*
X123976961Y-60389411D02*
X124072200Y-60484649D01*
X124072200Y-60484649D02*
X124119819Y-60627506D01*
X124119819Y-60627506D02*
X124119819Y-60865601D01*
X124072200Y-114460839D02*
X124119819Y-114317982D01*
X124119819Y-114317982D02*
X124119819Y-114079887D01*
X124119819Y-114079887D02*
X124072200Y-113984649D01*
X124072200Y-113984649D02*
X124024580Y-113937030D01*
X124024580Y-113937030D02*
X123929342Y-113889411D01*
X123929342Y-113889411D02*
X123834104Y-113889411D01*
X123834104Y-113889411D02*
X123738866Y-113937030D01*
X123738866Y-113937030D02*
X123691247Y-113984649D01*
X123691247Y-113984649D02*
X123643628Y-114079887D01*
X123643628Y-114079887D02*
X123596009Y-114270363D01*
X123596009Y-114270363D02*
X123548390Y-114365601D01*
X123548390Y-114365601D02*
X123500771Y-114413220D01*
X123500771Y-114413220D02*
X123405533Y-114460839D01*
X123405533Y-114460839D02*
X123310295Y-114460839D01*
X123310295Y-114460839D02*
X123215057Y-114413220D01*
X123215057Y-114413220D02*
X123167438Y-114365601D01*
X123167438Y-114365601D02*
X123119819Y-114270363D01*
X123119819Y-114270363D02*
X123119819Y-114032268D01*
X123119819Y-114032268D02*
X123167438Y-113889411D01*
X124119819Y-113460839D02*
X123119819Y-113460839D01*
X123119819Y-113460839D02*
X123119819Y-113222744D01*
X123119819Y-113222744D02*
X123167438Y-113079887D01*
X123167438Y-113079887D02*
X123262676Y-112984649D01*
X123262676Y-112984649D02*
X123357914Y-112937030D01*
X123357914Y-112937030D02*
X123548390Y-112889411D01*
X123548390Y-112889411D02*
X123691247Y-112889411D01*
X123691247Y-112889411D02*
X123881723Y-112937030D01*
X123881723Y-112937030D02*
X123976961Y-112984649D01*
X123976961Y-112984649D02*
X124072200Y-113079887D01*
X124072200Y-113079887D02*
X124119819Y-113222744D01*
X124119819Y-113222744D02*
X124119819Y-113460839D01*
X123834104Y-112508458D02*
X123834104Y-112032268D01*
X124119819Y-112603696D02*
X123119819Y-112270363D01*
X123119819Y-112270363D02*
X124119819Y-111937030D01*
X132204819Y-109952380D02*
X131204819Y-109952380D01*
X131300057Y-109523809D02*
X131252438Y-109476190D01*
X131252438Y-109476190D02*
X131204819Y-109380952D01*
X131204819Y-109380952D02*
X131204819Y-109142857D01*
X131204819Y-109142857D02*
X131252438Y-109047619D01*
X131252438Y-109047619D02*
X131300057Y-109000000D01*
X131300057Y-109000000D02*
X131395295Y-108952381D01*
X131395295Y-108952381D02*
X131490533Y-108952381D01*
X131490533Y-108952381D02*
X131633390Y-109000000D01*
X131633390Y-109000000D02*
X132204819Y-109571428D01*
X132204819Y-109571428D02*
X132204819Y-108952381D01*
X132109580Y-107952381D02*
X132157200Y-108000000D01*
X132157200Y-108000000D02*
X132204819Y-108142857D01*
X132204819Y-108142857D02*
X132204819Y-108238095D01*
X132204819Y-108238095D02*
X132157200Y-108380952D01*
X132157200Y-108380952D02*
X132061961Y-108476190D01*
X132061961Y-108476190D02*
X131966723Y-108523809D01*
X131966723Y-108523809D02*
X131776247Y-108571428D01*
X131776247Y-108571428D02*
X131633390Y-108571428D01*
X131633390Y-108571428D02*
X131442914Y-108523809D01*
X131442914Y-108523809D02*
X131347676Y-108476190D01*
X131347676Y-108476190D02*
X131252438Y-108380952D01*
X131252438Y-108380952D02*
X131204819Y-108238095D01*
X131204819Y-108238095D02*
X131204819Y-108142857D01*
X131204819Y-108142857D02*
X131252438Y-108000000D01*
X131252438Y-108000000D02*
X131300057Y-107952381D01*
X131538152Y-107095238D02*
X132204819Y-107095238D01*
X131157200Y-107333333D02*
X131871485Y-107571428D01*
X131871485Y-107571428D02*
X131871485Y-106952381D01*
X132504819Y-65202380D02*
X131504819Y-65202380D01*
X131600057Y-64773809D02*
X131552438Y-64726190D01*
X131552438Y-64726190D02*
X131504819Y-64630952D01*
X131504819Y-64630952D02*
X131504819Y-64392857D01*
X131504819Y-64392857D02*
X131552438Y-64297619D01*
X131552438Y-64297619D02*
X131600057Y-64250000D01*
X131600057Y-64250000D02*
X131695295Y-64202381D01*
X131695295Y-64202381D02*
X131790533Y-64202381D01*
X131790533Y-64202381D02*
X131933390Y-64250000D01*
X131933390Y-64250000D02*
X132504819Y-64821428D01*
X132504819Y-64821428D02*
X132504819Y-64202381D01*
X132409580Y-63202381D02*
X132457200Y-63250000D01*
X132457200Y-63250000D02*
X132504819Y-63392857D01*
X132504819Y-63392857D02*
X132504819Y-63488095D01*
X132504819Y-63488095D02*
X132457200Y-63630952D01*
X132457200Y-63630952D02*
X132361961Y-63726190D01*
X132361961Y-63726190D02*
X132266723Y-63773809D01*
X132266723Y-63773809D02*
X132076247Y-63821428D01*
X132076247Y-63821428D02*
X131933390Y-63821428D01*
X131933390Y-63821428D02*
X131742914Y-63773809D01*
X131742914Y-63773809D02*
X131647676Y-63726190D01*
X131647676Y-63726190D02*
X131552438Y-63630952D01*
X131552438Y-63630952D02*
X131504819Y-63488095D01*
X131504819Y-63488095D02*
X131504819Y-63392857D01*
X131504819Y-63392857D02*
X131552438Y-63250000D01*
X131552438Y-63250000D02*
X131600057Y-63202381D01*
X132504819Y-62250000D02*
X132504819Y-62821428D01*
X132504819Y-62535714D02*
X131504819Y-62535714D01*
X131504819Y-62535714D02*
X131647676Y-62630952D01*
X131647676Y-62630952D02*
X131742914Y-62726190D01*
X131742914Y-62726190D02*
X131790533Y-62821428D01*
X111931009Y-137619047D02*
X111931009Y-137285714D01*
X112454819Y-137142857D02*
X112454819Y-137619047D01*
X112454819Y-137619047D02*
X111454819Y-137619047D01*
X111454819Y-137619047D02*
X111454819Y-137142857D01*
X111788152Y-136714285D02*
X112454819Y-136714285D01*
X111883390Y-136714285D02*
X111835771Y-136666666D01*
X111835771Y-136666666D02*
X111788152Y-136571428D01*
X111788152Y-136571428D02*
X111788152Y-136428571D01*
X111788152Y-136428571D02*
X111835771Y-136333333D01*
X111835771Y-136333333D02*
X111931009Y-136285714D01*
X111931009Y-136285714D02*
X112454819Y-136285714D01*
X112407200Y-135380952D02*
X112454819Y-135476190D01*
X112454819Y-135476190D02*
X112454819Y-135666666D01*
X112454819Y-135666666D02*
X112407200Y-135761904D01*
X112407200Y-135761904D02*
X112359580Y-135809523D01*
X112359580Y-135809523D02*
X112264342Y-135857142D01*
X112264342Y-135857142D02*
X111978628Y-135857142D01*
X111978628Y-135857142D02*
X111883390Y-135809523D01*
X111883390Y-135809523D02*
X111835771Y-135761904D01*
X111835771Y-135761904D02*
X111788152Y-135666666D01*
X111788152Y-135666666D02*
X111788152Y-135476190D01*
X111788152Y-135476190D02*
X111835771Y-135380952D01*
X112454819Y-134809523D02*
X112407200Y-134904761D01*
X112407200Y-134904761D02*
X112359580Y-134952380D01*
X112359580Y-134952380D02*
X112264342Y-134999999D01*
X112264342Y-134999999D02*
X111978628Y-134999999D01*
X111978628Y-134999999D02*
X111883390Y-134952380D01*
X111883390Y-134952380D02*
X111835771Y-134904761D01*
X111835771Y-134904761D02*
X111788152Y-134809523D01*
X111788152Y-134809523D02*
X111788152Y-134666666D01*
X111788152Y-134666666D02*
X111835771Y-134571428D01*
X111835771Y-134571428D02*
X111883390Y-134523809D01*
X111883390Y-134523809D02*
X111978628Y-134476190D01*
X111978628Y-134476190D02*
X112264342Y-134476190D01*
X112264342Y-134476190D02*
X112359580Y-134523809D01*
X112359580Y-134523809D02*
X112407200Y-134571428D01*
X112407200Y-134571428D02*
X112454819Y-134666666D01*
X112454819Y-134666666D02*
X112454819Y-134809523D01*
X112454819Y-133619047D02*
X111454819Y-133619047D01*
X112407200Y-133619047D02*
X112454819Y-133714285D01*
X112454819Y-133714285D02*
X112454819Y-133904761D01*
X112454819Y-133904761D02*
X112407200Y-133999999D01*
X112407200Y-133999999D02*
X112359580Y-134047618D01*
X112359580Y-134047618D02*
X112264342Y-134095237D01*
X112264342Y-134095237D02*
X111978628Y-134095237D01*
X111978628Y-134095237D02*
X111883390Y-134047618D01*
X111883390Y-134047618D02*
X111835771Y-133999999D01*
X111835771Y-133999999D02*
X111788152Y-133904761D01*
X111788152Y-133904761D02*
X111788152Y-133714285D01*
X111788152Y-133714285D02*
X111835771Y-133619047D01*
X112407200Y-132761904D02*
X112454819Y-132857142D01*
X112454819Y-132857142D02*
X112454819Y-133047618D01*
X112454819Y-133047618D02*
X112407200Y-133142856D01*
X112407200Y-133142856D02*
X112311961Y-133190475D01*
X112311961Y-133190475D02*
X111931009Y-133190475D01*
X111931009Y-133190475D02*
X111835771Y-133142856D01*
X111835771Y-133142856D02*
X111788152Y-133047618D01*
X111788152Y-133047618D02*
X111788152Y-132857142D01*
X111788152Y-132857142D02*
X111835771Y-132761904D01*
X111835771Y-132761904D02*
X111931009Y-132714285D01*
X111931009Y-132714285D02*
X112026247Y-132714285D01*
X112026247Y-132714285D02*
X112121485Y-133190475D01*
X112454819Y-132285713D02*
X111788152Y-132285713D01*
X111978628Y-132285713D02*
X111883390Y-132238094D01*
X111883390Y-132238094D02*
X111835771Y-132190475D01*
X111835771Y-132190475D02*
X111788152Y-132095237D01*
X111788152Y-132095237D02*
X111788152Y-131999999D01*
X111931009Y-130571427D02*
X111978628Y-130428570D01*
X111978628Y-130428570D02*
X112026247Y-130380951D01*
X112026247Y-130380951D02*
X112121485Y-130333332D01*
X112121485Y-130333332D02*
X112264342Y-130333332D01*
X112264342Y-130333332D02*
X112359580Y-130380951D01*
X112359580Y-130380951D02*
X112407200Y-130428570D01*
X112407200Y-130428570D02*
X112454819Y-130523808D01*
X112454819Y-130523808D02*
X112454819Y-130904760D01*
X112454819Y-130904760D02*
X111454819Y-130904760D01*
X111454819Y-130904760D02*
X111454819Y-130571427D01*
X111454819Y-130571427D02*
X111502438Y-130476189D01*
X111502438Y-130476189D02*
X111550057Y-130428570D01*
X111550057Y-130428570D02*
X111645295Y-130380951D01*
X111645295Y-130380951D02*
X111740533Y-130380951D01*
X111740533Y-130380951D02*
X111835771Y-130428570D01*
X111835771Y-130428570D02*
X111883390Y-130476189D01*
X111883390Y-130476189D02*
X111931009Y-130571427D01*
X111931009Y-130571427D02*
X111931009Y-130904760D01*
X130431009Y-132951428D02*
X130478628Y-132808571D01*
X130478628Y-132808571D02*
X130526247Y-132760952D01*
X130526247Y-132760952D02*
X130621485Y-132713333D01*
X130621485Y-132713333D02*
X130764342Y-132713333D01*
X130764342Y-132713333D02*
X130859580Y-132760952D01*
X130859580Y-132760952D02*
X130907200Y-132808571D01*
X130907200Y-132808571D02*
X130954819Y-132903809D01*
X130954819Y-132903809D02*
X130954819Y-133284761D01*
X130954819Y-133284761D02*
X129954819Y-133284761D01*
X129954819Y-133284761D02*
X129954819Y-132951428D01*
X129954819Y-132951428D02*
X130002438Y-132856190D01*
X130002438Y-132856190D02*
X130050057Y-132808571D01*
X130050057Y-132808571D02*
X130145295Y-132760952D01*
X130145295Y-132760952D02*
X130240533Y-132760952D01*
X130240533Y-132760952D02*
X130335771Y-132808571D01*
X130335771Y-132808571D02*
X130383390Y-132856190D01*
X130383390Y-132856190D02*
X130431009Y-132951428D01*
X130431009Y-132951428D02*
X130431009Y-133284761D01*
X130954819Y-132141904D02*
X130907200Y-132237142D01*
X130907200Y-132237142D02*
X130859580Y-132284761D01*
X130859580Y-132284761D02*
X130764342Y-132332380D01*
X130764342Y-132332380D02*
X130478628Y-132332380D01*
X130478628Y-132332380D02*
X130383390Y-132284761D01*
X130383390Y-132284761D02*
X130335771Y-132237142D01*
X130335771Y-132237142D02*
X130288152Y-132141904D01*
X130288152Y-132141904D02*
X130288152Y-131999047D01*
X130288152Y-131999047D02*
X130335771Y-131903809D01*
X130335771Y-131903809D02*
X130383390Y-131856190D01*
X130383390Y-131856190D02*
X130478628Y-131808571D01*
X130478628Y-131808571D02*
X130764342Y-131808571D01*
X130764342Y-131808571D02*
X130859580Y-131856190D01*
X130859580Y-131856190D02*
X130907200Y-131903809D01*
X130907200Y-131903809D02*
X130954819Y-131999047D01*
X130954819Y-131999047D02*
X130954819Y-132141904D01*
X130288152Y-131522856D02*
X130288152Y-131141904D01*
X129954819Y-131379999D02*
X130811961Y-131379999D01*
X130811961Y-131379999D02*
X130907200Y-131332380D01*
X130907200Y-131332380D02*
X130954819Y-131237142D01*
X130954819Y-131237142D02*
X130954819Y-131141904D01*
X130954819Y-130665713D02*
X130907200Y-130760951D01*
X130907200Y-130760951D02*
X130859580Y-130808570D01*
X130859580Y-130808570D02*
X130764342Y-130856189D01*
X130764342Y-130856189D02*
X130478628Y-130856189D01*
X130478628Y-130856189D02*
X130383390Y-130808570D01*
X130383390Y-130808570D02*
X130335771Y-130760951D01*
X130335771Y-130760951D02*
X130288152Y-130665713D01*
X130288152Y-130665713D02*
X130288152Y-130522856D01*
X130288152Y-130522856D02*
X130335771Y-130427618D01*
X130335771Y-130427618D02*
X130383390Y-130379999D01*
X130383390Y-130379999D02*
X130478628Y-130332380D01*
X130478628Y-130332380D02*
X130764342Y-130332380D01*
X130764342Y-130332380D02*
X130859580Y-130379999D01*
X130859580Y-130379999D02*
X130907200Y-130427618D01*
X130907200Y-130427618D02*
X130954819Y-130522856D01*
X130954819Y-130522856D02*
X130954819Y-130665713D01*
X130288152Y-129903808D02*
X130954819Y-129903808D01*
X130383390Y-129903808D02*
X130335771Y-129856189D01*
X130335771Y-129856189D02*
X130288152Y-129760951D01*
X130288152Y-129760951D02*
X130288152Y-129618094D01*
X130288152Y-129618094D02*
X130335771Y-129522856D01*
X130335771Y-129522856D02*
X130431009Y-129475237D01*
X130431009Y-129475237D02*
X130954819Y-129475237D01*
X132504819Y-95202380D02*
X131504819Y-95202380D01*
X131600057Y-94773809D02*
X131552438Y-94726190D01*
X131552438Y-94726190D02*
X131504819Y-94630952D01*
X131504819Y-94630952D02*
X131504819Y-94392857D01*
X131504819Y-94392857D02*
X131552438Y-94297619D01*
X131552438Y-94297619D02*
X131600057Y-94250000D01*
X131600057Y-94250000D02*
X131695295Y-94202381D01*
X131695295Y-94202381D02*
X131790533Y-94202381D01*
X131790533Y-94202381D02*
X131933390Y-94250000D01*
X131933390Y-94250000D02*
X132504819Y-94821428D01*
X132504819Y-94821428D02*
X132504819Y-94202381D01*
X132409580Y-93202381D02*
X132457200Y-93250000D01*
X132457200Y-93250000D02*
X132504819Y-93392857D01*
X132504819Y-93392857D02*
X132504819Y-93488095D01*
X132504819Y-93488095D02*
X132457200Y-93630952D01*
X132457200Y-93630952D02*
X132361961Y-93726190D01*
X132361961Y-93726190D02*
X132266723Y-93773809D01*
X132266723Y-93773809D02*
X132076247Y-93821428D01*
X132076247Y-93821428D02*
X131933390Y-93821428D01*
X131933390Y-93821428D02*
X131742914Y-93773809D01*
X131742914Y-93773809D02*
X131647676Y-93726190D01*
X131647676Y-93726190D02*
X131552438Y-93630952D01*
X131552438Y-93630952D02*
X131504819Y-93488095D01*
X131504819Y-93488095D02*
X131504819Y-93392857D01*
X131504819Y-93392857D02*
X131552438Y-93250000D01*
X131552438Y-93250000D02*
X131600057Y-93202381D01*
X131504819Y-92869047D02*
X131504819Y-92250000D01*
X131504819Y-92250000D02*
X131885771Y-92583333D01*
X131885771Y-92583333D02*
X131885771Y-92440476D01*
X131885771Y-92440476D02*
X131933390Y-92345238D01*
X131933390Y-92345238D02*
X131981009Y-92297619D01*
X131981009Y-92297619D02*
X132076247Y-92250000D01*
X132076247Y-92250000D02*
X132314342Y-92250000D01*
X132314342Y-92250000D02*
X132409580Y-92297619D01*
X132409580Y-92297619D02*
X132457200Y-92345238D01*
X132457200Y-92345238D02*
X132504819Y-92440476D01*
X132504819Y-92440476D02*
X132504819Y-92726190D01*
X132504819Y-92726190D02*
X132457200Y-92821428D01*
X132457200Y-92821428D02*
X132409580Y-92869047D01*
X111931009Y-123547619D02*
X111931009Y-123214286D01*
X112454819Y-123071429D02*
X112454819Y-123547619D01*
X112454819Y-123547619D02*
X111454819Y-123547619D01*
X111454819Y-123547619D02*
X111454819Y-123071429D01*
X111788152Y-122642857D02*
X112454819Y-122642857D01*
X111883390Y-122642857D02*
X111835771Y-122595238D01*
X111835771Y-122595238D02*
X111788152Y-122500000D01*
X111788152Y-122500000D02*
X111788152Y-122357143D01*
X111788152Y-122357143D02*
X111835771Y-122261905D01*
X111835771Y-122261905D02*
X111931009Y-122214286D01*
X111931009Y-122214286D02*
X112454819Y-122214286D01*
X112407200Y-121309524D02*
X112454819Y-121404762D01*
X112454819Y-121404762D02*
X112454819Y-121595238D01*
X112454819Y-121595238D02*
X112407200Y-121690476D01*
X112407200Y-121690476D02*
X112359580Y-121738095D01*
X112359580Y-121738095D02*
X112264342Y-121785714D01*
X112264342Y-121785714D02*
X111978628Y-121785714D01*
X111978628Y-121785714D02*
X111883390Y-121738095D01*
X111883390Y-121738095D02*
X111835771Y-121690476D01*
X111835771Y-121690476D02*
X111788152Y-121595238D01*
X111788152Y-121595238D02*
X111788152Y-121404762D01*
X111788152Y-121404762D02*
X111835771Y-121309524D01*
X112454819Y-120738095D02*
X112407200Y-120833333D01*
X112407200Y-120833333D02*
X112359580Y-120880952D01*
X112359580Y-120880952D02*
X112264342Y-120928571D01*
X112264342Y-120928571D02*
X111978628Y-120928571D01*
X111978628Y-120928571D02*
X111883390Y-120880952D01*
X111883390Y-120880952D02*
X111835771Y-120833333D01*
X111835771Y-120833333D02*
X111788152Y-120738095D01*
X111788152Y-120738095D02*
X111788152Y-120595238D01*
X111788152Y-120595238D02*
X111835771Y-120500000D01*
X111835771Y-120500000D02*
X111883390Y-120452381D01*
X111883390Y-120452381D02*
X111978628Y-120404762D01*
X111978628Y-120404762D02*
X112264342Y-120404762D01*
X112264342Y-120404762D02*
X112359580Y-120452381D01*
X112359580Y-120452381D02*
X112407200Y-120500000D01*
X112407200Y-120500000D02*
X112454819Y-120595238D01*
X112454819Y-120595238D02*
X112454819Y-120738095D01*
X112454819Y-119547619D02*
X111454819Y-119547619D01*
X112407200Y-119547619D02*
X112454819Y-119642857D01*
X112454819Y-119642857D02*
X112454819Y-119833333D01*
X112454819Y-119833333D02*
X112407200Y-119928571D01*
X112407200Y-119928571D02*
X112359580Y-119976190D01*
X112359580Y-119976190D02*
X112264342Y-120023809D01*
X112264342Y-120023809D02*
X111978628Y-120023809D01*
X111978628Y-120023809D02*
X111883390Y-119976190D01*
X111883390Y-119976190D02*
X111835771Y-119928571D01*
X111835771Y-119928571D02*
X111788152Y-119833333D01*
X111788152Y-119833333D02*
X111788152Y-119642857D01*
X111788152Y-119642857D02*
X111835771Y-119547619D01*
X112407200Y-118690476D02*
X112454819Y-118785714D01*
X112454819Y-118785714D02*
X112454819Y-118976190D01*
X112454819Y-118976190D02*
X112407200Y-119071428D01*
X112407200Y-119071428D02*
X112311961Y-119119047D01*
X112311961Y-119119047D02*
X111931009Y-119119047D01*
X111931009Y-119119047D02*
X111835771Y-119071428D01*
X111835771Y-119071428D02*
X111788152Y-118976190D01*
X111788152Y-118976190D02*
X111788152Y-118785714D01*
X111788152Y-118785714D02*
X111835771Y-118690476D01*
X111835771Y-118690476D02*
X111931009Y-118642857D01*
X111931009Y-118642857D02*
X112026247Y-118642857D01*
X112026247Y-118642857D02*
X112121485Y-119119047D01*
X112454819Y-118214285D02*
X111788152Y-118214285D01*
X111978628Y-118214285D02*
X111883390Y-118166666D01*
X111883390Y-118166666D02*
X111835771Y-118119047D01*
X111835771Y-118119047D02*
X111788152Y-118023809D01*
X111788152Y-118023809D02*
X111788152Y-117928571D01*
X112169104Y-116880951D02*
X112169104Y-116404761D01*
X112454819Y-116976189D02*
X111454819Y-116642856D01*
X111454819Y-116642856D02*
X112454819Y-116309523D01*
X132504819Y-80502380D02*
X131504819Y-80502380D01*
X131600057Y-80073809D02*
X131552438Y-80026190D01*
X131552438Y-80026190D02*
X131504819Y-79930952D01*
X131504819Y-79930952D02*
X131504819Y-79692857D01*
X131504819Y-79692857D02*
X131552438Y-79597619D01*
X131552438Y-79597619D02*
X131600057Y-79550000D01*
X131600057Y-79550000D02*
X131695295Y-79502381D01*
X131695295Y-79502381D02*
X131790533Y-79502381D01*
X131790533Y-79502381D02*
X131933390Y-79550000D01*
X131933390Y-79550000D02*
X132504819Y-80121428D01*
X132504819Y-80121428D02*
X132504819Y-79502381D01*
X132409580Y-78502381D02*
X132457200Y-78550000D01*
X132457200Y-78550000D02*
X132504819Y-78692857D01*
X132504819Y-78692857D02*
X132504819Y-78788095D01*
X132504819Y-78788095D02*
X132457200Y-78930952D01*
X132457200Y-78930952D02*
X132361961Y-79026190D01*
X132361961Y-79026190D02*
X132266723Y-79073809D01*
X132266723Y-79073809D02*
X132076247Y-79121428D01*
X132076247Y-79121428D02*
X131933390Y-79121428D01*
X131933390Y-79121428D02*
X131742914Y-79073809D01*
X131742914Y-79073809D02*
X131647676Y-79026190D01*
X131647676Y-79026190D02*
X131552438Y-78930952D01*
X131552438Y-78930952D02*
X131504819Y-78788095D01*
X131504819Y-78788095D02*
X131504819Y-78692857D01*
X131504819Y-78692857D02*
X131552438Y-78550000D01*
X131552438Y-78550000D02*
X131600057Y-78502381D01*
X131600057Y-78121428D02*
X131552438Y-78073809D01*
X131552438Y-78073809D02*
X131504819Y-77978571D01*
X131504819Y-77978571D02*
X131504819Y-77740476D01*
X131504819Y-77740476D02*
X131552438Y-77645238D01*
X131552438Y-77645238D02*
X131600057Y-77597619D01*
X131600057Y-77597619D02*
X131695295Y-77550000D01*
X131695295Y-77550000D02*
X131790533Y-77550000D01*
X131790533Y-77550000D02*
X131933390Y-77597619D01*
X131933390Y-77597619D02*
X132504819Y-78169047D01*
X132504819Y-78169047D02*
X132504819Y-77550000D01*
X94404761Y-143531009D02*
X94547618Y-143578628D01*
X94547618Y-143578628D02*
X94595237Y-143626247D01*
X94595237Y-143626247D02*
X94642856Y-143721485D01*
X94642856Y-143721485D02*
X94642856Y-143864342D01*
X94642856Y-143864342D02*
X94595237Y-143959580D01*
X94595237Y-143959580D02*
X94547618Y-144007200D01*
X94547618Y-144007200D02*
X94452380Y-144054819D01*
X94452380Y-144054819D02*
X94071428Y-144054819D01*
X94071428Y-144054819D02*
X94071428Y-143054819D01*
X94071428Y-143054819D02*
X94404761Y-143054819D01*
X94404761Y-143054819D02*
X94499999Y-143102438D01*
X94499999Y-143102438D02*
X94547618Y-143150057D01*
X94547618Y-143150057D02*
X94595237Y-143245295D01*
X94595237Y-143245295D02*
X94595237Y-143340533D01*
X94595237Y-143340533D02*
X94547618Y-143435771D01*
X94547618Y-143435771D02*
X94499999Y-143483390D01*
X94499999Y-143483390D02*
X94404761Y-143531009D01*
X94404761Y-143531009D02*
X94071428Y-143531009D01*
X95499999Y-144054819D02*
X95499999Y-143531009D01*
X95499999Y-143531009D02*
X95452380Y-143435771D01*
X95452380Y-143435771D02*
X95357142Y-143388152D01*
X95357142Y-143388152D02*
X95166666Y-143388152D01*
X95166666Y-143388152D02*
X95071428Y-143435771D01*
X95499999Y-144007200D02*
X95404761Y-144054819D01*
X95404761Y-144054819D02*
X95166666Y-144054819D01*
X95166666Y-144054819D02*
X95071428Y-144007200D01*
X95071428Y-144007200D02*
X95023809Y-143911961D01*
X95023809Y-143911961D02*
X95023809Y-143816723D01*
X95023809Y-143816723D02*
X95071428Y-143721485D01*
X95071428Y-143721485D02*
X95166666Y-143673866D01*
X95166666Y-143673866D02*
X95404761Y-143673866D01*
X95404761Y-143673866D02*
X95499999Y-143626247D01*
X95833333Y-143388152D02*
X96214285Y-143388152D01*
X95976190Y-143054819D02*
X95976190Y-143911961D01*
X95976190Y-143911961D02*
X96023809Y-144007200D01*
X96023809Y-144007200D02*
X96119047Y-144054819D01*
X96119047Y-144054819D02*
X96214285Y-144054819D01*
X96928571Y-144007200D02*
X96833333Y-144054819D01*
X96833333Y-144054819D02*
X96642857Y-144054819D01*
X96642857Y-144054819D02*
X96547619Y-144007200D01*
X96547619Y-144007200D02*
X96500000Y-143911961D01*
X96500000Y-143911961D02*
X96500000Y-143531009D01*
X96500000Y-143531009D02*
X96547619Y-143435771D01*
X96547619Y-143435771D02*
X96642857Y-143388152D01*
X96642857Y-143388152D02*
X96833333Y-143388152D01*
X96833333Y-143388152D02*
X96928571Y-143435771D01*
X96928571Y-143435771D02*
X96976190Y-143531009D01*
X96976190Y-143531009D02*
X96976190Y-143626247D01*
X96976190Y-143626247D02*
X96500000Y-143721485D01*
X97404762Y-144054819D02*
X97404762Y-143388152D01*
X97404762Y-143578628D02*
X97452381Y-143483390D01*
X97452381Y-143483390D02*
X97500000Y-143435771D01*
X97500000Y-143435771D02*
X97595238Y-143388152D01*
X97595238Y-143388152D02*
X97690476Y-143388152D01*
X98023810Y-144054819D02*
X98023810Y-143388152D01*
X98023810Y-143054819D02*
X97976191Y-143102438D01*
X97976191Y-143102438D02*
X98023810Y-143150057D01*
X98023810Y-143150057D02*
X98071429Y-143102438D01*
X98071429Y-143102438D02*
X98023810Y-143054819D01*
X98023810Y-143054819D02*
X98023810Y-143150057D01*
X98928571Y-144054819D02*
X98928571Y-143531009D01*
X98928571Y-143531009D02*
X98880952Y-143435771D01*
X98880952Y-143435771D02*
X98785714Y-143388152D01*
X98785714Y-143388152D02*
X98595238Y-143388152D01*
X98595238Y-143388152D02*
X98500000Y-143435771D01*
X98928571Y-144007200D02*
X98833333Y-144054819D01*
X98833333Y-144054819D02*
X98595238Y-144054819D01*
X98595238Y-144054819D02*
X98500000Y-144007200D01*
X98500000Y-144007200D02*
X98452381Y-143911961D01*
X98452381Y-143911961D02*
X98452381Y-143816723D01*
X98452381Y-143816723D02*
X98500000Y-143721485D01*
X98500000Y-143721485D02*
X98595238Y-143673866D01*
X98595238Y-143673866D02*
X98833333Y-143673866D01*
X98833333Y-143673866D02*
X98928571Y-143626247D01*
X77954819Y-124092857D02*
X76954819Y-124092857D01*
X76954819Y-124092857D02*
X77669104Y-123759524D01*
X77669104Y-123759524D02*
X76954819Y-123426191D01*
X76954819Y-123426191D02*
X77954819Y-123426191D01*
X77954819Y-122807143D02*
X77907200Y-122902381D01*
X77907200Y-122902381D02*
X77859580Y-122950000D01*
X77859580Y-122950000D02*
X77764342Y-122997619D01*
X77764342Y-122997619D02*
X77478628Y-122997619D01*
X77478628Y-122997619D02*
X77383390Y-122950000D01*
X77383390Y-122950000D02*
X77335771Y-122902381D01*
X77335771Y-122902381D02*
X77288152Y-122807143D01*
X77288152Y-122807143D02*
X77288152Y-122664286D01*
X77288152Y-122664286D02*
X77335771Y-122569048D01*
X77335771Y-122569048D02*
X77383390Y-122521429D01*
X77383390Y-122521429D02*
X77478628Y-122473810D01*
X77478628Y-122473810D02*
X77764342Y-122473810D01*
X77764342Y-122473810D02*
X77859580Y-122521429D01*
X77859580Y-122521429D02*
X77907200Y-122569048D01*
X77907200Y-122569048D02*
X77954819Y-122664286D01*
X77954819Y-122664286D02*
X77954819Y-122807143D01*
X77288152Y-122188095D02*
X77288152Y-121807143D01*
X76954819Y-122045238D02*
X77811961Y-122045238D01*
X77811961Y-122045238D02*
X77907200Y-121997619D01*
X77907200Y-121997619D02*
X77954819Y-121902381D01*
X77954819Y-121902381D02*
X77954819Y-121807143D01*
X77954819Y-121330952D02*
X77907200Y-121426190D01*
X77907200Y-121426190D02*
X77859580Y-121473809D01*
X77859580Y-121473809D02*
X77764342Y-121521428D01*
X77764342Y-121521428D02*
X77478628Y-121521428D01*
X77478628Y-121521428D02*
X77383390Y-121473809D01*
X77383390Y-121473809D02*
X77335771Y-121426190D01*
X77335771Y-121426190D02*
X77288152Y-121330952D01*
X77288152Y-121330952D02*
X77288152Y-121188095D01*
X77288152Y-121188095D02*
X77335771Y-121092857D01*
X77335771Y-121092857D02*
X77383390Y-121045238D01*
X77383390Y-121045238D02*
X77478628Y-120997619D01*
X77478628Y-120997619D02*
X77764342Y-120997619D01*
X77764342Y-120997619D02*
X77859580Y-121045238D01*
X77859580Y-121045238D02*
X77907200Y-121092857D01*
X77907200Y-121092857D02*
X77954819Y-121188095D01*
X77954819Y-121188095D02*
X77954819Y-121330952D01*
X77954819Y-120569047D02*
X77288152Y-120569047D01*
X77478628Y-120569047D02*
X77383390Y-120521428D01*
X77383390Y-120521428D02*
X77335771Y-120473809D01*
X77335771Y-120473809D02*
X77288152Y-120378571D01*
X77288152Y-120378571D02*
X77288152Y-120283333D01*
X77669104Y-119235713D02*
X77669104Y-118759523D01*
X77954819Y-119330951D02*
X76954819Y-118997618D01*
X76954819Y-118997618D02*
X77954819Y-118664285D01*
X92047618Y-66454819D02*
X91714285Y-65978628D01*
X91476190Y-66454819D02*
X91476190Y-65454819D01*
X91476190Y-65454819D02*
X91857142Y-65454819D01*
X91857142Y-65454819D02*
X91952380Y-65502438D01*
X91952380Y-65502438D02*
X91999999Y-65550057D01*
X91999999Y-65550057D02*
X92047618Y-65645295D01*
X92047618Y-65645295D02*
X92047618Y-65788152D01*
X92047618Y-65788152D02*
X91999999Y-65883390D01*
X91999999Y-65883390D02*
X91952380Y-65931009D01*
X91952380Y-65931009D02*
X91857142Y-65978628D01*
X91857142Y-65978628D02*
X91476190Y-65978628D01*
X92857142Y-66407200D02*
X92761904Y-66454819D01*
X92761904Y-66454819D02*
X92571428Y-66454819D01*
X92571428Y-66454819D02*
X92476190Y-66407200D01*
X92476190Y-66407200D02*
X92428571Y-66311961D01*
X92428571Y-66311961D02*
X92428571Y-65931009D01*
X92428571Y-65931009D02*
X92476190Y-65835771D01*
X92476190Y-65835771D02*
X92571428Y-65788152D01*
X92571428Y-65788152D02*
X92761904Y-65788152D01*
X92761904Y-65788152D02*
X92857142Y-65835771D01*
X92857142Y-65835771D02*
X92904761Y-65931009D01*
X92904761Y-65931009D02*
X92904761Y-66026247D01*
X92904761Y-66026247D02*
X92428571Y-66121485D01*
X93285714Y-66407200D02*
X93380952Y-66454819D01*
X93380952Y-66454819D02*
X93571428Y-66454819D01*
X93571428Y-66454819D02*
X93666666Y-66407200D01*
X93666666Y-66407200D02*
X93714285Y-66311961D01*
X93714285Y-66311961D02*
X93714285Y-66264342D01*
X93714285Y-66264342D02*
X93666666Y-66169104D01*
X93666666Y-66169104D02*
X93571428Y-66121485D01*
X93571428Y-66121485D02*
X93428571Y-66121485D01*
X93428571Y-66121485D02*
X93333333Y-66073866D01*
X93333333Y-66073866D02*
X93285714Y-65978628D01*
X93285714Y-65978628D02*
X93285714Y-65931009D01*
X93285714Y-65931009D02*
X93333333Y-65835771D01*
X93333333Y-65835771D02*
X93428571Y-65788152D01*
X93428571Y-65788152D02*
X93571428Y-65788152D01*
X93571428Y-65788152D02*
X93666666Y-65835771D01*
X94142857Y-66454819D02*
X94142857Y-65788152D01*
X94142857Y-65454819D02*
X94095238Y-65502438D01*
X94095238Y-65502438D02*
X94142857Y-65550057D01*
X94142857Y-65550057D02*
X94190476Y-65502438D01*
X94190476Y-65502438D02*
X94142857Y-65454819D01*
X94142857Y-65454819D02*
X94142857Y-65550057D01*
X94571428Y-66407200D02*
X94666666Y-66454819D01*
X94666666Y-66454819D02*
X94857142Y-66454819D01*
X94857142Y-66454819D02*
X94952380Y-66407200D01*
X94952380Y-66407200D02*
X94999999Y-66311961D01*
X94999999Y-66311961D02*
X94999999Y-66264342D01*
X94999999Y-66264342D02*
X94952380Y-66169104D01*
X94952380Y-66169104D02*
X94857142Y-66121485D01*
X94857142Y-66121485D02*
X94714285Y-66121485D01*
X94714285Y-66121485D02*
X94619047Y-66073866D01*
X94619047Y-66073866D02*
X94571428Y-65978628D01*
X94571428Y-65978628D02*
X94571428Y-65931009D01*
X94571428Y-65931009D02*
X94619047Y-65835771D01*
X94619047Y-65835771D02*
X94714285Y-65788152D01*
X94714285Y-65788152D02*
X94857142Y-65788152D01*
X94857142Y-65788152D02*
X94952380Y-65835771D01*
X95285714Y-65788152D02*
X95666666Y-65788152D01*
X95428571Y-65454819D02*
X95428571Y-66311961D01*
X95428571Y-66311961D02*
X95476190Y-66407200D01*
X95476190Y-66407200D02*
X95571428Y-66454819D01*
X95571428Y-66454819D02*
X95666666Y-66454819D01*
X96380952Y-66407200D02*
X96285714Y-66454819D01*
X96285714Y-66454819D02*
X96095238Y-66454819D01*
X96095238Y-66454819D02*
X96000000Y-66407200D01*
X96000000Y-66407200D02*
X95952381Y-66311961D01*
X95952381Y-66311961D02*
X95952381Y-65931009D01*
X95952381Y-65931009D02*
X96000000Y-65835771D01*
X96000000Y-65835771D02*
X96095238Y-65788152D01*
X96095238Y-65788152D02*
X96285714Y-65788152D01*
X96285714Y-65788152D02*
X96380952Y-65835771D01*
X96380952Y-65835771D02*
X96428571Y-65931009D01*
X96428571Y-65931009D02*
X96428571Y-66026247D01*
X96428571Y-66026247D02*
X95952381Y-66121485D01*
X96857143Y-65788152D02*
X96857143Y-66454819D01*
X96857143Y-65883390D02*
X96904762Y-65835771D01*
X96904762Y-65835771D02*
X97000000Y-65788152D01*
X97000000Y-65788152D02*
X97142857Y-65788152D01*
X97142857Y-65788152D02*
X97238095Y-65835771D01*
X97238095Y-65835771D02*
X97285714Y-65931009D01*
X97285714Y-65931009D02*
X97285714Y-66454819D01*
X98190476Y-66407200D02*
X98095238Y-66454819D01*
X98095238Y-66454819D02*
X97904762Y-66454819D01*
X97904762Y-66454819D02*
X97809524Y-66407200D01*
X97809524Y-66407200D02*
X97761905Y-66359580D01*
X97761905Y-66359580D02*
X97714286Y-66264342D01*
X97714286Y-66264342D02*
X97714286Y-65978628D01*
X97714286Y-65978628D02*
X97761905Y-65883390D01*
X97761905Y-65883390D02*
X97809524Y-65835771D01*
X97809524Y-65835771D02*
X97904762Y-65788152D01*
X97904762Y-65788152D02*
X98095238Y-65788152D01*
X98095238Y-65788152D02*
X98190476Y-65835771D01*
X98619048Y-66454819D02*
X98619048Y-65788152D01*
X98619048Y-65454819D02*
X98571429Y-65502438D01*
X98571429Y-65502438D02*
X98619048Y-65550057D01*
X98619048Y-65550057D02*
X98666667Y-65502438D01*
X98666667Y-65502438D02*
X98619048Y-65454819D01*
X98619048Y-65454819D02*
X98619048Y-65550057D01*
X99523809Y-66454819D02*
X99523809Y-65931009D01*
X99523809Y-65931009D02*
X99476190Y-65835771D01*
X99476190Y-65835771D02*
X99380952Y-65788152D01*
X99380952Y-65788152D02*
X99190476Y-65788152D01*
X99190476Y-65788152D02*
X99095238Y-65835771D01*
X99523809Y-66407200D02*
X99428571Y-66454819D01*
X99428571Y-66454819D02*
X99190476Y-66454819D01*
X99190476Y-66454819D02*
X99095238Y-66407200D01*
X99095238Y-66407200D02*
X99047619Y-66311961D01*
X99047619Y-66311961D02*
X99047619Y-66216723D01*
X99047619Y-66216723D02*
X99095238Y-66121485D01*
X99095238Y-66121485D02*
X99190476Y-66073866D01*
X99190476Y-66073866D02*
X99428571Y-66073866D01*
X99428571Y-66073866D02*
X99523809Y-66026247D01*
X121407200Y-110857142D02*
X121454819Y-110714285D01*
X121454819Y-110714285D02*
X121454819Y-110476190D01*
X121454819Y-110476190D02*
X121407200Y-110380952D01*
X121407200Y-110380952D02*
X121359580Y-110333333D01*
X121359580Y-110333333D02*
X121264342Y-110285714D01*
X121264342Y-110285714D02*
X121169104Y-110285714D01*
X121169104Y-110285714D02*
X121073866Y-110333333D01*
X121073866Y-110333333D02*
X121026247Y-110380952D01*
X121026247Y-110380952D02*
X120978628Y-110476190D01*
X120978628Y-110476190D02*
X120931009Y-110666666D01*
X120931009Y-110666666D02*
X120883390Y-110761904D01*
X120883390Y-110761904D02*
X120835771Y-110809523D01*
X120835771Y-110809523D02*
X120740533Y-110857142D01*
X120740533Y-110857142D02*
X120645295Y-110857142D01*
X120645295Y-110857142D02*
X120550057Y-110809523D01*
X120550057Y-110809523D02*
X120502438Y-110761904D01*
X120502438Y-110761904D02*
X120454819Y-110666666D01*
X120454819Y-110666666D02*
X120454819Y-110428571D01*
X120454819Y-110428571D02*
X120502438Y-110285714D01*
X121407200Y-109476190D02*
X121454819Y-109571428D01*
X121454819Y-109571428D02*
X121454819Y-109761904D01*
X121454819Y-109761904D02*
X121407200Y-109857142D01*
X121407200Y-109857142D02*
X121311961Y-109904761D01*
X121311961Y-109904761D02*
X120931009Y-109904761D01*
X120931009Y-109904761D02*
X120835771Y-109857142D01*
X120835771Y-109857142D02*
X120788152Y-109761904D01*
X120788152Y-109761904D02*
X120788152Y-109571428D01*
X120788152Y-109571428D02*
X120835771Y-109476190D01*
X120835771Y-109476190D02*
X120931009Y-109428571D01*
X120931009Y-109428571D02*
X121026247Y-109428571D01*
X121026247Y-109428571D02*
X121121485Y-109904761D01*
X121454819Y-108999999D02*
X120788152Y-108999999D01*
X120978628Y-108999999D02*
X120883390Y-108952380D01*
X120883390Y-108952380D02*
X120835771Y-108904761D01*
X120835771Y-108904761D02*
X120788152Y-108809523D01*
X120788152Y-108809523D02*
X120788152Y-108714285D01*
X120788152Y-108476189D02*
X121454819Y-108238094D01*
X121454819Y-108238094D02*
X120788152Y-107999999D01*
X121454819Y-107476189D02*
X121407200Y-107571427D01*
X121407200Y-107571427D02*
X121359580Y-107619046D01*
X121359580Y-107619046D02*
X121264342Y-107666665D01*
X121264342Y-107666665D02*
X120978628Y-107666665D01*
X120978628Y-107666665D02*
X120883390Y-107619046D01*
X120883390Y-107619046D02*
X120835771Y-107571427D01*
X120835771Y-107571427D02*
X120788152Y-107476189D01*
X120788152Y-107476189D02*
X120788152Y-107333332D01*
X120788152Y-107333332D02*
X120835771Y-107238094D01*
X120835771Y-107238094D02*
X120883390Y-107190475D01*
X120883390Y-107190475D02*
X120978628Y-107142856D01*
X120978628Y-107142856D02*
X121264342Y-107142856D01*
X121264342Y-107142856D02*
X121359580Y-107190475D01*
X121359580Y-107190475D02*
X121407200Y-107238094D01*
X121407200Y-107238094D02*
X121454819Y-107333332D01*
X121454819Y-107333332D02*
X121454819Y-107476189D01*
X66619046Y-123859580D02*
X66571427Y-123907200D01*
X66571427Y-123907200D02*
X66428570Y-123954819D01*
X66428570Y-123954819D02*
X66333332Y-123954819D01*
X66333332Y-123954819D02*
X66190475Y-123907200D01*
X66190475Y-123907200D02*
X66095237Y-123811961D01*
X66095237Y-123811961D02*
X66047618Y-123716723D01*
X66047618Y-123716723D02*
X65999999Y-123526247D01*
X65999999Y-123526247D02*
X65999999Y-123383390D01*
X65999999Y-123383390D02*
X66047618Y-123192914D01*
X66047618Y-123192914D02*
X66095237Y-123097676D01*
X66095237Y-123097676D02*
X66190475Y-123002438D01*
X66190475Y-123002438D02*
X66333332Y-122954819D01*
X66333332Y-122954819D02*
X66428570Y-122954819D01*
X66428570Y-122954819D02*
X66571427Y-123002438D01*
X66571427Y-123002438D02*
X66619046Y-123050057D01*
X67190475Y-123954819D02*
X67095237Y-123907200D01*
X67095237Y-123907200D02*
X67047618Y-123859580D01*
X67047618Y-123859580D02*
X66999999Y-123764342D01*
X66999999Y-123764342D02*
X66999999Y-123478628D01*
X66999999Y-123478628D02*
X67047618Y-123383390D01*
X67047618Y-123383390D02*
X67095237Y-123335771D01*
X67095237Y-123335771D02*
X67190475Y-123288152D01*
X67190475Y-123288152D02*
X67333332Y-123288152D01*
X67333332Y-123288152D02*
X67428570Y-123335771D01*
X67428570Y-123335771D02*
X67476189Y-123383390D01*
X67476189Y-123383390D02*
X67523808Y-123478628D01*
X67523808Y-123478628D02*
X67523808Y-123764342D01*
X67523808Y-123764342D02*
X67476189Y-123859580D01*
X67476189Y-123859580D02*
X67428570Y-123907200D01*
X67428570Y-123907200D02*
X67333332Y-123954819D01*
X67333332Y-123954819D02*
X67190475Y-123954819D01*
X67952380Y-123288152D02*
X67952380Y-123954819D01*
X67952380Y-123383390D02*
X67999999Y-123335771D01*
X67999999Y-123335771D02*
X68095237Y-123288152D01*
X68095237Y-123288152D02*
X68238094Y-123288152D01*
X68238094Y-123288152D02*
X68333332Y-123335771D01*
X68333332Y-123335771D02*
X68380951Y-123431009D01*
X68380951Y-123431009D02*
X68380951Y-123954819D01*
X68761904Y-123288152D02*
X68999999Y-123954819D01*
X68999999Y-123954819D02*
X69238094Y-123288152D01*
X69999999Y-123907200D02*
X69904761Y-123954819D01*
X69904761Y-123954819D02*
X69714285Y-123954819D01*
X69714285Y-123954819D02*
X69619047Y-123907200D01*
X69619047Y-123907200D02*
X69571428Y-123811961D01*
X69571428Y-123811961D02*
X69571428Y-123431009D01*
X69571428Y-123431009D02*
X69619047Y-123335771D01*
X69619047Y-123335771D02*
X69714285Y-123288152D01*
X69714285Y-123288152D02*
X69904761Y-123288152D01*
X69904761Y-123288152D02*
X69999999Y-123335771D01*
X69999999Y-123335771D02*
X70047618Y-123431009D01*
X70047618Y-123431009D02*
X70047618Y-123526247D01*
X70047618Y-123526247D02*
X69571428Y-123621485D01*
X70476190Y-123954819D02*
X70476190Y-123288152D01*
X70476190Y-123478628D02*
X70523809Y-123383390D01*
X70523809Y-123383390D02*
X70571428Y-123335771D01*
X70571428Y-123335771D02*
X70666666Y-123288152D01*
X70666666Y-123288152D02*
X70761904Y-123288152D01*
X71047619Y-123907200D02*
X71142857Y-123954819D01*
X71142857Y-123954819D02*
X71333333Y-123954819D01*
X71333333Y-123954819D02*
X71428571Y-123907200D01*
X71428571Y-123907200D02*
X71476190Y-123811961D01*
X71476190Y-123811961D02*
X71476190Y-123764342D01*
X71476190Y-123764342D02*
X71428571Y-123669104D01*
X71428571Y-123669104D02*
X71333333Y-123621485D01*
X71333333Y-123621485D02*
X71190476Y-123621485D01*
X71190476Y-123621485D02*
X71095238Y-123573866D01*
X71095238Y-123573866D02*
X71047619Y-123478628D01*
X71047619Y-123478628D02*
X71047619Y-123431009D01*
X71047619Y-123431009D02*
X71095238Y-123335771D01*
X71095238Y-123335771D02*
X71190476Y-123288152D01*
X71190476Y-123288152D02*
X71333333Y-123288152D01*
X71333333Y-123288152D02*
X71428571Y-123335771D01*
X72047619Y-123954819D02*
X71952381Y-123907200D01*
X71952381Y-123907200D02*
X71904762Y-123859580D01*
X71904762Y-123859580D02*
X71857143Y-123764342D01*
X71857143Y-123764342D02*
X71857143Y-123478628D01*
X71857143Y-123478628D02*
X71904762Y-123383390D01*
X71904762Y-123383390D02*
X71952381Y-123335771D01*
X71952381Y-123335771D02*
X72047619Y-123288152D01*
X72047619Y-123288152D02*
X72190476Y-123288152D01*
X72190476Y-123288152D02*
X72285714Y-123335771D01*
X72285714Y-123335771D02*
X72333333Y-123383390D01*
X72333333Y-123383390D02*
X72380952Y-123478628D01*
X72380952Y-123478628D02*
X72380952Y-123764342D01*
X72380952Y-123764342D02*
X72333333Y-123859580D01*
X72333333Y-123859580D02*
X72285714Y-123907200D01*
X72285714Y-123907200D02*
X72190476Y-123954819D01*
X72190476Y-123954819D02*
X72047619Y-123954819D01*
X72809524Y-123954819D02*
X72809524Y-123288152D01*
X72809524Y-123478628D02*
X72857143Y-123383390D01*
X72857143Y-123383390D02*
X72904762Y-123335771D01*
X72904762Y-123335771D02*
X73000000Y-123288152D01*
X73000000Y-123288152D02*
X73095238Y-123288152D01*
X107258019Y-104642856D02*
X107258019Y-104071428D01*
X108258019Y-104357142D02*
X107258019Y-104357142D01*
X107734209Y-103404761D02*
X107781828Y-103261904D01*
X107781828Y-103261904D02*
X107829447Y-103214285D01*
X107829447Y-103214285D02*
X107924685Y-103166666D01*
X107924685Y-103166666D02*
X108067542Y-103166666D01*
X108067542Y-103166666D02*
X108162780Y-103214285D01*
X108162780Y-103214285D02*
X108210400Y-103261904D01*
X108210400Y-103261904D02*
X108258019Y-103357142D01*
X108258019Y-103357142D02*
X108258019Y-103738094D01*
X108258019Y-103738094D02*
X107258019Y-103738094D01*
X107258019Y-103738094D02*
X107258019Y-103404761D01*
X107258019Y-103404761D02*
X107305638Y-103309523D01*
X107305638Y-103309523D02*
X107353257Y-103261904D01*
X107353257Y-103261904D02*
X107448495Y-103214285D01*
X107448495Y-103214285D02*
X107543733Y-103214285D01*
X107543733Y-103214285D02*
X107638971Y-103261904D01*
X107638971Y-103261904D02*
X107686590Y-103309523D01*
X107686590Y-103309523D02*
X107734209Y-103404761D01*
X107734209Y-103404761D02*
X107734209Y-103738094D01*
X107258019Y-102309523D02*
X107258019Y-102499999D01*
X107258019Y-102499999D02*
X107305638Y-102595237D01*
X107305638Y-102595237D02*
X107353257Y-102642856D01*
X107353257Y-102642856D02*
X107496114Y-102738094D01*
X107496114Y-102738094D02*
X107686590Y-102785713D01*
X107686590Y-102785713D02*
X108067542Y-102785713D01*
X108067542Y-102785713D02*
X108162780Y-102738094D01*
X108162780Y-102738094D02*
X108210400Y-102690475D01*
X108210400Y-102690475D02*
X108258019Y-102595237D01*
X108258019Y-102595237D02*
X108258019Y-102404761D01*
X108258019Y-102404761D02*
X108210400Y-102309523D01*
X108210400Y-102309523D02*
X108162780Y-102261904D01*
X108162780Y-102261904D02*
X108067542Y-102214285D01*
X108067542Y-102214285D02*
X107829447Y-102214285D01*
X107829447Y-102214285D02*
X107734209Y-102261904D01*
X107734209Y-102261904D02*
X107686590Y-102309523D01*
X107686590Y-102309523D02*
X107638971Y-102404761D01*
X107638971Y-102404761D02*
X107638971Y-102595237D01*
X107638971Y-102595237D02*
X107686590Y-102690475D01*
X107686590Y-102690475D02*
X107734209Y-102738094D01*
X107734209Y-102738094D02*
X107829447Y-102785713D01*
X107258019Y-101357142D02*
X107258019Y-101547618D01*
X107258019Y-101547618D02*
X107305638Y-101642856D01*
X107305638Y-101642856D02*
X107353257Y-101690475D01*
X107353257Y-101690475D02*
X107496114Y-101785713D01*
X107496114Y-101785713D02*
X107686590Y-101833332D01*
X107686590Y-101833332D02*
X108067542Y-101833332D01*
X108067542Y-101833332D02*
X108162780Y-101785713D01*
X108162780Y-101785713D02*
X108210400Y-101738094D01*
X108210400Y-101738094D02*
X108258019Y-101642856D01*
X108258019Y-101642856D02*
X108258019Y-101452380D01*
X108258019Y-101452380D02*
X108210400Y-101357142D01*
X108210400Y-101357142D02*
X108162780Y-101309523D01*
X108162780Y-101309523D02*
X108067542Y-101261904D01*
X108067542Y-101261904D02*
X107829447Y-101261904D01*
X107829447Y-101261904D02*
X107734209Y-101309523D01*
X107734209Y-101309523D02*
X107686590Y-101357142D01*
X107686590Y-101357142D02*
X107638971Y-101452380D01*
X107638971Y-101452380D02*
X107638971Y-101642856D01*
X107638971Y-101642856D02*
X107686590Y-101738094D01*
X107686590Y-101738094D02*
X107734209Y-101785713D01*
X107734209Y-101785713D02*
X107829447Y-101833332D01*
X108258019Y-100309523D02*
X108258019Y-100880951D01*
X108258019Y-100595237D02*
X107258019Y-100595237D01*
X107258019Y-100595237D02*
X107400876Y-100690475D01*
X107400876Y-100690475D02*
X107496114Y-100785713D01*
X107496114Y-100785713D02*
X107543733Y-100880951D01*
X107353257Y-99928570D02*
X107305638Y-99880951D01*
X107305638Y-99880951D02*
X107258019Y-99785713D01*
X107258019Y-99785713D02*
X107258019Y-99547618D01*
X107258019Y-99547618D02*
X107305638Y-99452380D01*
X107305638Y-99452380D02*
X107353257Y-99404761D01*
X107353257Y-99404761D02*
X107448495Y-99357142D01*
X107448495Y-99357142D02*
X107543733Y-99357142D01*
X107543733Y-99357142D02*
X107686590Y-99404761D01*
X107686590Y-99404761D02*
X108258019Y-99976189D01*
X108258019Y-99976189D02*
X108258019Y-99357142D01*
X107734209Y-98595237D02*
X107734209Y-98928570D01*
X108258019Y-98928570D02*
X107258019Y-98928570D01*
X107258019Y-98928570D02*
X107258019Y-98452380D01*
X108258019Y-98071427D02*
X107258019Y-98071427D01*
X107258019Y-98071427D02*
X108258019Y-97499999D01*
X108258019Y-97499999D02*
X107258019Y-97499999D01*
X107305638Y-96499999D02*
X107258019Y-96595237D01*
X107258019Y-96595237D02*
X107258019Y-96738094D01*
X107258019Y-96738094D02*
X107305638Y-96880951D01*
X107305638Y-96880951D02*
X107400876Y-96976189D01*
X107400876Y-96976189D02*
X107496114Y-97023808D01*
X107496114Y-97023808D02*
X107686590Y-97071427D01*
X107686590Y-97071427D02*
X107829447Y-97071427D01*
X107829447Y-97071427D02*
X108019923Y-97023808D01*
X108019923Y-97023808D02*
X108115161Y-96976189D01*
X108115161Y-96976189D02*
X108210400Y-96880951D01*
X108210400Y-96880951D02*
X108258019Y-96738094D01*
X108258019Y-96738094D02*
X108258019Y-96642856D01*
X108258019Y-96642856D02*
X108210400Y-96499999D01*
X108210400Y-96499999D02*
X108162780Y-96452380D01*
X108162780Y-96452380D02*
X107829447Y-96452380D01*
X107829447Y-96452380D02*
X107829447Y-96642856D01*
X81785714Y-144007200D02*
X81928571Y-144054819D01*
X81928571Y-144054819D02*
X82166666Y-144054819D01*
X82166666Y-144054819D02*
X82261904Y-144007200D01*
X82261904Y-144007200D02*
X82309523Y-143959580D01*
X82309523Y-143959580D02*
X82357142Y-143864342D01*
X82357142Y-143864342D02*
X82357142Y-143769104D01*
X82357142Y-143769104D02*
X82309523Y-143673866D01*
X82309523Y-143673866D02*
X82261904Y-143626247D01*
X82261904Y-143626247D02*
X82166666Y-143578628D01*
X82166666Y-143578628D02*
X81976190Y-143531009D01*
X81976190Y-143531009D02*
X81880952Y-143483390D01*
X81880952Y-143483390D02*
X81833333Y-143435771D01*
X81833333Y-143435771D02*
X81785714Y-143340533D01*
X81785714Y-143340533D02*
X81785714Y-143245295D01*
X81785714Y-143245295D02*
X81833333Y-143150057D01*
X81833333Y-143150057D02*
X81880952Y-143102438D01*
X81880952Y-143102438D02*
X81976190Y-143054819D01*
X81976190Y-143054819D02*
X82214285Y-143054819D01*
X82214285Y-143054819D02*
X82357142Y-143102438D01*
X82690476Y-143388152D02*
X82880952Y-144054819D01*
X82880952Y-144054819D02*
X83071428Y-143578628D01*
X83071428Y-143578628D02*
X83261904Y-144054819D01*
X83261904Y-144054819D02*
X83452380Y-143388152D01*
X83833333Y-144054819D02*
X83833333Y-143388152D01*
X83833333Y-143054819D02*
X83785714Y-143102438D01*
X83785714Y-143102438D02*
X83833333Y-143150057D01*
X83833333Y-143150057D02*
X83880952Y-143102438D01*
X83880952Y-143102438D02*
X83833333Y-143054819D01*
X83833333Y-143054819D02*
X83833333Y-143150057D01*
X84166666Y-143388152D02*
X84547618Y-143388152D01*
X84309523Y-143054819D02*
X84309523Y-143911961D01*
X84309523Y-143911961D02*
X84357142Y-144007200D01*
X84357142Y-144007200D02*
X84452380Y-144054819D01*
X84452380Y-144054819D02*
X84547618Y-144054819D01*
X85309523Y-144007200D02*
X85214285Y-144054819D01*
X85214285Y-144054819D02*
X85023809Y-144054819D01*
X85023809Y-144054819D02*
X84928571Y-144007200D01*
X84928571Y-144007200D02*
X84880952Y-143959580D01*
X84880952Y-143959580D02*
X84833333Y-143864342D01*
X84833333Y-143864342D02*
X84833333Y-143578628D01*
X84833333Y-143578628D02*
X84880952Y-143483390D01*
X84880952Y-143483390D02*
X84928571Y-143435771D01*
X84928571Y-143435771D02*
X85023809Y-143388152D01*
X85023809Y-143388152D02*
X85214285Y-143388152D01*
X85214285Y-143388152D02*
X85309523Y-143435771D01*
X85738095Y-144054819D02*
X85738095Y-143054819D01*
X86166666Y-144054819D02*
X86166666Y-143531009D01*
X86166666Y-143531009D02*
X86119047Y-143435771D01*
X86119047Y-143435771D02*
X86023809Y-143388152D01*
X86023809Y-143388152D02*
X85880952Y-143388152D01*
X85880952Y-143388152D02*
X85785714Y-143435771D01*
X85785714Y-143435771D02*
X85738095Y-143483390D01*
X96554819Y-124214285D02*
X95554819Y-124214285D01*
X95554819Y-124214285D02*
X96269104Y-123880952D01*
X96269104Y-123880952D02*
X95554819Y-123547619D01*
X95554819Y-123547619D02*
X96554819Y-123547619D01*
X96554819Y-122928571D02*
X96507200Y-123023809D01*
X96507200Y-123023809D02*
X96459580Y-123071428D01*
X96459580Y-123071428D02*
X96364342Y-123119047D01*
X96364342Y-123119047D02*
X96078628Y-123119047D01*
X96078628Y-123119047D02*
X95983390Y-123071428D01*
X95983390Y-123071428D02*
X95935771Y-123023809D01*
X95935771Y-123023809D02*
X95888152Y-122928571D01*
X95888152Y-122928571D02*
X95888152Y-122785714D01*
X95888152Y-122785714D02*
X95935771Y-122690476D01*
X95935771Y-122690476D02*
X95983390Y-122642857D01*
X95983390Y-122642857D02*
X96078628Y-122595238D01*
X96078628Y-122595238D02*
X96364342Y-122595238D01*
X96364342Y-122595238D02*
X96459580Y-122642857D01*
X96459580Y-122642857D02*
X96507200Y-122690476D01*
X96507200Y-122690476D02*
X96554819Y-122785714D01*
X96554819Y-122785714D02*
X96554819Y-122928571D01*
X95888152Y-122309523D02*
X95888152Y-121928571D01*
X95554819Y-122166666D02*
X96411961Y-122166666D01*
X96411961Y-122166666D02*
X96507200Y-122119047D01*
X96507200Y-122119047D02*
X96554819Y-122023809D01*
X96554819Y-122023809D02*
X96554819Y-121928571D01*
X96554819Y-121452380D02*
X96507200Y-121547618D01*
X96507200Y-121547618D02*
X96459580Y-121595237D01*
X96459580Y-121595237D02*
X96364342Y-121642856D01*
X96364342Y-121642856D02*
X96078628Y-121642856D01*
X96078628Y-121642856D02*
X95983390Y-121595237D01*
X95983390Y-121595237D02*
X95935771Y-121547618D01*
X95935771Y-121547618D02*
X95888152Y-121452380D01*
X95888152Y-121452380D02*
X95888152Y-121309523D01*
X95888152Y-121309523D02*
X95935771Y-121214285D01*
X95935771Y-121214285D02*
X95983390Y-121166666D01*
X95983390Y-121166666D02*
X96078628Y-121119047D01*
X96078628Y-121119047D02*
X96364342Y-121119047D01*
X96364342Y-121119047D02*
X96459580Y-121166666D01*
X96459580Y-121166666D02*
X96507200Y-121214285D01*
X96507200Y-121214285D02*
X96554819Y-121309523D01*
X96554819Y-121309523D02*
X96554819Y-121452380D01*
X96554819Y-120690475D02*
X95888152Y-120690475D01*
X96078628Y-120690475D02*
X95983390Y-120642856D01*
X95983390Y-120642856D02*
X95935771Y-120595237D01*
X95935771Y-120595237D02*
X95888152Y-120499999D01*
X95888152Y-120499999D02*
X95888152Y-120404761D01*
X96031009Y-118976189D02*
X96078628Y-118833332D01*
X96078628Y-118833332D02*
X96126247Y-118785713D01*
X96126247Y-118785713D02*
X96221485Y-118738094D01*
X96221485Y-118738094D02*
X96364342Y-118738094D01*
X96364342Y-118738094D02*
X96459580Y-118785713D01*
X96459580Y-118785713D02*
X96507200Y-118833332D01*
X96507200Y-118833332D02*
X96554819Y-118928570D01*
X96554819Y-118928570D02*
X96554819Y-119309522D01*
X96554819Y-119309522D02*
X95554819Y-119309522D01*
X95554819Y-119309522D02*
X95554819Y-118976189D01*
X95554819Y-118976189D02*
X95602438Y-118880951D01*
X95602438Y-118880951D02*
X95650057Y-118833332D01*
X95650057Y-118833332D02*
X95745295Y-118785713D01*
X95745295Y-118785713D02*
X95840533Y-118785713D01*
X95840533Y-118785713D02*
X95935771Y-118833332D01*
X95935771Y-118833332D02*
X95983390Y-118880951D01*
X95983390Y-118880951D02*
X96031009Y-118976189D01*
X96031009Y-118976189D02*
X96031009Y-119309522D01*
X67446009Y-69523809D02*
X67446009Y-69190476D01*
X67969819Y-69047619D02*
X67969819Y-69523809D01*
X67969819Y-69523809D02*
X66969819Y-69523809D01*
X66969819Y-69523809D02*
X66969819Y-69047619D01*
X67922200Y-68666666D02*
X67969819Y-68571428D01*
X67969819Y-68571428D02*
X67969819Y-68380952D01*
X67969819Y-68380952D02*
X67922200Y-68285714D01*
X67922200Y-68285714D02*
X67826961Y-68238095D01*
X67826961Y-68238095D02*
X67779342Y-68238095D01*
X67779342Y-68238095D02*
X67684104Y-68285714D01*
X67684104Y-68285714D02*
X67636485Y-68380952D01*
X67636485Y-68380952D02*
X67636485Y-68523809D01*
X67636485Y-68523809D02*
X67588866Y-68619047D01*
X67588866Y-68619047D02*
X67493628Y-68666666D01*
X67493628Y-68666666D02*
X67446009Y-68666666D01*
X67446009Y-68666666D02*
X67350771Y-68619047D01*
X67350771Y-68619047D02*
X67303152Y-68523809D01*
X67303152Y-68523809D02*
X67303152Y-68380952D01*
X67303152Y-68380952D02*
X67350771Y-68285714D01*
X67303152Y-67809523D02*
X68303152Y-67809523D01*
X67350771Y-67809523D02*
X67303152Y-67714285D01*
X67303152Y-67714285D02*
X67303152Y-67523809D01*
X67303152Y-67523809D02*
X67350771Y-67428571D01*
X67350771Y-67428571D02*
X67398390Y-67380952D01*
X67398390Y-67380952D02*
X67493628Y-67333333D01*
X67493628Y-67333333D02*
X67779342Y-67333333D01*
X67779342Y-67333333D02*
X67874580Y-67380952D01*
X67874580Y-67380952D02*
X67922200Y-67428571D01*
X67922200Y-67428571D02*
X67969819Y-67523809D01*
X67969819Y-67523809D02*
X67969819Y-67714285D01*
X67969819Y-67714285D02*
X67922200Y-67809523D01*
X66969819Y-66999999D02*
X66969819Y-66380952D01*
X66969819Y-66380952D02*
X67350771Y-66714285D01*
X67350771Y-66714285D02*
X67350771Y-66571428D01*
X67350771Y-66571428D02*
X67398390Y-66476190D01*
X67398390Y-66476190D02*
X67446009Y-66428571D01*
X67446009Y-66428571D02*
X67541247Y-66380952D01*
X67541247Y-66380952D02*
X67779342Y-66380952D01*
X67779342Y-66380952D02*
X67874580Y-66428571D01*
X67874580Y-66428571D02*
X67922200Y-66476190D01*
X67922200Y-66476190D02*
X67969819Y-66571428D01*
X67969819Y-66571428D02*
X67969819Y-66857142D01*
X67969819Y-66857142D02*
X67922200Y-66952380D01*
X67922200Y-66952380D02*
X67874580Y-66999999D01*
X67065057Y-65999999D02*
X67017438Y-65952380D01*
X67017438Y-65952380D02*
X66969819Y-65857142D01*
X66969819Y-65857142D02*
X66969819Y-65619047D01*
X66969819Y-65619047D02*
X67017438Y-65523809D01*
X67017438Y-65523809D02*
X67065057Y-65476190D01*
X67065057Y-65476190D02*
X67160295Y-65428571D01*
X67160295Y-65428571D02*
X67255533Y-65428571D01*
X67255533Y-65428571D02*
X67398390Y-65476190D01*
X67398390Y-65476190D02*
X67969819Y-66047618D01*
X67969819Y-66047618D02*
X67969819Y-65428571D01*
X120407200Y-101952381D02*
X120454819Y-101809524D01*
X120454819Y-101809524D02*
X120454819Y-101571429D01*
X120454819Y-101571429D02*
X120407200Y-101476191D01*
X120407200Y-101476191D02*
X120359580Y-101428572D01*
X120359580Y-101428572D02*
X120264342Y-101380953D01*
X120264342Y-101380953D02*
X120169104Y-101380953D01*
X120169104Y-101380953D02*
X120073866Y-101428572D01*
X120073866Y-101428572D02*
X120026247Y-101476191D01*
X120026247Y-101476191D02*
X119978628Y-101571429D01*
X119978628Y-101571429D02*
X119931009Y-101761905D01*
X119931009Y-101761905D02*
X119883390Y-101857143D01*
X119883390Y-101857143D02*
X119835771Y-101904762D01*
X119835771Y-101904762D02*
X119740533Y-101952381D01*
X119740533Y-101952381D02*
X119645295Y-101952381D01*
X119645295Y-101952381D02*
X119550057Y-101904762D01*
X119550057Y-101904762D02*
X119502438Y-101857143D01*
X119502438Y-101857143D02*
X119454819Y-101761905D01*
X119454819Y-101761905D02*
X119454819Y-101523810D01*
X119454819Y-101523810D02*
X119502438Y-101380953D01*
X120407200Y-100571429D02*
X120454819Y-100666667D01*
X120454819Y-100666667D02*
X120454819Y-100857143D01*
X120454819Y-100857143D02*
X120407200Y-100952381D01*
X120407200Y-100952381D02*
X120311961Y-101000000D01*
X120311961Y-101000000D02*
X119931009Y-101000000D01*
X119931009Y-101000000D02*
X119835771Y-100952381D01*
X119835771Y-100952381D02*
X119788152Y-100857143D01*
X119788152Y-100857143D02*
X119788152Y-100666667D01*
X119788152Y-100666667D02*
X119835771Y-100571429D01*
X119835771Y-100571429D02*
X119931009Y-100523810D01*
X119931009Y-100523810D02*
X120026247Y-100523810D01*
X120026247Y-100523810D02*
X120121485Y-101000000D01*
X120454819Y-100095238D02*
X119788152Y-100095238D01*
X119978628Y-100095238D02*
X119883390Y-100047619D01*
X119883390Y-100047619D02*
X119835771Y-100000000D01*
X119835771Y-100000000D02*
X119788152Y-99904762D01*
X119788152Y-99904762D02*
X119788152Y-99809524D01*
X119788152Y-99571428D02*
X120454819Y-99333333D01*
X120454819Y-99333333D02*
X119788152Y-99095238D01*
X120454819Y-98571428D02*
X120407200Y-98666666D01*
X120407200Y-98666666D02*
X120359580Y-98714285D01*
X120359580Y-98714285D02*
X120264342Y-98761904D01*
X120264342Y-98761904D02*
X119978628Y-98761904D01*
X119978628Y-98761904D02*
X119883390Y-98714285D01*
X119883390Y-98714285D02*
X119835771Y-98666666D01*
X119835771Y-98666666D02*
X119788152Y-98571428D01*
X119788152Y-98571428D02*
X119788152Y-98428571D01*
X119788152Y-98428571D02*
X119835771Y-98333333D01*
X119835771Y-98333333D02*
X119883390Y-98285714D01*
X119883390Y-98285714D02*
X119978628Y-98238095D01*
X119978628Y-98238095D02*
X120264342Y-98238095D01*
X120264342Y-98238095D02*
X120359580Y-98285714D01*
X120359580Y-98285714D02*
X120407200Y-98333333D01*
X120407200Y-98333333D02*
X120454819Y-98428571D01*
X120454819Y-98428571D02*
X120454819Y-98571428D01*
X120454819Y-97047618D02*
X119454819Y-97047618D01*
X119454819Y-97047618D02*
X119454819Y-96666666D01*
X119454819Y-96666666D02*
X119502438Y-96571428D01*
X119502438Y-96571428D02*
X119550057Y-96523809D01*
X119550057Y-96523809D02*
X119645295Y-96476190D01*
X119645295Y-96476190D02*
X119788152Y-96476190D01*
X119788152Y-96476190D02*
X119883390Y-96523809D01*
X119883390Y-96523809D02*
X119931009Y-96571428D01*
X119931009Y-96571428D02*
X119978628Y-96666666D01*
X119978628Y-96666666D02*
X119978628Y-97047618D01*
X120454819Y-95904761D02*
X120407200Y-95999999D01*
X120407200Y-95999999D02*
X120359580Y-96047618D01*
X120359580Y-96047618D02*
X120264342Y-96095237D01*
X120264342Y-96095237D02*
X119978628Y-96095237D01*
X119978628Y-96095237D02*
X119883390Y-96047618D01*
X119883390Y-96047618D02*
X119835771Y-95999999D01*
X119835771Y-95999999D02*
X119788152Y-95904761D01*
X119788152Y-95904761D02*
X119788152Y-95761904D01*
X119788152Y-95761904D02*
X119835771Y-95666666D01*
X119835771Y-95666666D02*
X119883390Y-95619047D01*
X119883390Y-95619047D02*
X119978628Y-95571428D01*
X119978628Y-95571428D02*
X120264342Y-95571428D01*
X120264342Y-95571428D02*
X120359580Y-95619047D01*
X120359580Y-95619047D02*
X120407200Y-95666666D01*
X120407200Y-95666666D02*
X120454819Y-95761904D01*
X120454819Y-95761904D02*
X120454819Y-95904761D01*
X119788152Y-95238094D02*
X120454819Y-95047618D01*
X120454819Y-95047618D02*
X119978628Y-94857142D01*
X119978628Y-94857142D02*
X120454819Y-94666666D01*
X120454819Y-94666666D02*
X119788152Y-94476190D01*
X120407200Y-93714285D02*
X120454819Y-93809523D01*
X120454819Y-93809523D02*
X120454819Y-93999999D01*
X120454819Y-93999999D02*
X120407200Y-94095237D01*
X120407200Y-94095237D02*
X120311961Y-94142856D01*
X120311961Y-94142856D02*
X119931009Y-94142856D01*
X119931009Y-94142856D02*
X119835771Y-94095237D01*
X119835771Y-94095237D02*
X119788152Y-93999999D01*
X119788152Y-93999999D02*
X119788152Y-93809523D01*
X119788152Y-93809523D02*
X119835771Y-93714285D01*
X119835771Y-93714285D02*
X119931009Y-93666666D01*
X119931009Y-93666666D02*
X120026247Y-93666666D01*
X120026247Y-93666666D02*
X120121485Y-94142856D01*
X120454819Y-93238094D02*
X119788152Y-93238094D01*
X119978628Y-93238094D02*
X119883390Y-93190475D01*
X119883390Y-93190475D02*
X119835771Y-93142856D01*
X119835771Y-93142856D02*
X119788152Y-93047618D01*
X119788152Y-93047618D02*
X119788152Y-92952380D01*
D12*
%TO.C,I2C4*%
X125170000Y-103170000D02*
X125170000Y-113450000D01*
X125170000Y-103170000D02*
X127770000Y-103170000D01*
X125170000Y-113450000D02*
X130370000Y-113450000D01*
X127770000Y-103170000D02*
X127770000Y-105770000D01*
X127770000Y-105770000D02*
X130370000Y-105770000D01*
X129040000Y-103170000D02*
X130370000Y-103170000D01*
X130370000Y-103170000D02*
X130370000Y-104500000D01*
X130370000Y-105770000D02*
X130370000Y-113450000D01*
%TO.C,I2C1*%
X124990000Y-57440000D02*
X124990000Y-70060000D01*
X124990000Y-70060000D02*
X130960000Y-70060000D01*
X125750000Y-58200000D02*
X125750000Y-63750000D01*
X125750000Y-69300000D02*
X125750000Y-63750000D01*
X128700000Y-57450000D02*
X128700000Y-58200000D01*
X128700000Y-58200000D02*
X125750000Y-58200000D01*
X128700000Y-69300000D02*
X125750000Y-69300000D01*
X128700000Y-70050000D02*
X128700000Y-69300000D01*
X130200000Y-57450000D02*
X130200000Y-59250000D01*
X130200000Y-59250000D02*
X130950000Y-59250000D01*
X130200000Y-60750000D02*
X130200000Y-66750000D01*
X130200000Y-66750000D02*
X130950000Y-66750000D01*
X130200000Y-68250000D02*
X130200000Y-70050000D01*
X130200000Y-70050000D02*
X130950000Y-70050000D01*
X130950000Y-57450000D02*
X130200000Y-57450000D01*
X130950000Y-59250000D02*
X130950000Y-57450000D01*
X130950000Y-60750000D02*
X130200000Y-60750000D01*
X130950000Y-66750000D02*
X130950000Y-60750000D01*
X130950000Y-68250000D02*
X130200000Y-68250000D01*
X130950000Y-70050000D02*
X130950000Y-68250000D01*
X130960000Y-57440000D02*
X124990000Y-57440000D01*
X130960000Y-70060000D02*
X130960000Y-57440000D01*
X131250000Y-57150000D02*
X130000000Y-57150000D01*
X131250000Y-58400000D02*
X131250000Y-57150000D01*
%TO.C,EncoderB1*%
X104040000Y-128840000D02*
X110660000Y-128840000D01*
X104040000Y-139060000D02*
X104040000Y-128840000D01*
X104750000Y-129850000D02*
X109050000Y-129850000D01*
X104750000Y-138050000D02*
X104750000Y-129850000D01*
X107350000Y-129850000D02*
X107350000Y-128840000D01*
X107350000Y-138050000D02*
X107350000Y-139060000D01*
X109050000Y-129850000D02*
X109050000Y-138050000D01*
X109050000Y-138050000D02*
X104750000Y-138050000D01*
X109660000Y-131550000D02*
X109660000Y-133150000D01*
X109660000Y-133150000D02*
X110260000Y-133150000D01*
X109660000Y-134750000D02*
X109660000Y-136350000D01*
X109660000Y-136350000D02*
X110660000Y-136350000D01*
X109710000Y-128540000D02*
X110960000Y-128540000D01*
X110260000Y-133150000D02*
X110260000Y-134750000D01*
X110260000Y-134750000D02*
X109660000Y-134750000D01*
X110660000Y-128840000D02*
X110660000Y-131550000D01*
X110660000Y-131550000D02*
X109660000Y-131550000D01*
X110660000Y-136350000D02*
X110660000Y-139060000D01*
X110660000Y-139060000D02*
X104040000Y-139060000D01*
X110960000Y-128540000D02*
X110960000Y-129790000D01*
%TO.C,Boton1*%
X116850000Y-124860000D02*
X119570000Y-124860000D01*
X116850000Y-137160000D02*
X116850000Y-124860000D01*
X119570000Y-137160000D02*
X116850000Y-137160000D01*
X121430000Y-124860000D02*
X124570000Y-124860000D01*
X124570000Y-137160000D02*
X121430000Y-137160000D01*
X126430000Y-124860000D02*
X129150000Y-124860000D01*
X129150000Y-124860000D02*
X129150000Y-137160000D01*
X129150000Y-137160000D02*
X126430000Y-137160000D01*
X127539050Y-131110000D02*
G75*
G02*
X118380950Y-131110000I-4579050J0D01*
G01*
X118380950Y-131110000D02*
G75*
G02*
X127539050Y-131110000I4579050J0D01*
G01*
%TO.C,I2C3*%
X124990000Y-87440000D02*
X124990000Y-100060000D01*
X124990000Y-100060000D02*
X130960000Y-100060000D01*
X125750000Y-88200000D02*
X125750000Y-93750000D01*
X125750000Y-99300000D02*
X125750000Y-93750000D01*
X128700000Y-87450000D02*
X128700000Y-88200000D01*
X128700000Y-88200000D02*
X125750000Y-88200000D01*
X128700000Y-99300000D02*
X125750000Y-99300000D01*
X128700000Y-100050000D02*
X128700000Y-99300000D01*
X130200000Y-87450000D02*
X130200000Y-89250000D01*
X130200000Y-89250000D02*
X130950000Y-89250000D01*
X130200000Y-90750000D02*
X130200000Y-96750000D01*
X130200000Y-96750000D02*
X130950000Y-96750000D01*
X130200000Y-98250000D02*
X130200000Y-100050000D01*
X130200000Y-100050000D02*
X130950000Y-100050000D01*
X130950000Y-87450000D02*
X130200000Y-87450000D01*
X130950000Y-89250000D02*
X130950000Y-87450000D01*
X130950000Y-90750000D02*
X130200000Y-90750000D01*
X130950000Y-96750000D02*
X130950000Y-90750000D01*
X130950000Y-98250000D02*
X130200000Y-98250000D01*
X130950000Y-100050000D02*
X130950000Y-98250000D01*
X130960000Y-87440000D02*
X124990000Y-87440000D01*
X130960000Y-100060000D02*
X130960000Y-87440000D01*
X131250000Y-87150000D02*
X130000000Y-87150000D01*
X131250000Y-88400000D02*
X131250000Y-87150000D01*
%TO.C,EncoderA1*%
X104190000Y-114890000D02*
X110810000Y-114890000D01*
X104190000Y-125110000D02*
X104190000Y-114890000D01*
X104900000Y-115900000D02*
X109200000Y-115900000D01*
X104900000Y-124100000D02*
X104900000Y-115900000D01*
X107500000Y-115900000D02*
X107500000Y-114890000D01*
X107500000Y-124100000D02*
X107500000Y-125110000D01*
X109200000Y-115900000D02*
X109200000Y-124100000D01*
X109200000Y-124100000D02*
X104900000Y-124100000D01*
X109810000Y-117600000D02*
X109810000Y-119200000D01*
X109810000Y-119200000D02*
X110410000Y-119200000D01*
X109810000Y-120800000D02*
X109810000Y-122400000D01*
X109810000Y-122400000D02*
X110810000Y-122400000D01*
X109860000Y-114590000D02*
X111110000Y-114590000D01*
X110410000Y-119200000D02*
X110410000Y-120800000D01*
X110410000Y-120800000D02*
X109810000Y-120800000D01*
X110810000Y-114890000D02*
X110810000Y-117600000D01*
X110810000Y-117600000D02*
X109810000Y-117600000D01*
X110810000Y-122400000D02*
X110810000Y-125110000D01*
X110810000Y-125110000D02*
X104190000Y-125110000D01*
X111110000Y-114590000D02*
X111110000Y-115840000D01*
%TO.C,I2C2*%
X124990000Y-72740000D02*
X124990000Y-85360000D01*
X124990000Y-85360000D02*
X130960000Y-85360000D01*
X125750000Y-73500000D02*
X125750000Y-79050000D01*
X125750000Y-84600000D02*
X125750000Y-79050000D01*
X128700000Y-72750000D02*
X128700000Y-73500000D01*
X128700000Y-73500000D02*
X125750000Y-73500000D01*
X128700000Y-84600000D02*
X125750000Y-84600000D01*
X128700000Y-85350000D02*
X128700000Y-84600000D01*
X130200000Y-72750000D02*
X130200000Y-74550000D01*
X130200000Y-74550000D02*
X130950000Y-74550000D01*
X130200000Y-76050000D02*
X130200000Y-82050000D01*
X130200000Y-82050000D02*
X130950000Y-82050000D01*
X130200000Y-83550000D02*
X130200000Y-85350000D01*
X130200000Y-85350000D02*
X130950000Y-85350000D01*
X130950000Y-72750000D02*
X130200000Y-72750000D01*
X130950000Y-74550000D02*
X130950000Y-72750000D01*
X130950000Y-76050000D02*
X130200000Y-76050000D01*
X130950000Y-82050000D02*
X130950000Y-76050000D01*
X130950000Y-83550000D02*
X130200000Y-83550000D01*
X130950000Y-85350000D02*
X130950000Y-83550000D01*
X130960000Y-72740000D02*
X124990000Y-72740000D01*
X130960000Y-85360000D02*
X130960000Y-72740000D01*
X131250000Y-72450000D02*
X130000000Y-72450000D01*
X131250000Y-73700000D02*
X131250000Y-72450000D01*
%TO.C,Bateria1*%
X91150000Y-136250000D02*
X91150000Y-137500000D01*
X91440000Y-136540000D02*
X91440000Y-142510000D01*
X91440000Y-142510000D02*
X101560000Y-142510000D01*
X91450000Y-136550000D02*
X91450000Y-137300000D01*
X91450000Y-137300000D02*
X93250000Y-137300000D01*
X91450000Y-138800000D02*
X92200000Y-138800000D01*
X92200000Y-138800000D02*
X92200000Y-141750000D01*
X92200000Y-141750000D02*
X96500000Y-141750000D01*
X92400000Y-136250000D02*
X91150000Y-136250000D01*
X93250000Y-136550000D02*
X91450000Y-136550000D01*
X93250000Y-137300000D02*
X93250000Y-136550000D01*
X94750000Y-136550000D02*
X94750000Y-137300000D01*
X94750000Y-137300000D02*
X98250000Y-137300000D01*
X98250000Y-136550000D02*
X94750000Y-136550000D01*
X98250000Y-137300000D02*
X98250000Y-136550000D01*
X99750000Y-136550000D02*
X99750000Y-137300000D01*
X99750000Y-137300000D02*
X101550000Y-137300000D01*
X100800000Y-138800000D02*
X100800000Y-141750000D01*
X100800000Y-141750000D02*
X96500000Y-141750000D01*
X101550000Y-136550000D02*
X99750000Y-136550000D01*
X101550000Y-137300000D02*
X101550000Y-136550000D01*
X101550000Y-138800000D02*
X100800000Y-138800000D01*
X101560000Y-136540000D02*
X91440000Y-136540000D01*
X101560000Y-142510000D02*
X101560000Y-136540000D01*
%TO.C,MotorA1*%
X78410000Y-124300000D02*
X78410000Y-125550000D01*
X78410000Y-125550000D02*
X79660000Y-125550000D01*
X80960000Y-117650000D02*
X80960000Y-118400000D01*
X80960000Y-118400000D02*
X83910000Y-118400000D01*
X80960000Y-124500000D02*
X83910000Y-124500000D01*
X80960000Y-125250000D02*
X80960000Y-124500000D01*
X83910000Y-118400000D02*
X83910000Y-121450000D01*
X83910000Y-124500000D02*
X83910000Y-121450000D01*
X78700000Y-125260000D02*
X84670000Y-125260000D01*
X84670000Y-117640000D01*
X78700000Y-117640000D01*
X78700000Y-125260000D01*
X78710000Y-119450000D02*
X79460000Y-119450000D01*
X79460000Y-117650000D01*
X78710000Y-117650000D01*
X78710000Y-119450000D01*
X78710000Y-121950000D02*
X79460000Y-121950000D01*
X79460000Y-120950000D01*
X78710000Y-120950000D01*
X78710000Y-121950000D01*
X78710000Y-125250000D02*
X79460000Y-125250000D01*
X79460000Y-123450000D01*
X78710000Y-123450000D01*
X78710000Y-125250000D01*
%TO.C,Resistencia1*%
X83940000Y-66000000D02*
X86580000Y-66000000D01*
X86580000Y-62880000D02*
X86580000Y-69120000D01*
X86580000Y-69120000D02*
X103820000Y-69120000D01*
X103820000Y-62880000D02*
X86580000Y-62880000D01*
X103820000Y-69120000D02*
X103820000Y-62880000D01*
X106460000Y-66000000D02*
X103820000Y-66000000D01*
%TO.C,SERVO1*%
X114750000Y-104250000D02*
X114750000Y-108550000D01*
X114750000Y-112850000D02*
X114750000Y-108550000D01*
X117700000Y-103500000D02*
X117700000Y-104250000D01*
X117700000Y-104250000D02*
X114750000Y-104250000D01*
X117700000Y-112850000D02*
X114750000Y-112850000D01*
X117700000Y-113600000D02*
X117700000Y-112850000D01*
X120250000Y-103200000D02*
X119000000Y-103200000D01*
X120250000Y-104450000D02*
X120250000Y-103200000D01*
X119950000Y-103500000D02*
X119200000Y-103500000D01*
X119200000Y-105300000D01*
X119950000Y-105300000D01*
X119950000Y-103500000D01*
X119950000Y-106800000D02*
X119200000Y-106800000D01*
X119200000Y-110300000D01*
X119950000Y-110300000D01*
X119950000Y-106800000D01*
X119950000Y-111800000D02*
X119200000Y-111800000D01*
X119200000Y-113600000D01*
X119950000Y-113600000D01*
X119950000Y-111800000D01*
X119960000Y-103490000D02*
X113990000Y-103490000D01*
X113990000Y-113610000D01*
X119960000Y-113610000D01*
X119960000Y-103490000D01*
%TO.C,Convertidor1*%
X65540000Y-124620000D02*
X73380000Y-124620000D01*
X65540000Y-127270000D02*
X65540000Y-124620000D01*
X65540000Y-129920000D02*
X65540000Y-128540000D01*
X66920000Y-129920000D02*
X65540000Y-129920000D01*
X68190000Y-127270000D02*
X65540000Y-127270000D01*
X68190000Y-129920000D02*
X68190000Y-127270000D01*
X68190000Y-129920000D02*
X73380000Y-129920000D01*
X73380000Y-129920000D02*
X73380000Y-124620000D01*
D13*
%TO.C,TB6612FNG1*%
X86030000Y-91730000D02*
X86030000Y-90460000D01*
X86030000Y-107120000D02*
X86030000Y-94120000D01*
X86030000Y-109510000D02*
X86030000Y-110780000D01*
X86030000Y-110780000D02*
X106350000Y-110780000D01*
X106350000Y-90460000D02*
X86030000Y-90460000D01*
X106350000Y-91730000D02*
X106350000Y-90460000D01*
X106350000Y-107120000D02*
X106350000Y-94120000D01*
X106350000Y-109510000D02*
X106350000Y-110780000D01*
D14*
X88190000Y-103120000D02*
X91190000Y-103120000D01*
X91190000Y-98620000D01*
X88190000Y-98620000D01*
X88190000Y-103120000D01*
X94190000Y-104620000D02*
X103690000Y-104620000D01*
X103690000Y-96620000D01*
X94190000Y-96620000D01*
X94190000Y-104620000D01*
D12*
%TO.C,Switch1*%
X78650000Y-136250000D02*
X78650000Y-137500000D01*
X78940000Y-136540000D02*
X78940000Y-142510000D01*
X78940000Y-142510000D02*
X89060000Y-142510000D01*
X78950000Y-136550000D02*
X78950000Y-137300000D01*
X78950000Y-137300000D02*
X80750000Y-137300000D01*
X78950000Y-138800000D02*
X79700000Y-138800000D01*
X79700000Y-138800000D02*
X79700000Y-141750000D01*
X79700000Y-141750000D02*
X84000000Y-141750000D01*
X79900000Y-136250000D02*
X78650000Y-136250000D01*
X80750000Y-136550000D02*
X78950000Y-136550000D01*
X80750000Y-137300000D02*
X80750000Y-136550000D01*
X82250000Y-136550000D02*
X82250000Y-137300000D01*
X82250000Y-137300000D02*
X85750000Y-137300000D01*
X85750000Y-136550000D02*
X82250000Y-136550000D01*
X85750000Y-137300000D02*
X85750000Y-136550000D01*
X87250000Y-136550000D02*
X87250000Y-137300000D01*
X87250000Y-137300000D02*
X89050000Y-137300000D01*
X88300000Y-138800000D02*
X88300000Y-141750000D01*
X88300000Y-141750000D02*
X84000000Y-141750000D01*
X89050000Y-136550000D02*
X87250000Y-136550000D01*
X89050000Y-137300000D02*
X89050000Y-136550000D01*
X89050000Y-138800000D02*
X88300000Y-138800000D01*
X89060000Y-136540000D02*
X78940000Y-136540000D01*
X89060000Y-142510000D02*
X89060000Y-136540000D01*
%TO.C,MotorB1*%
X88750000Y-124350000D02*
X88750000Y-125600000D01*
X88750000Y-125600000D02*
X90000000Y-125600000D01*
X91300000Y-117700000D02*
X91300000Y-118450000D01*
X91300000Y-118450000D02*
X94250000Y-118450000D01*
X91300000Y-124550000D02*
X94250000Y-124550000D01*
X91300000Y-125300000D02*
X91300000Y-124550000D01*
X94250000Y-118450000D02*
X94250000Y-121500000D01*
X94250000Y-124550000D02*
X94250000Y-121500000D01*
X89040000Y-125310000D02*
X95010000Y-125310000D01*
X95010000Y-117690000D01*
X89040000Y-117690000D01*
X89040000Y-125310000D01*
X89050000Y-119500000D02*
X89800000Y-119500000D01*
X89800000Y-117700000D01*
X89050000Y-117700000D01*
X89050000Y-119500000D01*
X89050000Y-122000000D02*
X89800000Y-122000000D01*
X89800000Y-121000000D01*
X89050000Y-121000000D01*
X89050000Y-122000000D01*
X89050000Y-125300000D02*
X89800000Y-125300000D01*
X89800000Y-123500000D01*
X89050000Y-123500000D01*
X89050000Y-125300000D01*
D13*
%TO.C,Esp32*%
X70040000Y-53270000D02*
X120990000Y-53270000D01*
X70040000Y-53270000D02*
X120990000Y-53270000D01*
X70040000Y-64000000D02*
X70040000Y-53270000D01*
X70040000Y-64000000D02*
X73930000Y-64000000D01*
X70040000Y-70711000D02*
X70040000Y-64000000D01*
X70040000Y-81780000D02*
X70040000Y-53270000D01*
X70040000Y-81780000D02*
X70040000Y-70711000D01*
X73930000Y-64000000D02*
X73930000Y-70711000D01*
X73930000Y-70711000D02*
X70040000Y-70711000D01*
X101870000Y-58720000D02*
X114500000Y-58720000D01*
X101870000Y-76410000D02*
X101870000Y-58720000D01*
X114500000Y-58720000D02*
X120990000Y-58720000D01*
X114500000Y-76410000D02*
X101870000Y-76410000D01*
X114500000Y-76410000D02*
X114500000Y-58720000D01*
X120990000Y-53270000D02*
X120990000Y-81780000D01*
X120990000Y-58720000D02*
X120990000Y-53270000D01*
X120990000Y-76410000D02*
X114500000Y-76410000D01*
X120990000Y-76410000D02*
X120990000Y-58720000D01*
X120990000Y-81780000D02*
X70040000Y-81780000D01*
X120990000Y-81780000D02*
X70040000Y-81780000D01*
X120990000Y-81780000D02*
X120990000Y-76410000D01*
D10*
X80100000Y-82350000D02*
G75*
G02*
X79900000Y-82350000I-100000J0D01*
G01*
X79900000Y-82350000D02*
G75*
G02*
X80100000Y-82350000I100000J0D01*
G01*
D12*
%TO.C,SERVOPOWER1*%
X116120000Y-93850000D02*
X117500000Y-93850000D01*
X116120000Y-95230000D02*
X116120000Y-93850000D01*
X116120000Y-96500000D02*
X116120000Y-101690000D01*
X116120000Y-96500000D02*
X118880000Y-96500000D01*
X116120000Y-101690000D02*
X118880000Y-101690000D01*
X118880000Y-96500000D02*
X118880000Y-101690000D01*
%TD*%
%LPC*%
D15*
%TO.C,I2C4*%
X129040000Y-104500000D03*
D16*
X129040000Y-107040000D03*
X129040000Y-109580000D03*
X129040000Y-112120000D03*
X126500000Y-104500000D03*
X126500000Y-107040000D03*
X126500000Y-109580000D03*
X126500000Y-112120000D03*
%TD*%
D17*
%TO.C,I2C1*%
X128500000Y-60000000D03*
D18*
X128500000Y-62500000D03*
D17*
X128500000Y-65000000D03*
X128500000Y-67500000D03*
%TD*%
D19*
%TO.C,EncoderB1*%
X107350000Y-131450000D03*
D17*
X107350000Y-133950000D03*
X107350000Y-136450000D03*
%TD*%
D20*
%TO.C,Boton1*%
X125500000Y-124760000D03*
X125500000Y-137260000D03*
X120500000Y-124760000D03*
X120500000Y-137260000D03*
%TD*%
D17*
%TO.C,I2C3*%
X128500000Y-90000000D03*
D18*
X128500000Y-92500000D03*
D17*
X128500000Y-95000000D03*
X128500000Y-97500000D03*
%TD*%
D19*
%TO.C,EncoderA1*%
X107500000Y-117500000D03*
D17*
X107500000Y-120000000D03*
X107500000Y-122500000D03*
%TD*%
D19*
%TO.C,I2C2*%
X128500000Y-75300000D03*
D17*
X128500000Y-77800000D03*
X128500000Y-80300000D03*
X128500000Y-82800000D03*
%TD*%
D21*
%TO.C,Bateria1*%
X94000000Y-139000000D03*
D22*
X96500000Y-139000000D03*
X99000000Y-139000000D03*
%TD*%
D23*
%TO.C,MotorA1*%
X81160000Y-122700000D03*
D24*
X81160000Y-120200000D03*
%TD*%
D25*
%TO.C,Resistencia1*%
X82500000Y-66000000D03*
D26*
X107900000Y-66000000D03*
%TD*%
D19*
%TO.C,SERVO1*%
X117500000Y-106050000D03*
D17*
X117500000Y-108550000D03*
X117500000Y-111050000D03*
%TD*%
D16*
%TO.C,Convertidor1*%
X66920000Y-128540000D03*
D15*
X69460000Y-128540000D03*
D16*
X72000000Y-128540000D03*
X66920000Y-126000000D03*
X69460000Y-126000000D03*
X72000000Y-126000000D03*
%TD*%
D27*
%TO.C,TB6612FNG1*%
X87300000Y-108240000D03*
X89840000Y-108240000D03*
D28*
X92380000Y-108240000D03*
D27*
X94920000Y-108240000D03*
X97460000Y-108240000D03*
X100000000Y-108240000D03*
X102540000Y-108240000D03*
D28*
X105080000Y-108240000D03*
X105080000Y-93000000D03*
D27*
X102540000Y-93000000D03*
X100000000Y-93000000D03*
X97460000Y-93000000D03*
X94920000Y-93000000D03*
X92380000Y-93000000D03*
X89840000Y-93000000D03*
X87300000Y-93000000D03*
%TD*%
D21*
%TO.C,Switch1*%
X81500000Y-139000000D03*
D22*
X84000000Y-139000000D03*
X86500000Y-139000000D03*
%TD*%
D23*
%TO.C,MotorB1*%
X91500000Y-122750000D03*
D24*
X91500000Y-120250000D03*
%TD*%
D29*
%TO.C,Esp32*%
X80000000Y-80200000D03*
D30*
X82540000Y-80200000D03*
X85080000Y-80200000D03*
X87620000Y-80200000D03*
X90160000Y-80200000D03*
X92700000Y-80200000D03*
X95240000Y-80200000D03*
X97780000Y-80200000D03*
X100320000Y-80200000D03*
X102860000Y-80200000D03*
X105400000Y-80200000D03*
X107940000Y-80200000D03*
X110480000Y-80200000D03*
X113020000Y-80200000D03*
X115560000Y-80200000D03*
X115560000Y-54800000D03*
X113020000Y-54800000D03*
X110480000Y-54800000D03*
X107940000Y-54800000D03*
X105400000Y-54800000D03*
X102860000Y-54800000D03*
X100320000Y-54800000D03*
X97780000Y-54800000D03*
X95240000Y-54800000D03*
X92700000Y-54800000D03*
X90160000Y-54800000D03*
X87620000Y-54800000D03*
X85080000Y-54800000D03*
X82540000Y-54800000D03*
X80000000Y-54800000D03*
%TD*%
D15*
%TO.C,SERVOPOWER1*%
X117500000Y-95230000D03*
D16*
X117500000Y-97770000D03*
X117500000Y-100310000D03*
%TD*%
D31*
%TO.C,SigueLineas1*%
X60250000Y-109500000D03*
D17*
X60250000Y-107000000D03*
X60250000Y-104500000D03*
X60250000Y-102000000D03*
X60250000Y-99500000D03*
X60250000Y-97000000D03*
X60250000Y-94500000D03*
X60250000Y-92000000D03*
X60250000Y-89500000D03*
X60250000Y-87000000D03*
X60250000Y-84500000D03*
%TD*%
%LPD*%
M02*
