999
"DXF R12 Output" (www.mydxf.blogspot.com)
 0 
SECTION
 2 
HEADER
 9 
$ACADVER
 1 
AC1009
 9 
$EXTMIN
 10 
 0 
 20 
 0 
 9 
$EXTMAX
 10 
 8.5 
 20 
 11 
 0 
ENDSEC
 0 
SECTION
 2 
ENTITIES
0
LINE
8
Layer 1
10
160.000000
20
63.494666
11
160.000000
21
96.500676
0
LINE
8
Layer 1
10
160.000000
20
96.500676
11
159.116372
21
99.954699
0
LINE
8
Layer 1
10
159.116372
20
99.954699
11
158.092853
21
103.342171
0
LINE
8
Layer 1
10
158.092853
20
103.342171
11
156.933002
21
106.660265
0
LINE
8
Layer 1
10
156.933002
20
106.660265
11
155.640381
21
109.906154
0
LINE
8
Layer 1
10
155.640381
20
109.906154
11
152.671073
21
116.170012
0
LINE
8
Layer 1
10
152.671073
20
116.170012
11
149.213416
21
122.111133
0
LINE
8
Layer 1
10
149.213416
20
122.111133
11
145.295897
21
127.706907
0
LINE
8
Layer 1
10
145.295897
20
127.706907
11
140.947005
21
132.934720
0
LINE
8
Layer 1
10
140.947005
20
132.934720
11
136.195226
21
137.771961
0
LINE
8
Layer 1
10
136.195226
20
137.771961
11
131.069049
21
142.196018
0
LINE
8
Layer 1
10
131.069049
20
142.196018
11
125.596961
21
146.184279
0
LINE
8
Layer 1
10
125.596961
20
146.184279
11
119.807450
21
149.714132
0
LINE
8
Layer 1
10
119.807450
20
149.714132
11
113.729003
21
152.762965
0
LINE
8
Layer 1
10
113.729003
20
152.762965
11
107.390109
21
155.308167
0
LINE
8
Layer 1
10
107.390109
20
155.308167
11
100.819254
21
157.327125
0
LINE
8
Layer 1
10
100.819254
20
157.327125
11
94.044927
21
158.797227
0
LINE
8
Layer 1
10
94.044927
20
158.797227
11
90.590364
21
159.319391
0
LINE
8
Layer 1
10
90.590364
20
159.319391
11
87.095615
21
159.695862
0
LINE
8
Layer 1
10
87.095615
20
159.695862
11
83.564242
21
159.923812
0
LINE
8
Layer 1
10
83.564242
20
159.923812
11
79.999806
21
160.000417
0
LINE
8
Layer 1
10
79.999806
20
160.000417
11
76.435370
21
159.923790
0
LINE
8
Layer 1
10
76.435370
20
159.923790
11
72.903998
21
159.695818
0
LINE
8
Layer 1
10
72.903998
20
159.695818
11
69.409252
21
159.319326
0
LINE
8
Layer 1
10
69.409252
20
159.319326
11
65.954691
21
158.797141
0
LINE
8
Layer 1
10
65.954691
20
158.797141
11
59.180373
21
157.326997
0
LINE
8
Layer 1
10
59.180373
20
157.326997
11
52.609531
21
155.307999
0
LINE
8
Layer 1
10
52.609531
20
155.307999
11
46.270652
21
152.762759
0
LINE
8
Layer 1
10
46.270652
20
152.762759
11
40.192224
21
149.713888
0
LINE
8
Layer 1
10
40.192224
20
149.713888
11
34.402735
21
146.184000
0
LINE
8
Layer 1
10
34.402735
20
146.184000
11
28.930671
21
142.195705
0
LINE
8
Layer 1
10
28.930671
20
142.195705
11
23.804521
21
137.771617
0
LINE
8
Layer 1
10
23.804521
20
137.771617
11
19.052772
21
132.934347
0
LINE
8
Layer 1
10
19.052772
20
132.934347
11
14.703912
21
127.706507
0
LINE
8
Layer 1
10
14.703912
20
127.706507
11
10.786427
21
122.110709
0
LINE
8
Layer 1
10
10.786427
20
122.110709
11
7.328806
21
116.169566
0
LINE
8
Layer 1
10
7.328806
20
116.169566
11
4.359537
21
109.905690
0
LINE
8
Layer 1
10
4.359537
20
109.905690
11
3.066936
21
106.659793
0
LINE
8
Layer 1
10
3.066936
20
106.659793
11
1.907105
21
103.341693
0
LINE
8
Layer 1
10
1.907105
20
103.341693
11
0.883606
21
99.954215
0
LINE
8
Layer 1
10
0.883606
20
99.954215
11
0.000000
21
96.500186
0
LINE
8
Layer 1
10
0.000000
20
96.500186
11
0.000000
21
63.500142
0
LINE
8
Layer 1
10
0.000000
20
63.500142
11
0.883632
21
60.046215
0
LINE
8
Layer 1
10
0.883632
20
60.046215
11
1.907147
21
56.658836
0
LINE
8
Layer 1
10
1.907147
20
56.658836
11
3.066985
21
53.340831
0
LINE
8
Layer 1
10
3.066985
20
53.340831
11
4.359585
21
50.095025
0
LINE
8
Layer 1
10
4.359585
20
50.095025
11
7.328830
21
43.831320
0
LINE
8
Layer 1
10
7.328830
20
43.831320
11
10.786395
21
37.890331
0
LINE
8
Layer 1
10
10.786395
20
37.890331
11
14.703798
21
32.294667
0
LINE
8
Layer 1
10
14.703798
20
32.294667
11
19.052552
21
27.066940
0
LINE
8
Layer 1
10
19.052552
20
27.066940
11
23.804174
21
22.229759
0
LINE
8
Layer 1
10
23.804174
20
22.229759
11
28.930179
21
17.805735
0
LINE
8
Layer 1
10
28.930179
20
17.805735
11
34.402081
21
13.817478
0
LINE
8
Layer 1
10
34.402081
20
13.817478
11
40.191397
21
10.287598
0
LINE
8
Layer 1
10
40.191397
20
10.287598
11
46.269642
21
7.238706
0
LINE
8
Layer 1
10
46.269642
20
7.238706
11
52.608330
21
4.693411
0
LINE
8
Layer 1
10
52.608330
20
4.693411
11
59.178977
21
2.674324
0
LINE
8
Layer 1
10
59.178977
20
2.674324
11
65.953099
21
1.204056
0
LINE
8
Layer 1
10
65.953099
20
1.204056
11
69.407561
21
0.681794
0
LINE
8
Layer 1
10
69.407561
20
0.681794
11
72.902210
21
0.305216
0
LINE
8
Layer 1
10
72.902210
20
0.305216
11
76.433486
21
0.077148
0
LINE
8
Layer 1
10
76.433486
20
0.077148
11
79.997827
21
0.000415
0
LINE
8
Layer 1
10
79.997827
20
0.000415
11
83.562173
21
0.076904
0
LINE
8
Layer 1
10
83.562173
20
0.076904
11
87.093464
21
0.304731
0
LINE
8
Layer 1
10
87.093464
20
0.304731
11
90.588139
21
0.681070
0
LINE
8
Layer 1
10
90.588139
20
0.681070
11
94.042637
21
1.203095
0
LINE
8
Layer 1
10
94.042637
20
1.203095
11
100.816860
21
2.672899
0
LINE
8
Layer 1
10
100.816860
20
2.672899
11
107.387645
21
4.691536
0
LINE
8
Layer 1
10
107.387645
20
4.691536
11
113.726507
21
7.236397
0
LINE
8
Layer 1
10
113.726507
20
7.236397
11
119.804960
21
10.284873
0
LINE
8
Layer 1
10
119.804960
20
10.284873
11
125.594518
21
13.814357
0
LINE
8
Layer 1
10
125.594518
20
13.814357
11
131.066693
21
17.802239
0
LINE
8
Layer 1
10
131.066693
20
17.802239
11
136.193001
21
22.225913
0
LINE
8
Layer 1
10
136.193001
20
22.225913
11
140.944954
21
27.062768
0
LINE
8
Layer 1
10
140.944954
20
27.062768
11
145.294066
21
32.290198
0
LINE
8
Layer 1
10
145.294066
20
32.290198
11
149.211852
21
37.885593
0
LINE
8
Layer 1
10
149.211852
20
37.885593
11
152.669824
21
43.826346
0
LINE
8
Layer 1
10
152.669824
20
43.826346
11
155.639497
21
50.089848
0
LINE
8
Layer 1
10
155.639497
20
50.089848
11
156.932319
21
53.335565
0
LINE
8
Layer 1
10
156.932319
20
53.335565
11
158.092385
21
56.653491
0
LINE
8
Layer 1
10
158.092385
20
56.653491
11
159.116132
21
60.040800
0
LINE
8
Layer 1
10
159.116132
20
60.040800
11
160.000000
21
63.494666
0
LINE
8
Layer 1
10
160.000000
20
63.494666
11
160.000000
21
63.494666
0
LINE
8
Layer 1
10
136.000000
20
80.300415
11
136.173077
21
78.995827
0
LINE
8
Layer 1
10
136.173077
20
78.995827
11
136.669873
21
77.800415
0
LINE
8
Layer 1
10
136.669873
20
77.800415
11
137.456732
21
76.772472
0
LINE
8
Layer 1
10
137.456732
20
76.772472
11
138.500000
21
75.970288
0
LINE
8
Layer 1
10
138.500000
20
75.970288
11
139.716345
21
75.467883
0
LINE
8
Layer 1
10
139.716345
20
75.467883
11
141.000000
21
75.300415
0
LINE
8
Layer 1
10
141.000000
20
75.300415
11
142.283655
21
75.467883
0
LINE
8
Layer 1
10
142.283655
20
75.467883
11
143.500000
21
75.970288
0
LINE
8
Layer 1
10
143.500000
20
75.970288
11
144.543268
21
76.772472
0
LINE
8
Layer 1
10
144.543268
20
76.772472
11
145.330127
21
77.800415
0
LINE
8
Layer 1
10
145.330127
20
77.800415
11
145.826923
21
78.995827
0
LINE
8
Layer 1
10
145.826923
20
78.995827
11
146.000000
21
80.300415
0
LINE
8
Layer 1
10
146.000000
20
80.300415
11
145.826923
21
81.605003
0
LINE
8
Layer 1
10
145.826923
20
81.605003
11
145.330127
21
82.800415
0
LINE
8
Layer 1
10
145.330127
20
82.800415
11
144.543268
21
83.828358
0
LINE
8
Layer 1
10
144.543268
20
83.828358
11
143.500000
21
84.630542
0
LINE
8
Layer 1
10
143.500000
20
84.630542
11
142.283655
21
85.132947
0
LINE
8
Layer 1
10
142.283655
20
85.132947
11
141.000000
21
85.300415
0
LINE
8
Layer 1
10
141.000000
20
85.300415
11
139.716345
21
85.132947
0
LINE
8
Layer 1
10
139.716345
20
85.132947
11
138.500000
21
84.630542
0
LINE
8
Layer 1
10
138.500000
20
84.630542
11
137.456732
21
83.828358
0
LINE
8
Layer 1
10
137.456732
20
83.828358
11
136.669873
21
82.800415
0
LINE
8
Layer 1
10
136.669873
20
82.800415
11
136.173077
21
81.605003
0
LINE
8
Layer 1
10
136.173077
20
81.605003
11
136.000000
21
80.300415
0
LINE
8
Layer 1
10
136.000000
20
80.300415
11
136.000000
21
80.300415
0
LINE
8
Layer 1
10
14.000000
20
80.100415
11
14.173077
21
78.795827
0
LINE
8
Layer 1
10
14.173077
20
78.795827
11
14.669873
21
77.600415
0
LINE
8
Layer 1
10
14.669873
20
77.600415
11
15.456732
21
76.572472
0
LINE
8
Layer 1
10
15.456732
20
76.572472
11
16.500000
21
75.770288
0
LINE
8
Layer 1
10
16.500000
20
75.770288
11
17.716345
21
75.267883
0
LINE
8
Layer 1
10
17.716345
20
75.267883
11
19.000000
21
75.100415
0
LINE
8
Layer 1
10
19.000000
20
75.100415
11
20.283655
21
75.267883
0
LINE
8
Layer 1
10
20.283655
20
75.267883
11
21.500000
21
75.770288
0
LINE
8
Layer 1
10
21.500000
20
75.770288
11
22.543268
21
76.572472
0
LINE
8
Layer 1
10
22.543268
20
76.572472
11
23.330127
21
77.600415
0
LINE
8
Layer 1
10
23.330127
20
77.600415
11
23.826923
21
78.795827
0
LINE
8
Layer 1
10
23.826923
20
78.795827
11
24.000000
21
80.100415
0
LINE
8
Layer 1
10
24.000000
20
80.100415
11
23.826923
21
81.405003
0
LINE
8
Layer 1
10
23.826923
20
81.405003
11
23.330127
21
82.600415
0
LINE
8
Layer 1
10
23.330127
20
82.600415
11
22.543268
21
83.628358
0
LINE
8
Layer 1
10
22.543268
20
83.628358
11
21.500000
21
84.430542
0
LINE
8
Layer 1
10
21.500000
20
84.430542
11
20.283655
21
84.932947
0
LINE
8
Layer 1
10
20.283655
20
84.932947
11
19.000000
21
85.100415
0
LINE
8
Layer 1
10
19.000000
20
85.100415
11
17.716345
21
84.932947
0
LINE
8
Layer 1
10
17.716345
20
84.932947
11
16.500000
21
84.430542
0
LINE
8
Layer 1
10
16.500000
20
84.430542
11
15.456732
21
83.628358
0
LINE
8
Layer 1
10
15.456732
20
83.628358
11
14.669873
21
82.600415
0
LINE
8
Layer 1
10
14.669873
20
82.600415
11
14.173077
21
81.405003
0
LINE
8
Layer 1
10
14.173077
20
81.405003
11
14.000000
21
80.100415
0
LINE
8
Layer 1
10
14.000000
20
80.100415
11
14.000000
21
80.100415
0
LINE
8
Layer 1
10
132.250000
20
72.292457
11
132.484456
21
71.417457
0
LINE
8
Layer 1
10
132.484456
20
71.417457
11
133.125000
21
70.776913
0
LINE
8
Layer 1
10
133.125000
20
70.776913
11
134.000000
21
70.542457
0
LINE
8
Layer 1
10
134.000000
20
70.542457
11
134.875000
21
70.776913
0
LINE
8
Layer 1
10
134.875000
20
70.776913
11
135.515544
21
71.417457
0
LINE
8
Layer 1
10
135.515544
20
71.417457
11
135.750000
21
72.292457
0
LINE
8
Layer 1
10
135.750000
20
72.292457
11
135.515544
21
73.167457
0
LINE
8
Layer 1
10
135.515544
20
73.167457
11
134.875000
21
73.808001
0
LINE
8
Layer 1
10
134.875000
20
73.808001
11
134.000000
21
74.042457
0
LINE
8
Layer 1
10
134.000000
20
74.042457
11
133.125000
21
73.808001
0
LINE
8
Layer 1
10
133.125000
20
73.808001
11
132.484456
21
73.167457
0
LINE
8
Layer 1
10
132.484456
20
73.167457
11
132.250000
21
72.292457
0
LINE
8
Layer 1
10
132.250000
20
72.292457
11
132.250000
21
72.292457
0
LINE
8
Layer 1
10
132.250000
20
88.292457
11
132.484456
21
87.417457
0
LINE
8
Layer 1
10
132.484456
20
87.417457
11
133.125000
21
86.776913
0
LINE
8
Layer 1
10
133.125000
20
86.776913
11
134.000000
21
86.542457
0
LINE
8
Layer 1
10
134.000000
20
86.542457
11
134.875000
21
86.776913
0
LINE
8
Layer 1
10
134.875000
20
86.776913
11
135.515544
21
87.417457
0
LINE
8
Layer 1
10
135.515544
20
87.417457
11
135.750000
21
88.292457
0
LINE
8
Layer 1
10
135.750000
20
88.292457
11
135.515544
21
89.167457
0
LINE
8
Layer 1
10
135.515544
20
89.167457
11
134.875000
21
89.808001
0
LINE
8
Layer 1
10
134.875000
20
89.808001
11
134.000000
21
90.042457
0
LINE
8
Layer 1
10
134.000000
20
90.042457
11
133.125000
21
89.808001
0
LINE
8
Layer 1
10
133.125000
20
89.808001
11
132.484456
21
89.167457
0
LINE
8
Layer 1
10
132.484456
20
89.167457
11
132.250000
21
88.292457
0
LINE
8
Layer 1
10
132.250000
20
88.292457
11
132.250000
21
88.292457
0
LINE
8
Layer 1
10
146.250000
20
72.292457
11
146.484456
21
71.417457
0
LINE
8
Layer 1
10
146.484456
20
71.417457
11
147.125000
21
70.776913
0
LINE
8
Layer 1
10
147.125000
20
70.776913
11
148.000000
21
70.542457
0
LINE
8
Layer 1
10
148.000000
20
70.542457
11
148.875000
21
70.776913
0
LINE
8
Layer 1
10
148.875000
20
70.776913
11
149.515544
21
71.417457
0
LINE
8
Layer 1
10
149.515544
20
71.417457
11
149.750000
21
72.292457
0
LINE
8
Layer 1
10
149.750000
20
72.292457
11
149.515544
21
73.167457
0
LINE
8
Layer 1
10
149.515544
20
73.167457
11
148.875000
21
73.808001
0
LINE
8
Layer 1
10
148.875000
20
73.808001
11
148.000000
21
74.042457
0
LINE
8
Layer 1
10
148.000000
20
74.042457
11
147.125000
21
73.808001
0
LINE
8
Layer 1
10
147.125000
20
73.808001
11
146.484456
21
73.167457
0
LINE
8
Layer 1
10
146.484456
20
73.167457
11
146.250000
21
72.292457
0
LINE
8
Layer 1
10
146.250000
20
72.292457
11
146.250000
21
72.292457
0
LINE
8
Layer 1
10
146.250000
20
88.292457
11
146.484456
21
87.417457
0
LINE
8
Layer 1
10
146.484456
20
87.417457
11
147.125000
21
86.776913
0
LINE
8
Layer 1
10
147.125000
20
86.776913
11
148.000000
21
86.542457
0
LINE
8
Layer 1
10
148.000000
20
86.542457
11
148.875000
21
86.776913
0
LINE
8
Layer 1
10
148.875000
20
86.776913
11
149.515544
21
87.417457
0
LINE
8
Layer 1
10
149.515544
20
87.417457
11
149.750000
21
88.292457
0
LINE
8
Layer 1
10
149.750000
20
88.292457
11
149.515544
21
89.167457
0
LINE
8
Layer 1
10
149.515544
20
89.167457
11
148.875000
21
89.808001
0
LINE
8
Layer 1
10
148.875000
20
89.808001
11
148.000000
21
90.042457
0
LINE
8
Layer 1
10
148.000000
20
90.042457
11
147.125000
21
89.808001
0
LINE
8
Layer 1
10
147.125000
20
89.808001
11
146.484456
21
89.167457
0
LINE
8
Layer 1
10
146.484456
20
89.167457
11
146.250000
21
88.292457
0
LINE
8
Layer 1
10
146.250000
20
88.292457
11
146.250000
21
88.292457
0
LINE
8
Layer 1
10
10.250000
20
88.108374
11
10.484456
21
87.233374
0
LINE
8
Layer 1
10
10.484456
20
87.233374
11
11.125000
21
86.592830
0
LINE
8
Layer 1
10
11.125000
20
86.592830
11
12.000000
21
86.358374
0
LINE
8
Layer 1
10
12.000000
20
86.358374
11
12.875000
21
86.592830
0
LINE
8
Layer 1
10
12.875000
20
86.592830
11
13.515544
21
87.233374
0
LINE
8
Layer 1
10
13.515544
20
87.233374
11
13.750000
21
88.108374
0
LINE
8
Layer 1
10
13.750000
20
88.108374
11
13.515544
21
88.983374
0
LINE
8
Layer 1
10
13.515544
20
88.983374
11
12.875000
21
89.623918
0
LINE
8
Layer 1
10
12.875000
20
89.623918
11
12.000000
21
89.858374
0
LINE
8
Layer 1
10
12.000000
20
89.858374
11
11.125000
21
89.623918
0
LINE
8
Layer 1
10
11.125000
20
89.623918
11
10.484456
21
88.983374
0
LINE
8
Layer 1
10
10.484456
20
88.983374
11
10.250000
21
88.108374
0
LINE
8
Layer 1
10
10.250000
20
88.108374
11
10.250000
21
88.108374
0
LINE
8
Layer 1
10
10.250000
20
72.108374
11
10.484456
21
71.233374
0
LINE
8
Layer 1
10
10.484456
20
71.233374
11
11.125000
21
70.592830
0
LINE
8
Layer 1
10
11.125000
20
70.592830
11
12.000000
21
70.358374
0
LINE
8
Layer 1
10
12.000000
20
70.358374
11
12.875000
21
70.592830
0
LINE
8
Layer 1
10
12.875000
20
70.592830
11
13.515544
21
71.233374
0
LINE
8
Layer 1
10
13.515544
20
71.233374
11
13.750000
21
72.108374
0
LINE
8
Layer 1
10
13.750000
20
72.108374
11
13.515544
21
72.983374
0
LINE
8
Layer 1
10
13.515544
20
72.983374
11
12.875000
21
73.623918
0
LINE
8
Layer 1
10
12.875000
20
73.623918
11
12.000000
21
73.858374
0
LINE
8
Layer 1
10
12.000000
20
73.858374
11
11.125000
21
73.623918
0
LINE
8
Layer 1
10
11.125000
20
73.623918
11
10.484456
21
72.983374
0
LINE
8
Layer 1
10
10.484456
20
72.983374
11
10.250000
21
72.108374
0
LINE
8
Layer 1
10
10.250000
20
72.108374
11
10.250000
21
72.108374
0
LINE
8
Layer 1
10
24.250000
20
88.108374
11
24.484456
21
87.233374
0
LINE
8
Layer 1
10
24.484456
20
87.233374
11
25.125000
21
86.592829
0
LINE
8
Layer 1
10
25.125000
20
86.592829
11
26.000000
21
86.358374
0
LINE
8
Layer 1
10
26.000000
20
86.358374
11
26.875000
21
86.592829
0
LINE
8
Layer 1
10
26.875000
20
86.592829
11
27.515544
21
87.233374
0
LINE
8
Layer 1
10
27.515544
20
87.233374
11
27.750000
21
88.108374
0
LINE
8
Layer 1
10
27.750000
20
88.108374
11
27.515544
21
88.983374
0
LINE
8
Layer 1
10
27.515544
20
88.983374
11
26.875000
21
89.623919
0
LINE
8
Layer 1
10
26.875000
20
89.623919
11
26.000000
21
89.858374
0
LINE
8
Layer 1
10
26.000000
20
89.858374
11
25.125000
21
89.623919
0
LINE
8
Layer 1
10
25.125000
20
89.623919
11
24.484456
21
88.983374
0
LINE
8
Layer 1
10
24.484456
20
88.983374
11
24.250000
21
88.108374
0
LINE
8
Layer 1
10
24.250000
20
88.108374
11
24.250000
21
88.108374
0
LINE
8
Layer 1
10
24.250000
20
72.108374
11
24.484456
21
71.233374
0
LINE
8
Layer 1
10
24.484456
20
71.233374
11
25.125000
21
70.592829
0
LINE
8
Layer 1
10
25.125000
20
70.592829
11
26.000000
21
70.358374
0
LINE
8
Layer 1
10
26.000000
20
70.358374
11
26.875000
21
70.592829
0
LINE
8
Layer 1
10
26.875000
20
70.592829
11
27.515544
21
71.233374
0
LINE
8
Layer 1
10
27.515544
20
71.233374
11
27.750000
21
72.108374
0
LINE
8
Layer 1
10
27.750000
20
72.108374
11
27.515544
21
72.983374
0
LINE
8
Layer 1
10
27.515544
20
72.983374
11
26.875000
21
73.623919
0
LINE
8
Layer 1
10
26.875000
20
73.623919
11
26.000000
21
73.858374
0
LINE
8
Layer 1
10
26.000000
20
73.858374
11
25.125000
21
73.623919
0
LINE
8
Layer 1
10
25.125000
20
73.623919
11
24.484456
21
72.983374
0
LINE
8
Layer 1
10
24.484456
20
72.983374
11
24.250000
21
72.108374
0
LINE
8
Layer 1
10
24.250000
20
72.108374
11
24.250000
21
72.108374
0
LINE
8
Layer 1
10
23.500000
20
113.500414
11
23.700962
21
112.750414
0
LINE
8
Layer 1
10
23.700962
20
112.750414
11
24.250000
21
112.201376
0
LINE
8
Layer 1
10
24.250000
20
112.201376
11
25.000000
21
112.000414
0
LINE
8
Layer 1
10
25.000000
20
112.000414
11
25.750000
21
112.201376
0
LINE
8
Layer 1
10
25.750000
20
112.201376
11
26.299038
21
112.750414
0
LINE
8
Layer 1
10
26.299038
20
112.750414
11
26.500000
21
113.500414
0
LINE
8
Layer 1
10
26.500000
20
113.500414
11
26.299038
21
114.250414
0
LINE
8
Layer 1
10
26.299038
20
114.250414
11
25.750000
21
114.799452
0
LINE
8
Layer 1
10
25.750000
20
114.799452
11
25.000000
21
115.000414
0
LINE
8
Layer 1
10
25.000000
20
115.000414
11
24.250000
21
114.799452
0
LINE
8
Layer 1
10
24.250000
20
114.799452
11
23.700962
21
114.250414
0
LINE
8
Layer 1
10
23.700962
20
114.250414
11
23.500000
21
113.500414
0
LINE
8
Layer 1
10
23.500000
20
113.500414
11
23.500000
21
113.500414
0
LINE
8
Layer 1
10
23.500000
20
46.500416
11
23.700962
21
45.750416
0
LINE
8
Layer 1
10
23.700962
20
45.750416
11
24.250000
21
45.201378
0
LINE
8
Layer 1
10
24.250000
20
45.201378
11
25.000000
21
45.000416
0
LINE
8
Layer 1
10
25.000000
20
45.000416
11
25.750000
21
45.201378
0
LINE
8
Layer 1
10
25.750000
20
45.201378
11
26.299038
21
45.750416
0
LINE
8
Layer 1
10
26.299038
20
45.750416
11
26.500000
21
46.500416
0
LINE
8
Layer 1
10
26.500000
20
46.500416
11
26.299038
21
47.250416
0
LINE
8
Layer 1
10
26.299038
20
47.250416
11
25.750000
21
47.799454
0
LINE
8
Layer 1
10
25.750000
20
47.799454
11
25.000000
21
48.000416
0
LINE
8
Layer 1
10
25.000000
20
48.000416
11
24.250000
21
47.799454
0
LINE
8
Layer 1
10
24.250000
20
47.799454
11
23.700962
21
47.250416
0
LINE
8
Layer 1
10
23.700962
20
47.250416
11
23.500000
21
46.500416
0
LINE
8
Layer 1
10
23.500000
20
46.500416
11
23.500000
21
46.500416
0
LINE
8
Layer 1
10
133.500000
20
113.500414
11
133.700962
21
112.750414
0
LINE
8
Layer 1
10
133.700962
20
112.750414
11
134.250000
21
112.201376
0
LINE
8
Layer 1
10
134.250000
20
112.201376
11
135.000000
21
112.000414
0
LINE
8
Layer 1
10
135.000000
20
112.000414
11
135.750000
21
112.201376
0
LINE
8
Layer 1
10
135.750000
20
112.201376
11
136.299038
21
112.750414
0
LINE
8
Layer 1
10
136.299038
20
112.750414
11
136.500000
21
113.500414
0
LINE
8
Layer 1
10
136.500000
20
113.500414
11
136.299038
21
114.250414
0
LINE
8
Layer 1
10
136.299038
20
114.250414
11
135.750000
21
114.799452
0
LINE
8
Layer 1
10
135.750000
20
114.799452
11
135.000000
21
115.000414
0
LINE
8
Layer 1
10
135.000000
20
115.000414
11
134.250000
21
114.799452
0
LINE
8
Layer 1
10
134.250000
20
114.799452
11
133.700962
21
114.250414
0
LINE
8
Layer 1
10
133.700962
20
114.250414
11
133.500000
21
113.500414
0
LINE
8
Layer 1
10
133.500000
20
113.500414
11
133.500000
21
113.500414
0
LINE
8
Layer 1
10
133.500000
20
46.500416
11
133.700962
21
45.750416
0
LINE
8
Layer 1
10
133.700962
20
45.750416
11
134.250000
21
45.201378
0
LINE
8
Layer 1
10
134.250000
20
45.201378
11
135.000000
21
45.000416
0
LINE
8
Layer 1
10
135.000000
20
45.000416
11
135.750000
21
45.201378
0
LINE
8
Layer 1
10
135.750000
20
45.201378
11
136.299038
21
45.750416
0
LINE
8
Layer 1
10
136.299038
20
45.750416
11
136.500000
21
46.500416
0
LINE
8
Layer 1
10
136.500000
20
46.500416
11
136.299038
21
47.250416
0
LINE
8
Layer 1
10
136.299038
20
47.250416
11
135.750000
21
47.799454
0
LINE
8
Layer 1
10
135.750000
20
47.799454
11
135.000000
21
48.000416
0
LINE
8
Layer 1
10
135.000000
20
48.000416
11
134.250000
21
47.799454
0
LINE
8
Layer 1
10
134.250000
20
47.799454
11
133.700962
21
47.250416
0
LINE
8
Layer 1
10
133.700962
20
47.250416
11
133.500000
21
46.500416
0
LINE
8
Layer 1
10
133.500000
20
46.500416
11
133.500000
21
46.500416
0
LINE
8
Layer 1
10
60.350000
20
84.450415
11
60.564359
21
83.650415
0
LINE
8
Layer 1
10
60.564359
20
83.650415
11
61.150000
21
83.064774
0
LINE
8
Layer 1
10
61.150000
20
83.064774
11
61.950000
21
82.850415
0
LINE
8
Layer 1
10
61.950000
20
82.850415
11
62.750000
21
83.064774
0
LINE
8
Layer 1
10
62.750000
20
83.064774
11
63.335641
21
83.650415
0
LINE
8
Layer 1
10
63.335641
20
83.650415
11
63.550000
21
84.450415
0
LINE
8
Layer 1
10
63.550000
20
84.450415
11
63.335641
21
85.250415
0
LINE
8
Layer 1
10
63.335641
20
85.250415
11
62.750000
21
85.836056
0
LINE
8
Layer 1
10
62.750000
20
85.836056
11
61.950000
21
86.050415
0
LINE
8
Layer 1
10
61.950000
20
86.050415
11
61.150000
21
85.836056
0
LINE
8
Layer 1
10
61.150000
20
85.836056
11
60.564359
21
85.250415
0
LINE
8
Layer 1
10
60.564359
20
85.250415
11
60.350000
21
84.450415
0
LINE
8
Layer 1
10
60.350000
20
84.450415
11
60.350000
21
84.450415
0
LINE
8
Layer 1
10
96.700000
20
84.450434
11
96.914359
21
83.650434
0
LINE
8
Layer 1
10
96.914359
20
83.650434
11
97.500000
21
83.064793
0
LINE
8
Layer 1
10
97.500000
20
83.064793
11
98.300000
21
82.850434
0
LINE
8
Layer 1
10
98.300000
20
82.850434
11
99.100000
21
83.064793
0
LINE
8
Layer 1
10
99.100000
20
83.064793
11
99.685641
21
83.650434
0
LINE
8
Layer 1
10
99.685641
20
83.650434
11
99.900000
21
84.450434
0
LINE
8
Layer 1
10
99.900000
20
84.450434
11
99.685641
21
85.250434
0
LINE
8
Layer 1
10
99.685641
20
85.250434
11
99.100000
21
85.836075
0
LINE
8
Layer 1
10
99.100000
20
85.836075
11
98.300000
21
86.050434
0
LINE
8
Layer 1
10
98.300000
20
86.050434
11
97.500000
21
85.836075
0
LINE
8
Layer 1
10
97.500000
20
85.836075
11
96.914359
21
85.250434
0
LINE
8
Layer 1
10
96.914359
20
85.250434
11
96.700000
21
84.450434
0
LINE
8
Layer 1
10
96.700000
20
84.450434
11
96.700000
21
84.450434
0
LINE
8
Layer 1
10
59.499999
20
90.000415
11
59.499999
21
82.000415
0
LINE
8
Layer 1
10
59.499999
20
82.000415
11
60.731138
21
81.624305
0
LINE
8
Layer 1
10
60.731138
20
81.624305
11
61.999999
21
81.498934
0
LINE
8
Layer 1
10
61.999999
20
81.498934
11
63.268860
21
81.624305
0
LINE
8
Layer 1
10
63.268860
20
81.624305
11
64.499999
21
82.000415
0
LINE
8
Layer 1
10
64.499999
20
82.000415
11
64.499999
21
90.000415
0
LINE
8
Layer 1
10
64.499999
20
90.000415
11
95.500000
21
90.000415
0
LINE
8
Layer 1
10
95.500000
20
90.000415
11
95.500000
21
82.000415
0
LINE
8
Layer 1
10
95.500000
20
82.000415
11
96.857576
21
81.621273
0
LINE
8
Layer 1
10
96.857576
20
81.621273
11
98.250000
21
81.494892
0
LINE
8
Layer 1
10
98.250000
20
81.494892
11
99.642424
21
81.621273
0
LINE
8
Layer 1
10
99.642424
20
81.621273
11
101.000000
21
82.000415
0
LINE
8
Layer 1
10
101.000000
20
82.000415
11
101.000000
21
90.000415
0
LINE
8
Layer 1
10
101.000000
20
90.000415
11
115.000000
21
90.000415
0
LINE
8
Layer 1
10
115.000000
20
90.000415
11
115.000000
21
70.000415
0
LINE
8
Layer 1
10
115.000000
20
70.000415
11
44.999999
21
70.000415
0
LINE
8
Layer 1
10
44.999999
20
70.000415
11
44.999999
21
90.000415
0
LINE
8
Layer 1
10
44.999999
20
90.000415
11
59.499999
21
90.000415
0
LINE
8
Layer 1
10
59.499999
20
90.000415
11
59.499999
21
90.000415
 0 
ENDSEC
 0 
EOF