<?xml version="1.0" encoding="utf-8"?>
<!-- Generator: Fusion 360, Shaper Origin Export Add-In, Version 1.7.0  -->
<svg xmlns="http://www.w3.org/2000/svg" xmlns:xlink="http://www.w3.org/1999/xlink" xmlns:shaper="http://www.shapertools.com/namespaces/shaper" shaper:fusionaddin="version:1.7.0" width="16cm" height="16cm" version="1.1" x="0cm" y="0cm" viewBox="0 0 16 16" enable-background="new 0 0 16 16" xml:space="preserve"><path d="M8,-5.3650334 L8,-2.0644324 A8.2143705,8.2143705 13.1186117 0,1 -8,-2.0644814 L-8,-5.3644858 A8.2144585,8.2144585 193.1191073 0,1 8,-5.3650334z" transform="matrix(1,0,0,-1,8,4.2855415)" fill="rgb(0,0,0)" shaper:cutDepth="0.3cm" stroke-linecap="round" stroke-linejoin="round" /><path d="M5.6,-3.6844585 a0.5,0.5 0 1,1 1,0 a0.5,0.5 0 1,1 -1,0z" transform="matrix(1,0,0,-1,8,4.2855415)" fill="rgb(255,255,255)" stroke="rgb(0,0,0)" stroke-width="0.0010cm" stroke-linecap="round" stroke-linejoin="round" shaper:cutDepth="0.3cm" /><path d="M-6.6,-3.7044585 a0.5,0.5 0 1,1 1,0 a0.5,0.5 0 1,1 -1,0z" transform="matrix(1,0,0,-1,8,4.2855415)" fill="rgb(255,255,255)" stroke="rgb(0,0,0)" stroke-width="0.0010cm" stroke-linecap="round" stroke-linejoin="round" shaper:cutDepth="0.3cm" /><path d="M5.225,-4.4852543 a0.175,0.175 0 1,1 0.35,0 a0.175,0.175 0 1,1 -0.35,0z" transform="matrix(1,0,0,-1,8,4.2855415)" fill="rgb(255,255,255)" stroke="rgb(0,0,0)" stroke-width="0.0010cm" stroke-linecap="round" stroke-linejoin="round" shaper:cutDepth="0.3cm" /><path d="M5.225,-2.8852543 a0.175,0.175 0 1,1 0.35,0 a0.175,0.175 0 1,1 -0.35,0z" transform="matrix(1,0,0,-1,8,4.2855415)" fill="rgb(255,255,255)" stroke="rgb(0,0,0)" stroke-width="0.0010cm" stroke-linecap="round" stroke-linejoin="round" shaper:cutDepth="0.3cm" /><path d="M6.625,-4.4852543 a0.175,0.175 0 1,1 0.35,0 a0.175,0.175 0 1,1 -0.35,0z" transform="matrix(1,0,0,-1,8,4.2855415)" fill="rgb(255,255,255)" stroke="rgb(0,0,0)" stroke-width="0.0010cm" stroke-linecap="round" stroke-linejoin="round" shaper:cutDepth="0.3cm" /><path d="M6.625,-2.8852543 a0.175,0.175 0 1,1 0.35,0 a0.175,0.175 0 1,1 -0.35,0z" transform="matrix(1,0,0,-1,8,4.2855415)" fill="rgb(255,255,255)" stroke="rgb(0,0,0)" stroke-width="0.0010cm" stroke-linecap="round" stroke-linejoin="round" shaper:cutDepth="0.3cm" /><path d="M-6.975,-2.9036626 a0.175,0.175 0 1,1 0.35,0 a0.175,0.175 0 1,1 -0.35,0z" transform="matrix(1,0,0,-1,8,4.2855415)" fill="rgb(255,255,255)" stroke="rgb(0,0,0)" stroke-width="0.0010cm" stroke-linecap="round" stroke-linejoin="round" shaper:cutDepth="0.3cm" /><path d="M-6.975,-4.5036626 a0.175,0.175 0 1,1 0.35,0 a0.175,0.175 0 1,1 -0.35,0z" transform="matrix(1,0,0,-1,8,4.2855415)" fill="rgb(255,255,255)" stroke="rgb(0,0,0)" stroke-width="0.0010cm" stroke-linecap="round" stroke-linejoin="round" shaper:cutDepth="0.3cm" /><path d="M-5.575,-2.9036626 a0.175,0.175 0 1,1 0.35,0 a0.175,0.175 0 1,1 -0.35,0z" transform="matrix(1,0,0,-1,8,4.2855415)" fill="rgb(255,255,255)" stroke="rgb(0,0,0)" stroke-width="0.0010cm" stroke-linecap="round" stroke-linejoin="round" shaper:cutDepth="0.3cm" /><path d="M-5.575,-4.5036626 a0.175,0.175 0 1,1 0.35,0 a0.175,0.175 0 1,1 -0.35,0z" transform="matrix(1,0,0,-1,8,4.2855415)" fill="rgb(255,255,255)" stroke="rgb(0,0,0)" stroke-width="0.0010cm" stroke-linecap="round" stroke-linejoin="round" shaper:cutDepth="0.3cm" /><path d="M-5.65,-0.3644586 a0.15,0.15 0 1,1 0.3,0 a0.15,0.15 0 1,1 -0.3,0z" transform="matrix(1,0,0,-1,8,4.2855415)" fill="rgb(255,255,255)" stroke="rgb(0,0,0)" stroke-width="0.0010cm" stroke-linecap="round" stroke-linejoin="round" shaper:cutDepth="0.3cm" /><path d="M-5.65,-7.0644584 a0.15,0.15 0 1,1 0.3,0 a0.15,0.15 0 1,1 -0.3,0z" transform="matrix(1,0,0,-1,8,4.2855415)" fill="rgb(255,255,255)" stroke="rgb(0,0,0)" stroke-width="0.0010cm" stroke-linecap="round" stroke-linejoin="round" shaper:cutDepth="0.3cm" /><path d="M5.35,-0.3644586 a0.15,0.15 0 1,1 0.3,0 a0.15,0.15 0 1,1 -0.3,0z" transform="matrix(1,0,0,-1,8,4.2855415)" fill="rgb(255,255,255)" stroke="rgb(0,0,0)" stroke-width="0.0010cm" stroke-linecap="round" stroke-linejoin="round" shaper:cutDepth="0.3cm" /><path d="M5.35,-7.0644584 a0.15,0.15 0 1,1 0.3,0 a0.15,0.15 0 1,1 -0.3,0z" transform="matrix(1,0,0,-1,8,4.2855415)" fill="rgb(255,255,255)" stroke="rgb(0,0,0)" stroke-width="0.0010cm" stroke-linecap="round" stroke-linejoin="round" shaper:cutDepth="0.3cm" /><path d="M-1.965,-3.2694585 a0.16,0.16 0 1,1 0.32,0 a0.16,0.16 0 1,1 -0.32,0z" transform="matrix(1,0,0,-1,8,4.2855415)" fill="rgb(255,255,255)" stroke="rgb(0,0,0)" stroke-width="0.0010cm" stroke-linecap="round" stroke-linejoin="round" shaper:cutDepth="0.3cm" /><path d="M1.67,-3.2694566 a0.16,0.16 0 1,1 0.32,0 a0.16,0.16 0 1,1 -0.32,0z" transform="matrix(1,0,0,-1,8,4.2855415)" fill="rgb(255,255,255)" stroke="rgb(0,0,0)" stroke-width="0.0010cm" stroke-linecap="round" stroke-linejoin="round" shaper:cutDepth="0.3cm" /><path d="M-2.0500001,-2.7144585 L-2.0500001,-3.5144585 A0.6482287,0.6482287 247.3148856 0,1 -1.5500001,-3.5144585 L-1.5500001,-2.7144585 1.55,-2.7144585 1.55,-3.5144585 A0.7732638,0.7732638 249.1676085 0,1 2.1,-3.5144585 L2.1,-2.7144585 3.5,-2.7144585 3.5,-4.7144585 -3.5000001,-4.7144585 -3.5000001,-2.7144585 -2.0500001,-2.7144585z" transform="matrix(1,0,0,-1,8,4.2855415)" fill="rgb(255,255,255)" stroke="rgb(0,0,0)" stroke-width="0.0010cm" stroke-linecap="round" stroke-linejoin="round" shaper:cutDepth="0.3cm" /></svg>